M48
;Layer_Color=9474304
;FILE_FORMAT=4:4
METRIC,LZ
;TYPE=PLATED
T01F00S00C0.3000
T02F00S00C0.7000
T03F00S00C0.7112
T05F00S00C1.0000
T06F00S00C1.0500
T07F00S00C1.2500
T08F00S00C1.2954
T09F00S00C3.2000
;TYPE=NON_PLATED
T10F00S00C1.2000
%
T01
X-00087884Y00158496
X-00094234Y00251206
X-00044704Y00247396
X-0002667Y0021971
X0016256Y0038862
X00101346Y00364236
Y00318008
X00119126Y00308356
X00102616Y00270256
X00078486Y00272796
X00049668Y00362703
X00047568Y00387458
X00036576Y00414353
X0000889Y00378223
X-00007874Y00356616
X-00001524Y00343916
X-00035814Y00361894
X-00053594Y00359036
X-00081534Y00354076
X-00091694Y00322326
X-00082804Y00436626
X-00029464Y00446786
X00098806Y00423926
T02
X-00183164Y00202946
X-00206024Y00243586
X-00129764
X-00106904Y00202946
T03
X-00066294Y00211836
Y00261366
X-00049486Y00321354
X-00040894Y00341376
X00017115Y00362107
X00004826Y00403606
X00083566Y00509016
X-00106934Y00500126
T05
X-00193334Y00276606
X-00170434
X-00147534
T06
X-00015094Y00112776
X00009906
X00220726Y00259226
Y00284226
X00155556Y00427736
X00130556
X-00127454Y00431376
X-00152454
X-00006404Y00263736
X00018596
T07
X-00169204Y00169646
X-00146304
X-00123404
T08
X-00036322Y00496316
X-0000127
X00033782
T09
X-00195Y0011
X00195
Y0037
X-00195
T10
X-00048984Y-00023984
Y00001016
X00001016Y00051016
X00051016Y00001016
Y-00023984
M30
