G04*
G04 #@! TF.GenerationSoftware,Altium Limited,Altium Designer,25.4.2 (15)*
G04*
G04 Layer_Color=8388736*
%FSLAX44Y44*%
%MOMM*%
G71*
G04*
G04 #@! TF.SameCoordinates,5F7C4320-E98A-453F-BBD9-352C29D146EE*
G04*
G04*
G04 #@! TF.FilePolarity,Negative*
G04*
G01*
G75*
%ADD15C,0.3810*%
%ADD22R,1.2000X1.2000*%
%ADD23R,0.9061X1.3098*%
%ADD24C,0.2540*%
%ADD31R,1.1000X2.0500*%
%ADD32R,1.5562X1.4546*%
%ADD37R,1.0000X0.6600*%
%ADD38R,0.9500X1.4000*%
%ADD40C,1.5240*%
G04:AMPARAMS|DCode=41|XSize=1.254mm|YSize=1.584mm|CornerRadius=0.2333mm|HoleSize=0mm|Usage=FLASHONLY|Rotation=0.000|XOffset=0mm|YOffset=0mm|HoleType=Round|Shape=RoundedRectangle|*
%AMROUNDEDRECTD41*
21,1,1.2540,1.1175,0,0,0.0*
21,1,0.7875,1.5840,0,0,0.0*
1,1,0.4665,0.3938,-0.5587*
1,1,0.4665,-0.3938,-0.5587*
1,1,0.4665,-0.3938,0.5587*
1,1,0.4665,0.3938,0.5587*
%
%ADD41ROUNDEDRECTD41*%
%ADD42R,1.6500X1.7500*%
%ADD43R,1.3500X1.3500*%
%ADD44R,1.6000X0.3500*%
%ADD45R,1.6000X1.3000*%
%ADD46R,1.6000X1.3500*%
%ADD47R,1.3000X1.6000*%
%ADD48R,1.0000X1.4500*%
%ADD49R,1.4500X1.0000*%
%ADD50R,1.7000X1.5000*%
%ADD51R,1.5000X1.1500*%
%ADD52R,1.5300X1.0700*%
G04:AMPARAMS|DCode=53|XSize=1.254mm|YSize=1.584mm|CornerRadius=0.2333mm|HoleSize=0mm|Usage=FLASHONLY|Rotation=270.000|XOffset=0mm|YOffset=0mm|HoleType=Round|Shape=RoundedRectangle|*
%AMROUNDEDRECTD53*
21,1,1.2540,1.1175,0,0,270.0*
21,1,0.7875,1.5840,0,0,270.0*
1,1,0.4665,-0.5587,-0.3938*
1,1,0.4665,-0.5587,0.3938*
1,1,0.4665,0.5587,0.3938*
1,1,0.4665,0.5587,-0.3938*
%
%ADD53ROUNDEDRECTD53*%
G04:AMPARAMS|DCode=54|XSize=0.75mm|YSize=1.15mm|CornerRadius=0.126mm|HoleSize=0mm|Usage=FLASHONLY|Rotation=90.000|XOffset=0mm|YOffset=0mm|HoleType=Round|Shape=RoundedRectangle|*
%AMROUNDEDRECTD54*
21,1,0.7500,0.8980,0,0,90.0*
21,1,0.4980,1.1500,0,0,90.0*
1,1,0.2520,0.4490,0.2490*
1,1,0.2520,0.4490,-0.2490*
1,1,0.2520,-0.4490,-0.2490*
1,1,0.2520,-0.4490,0.2490*
%
%ADD54ROUNDEDRECTD54*%
%ADD55R,1.5700X1.1500*%
%ADD56C,1.7250*%
%ADD57R,1.7250X1.7250*%
%ADD58C,1.9000*%
%ADD59R,1.9000X1.9000*%
%ADD60C,1.2000*%
%ADD61C,1.9534*%
%ADD62R,1.7250X1.7250*%
%ADD63C,1.7500*%
%ADD64R,1.7500X1.7500*%
%ADD65O,2.7660X1.4580*%
%ADD66O,1.4580X2.7660*%
%ADD67C,1.3500*%
%ADD68C,0.7500*%
%ADD69C,3.5500*%
%ADD70C,1.4200*%
D15*
X103886Y46736D02*
Y53086D01*
X83566Y46736D02*
Y53086D01*
X-99314Y45466D02*
Y51816D01*
X-78994Y45466D02*
Y51816D01*
D22*
X-129764Y243586D02*
D03*
X-183164Y202946D02*
D03*
D23*
X163971Y369570D02*
D03*
X148449D02*
D03*
X173849Y336550D02*
D03*
X189371D02*
D03*
D24*
X93726Y39116D02*
D03*
Y60706D02*
D03*
X-89154Y59436D02*
D03*
Y37846D02*
D03*
D31*
X173726Y285496D02*
D03*
X140726D02*
D03*
X21580Y219710D02*
D03*
X-11420D02*
D03*
D32*
X-122174Y335928D02*
D03*
Y354444D02*
D03*
D37*
X62426Y420776D02*
D03*
Y430276D02*
D03*
Y439776D02*
D03*
X36126D02*
D03*
Y420776D02*
D03*
D38*
X91546Y462026D02*
D03*
X73046D02*
D03*
D40*
X98044Y53086D02*
G03*
X98044Y53086I-4318J0D01*
G01*
Y46736D02*
G03*
X98044Y46736I-4318J0D01*
G01*
X-84836Y45466D02*
G03*
X-84836Y45466I-4318J0D01*
G01*
Y51816D02*
G03*
X-84836Y51816I-4318J0D01*
G01*
D41*
X69016Y240201D02*
D03*
X86776D02*
D03*
X69016Y222421D02*
D03*
X86776D02*
D03*
D42*
X152930Y233680D02*
D03*
D43*
X120430Y223680D02*
D03*
Y243680D02*
D03*
D44*
X-19364Y343466D02*
D03*
Y349966D02*
D03*
Y356466D02*
D03*
Y375966D02*
D03*
Y362966D02*
D03*
Y369466D02*
D03*
Y382466D02*
D03*
X36636Y343466D02*
D03*
Y349966D02*
D03*
Y356466D02*
D03*
Y362966D02*
D03*
Y382466D02*
D03*
Y369466D02*
D03*
Y375966D02*
D03*
D45*
X-103124Y264046D02*
D03*
Y281546D02*
D03*
D46*
X61976Y323596D02*
D03*
Y343596D02*
D03*
X60706Y372016D02*
D03*
Y392016D02*
D03*
D47*
X120256Y286766D02*
D03*
X102756D02*
D03*
D48*
X7856Y324866D02*
D03*
X-9144D02*
D03*
X78486Y288036D02*
D03*
X61486D02*
D03*
D49*
X84836Y390516D02*
D03*
Y373516D02*
D03*
D50*
X-73914Y157636D02*
D03*
Y177136D02*
D03*
X-230124Y265586D02*
D03*
Y285086D02*
D03*
D51*
X-67564Y304546D02*
D03*
Y319546D02*
D03*
Y354196D02*
D03*
Y369196D02*
D03*
D52*
X13716Y436676D02*
D03*
Y417576D02*
D03*
X-68834Y436676D02*
D03*
Y417576D02*
D03*
D53*
X86106Y421386D02*
D03*
Y439146D02*
D03*
X-48514Y434086D02*
D03*
Y416326D02*
D03*
D54*
X-29244Y437236D02*
D03*
Y427736D02*
D03*
Y418236D02*
D03*
X-1744D02*
D03*
Y437236D02*
D03*
D55*
X-95504Y334566D02*
D03*
Y353266D02*
D03*
X-87884Y101806D02*
D03*
Y83106D02*
D03*
D56*
X-6404Y263736D02*
D03*
X-152454Y431376D02*
D03*
X220726Y259226D02*
D03*
X130556Y427736D02*
D03*
X9906Y112776D02*
D03*
D57*
X18596Y263736D02*
D03*
X-127454Y431376D02*
D03*
X155556Y427736D02*
D03*
X-15094Y112776D02*
D03*
D58*
X-146304Y169646D02*
D03*
X-123404D02*
D03*
D59*
X-169204D02*
D03*
D60*
X-206024Y243586D02*
D03*
X-106904Y202946D02*
D03*
D61*
X-36322Y496316D02*
D03*
X-1270D02*
D03*
X33782D02*
D03*
D62*
X220726Y284226D02*
D03*
D63*
X-147534Y276606D02*
D03*
X-170434D02*
D03*
D64*
X-193334D02*
D03*
D65*
X1016Y1016D02*
D03*
D66*
X51016Y51016D02*
D03*
X-48984D02*
D03*
D67*
Y-23984D02*
D03*
Y1016D02*
D03*
X1016Y51016D02*
D03*
X51016Y-23984D02*
D03*
Y1016D02*
D03*
D68*
X-26670Y219710D02*
D03*
X162560Y388620D02*
D03*
X8890Y378223D02*
D03*
X36576Y414353D02*
D03*
X119126Y308356D02*
D03*
X-44704Y247396D02*
D03*
X-94234Y251206D02*
D03*
X-81534Y354076D02*
D03*
X-35814Y361894D02*
D03*
X-91694Y322326D02*
D03*
X102616Y270256D02*
D03*
X101346Y318008D02*
D03*
X98806Y423926D02*
D03*
X-82804Y436626D02*
D03*
X-29464Y446786D02*
D03*
X47568Y387458D02*
D03*
X-87884Y158496D02*
D03*
X-7874Y356616D02*
D03*
X-53594Y359036D02*
D03*
X-1524Y343916D02*
D03*
X49668Y362703D02*
D03*
X101346Y364236D02*
D03*
X78486Y272796D02*
D03*
D69*
X195000Y370000D02*
D03*
X-195000Y110000D02*
D03*
Y370000D02*
D03*
X195000Y110000D02*
D03*
D70*
X-106934Y500126D02*
D03*
X83566Y509016D02*
D03*
X17115Y362107D02*
D03*
X-49486Y321354D02*
D03*
X-66294Y211836D02*
D03*
Y261366D02*
D03*
X4826Y403606D02*
D03*
X-40894Y341376D02*
D03*
M02*
