M48
;Layer_Color=9474304
;FILE_FORMAT=4:4
METRIC,LZ
;TYPE=PLATED
T01F00S00C0.3000
T02F00S00C0.7000
T03F00S00C0.7112
T05F00S00C1.0000
T06F00S00C1.0500
T07F00S00C1.2500
T08F00S00C1.2954
T09F00S00C3.2000
;TYPE=NON_PLATED
T10F00S00C1.2000
%
T01
X-000889Y0015748
X-0009525Y0025019
X-0004572Y0024638
X-00027686Y00218694
X001524Y0039624
X0009779Y0042291
X0010033Y0036322
Y00316992
X0011811Y0030734
X001016Y0026924
X0007747Y0027178
X00048652Y00361687
X00047408Y0038862
X0003556Y00413337
X00007874Y00377207
X-0000889Y003556
X-0000254Y0034544
X-0003683Y00360878
X-0005461Y0035802
X-0008255Y0035306
X-0009271Y0032131
X-0008382Y0043561
X-0003751Y0044472
T02
X-0018418Y0020193
X-0020704Y0024257
X-0013078
X-0010792Y0020193
T03
X-0006731Y0021082
Y0026035
X-00050502Y00320338
X-0004191Y0034036
X00016099Y00361091
X0000381Y0040259
X0008255Y00508
X-0010795Y0049911
T05
X-0019435Y0027559
X-0017145
X-0014855
T06
X-0001504Y0011574
X0000996
X0021971Y0025821
Y0028321
X0015454Y0042672
X0012954
X-0012847Y0043036
X-0015347
X-0000742Y0026272
X0001758
T07
X-0017022Y0016863
X-0014732
X-0012442
T08
X-00037338Y004953
X-00002286
X00032766
T09
X-00195Y0011
X00195
Y0037
X-00195Y00368984
T10
X-0005Y-00025
Y0
X0005
Y-00025
X0Y0005
M30
