G04*
G04 #@! TF.GenerationSoftware,Altium Limited,Altium Designer,25.4.2 (15)*
G04*
G04 Layer_Color=16711935*
%FSLAX44Y44*%
%MOMM*%
G71*
G04*
G04 #@! TF.SameCoordinates,EFA8AECF-6775-45FA-9087-7286BAC92A8B*
G04*
G04*
G04 #@! TF.FilePolarity,Negative*
G04*
G01*
G75*
%ADD38R,1.2000X1.2000*%
%ADD56R,1.7500X1.7500*%
%ADD57C,1.7500*%
%ADD58C,1.2000*%
%ADD59R,1.9000X1.9000*%
%ADD60C,1.9000*%
%ADD61C,1.7250*%
%ADD62R,1.7250X1.7250*%
%ADD63C,1.9534*%
%ADD64C,1.3500*%
%ADD65O,1.4580X2.7660*%
%ADD66O,2.7660X1.4580*%
%ADD67R,1.7250X1.7250*%
%ADD68C,3.5500*%
%ADD69C,0.7500*%
%ADD70C,1.4200*%
D38*
X-130780Y242570D02*
D03*
X-184180Y201930D02*
D03*
D56*
X-194350Y275590D02*
D03*
D57*
X-171450D02*
D03*
X-148550D02*
D03*
D58*
X-207040Y242570D02*
D03*
X-107920Y201930D02*
D03*
D59*
X-170220Y168630D02*
D03*
D60*
X-124420D02*
D03*
X-147320D02*
D03*
D61*
X-153470Y430360D02*
D03*
X9960Y115740D02*
D03*
X-7420Y262720D02*
D03*
X129540Y426720D02*
D03*
X219710Y258210D02*
D03*
D62*
X-128470Y430360D02*
D03*
X-15040Y115740D02*
D03*
X17580Y262720D02*
D03*
X154540Y426720D02*
D03*
D63*
X32766Y495300D02*
D03*
X-2286D02*
D03*
X-37338D02*
D03*
D64*
X50000Y0D02*
D03*
Y-25000D02*
D03*
X0Y50000D02*
D03*
X-50000Y0D02*
D03*
Y-25000D02*
D03*
D65*
Y50000D02*
D03*
X50000D02*
D03*
D66*
X0Y0D02*
D03*
D67*
X219710Y283210D02*
D03*
D68*
X-195000Y368984D02*
D03*
X195000Y370000D02*
D03*
X-195000Y110000D02*
D03*
X195000D02*
D03*
D69*
X152400Y396240D02*
D03*
X-2540Y345440D02*
D03*
X47408Y388620D02*
D03*
X-37510Y444720D02*
D03*
X-27686Y218694D02*
D03*
X7874Y377207D02*
D03*
X35560Y413337D02*
D03*
X118110Y307340D02*
D03*
X-45720Y246380D02*
D03*
X-95250Y250190D02*
D03*
X-82550Y353060D02*
D03*
X-36830Y360878D02*
D03*
X-92710Y321310D02*
D03*
X101600Y269240D02*
D03*
X100330Y316992D02*
D03*
X97790Y422910D02*
D03*
X-83820Y435610D02*
D03*
X-88900Y157480D02*
D03*
X-8890Y355600D02*
D03*
X-54610Y358020D02*
D03*
X48652Y361687D02*
D03*
X100330Y363220D02*
D03*
X77470Y271780D02*
D03*
D70*
X-107950Y499110D02*
D03*
X82550Y508000D02*
D03*
X16099Y361091D02*
D03*
X-50502Y320338D02*
D03*
X-67310Y210820D02*
D03*
Y260350D02*
D03*
X3810Y402590D02*
D03*
X-41910Y340360D02*
D03*
M02*
