G04*
G04 #@! TF.GenerationSoftware,Altium Limited,Altium Designer,25.4.2 (15)*
G04*
G04 Layer_Color=8421504*
%FSLAX44Y44*%
%MOMM*%
G71*
G04*
G04 #@! TF.SameCoordinates,EFA8AECF-6775-45FA-9087-7286BAC92A8B*
G04*
G04*
G04 #@! TF.FilePolarity,Positive*
G04*
G01*
G75*
%ADD18R,1.5500X0.3000*%
%ADD19R,1.5500X0.3000*%
%ADD20R,1.5500X1.3500*%
%ADD21R,1.5562X1.4546*%
%ADD22R,1.4500X1.1500*%
%ADD23R,1.4200X1.0000*%
%ADD24C,0.2540*%
%ADD25R,1.3800X0.9200*%
%ADD26R,1.3500X1.0000*%
G04:AMPARAMS|DCode=27|XSize=1.05mm|YSize=1.38mm|CornerRadius=0.1313mm|HoleSize=0mm|Usage=FLASHONLY|Rotation=270.000|XOffset=0mm|YOffset=0mm|HoleType=Round|Shape=RoundedRectangle|*
%AMROUNDEDRECTD27*
21,1,1.0500,1.1175,0,0,270.0*
21,1,0.7875,1.3800,0,0,270.0*
1,1,0.2625,-0.5587,-0.3938*
1,1,0.2625,-0.5587,0.3938*
1,1,0.2625,0.5587,0.3938*
1,1,0.2625,0.5587,-0.3938*
%
%ADD27ROUNDEDRECTD27*%
G04:AMPARAMS|DCode=28|XSize=0.6mm|YSize=1mm|CornerRadius=0.051mm|HoleSize=0mm|Usage=FLASHONLY|Rotation=90.000|XOffset=0mm|YOffset=0mm|HoleType=Round|Shape=RoundedRectangle|*
%AMROUNDEDRECTD28*
21,1,0.6000,0.8980,0,0,90.0*
21,1,0.4980,1.0000,0,0,90.0*
1,1,0.1020,0.4490,0.2490*
1,1,0.1020,0.4490,-0.2490*
1,1,0.1020,-0.4490,-0.2490*
1,1,0.1020,-0.4490,0.2490*
%
%ADD28ROUNDEDRECTD28*%
%ADD29R,1.1000X2.0500*%
%ADD30R,0.8500X1.3000*%
%ADD31R,1.0000X0.6600*%
%ADD32R,1.4500X1.2000*%
G04:AMPARAMS|DCode=33|XSize=1.05mm|YSize=1.38mm|CornerRadius=0.1313mm|HoleSize=0mm|Usage=FLASHONLY|Rotation=0.000|XOffset=0mm|YOffset=0mm|HoleType=Round|Shape=RoundedRectangle|*
%AMROUNDEDRECTD33*
21,1,1.0500,1.1175,0,0,0.0*
21,1,0.7875,1.3800,0,0,0.0*
1,1,0.2625,0.3938,-0.5587*
1,1,0.2625,-0.3938,-0.5587*
1,1,0.2625,-0.3938,0.5587*
1,1,0.2625,0.3938,0.5587*
%
%ADD33ROUNDEDRECTD33*%
%ADD34R,0.9500X1.4000*%
%ADD35R,1.3000X0.8500*%
%ADD36R,1.1500X1.4500*%
%ADD37R,0.9061X1.3098*%
%ADD38R,1.2000X1.2000*%
%ADD39R,1.5000X1.6000*%
D18*
X-20380Y348950D02*
D03*
Y374950D02*
D03*
Y368450D02*
D03*
X35620Y348950D02*
D03*
Y374950D02*
D03*
Y368450D02*
D03*
D19*
X-20380Y342450D02*
D03*
Y355450D02*
D03*
Y361950D02*
D03*
Y381450D02*
D03*
X35620Y355450D02*
D03*
Y342450D02*
D03*
Y381450D02*
D03*
Y361950D02*
D03*
D20*
X-231140Y284070D02*
D03*
Y264570D02*
D03*
X-74930Y176120D02*
D03*
Y156620D02*
D03*
D21*
X-123190Y353428D02*
D03*
Y334912D02*
D03*
D22*
X-104140Y280530D02*
D03*
Y263030D02*
D03*
D23*
X-96520Y352250D02*
D03*
Y333550D02*
D03*
X-88900Y82090D02*
D03*
Y100790D02*
D03*
D24*
X-90170Y36830D02*
D03*
Y58420D02*
D03*
X92710Y59690D02*
D03*
Y38100D02*
D03*
D25*
X-69850Y416560D02*
D03*
Y435660D02*
D03*
X12700Y416560D02*
D03*
Y435660D02*
D03*
D26*
X-68580Y368180D02*
D03*
Y353180D02*
D03*
Y318530D02*
D03*
Y303530D02*
D03*
D27*
X-49530Y415310D02*
D03*
Y433070D02*
D03*
X85090Y438130D02*
D03*
Y420370D02*
D03*
D28*
X-2760Y436220D02*
D03*
Y417220D02*
D03*
X-30260D02*
D03*
Y426720D02*
D03*
Y436220D02*
D03*
D29*
X-12436Y218694D02*
D03*
X20564D02*
D03*
X172710Y284480D02*
D03*
X139710D02*
D03*
D30*
X-10160Y323850D02*
D03*
X6840D02*
D03*
X60470Y287020D02*
D03*
X77470D02*
D03*
D31*
X35110Y419760D02*
D03*
Y438760D02*
D03*
X61410D02*
D03*
Y429260D02*
D03*
Y419760D02*
D03*
D32*
X59690Y391000D02*
D03*
Y371000D02*
D03*
X60960Y342580D02*
D03*
Y322580D02*
D03*
D33*
X85760Y239185D02*
D03*
X68000D02*
D03*
Y221405D02*
D03*
X85760D02*
D03*
D34*
X72030Y461010D02*
D03*
X90530D02*
D03*
D35*
X83820Y372500D02*
D03*
Y389500D02*
D03*
D36*
X101740Y285750D02*
D03*
X119240D02*
D03*
D37*
X188101Y328930D02*
D03*
X172579D02*
D03*
X156351Y372110D02*
D03*
X140829D02*
D03*
D38*
X119414Y242664D02*
D03*
Y222664D02*
D03*
D39*
X151914Y232664D02*
D03*
M02*
