G04*
G04 #@! TF.GenerationSoftware,Altium Limited,Altium Designer,25.4.2 (15)*
G04*
G04 Layer_Color=8421504*
%FSLAX44Y44*%
%MOMM*%
G71*
G04*
G04 #@! TF.SameCoordinates,FCCDDFE3-C2CD-4CD5-A356-5465B3BF4BA8*
G04*
G04*
G04 #@! TF.FilePolarity,Positive*
G04*
G01*
G75*
%ADD18R,1.5500X0.3000*%
%ADD19R,1.5500X0.3000*%
%ADD20R,1.1000X2.0500*%
G04:AMPARAMS|DCode=21|XSize=1.05mm|YSize=1.38mm|CornerRadius=0.1313mm|HoleSize=0mm|Usage=FLASHONLY|Rotation=0.000|XOffset=0mm|YOffset=0mm|HoleType=Round|Shape=RoundedRectangle|*
%AMROUNDEDRECTD21*
21,1,1.0500,1.1175,0,0,0.0*
21,1,0.7875,1.3800,0,0,0.0*
1,1,0.2625,0.3938,-0.5587*
1,1,0.2625,-0.3938,-0.5587*
1,1,0.2625,-0.3938,0.5587*
1,1,0.2625,0.3938,0.5587*
%
%ADD21ROUNDEDRECTD21*%
%ADD22R,1.5000X1.6000*%
%ADD23R,1.2000X1.2000*%
%ADD24R,0.9061X1.3098*%
%ADD25C,0.2540*%
%ADD26R,1.4500X1.1500*%
%ADD27R,1.4500X1.2000*%
%ADD28R,1.1500X1.4500*%
%ADD29R,0.8500X1.3000*%
%ADD30R,1.3000X0.8500*%
%ADD31R,1.5500X1.3500*%
%ADD32R,1.5562X1.4546*%
%ADD33R,1.3500X1.0000*%
%ADD34R,1.3800X0.9200*%
G04:AMPARAMS|DCode=35|XSize=1.05mm|YSize=1.38mm|CornerRadius=0.1313mm|HoleSize=0mm|Usage=FLASHONLY|Rotation=270.000|XOffset=0mm|YOffset=0mm|HoleType=Round|Shape=RoundedRectangle|*
%AMROUNDEDRECTD35*
21,1,1.0500,1.1175,0,0,270.0*
21,1,0.7875,1.3800,0,0,270.0*
1,1,0.2625,-0.5587,-0.3938*
1,1,0.2625,-0.5587,0.3938*
1,1,0.2625,0.5587,0.3938*
1,1,0.2625,0.5587,-0.3938*
%
%ADD35ROUNDEDRECTD35*%
G04:AMPARAMS|DCode=36|XSize=0.6mm|YSize=1mm|CornerRadius=0.051mm|HoleSize=0mm|Usage=FLASHONLY|Rotation=90.000|XOffset=0mm|YOffset=0mm|HoleType=Round|Shape=RoundedRectangle|*
%AMROUNDEDRECTD36*
21,1,0.6000,0.8980,0,0,90.0*
21,1,0.4980,1.0000,0,0,90.0*
1,1,0.1020,0.4490,0.2490*
1,1,0.1020,0.4490,-0.2490*
1,1,0.1020,-0.4490,-0.2490*
1,1,0.1020,-0.4490,0.2490*
%
%ADD36ROUNDEDRECTD36*%
%ADD37R,1.0000X0.6600*%
%ADD38R,0.9500X1.4000*%
%ADD39R,1.4200X1.0000*%
D18*
X-20380Y348950D02*
D03*
Y374950D02*
D03*
Y368450D02*
D03*
X35620Y348950D02*
D03*
Y374950D02*
D03*
Y368450D02*
D03*
D19*
X-20380Y342450D02*
D03*
Y355450D02*
D03*
Y361950D02*
D03*
Y381450D02*
D03*
X35620Y355450D02*
D03*
Y342450D02*
D03*
Y381450D02*
D03*
Y361950D02*
D03*
D20*
X-12436Y218694D02*
D03*
X20564D02*
D03*
X172710Y284480D02*
D03*
X139710D02*
D03*
D21*
X68000Y239185D02*
D03*
X85760D02*
D03*
X68000Y221405D02*
D03*
X85760D02*
D03*
D22*
X151914Y232664D02*
D03*
D23*
X119414Y222664D02*
D03*
Y242664D02*
D03*
D24*
X156351Y372110D02*
D03*
X140829D02*
D03*
X172579Y328930D02*
D03*
X188101D02*
D03*
D25*
X92710Y38100D02*
D03*
Y59690D02*
D03*
X-90170Y58420D02*
D03*
Y36830D02*
D03*
D26*
X-104140Y263030D02*
D03*
Y280530D02*
D03*
D27*
X60960Y322580D02*
D03*
Y342580D02*
D03*
X59690Y371000D02*
D03*
Y391000D02*
D03*
D28*
X119240Y285750D02*
D03*
X101740D02*
D03*
D29*
X6840Y323850D02*
D03*
X-10160D02*
D03*
X77470Y287020D02*
D03*
X60470D02*
D03*
D30*
X83820Y389500D02*
D03*
Y372500D02*
D03*
D31*
X-74930Y156620D02*
D03*
Y176120D02*
D03*
X-231140Y264570D02*
D03*
Y284070D02*
D03*
D32*
X-123190Y334912D02*
D03*
Y353428D02*
D03*
D33*
X-68580Y303530D02*
D03*
Y318530D02*
D03*
Y353180D02*
D03*
Y368180D02*
D03*
D34*
X12700Y435660D02*
D03*
Y416560D02*
D03*
X-69850Y435660D02*
D03*
Y416560D02*
D03*
D35*
X85090Y420370D02*
D03*
Y438130D02*
D03*
X-49530Y433070D02*
D03*
Y415310D02*
D03*
D36*
X-30260Y436220D02*
D03*
Y426720D02*
D03*
Y417220D02*
D03*
X-2760D02*
D03*
Y436220D02*
D03*
D37*
X61410Y419760D02*
D03*
Y429260D02*
D03*
Y438760D02*
D03*
X35110D02*
D03*
Y419760D02*
D03*
D38*
X90530Y461010D02*
D03*
X72030D02*
D03*
D39*
X-96520Y333550D02*
D03*
Y352250D02*
D03*
X-88900Y100790D02*
D03*
Y82090D02*
D03*
M02*
