G04*
G04 #@! TF.GenerationSoftware,Altium Limited,Altium Designer,25.4.2 (15)*
G04*
G04 Layer_Color=32896*
%FSLAX44Y44*%
%MOMM*%
G71*
G04*
G04 #@! TF.SameCoordinates,62EAB3CA-F57F-4EB5-889C-6781DB4FDDE6*
G04*
G04*
G04 #@! TF.FilePolarity,Positive*
G04*
G01*
G75*
%ADD13C,0.5080*%
%ADD15C,0.3810*%
%ADD16C,0.2540*%
%ADD17C,0.2794*%
G36*
X153417Y202375D02*
X154310D01*
Y202331D01*
X154890D01*
Y202286D01*
X155426D01*
Y202241D01*
X155828D01*
Y202197D01*
X156185D01*
Y202152D01*
X156542D01*
Y202107D01*
X156854D01*
Y202063D01*
X157122D01*
Y202018D01*
X157390D01*
Y201973D01*
X157658D01*
Y201929D01*
X157881D01*
Y201884D01*
X158149D01*
Y201840D01*
X158373D01*
Y201795D01*
X158596D01*
Y201750D01*
X158774D01*
Y201706D01*
X158998D01*
Y201661D01*
X159176D01*
Y201616D01*
X159355D01*
Y201572D01*
X159533D01*
Y201527D01*
X159712D01*
Y201482D01*
X159891D01*
Y201438D01*
X160069D01*
Y201393D01*
X160203D01*
Y201348D01*
X160382D01*
Y201304D01*
X160560D01*
Y201259D01*
X160739D01*
Y201215D01*
X160873D01*
Y201170D01*
X161007D01*
Y201125D01*
X161185D01*
Y201080D01*
X161319D01*
Y201036D01*
X161453D01*
Y200991D01*
X161587D01*
Y200947D01*
X161766D01*
Y200902D01*
X161855D01*
Y200857D01*
X161989D01*
Y200813D01*
X162123D01*
Y200768D01*
X162257D01*
Y200723D01*
X162391D01*
Y200679D01*
X162525D01*
Y200634D01*
X162614D01*
Y200589D01*
X162748D01*
Y200545D01*
X162882D01*
Y200500D01*
X162971D01*
Y200455D01*
X163105D01*
Y200411D01*
X163195D01*
Y200366D01*
X163328D01*
Y200322D01*
X163463D01*
Y200277D01*
X163552D01*
Y200232D01*
X163686D01*
Y200188D01*
X163775D01*
Y200143D01*
X163909D01*
Y200098D01*
X163998D01*
Y200054D01*
X164088D01*
Y200009D01*
X164221D01*
Y199964D01*
X164311D01*
Y199920D01*
X164400D01*
Y199875D01*
X164534D01*
Y199830D01*
X164623D01*
Y199786D01*
X164713D01*
Y199741D01*
X164802D01*
Y199696D01*
X164891D01*
Y199652D01*
X164981D01*
Y199607D01*
X165114D01*
Y199562D01*
X165204D01*
Y199518D01*
X165293D01*
Y199473D01*
X165382D01*
Y199429D01*
X165472D01*
Y199384D01*
X165561D01*
Y199339D01*
X165650D01*
Y199295D01*
X165739D01*
Y199250D01*
X165829D01*
Y199205D01*
X165918D01*
Y199161D01*
X166007D01*
Y199116D01*
X166097D01*
Y199071D01*
X166186D01*
Y199027D01*
X166275D01*
Y198982D01*
X166365D01*
Y198937D01*
X166454D01*
Y198893D01*
X166543D01*
Y198848D01*
X166632D01*
Y198804D01*
X166677D01*
Y198759D01*
X166766D01*
Y198714D01*
X166856D01*
Y198669D01*
X166945D01*
Y198625D01*
X167034D01*
Y198580D01*
X167124D01*
Y198536D01*
X167168D01*
Y198491D01*
X167258D01*
Y198446D01*
X167347D01*
Y198402D01*
X167436D01*
Y198357D01*
X167481D01*
Y198312D01*
X167570D01*
Y198268D01*
X167659D01*
Y198223D01*
X167704D01*
Y198178D01*
X167793D01*
Y198134D01*
X167883D01*
Y198089D01*
X167927D01*
Y198044D01*
X168017D01*
Y198000D01*
X168106D01*
Y197955D01*
X168151D01*
Y197910D01*
X168240D01*
Y197866D01*
X168329D01*
Y197821D01*
X168374D01*
Y197777D01*
X168463D01*
Y197732D01*
X168508D01*
Y197687D01*
X168597D01*
Y197643D01*
X168642D01*
Y197598D01*
X168731D01*
Y197553D01*
X168776D01*
Y197509D01*
X168865D01*
Y197464D01*
X168954D01*
Y197419D01*
X168999D01*
Y197375D01*
X169088D01*
Y197330D01*
X169133D01*
Y197285D01*
X169222D01*
Y197241D01*
X169267D01*
Y197196D01*
X169311D01*
Y197152D01*
X169401D01*
Y197107D01*
X169445D01*
Y197062D01*
X169535D01*
Y197017D01*
X169579D01*
Y196973D01*
X169669D01*
Y196928D01*
X169713D01*
Y196884D01*
X169758D01*
Y196839D01*
X169847D01*
Y196794D01*
X169892D01*
Y196750D01*
X169981D01*
Y196705D01*
X170026D01*
Y196660D01*
X170070D01*
Y196616D01*
X170160D01*
Y196571D01*
X170204D01*
Y196526D01*
X170249D01*
Y196482D01*
X170338D01*
Y196437D01*
X170383D01*
Y196392D01*
X170428D01*
Y196348D01*
X170517D01*
Y196303D01*
X170562D01*
Y196259D01*
X170606D01*
Y196214D01*
X170695D01*
Y196169D01*
X170740D01*
Y196125D01*
X170785D01*
Y196080D01*
X170874D01*
Y196035D01*
X170919D01*
Y195991D01*
X170963D01*
Y195946D01*
X171008D01*
Y195901D01*
X171097D01*
Y195857D01*
X171142D01*
Y195812D01*
X171187D01*
Y195767D01*
X171231D01*
Y195723D01*
X171321D01*
Y195678D01*
X171365D01*
Y195633D01*
X171410D01*
Y195589D01*
X171499D01*
Y195544D01*
X171544D01*
Y195499D01*
X171588D01*
Y195455D01*
X171633D01*
Y195410D01*
X171678D01*
Y195366D01*
X171722D01*
Y195321D01*
X171812D01*
Y195276D01*
X171856D01*
Y195232D01*
X171901D01*
Y195187D01*
X171946D01*
Y195142D01*
X171990D01*
Y195098D01*
X172035D01*
Y195053D01*
X172124D01*
Y195008D01*
X172169D01*
Y194964D01*
X172214D01*
Y194919D01*
X172258D01*
Y194874D01*
X172303D01*
Y194830D01*
X172348D01*
Y194785D01*
X172392D01*
Y194741D01*
X172437D01*
Y194696D01*
X172526D01*
Y194651D01*
X172571D01*
Y194606D01*
X172615D01*
Y194562D01*
X172660D01*
Y194517D01*
X172705D01*
Y194473D01*
X172749D01*
Y194428D01*
X172794D01*
Y194383D01*
X172839D01*
Y194339D01*
X172883D01*
Y194294D01*
X172928D01*
Y194249D01*
X173017D01*
Y194205D01*
X173062D01*
Y194160D01*
X173106D01*
Y194115D01*
X173151D01*
Y194071D01*
X173196D01*
Y194026D01*
X173241D01*
Y193981D01*
X173285D01*
Y193937D01*
X173330D01*
Y193892D01*
X173374D01*
Y193848D01*
X173419D01*
Y193803D01*
X173464D01*
Y193758D01*
X173508D01*
Y193714D01*
X173553D01*
Y193669D01*
X173598D01*
Y193624D01*
X173642D01*
Y193580D01*
X173687D01*
Y193535D01*
X173732D01*
Y193490D01*
X173776D01*
Y193446D01*
X173821D01*
Y193401D01*
X173866D01*
Y193356D01*
X173910D01*
Y193312D01*
X173955D01*
Y193267D01*
X174000D01*
Y193222D01*
X174044D01*
Y193178D01*
X174089D01*
Y193133D01*
X174133D01*
Y193088D01*
X174178D01*
Y193044D01*
X174223D01*
Y192999D01*
X174267D01*
Y192955D01*
X174312D01*
Y192865D01*
X174357D01*
Y192821D01*
X174401D01*
Y192776D01*
X174446D01*
Y192731D01*
X174491D01*
Y192687D01*
X174535D01*
Y192642D01*
X174580D01*
Y192597D01*
X174625D01*
Y192553D01*
X174669D01*
Y192508D01*
X174714D01*
Y192463D01*
X174758D01*
Y192374D01*
X174803D01*
Y192329D01*
X174848D01*
Y192285D01*
X174893D01*
Y192240D01*
X174937D01*
Y192195D01*
X174982D01*
Y192151D01*
X175026D01*
Y192106D01*
X175071D01*
Y192062D01*
X175116D01*
Y191972D01*
X175160D01*
Y191928D01*
X175205D01*
Y191883D01*
X175250D01*
Y191838D01*
X175294D01*
Y191794D01*
X175339D01*
Y191704D01*
X175384D01*
Y191660D01*
X175428D01*
Y191615D01*
X175473D01*
Y191570D01*
X175518D01*
Y191526D01*
X175562D01*
Y191481D01*
X175607D01*
Y191392D01*
X175651D01*
Y191347D01*
X175696D01*
Y191303D01*
X175741D01*
Y191258D01*
X175785D01*
Y191169D01*
X175830D01*
Y191124D01*
X175875D01*
Y191079D01*
X175919D01*
Y191035D01*
X175964D01*
Y190945D01*
X176009D01*
Y190901D01*
X176053D01*
Y190856D01*
X176098D01*
Y190811D01*
X176143D01*
Y190722D01*
X176187D01*
Y190677D01*
X176232D01*
Y190633D01*
X176277D01*
Y190588D01*
X176321D01*
Y190499D01*
X176366D01*
Y190454D01*
X176411D01*
Y190410D01*
X176455D01*
Y190320D01*
X176500D01*
Y190276D01*
X176544D01*
Y190231D01*
X176589D01*
Y190142D01*
X176634D01*
Y190097D01*
X176678D01*
Y190008D01*
X176723D01*
Y189963D01*
X176768D01*
Y189918D01*
X176812D01*
Y189829D01*
X176857D01*
Y189785D01*
X176902D01*
Y189740D01*
X176946D01*
Y189650D01*
X176991D01*
Y189606D01*
X177036D01*
Y189517D01*
X177080D01*
Y189472D01*
X177125D01*
Y189383D01*
X177169D01*
Y189338D01*
X177214D01*
Y189249D01*
X177259D01*
Y189204D01*
X177304D01*
Y189159D01*
X177348D01*
Y189070D01*
X177393D01*
Y189025D01*
X177437D01*
Y188936D01*
X177482D01*
Y188892D01*
X177527D01*
Y188802D01*
X177571D01*
Y188758D01*
X177616D01*
Y188668D01*
X177661D01*
Y188579D01*
X177705D01*
Y188534D01*
X177750D01*
Y188445D01*
X177795D01*
Y188400D01*
X177839D01*
Y188311D01*
X177884D01*
Y188266D01*
X177929D01*
Y188177D01*
X177973D01*
Y188088D01*
X178018D01*
Y188043D01*
X178062D01*
Y187954D01*
X178107D01*
Y187909D01*
X178152D01*
Y187820D01*
X178196D01*
Y187731D01*
X178241D01*
Y187641D01*
X178286D01*
Y187597D01*
X178330D01*
Y187507D01*
X178375D01*
Y187418D01*
X178420D01*
Y187374D01*
X178464D01*
Y187284D01*
X178509D01*
Y187195D01*
X178554D01*
Y187106D01*
X178598D01*
Y187061D01*
X178643D01*
Y186972D01*
X178688D01*
Y186882D01*
X178732D01*
Y186793D01*
X178777D01*
Y186704D01*
X178822D01*
Y186659D01*
X178866D01*
Y186570D01*
X178911D01*
Y186481D01*
X178955D01*
Y186391D01*
X179000D01*
Y186302D01*
X179045D01*
Y186257D01*
X179089D01*
Y186168D01*
X179134D01*
Y186079D01*
X179179D01*
Y185989D01*
X179223D01*
Y185900D01*
X179268D01*
Y185811D01*
X179313D01*
Y185721D01*
X179357D01*
Y185632D01*
X179402D01*
Y185543D01*
X179447D01*
Y185498D01*
X179491D01*
Y185409D01*
X179536D01*
Y185320D01*
X179581D01*
Y185230D01*
X179625D01*
Y185141D01*
X179670D01*
Y185052D01*
X179715D01*
Y184962D01*
X179759D01*
Y184873D01*
X179804D01*
Y184784D01*
X179848D01*
Y184695D01*
X179893D01*
Y184605D01*
X179938D01*
Y184561D01*
X179982D01*
Y184471D01*
X180027D01*
Y184382D01*
X180072D01*
Y184293D01*
X180116D01*
Y184203D01*
X180161D01*
Y184114D01*
X180206D01*
Y184025D01*
X180250D01*
Y183936D01*
X180295D01*
Y183846D01*
X180340D01*
Y183757D01*
X180384D01*
Y183668D01*
X180429D01*
Y183534D01*
X180473D01*
Y183400D01*
X180518D01*
Y183132D01*
X180563D01*
Y182730D01*
X180518D01*
Y182507D01*
X180473D01*
Y182328D01*
X180429D01*
Y182239D01*
X180384D01*
Y182150D01*
X180340D01*
Y182016D01*
X180295D01*
Y181971D01*
X180250D01*
Y181882D01*
X180206D01*
Y181837D01*
X180161D01*
Y181748D01*
X180116D01*
Y181703D01*
X180072D01*
Y181658D01*
X180027D01*
Y181614D01*
X179982D01*
Y181569D01*
X179938D01*
Y181525D01*
X179893D01*
Y181480D01*
X179804D01*
Y181435D01*
X179759D01*
Y181391D01*
X179670D01*
Y181346D01*
X179625D01*
Y181301D01*
X179536D01*
Y181257D01*
X179447D01*
Y181212D01*
X179357D01*
Y181167D01*
X179313D01*
Y181123D01*
X179223D01*
Y181078D01*
X179134D01*
Y181033D01*
X179045D01*
Y180989D01*
X178955D01*
Y180944D01*
X178866D01*
Y180899D01*
X178777D01*
Y180855D01*
X178688D01*
Y180765D01*
X178732D01*
Y180632D01*
X178777D01*
Y180498D01*
X178822D01*
Y180364D01*
X178866D01*
Y180185D01*
X178911D01*
Y180051D01*
X178955D01*
Y179917D01*
X179000D01*
Y179739D01*
X179045D01*
Y179605D01*
X179089D01*
Y179426D01*
X179134D01*
Y179247D01*
X179179D01*
Y179069D01*
X179223D01*
Y178890D01*
X179268D01*
Y178712D01*
X179313D01*
Y178533D01*
X179357D01*
Y178354D01*
X179402D01*
Y178131D01*
X179447D01*
Y177953D01*
X179491D01*
Y177729D01*
X179536D01*
Y177506D01*
X179581D01*
Y177238D01*
X179625D01*
Y177015D01*
X179670D01*
Y176747D01*
X179715D01*
Y176479D01*
X179759D01*
Y176167D01*
X179804D01*
Y175854D01*
X179848D01*
Y175497D01*
X179893D01*
Y175095D01*
X179938D01*
Y174604D01*
X179982D01*
Y174024D01*
X180027D01*
Y173086D01*
X180072D01*
Y171345D01*
X180027D01*
Y170496D01*
X179982D01*
Y169961D01*
X179938D01*
Y169514D01*
X179893D01*
Y169112D01*
X179848D01*
Y168755D01*
X179804D01*
Y168442D01*
X179759D01*
Y168130D01*
X179715D01*
Y167862D01*
X179670D01*
Y167594D01*
X179625D01*
Y167326D01*
X179581D01*
Y167103D01*
X179536D01*
Y166880D01*
X179491D01*
Y166612D01*
X179447D01*
Y166389D01*
X179402D01*
Y166210D01*
X179357D01*
Y165987D01*
X179313D01*
Y165764D01*
X179268D01*
Y165585D01*
X179223D01*
Y165406D01*
X179179D01*
Y165183D01*
X179134D01*
Y165005D01*
X179089D01*
Y164826D01*
X179045D01*
Y164647D01*
X179000D01*
Y164469D01*
X178955D01*
Y164290D01*
X178911D01*
Y164112D01*
X178866D01*
Y163933D01*
X178822D01*
Y163799D01*
X178777D01*
Y163620D01*
X178732D01*
Y163442D01*
X178688D01*
Y163308D01*
X178643D01*
Y163129D01*
X178598D01*
Y162995D01*
X178554D01*
Y162817D01*
X178509D01*
Y162683D01*
X178464D01*
Y162504D01*
X178420D01*
Y162326D01*
X178375D01*
Y162192D01*
X178330D01*
Y162013D01*
X178286D01*
Y161879D01*
X178241D01*
Y161745D01*
X178196D01*
Y161611D01*
X178152D01*
Y161433D01*
X178107D01*
Y161299D01*
X178062D01*
Y161165D01*
X178018D01*
Y161031D01*
X177973D01*
Y160897D01*
X177929D01*
Y160763D01*
X177884D01*
Y160584D01*
X177839D01*
Y160450D01*
X177795D01*
Y160317D01*
X177750D01*
Y160183D01*
X177705D01*
Y160049D01*
X177661D01*
Y159915D01*
X177616D01*
Y159781D01*
X177571D01*
Y159647D01*
X177527D01*
Y159513D01*
X177482D01*
Y159379D01*
X177437D01*
Y159245D01*
X177393D01*
Y159111D01*
X177348D01*
Y158977D01*
X177304D01*
Y158843D01*
X177259D01*
Y158709D01*
X177214D01*
Y158575D01*
X177169D01*
Y158441D01*
X177125D01*
Y158307D01*
X177080D01*
Y158173D01*
X177036D01*
Y158039D01*
X176991D01*
Y157950D01*
X176946D01*
Y157816D01*
X176902D01*
Y157682D01*
X176857D01*
Y157548D01*
X176812D01*
Y157414D01*
X176768D01*
Y157280D01*
X176723D01*
Y157147D01*
X176678D01*
Y157013D01*
X176634D01*
Y156879D01*
X176589D01*
Y156745D01*
X176544D01*
Y156611D01*
X176500D01*
Y156477D01*
X176455D01*
Y156343D01*
X176411D01*
Y156209D01*
X176366D01*
Y156075D01*
X176321D01*
Y155941D01*
X176277D01*
Y155807D01*
X176232D01*
Y155673D01*
X176187D01*
Y155539D01*
X176143D01*
Y155405D01*
X176098D01*
Y155271D01*
X176053D01*
Y155137D01*
X176009D01*
Y154959D01*
X175964D01*
Y154825D01*
X175919D01*
Y154646D01*
X175875D01*
Y154601D01*
X175741D01*
Y154646D01*
X175562D01*
Y154691D01*
X175384D01*
Y154735D01*
X175250D01*
Y154780D01*
X175071D01*
Y154825D01*
X174937D01*
Y154869D01*
X174758D01*
Y154914D01*
X174625D01*
Y154959D01*
X174446D01*
Y155003D01*
X174312D01*
Y155048D01*
X174133D01*
Y155093D01*
X174000D01*
Y155137D01*
X173821D01*
Y155182D01*
X173687D01*
Y155227D01*
X173508D01*
Y155271D01*
X173374D01*
Y155316D01*
X173196D01*
Y155360D01*
X173017D01*
Y155405D01*
X172883D01*
Y155450D01*
X172705D01*
Y155494D01*
X172571D01*
Y155539D01*
X172392D01*
Y155584D01*
X172258D01*
Y155628D01*
X172080D01*
Y155673D01*
X171946D01*
Y155718D01*
X171901D01*
Y155807D01*
X171946D01*
Y155986D01*
X171990D01*
Y156120D01*
X172035D01*
Y156298D01*
X172080D01*
Y156432D01*
X172124D01*
Y156566D01*
X172169D01*
Y156700D01*
X172214D01*
Y156834D01*
X172258D01*
Y156968D01*
X172303D01*
Y157147D01*
X172348D01*
Y157280D01*
X172392D01*
Y157414D01*
X172437D01*
Y157548D01*
X172481D01*
Y157682D01*
X172526D01*
Y157816D01*
X172571D01*
Y157950D01*
X172615D01*
Y158084D01*
X172660D01*
Y158218D01*
X172705D01*
Y158307D01*
X172749D01*
Y158441D01*
X172794D01*
Y158575D01*
X172839D01*
Y158709D01*
X172883D01*
Y158843D01*
X172928D01*
Y158977D01*
X172973D01*
Y159111D01*
X173017D01*
Y159245D01*
X173062D01*
Y159379D01*
X173106D01*
Y159513D01*
X173151D01*
Y159647D01*
X173196D01*
Y159781D01*
X173241D01*
Y159915D01*
X173285D01*
Y160004D01*
X173330D01*
Y160138D01*
X173374D01*
Y160272D01*
X173419D01*
Y160406D01*
X173464D01*
Y160540D01*
X173508D01*
Y160674D01*
X173553D01*
Y160808D01*
X173598D01*
Y160942D01*
X173642D01*
Y161075D01*
X173687D01*
Y161210D01*
X173732D01*
Y161343D01*
X173776D01*
Y161477D01*
X173821D01*
Y161611D01*
X173866D01*
Y161745D01*
X173910D01*
Y161924D01*
X173955D01*
Y162058D01*
X174000D01*
Y162192D01*
X174044D01*
Y162326D01*
X174089D01*
Y162460D01*
X174133D01*
Y162594D01*
X174178D01*
Y162772D01*
X174223D01*
Y162906D01*
X174267D01*
Y163040D01*
X174312D01*
Y163174D01*
X174357D01*
Y163353D01*
X174401D01*
Y163487D01*
X174446D01*
Y163665D01*
X174491D01*
Y163799D01*
X174535D01*
Y163978D01*
X174580D01*
Y164112D01*
X174625D01*
Y164290D01*
X174669D01*
Y164424D01*
X174714D01*
Y164603D01*
X174758D01*
Y164737D01*
X174803D01*
Y164915D01*
X174848D01*
Y165094D01*
X174893D01*
Y165273D01*
X174937D01*
Y165451D01*
X174982D01*
Y165630D01*
X175026D01*
Y165808D01*
X175071D01*
Y165987D01*
X175116D01*
Y166166D01*
X175160D01*
Y166344D01*
X175205D01*
Y166567D01*
X175250D01*
Y166746D01*
X175294D01*
Y166969D01*
X175339D01*
Y167192D01*
X175384D01*
Y167416D01*
X175428D01*
Y167639D01*
X175473D01*
Y167862D01*
X175518D01*
Y168130D01*
X175562D01*
Y168353D01*
X175607D01*
Y168666D01*
X175651D01*
Y168934D01*
X175696D01*
Y169246D01*
X175741D01*
Y169603D01*
X175785D01*
Y170005D01*
X175830D01*
Y170452D01*
X175875D01*
Y171077D01*
X175919D01*
Y173354D01*
X175875D01*
Y174068D01*
X175830D01*
Y174559D01*
X175785D01*
Y175006D01*
X175741D01*
Y175318D01*
X175696D01*
Y175676D01*
X175651D01*
Y175944D01*
X175607D01*
Y176211D01*
X175562D01*
Y176479D01*
X175518D01*
Y176702D01*
X175473D01*
Y176926D01*
X175428D01*
Y177149D01*
X175384D01*
Y177372D01*
X175339D01*
Y177551D01*
X175294D01*
Y177729D01*
X175250D01*
Y177908D01*
X175205D01*
Y178087D01*
X175160D01*
Y178265D01*
X175116D01*
Y178444D01*
X175071D01*
Y178578D01*
X175026D01*
Y178756D01*
X174982D01*
Y178890D01*
X174937D01*
Y178846D01*
X174848D01*
Y178801D01*
X174758D01*
Y178756D01*
X174669D01*
Y178712D01*
X174535D01*
Y178667D01*
X174357D01*
Y178622D01*
X174133D01*
Y178578D01*
X173687D01*
Y178622D01*
X173508D01*
Y178667D01*
X173330D01*
Y178712D01*
X173196D01*
Y178756D01*
X173106D01*
Y178801D01*
X173017D01*
Y178846D01*
X172928D01*
Y178890D01*
X172883D01*
Y178935D01*
X172839D01*
Y178980D01*
X172749D01*
Y179024D01*
X172705D01*
Y179069D01*
X172660D01*
Y179114D01*
X172615D01*
Y179158D01*
X172571D01*
Y179203D01*
X172526D01*
Y179247D01*
X172481D01*
Y179337D01*
X172437D01*
Y179381D01*
X172392D01*
Y179426D01*
X172348D01*
Y179515D01*
X172303D01*
Y179605D01*
X172258D01*
Y179649D01*
X172214D01*
Y179739D01*
X172169D01*
Y179828D01*
X172124D01*
Y179917D01*
X172080D01*
Y180007D01*
X172035D01*
Y180096D01*
X171990D01*
Y180185D01*
X171946D01*
Y180274D01*
X171901D01*
Y180364D01*
X171856D01*
Y180453D01*
X171812D01*
Y180542D01*
X171767D01*
Y180587D01*
X171722D01*
Y180676D01*
X171678D01*
Y180765D01*
X171633D01*
Y180855D01*
X171588D01*
Y180944D01*
X171544D01*
Y181033D01*
X171499D01*
Y181123D01*
X171455D01*
Y181212D01*
X171410D01*
Y181301D01*
X171365D01*
Y181391D01*
X171321D01*
Y181480D01*
X171276D01*
Y181569D01*
X171231D01*
Y181658D01*
X171187D01*
Y181703D01*
X171142D01*
Y181792D01*
X171097D01*
Y181882D01*
X171053D01*
Y181971D01*
X171008D01*
Y182060D01*
X170963D01*
Y182150D01*
X170919D01*
Y182239D01*
X170874D01*
Y182284D01*
X170830D01*
Y182373D01*
X170785D01*
Y182462D01*
X170740D01*
Y182551D01*
X170695D01*
Y182641D01*
X170651D01*
Y182685D01*
X170606D01*
Y182775D01*
X170562D01*
Y182864D01*
X170517D01*
Y182909D01*
X170472D01*
Y182998D01*
X170428D01*
Y183087D01*
X170383D01*
Y183132D01*
X170338D01*
Y183221D01*
X170294D01*
Y183311D01*
X170249D01*
Y183355D01*
X170204D01*
Y183444D01*
X170160D01*
Y183489D01*
X170115D01*
Y183578D01*
X170070D01*
Y183668D01*
X170026D01*
Y183712D01*
X169981D01*
Y183802D01*
X169937D01*
Y183846D01*
X169892D01*
Y183936D01*
X169847D01*
Y183980D01*
X169803D01*
Y184069D01*
X169758D01*
Y184114D01*
X169713D01*
Y184203D01*
X169669D01*
Y184248D01*
X169624D01*
Y184293D01*
X169579D01*
Y184382D01*
X169535D01*
Y184427D01*
X169490D01*
Y184516D01*
X169445D01*
Y184561D01*
X169401D01*
Y184605D01*
X169356D01*
Y184695D01*
X169311D01*
Y184739D01*
X169267D01*
Y184784D01*
X169222D01*
Y184873D01*
X169177D01*
Y184918D01*
X169133D01*
Y185007D01*
X169088D01*
Y185052D01*
X169044D01*
Y185096D01*
X168999D01*
Y185141D01*
X168954D01*
Y185230D01*
X168910D01*
Y185275D01*
X168865D01*
Y185320D01*
X168820D01*
Y185364D01*
X168776D01*
Y185454D01*
X168731D01*
Y185498D01*
X168686D01*
Y185543D01*
X168642D01*
Y185588D01*
X168597D01*
Y185677D01*
X168552D01*
Y185721D01*
X168508D01*
Y185766D01*
X168463D01*
Y185811D01*
X168419D01*
Y185855D01*
X168374D01*
Y185900D01*
X168329D01*
Y185989D01*
X168284D01*
Y186034D01*
X168240D01*
Y186079D01*
X168195D01*
Y186123D01*
X168151D01*
Y186168D01*
X168106D01*
Y186213D01*
X168061D01*
Y186302D01*
X168017D01*
Y186347D01*
X167972D01*
Y186391D01*
X167927D01*
Y186436D01*
X167883D01*
Y186481D01*
X167838D01*
Y186525D01*
X167793D01*
Y186570D01*
X167749D01*
Y186614D01*
X167704D01*
Y186659D01*
X167659D01*
Y186704D01*
X167615D01*
Y186748D01*
X167570D01*
Y186793D01*
X167526D01*
Y186838D01*
X167481D01*
Y186927D01*
X167436D01*
Y186972D01*
X167391D01*
Y187016D01*
X167347D01*
Y187061D01*
X167302D01*
Y187106D01*
X167258D01*
Y187150D01*
X167213D01*
Y187195D01*
X167168D01*
Y187239D01*
X167124D01*
Y187284D01*
X167034D01*
Y187329D01*
X166990D01*
Y187374D01*
X166945D01*
Y187418D01*
X166900D01*
Y187463D01*
X166856D01*
Y187507D01*
X166811D01*
Y187552D01*
X166766D01*
Y187597D01*
X166722D01*
Y187641D01*
X166677D01*
Y187686D01*
X166632D01*
Y187731D01*
X166588D01*
Y187775D01*
X166543D01*
Y187820D01*
X166499D01*
Y187865D01*
X166454D01*
Y187909D01*
X166409D01*
Y187954D01*
X166365D01*
Y187999D01*
X166275D01*
Y188043D01*
X166231D01*
Y188088D01*
X166186D01*
Y188132D01*
X166141D01*
Y188177D01*
X166097D01*
Y188222D01*
X166052D01*
Y188266D01*
X165963D01*
Y188311D01*
X165918D01*
Y188356D01*
X165874D01*
Y188400D01*
X165829D01*
Y188445D01*
X165784D01*
Y188490D01*
X165739D01*
Y188534D01*
X165650D01*
Y188579D01*
X165606D01*
Y188624D01*
X165561D01*
Y188668D01*
X165516D01*
Y188713D01*
X165427D01*
Y188758D01*
X165382D01*
Y188802D01*
X165338D01*
Y188847D01*
X165293D01*
Y188892D01*
X165204D01*
Y188936D01*
X165159D01*
Y188981D01*
X165114D01*
Y189025D01*
X165070D01*
Y189070D01*
X164981D01*
Y189115D01*
X164936D01*
Y189159D01*
X164891D01*
Y189204D01*
X164802D01*
Y189249D01*
X164757D01*
Y189293D01*
X164713D01*
Y189338D01*
X164623D01*
Y189383D01*
X164579D01*
Y189427D01*
X164489D01*
Y189472D01*
X164445D01*
Y189517D01*
X164355D01*
Y189561D01*
X164311D01*
Y189606D01*
X164266D01*
Y189650D01*
X164177D01*
Y189695D01*
X164132D01*
Y189740D01*
X164043D01*
Y189785D01*
X163998D01*
Y189829D01*
X163909D01*
Y189874D01*
X163864D01*
Y189918D01*
X163775D01*
Y189963D01*
X163686D01*
Y190008D01*
X163641D01*
Y190052D01*
X163552D01*
Y190097D01*
X163507D01*
Y190142D01*
X163418D01*
Y190186D01*
X163328D01*
Y190231D01*
X163284D01*
Y190276D01*
X163195D01*
Y190320D01*
X163105D01*
Y190365D01*
X163061D01*
Y190410D01*
X162971D01*
Y190454D01*
X162882D01*
Y190499D01*
X162793D01*
Y190543D01*
X162748D01*
Y190588D01*
X162659D01*
Y190633D01*
X162570D01*
Y190677D01*
X162480D01*
Y190722D01*
X162391D01*
Y190767D01*
X162346D01*
Y190811D01*
X162257D01*
Y190856D01*
X162168D01*
Y190901D01*
X162078D01*
Y190945D01*
X161989D01*
Y190990D01*
X161900D01*
Y191035D01*
X161810D01*
Y191079D01*
X161721D01*
Y191124D01*
X161632D01*
Y191169D01*
X161543D01*
Y191213D01*
X161453D01*
Y191258D01*
X161364D01*
Y191303D01*
X161275D01*
Y191347D01*
X161185D01*
Y191392D01*
X161096D01*
Y191437D01*
X161007D01*
Y191481D01*
X160873D01*
Y191526D01*
X160784D01*
Y191570D01*
X160694D01*
Y191615D01*
X160560D01*
Y191660D01*
X160471D01*
Y191704D01*
X160382D01*
Y191749D01*
X160248D01*
Y191794D01*
X160159D01*
Y191838D01*
X160025D01*
Y191883D01*
X159935D01*
Y191928D01*
X159801D01*
Y191972D01*
X159667D01*
Y192017D01*
X159578D01*
Y192062D01*
X159444D01*
Y192106D01*
X159310D01*
Y192151D01*
X159176D01*
Y192195D01*
X159042D01*
Y192240D01*
X158908D01*
Y192285D01*
X158774D01*
Y192329D01*
X158640D01*
Y192374D01*
X158506D01*
Y192419D01*
X158328D01*
Y192463D01*
X158194D01*
Y192508D01*
X158015D01*
Y192553D01*
X157881D01*
Y192597D01*
X157703D01*
Y192642D01*
X157524D01*
Y192687D01*
X157346D01*
Y192731D01*
X157167D01*
Y192776D01*
X156988D01*
Y192821D01*
X156765D01*
Y192865D01*
X156587D01*
Y192910D01*
X156363D01*
Y192955D01*
X156140D01*
Y192999D01*
X155828D01*
Y193044D01*
X155560D01*
Y193088D01*
X155247D01*
Y193133D01*
X154890D01*
Y193178D01*
X154488D01*
Y193222D01*
X153997D01*
Y193267D01*
X153283D01*
Y193312D01*
X151407D01*
Y193267D01*
X150693D01*
Y193222D01*
X150202D01*
Y193178D01*
X149800D01*
Y193133D01*
X149443D01*
Y193088D01*
X149130D01*
Y193044D01*
X148818D01*
Y192999D01*
X148550D01*
Y192955D01*
X148327D01*
Y192910D01*
X148103D01*
Y192865D01*
X147880D01*
Y192821D01*
X147702D01*
Y192776D01*
X147523D01*
Y192731D01*
X147344D01*
Y192687D01*
X147166D01*
Y192642D01*
X146987D01*
Y192597D01*
X146809D01*
Y192553D01*
X146675D01*
Y192508D01*
X146496D01*
Y192463D01*
X146362D01*
Y192419D01*
X146184D01*
Y192374D01*
X146050D01*
Y192329D01*
X145916D01*
Y192285D01*
X145782D01*
Y192240D01*
X145648D01*
Y192195D01*
X145514D01*
Y192151D01*
X145380D01*
Y192106D01*
X145246D01*
Y192062D01*
X145112D01*
Y192017D01*
X145023D01*
Y191972D01*
X144889D01*
Y191928D01*
X144755D01*
Y191883D01*
X144665D01*
Y191838D01*
X144531D01*
Y191794D01*
X144442D01*
Y191749D01*
X144308D01*
Y191704D01*
X144219D01*
Y191660D01*
X144085D01*
Y191615D01*
X143996D01*
Y191570D01*
X143906D01*
Y191526D01*
X143772D01*
Y191481D01*
X143683D01*
Y191437D01*
X143594D01*
Y191392D01*
X143505D01*
Y191347D01*
X143415D01*
Y191303D01*
X143326D01*
Y191258D01*
X143237D01*
Y191213D01*
X143103D01*
Y191169D01*
X143013D01*
Y191124D01*
X142969D01*
Y191079D01*
X142879D01*
Y191035D01*
X142790D01*
Y190990D01*
X142701D01*
Y190945D01*
X142612D01*
Y190901D01*
X142522D01*
Y190856D01*
X142433D01*
Y190811D01*
X142344D01*
Y190767D01*
X142254D01*
Y190722D01*
X142210D01*
Y190677D01*
X142121D01*
Y190633D01*
X142031D01*
Y190588D01*
X141942D01*
Y190543D01*
X141853D01*
Y190499D01*
X141808D01*
Y190454D01*
X141719D01*
Y190410D01*
X141629D01*
Y190365D01*
X141585D01*
Y190320D01*
X141495D01*
Y190276D01*
X141406D01*
Y190231D01*
X141317D01*
Y190186D01*
X141272D01*
Y190142D01*
X141183D01*
Y190097D01*
X141138D01*
Y190052D01*
X141049D01*
Y190008D01*
X141004D01*
Y189963D01*
X140915D01*
Y189918D01*
X140826D01*
Y189874D01*
X140781D01*
Y189829D01*
X140692D01*
Y189785D01*
X140647D01*
Y189740D01*
X140558D01*
Y189695D01*
X140513D01*
Y189650D01*
X140424D01*
Y189606D01*
X140379D01*
Y189561D01*
X140335D01*
Y189517D01*
X140245D01*
Y189472D01*
X140201D01*
Y189427D01*
X140111D01*
Y189383D01*
X140067D01*
Y189338D01*
X139977D01*
Y189293D01*
X139933D01*
Y189249D01*
X139888D01*
Y189204D01*
X139799D01*
Y189159D01*
X139754D01*
Y189115D01*
X139710D01*
Y189070D01*
X139620D01*
Y189025D01*
X139576D01*
Y188981D01*
X139531D01*
Y188936D01*
X139486D01*
Y188892D01*
X139397D01*
Y188847D01*
X139352D01*
Y188802D01*
X139308D01*
Y188758D01*
X139263D01*
Y188713D01*
X139174D01*
Y188668D01*
X139129D01*
Y188624D01*
X139084D01*
Y188579D01*
X139040D01*
Y188534D01*
X138951D01*
Y188490D01*
X138906D01*
Y188445D01*
X138861D01*
Y188400D01*
X138816D01*
Y188356D01*
X138772D01*
Y188311D01*
X138683D01*
Y188266D01*
X138638D01*
Y188222D01*
X138593D01*
Y188177D01*
X138549D01*
Y188132D01*
X138504D01*
Y188088D01*
X138459D01*
Y188043D01*
X138415D01*
Y187999D01*
X138325D01*
Y187954D01*
X138281D01*
Y187909D01*
X138236D01*
Y187865D01*
X138191D01*
Y187820D01*
X138147D01*
Y187775D01*
X138102D01*
Y187731D01*
X138057D01*
Y187686D01*
X138013D01*
Y187641D01*
X137968D01*
Y187597D01*
X137924D01*
Y187552D01*
X137879D01*
Y187507D01*
X137834D01*
Y187463D01*
X137790D01*
Y187418D01*
X137700D01*
Y187374D01*
X137656D01*
Y187329D01*
X137611D01*
Y187284D01*
X137566D01*
Y187239D01*
X137522D01*
Y187195D01*
X137477D01*
Y187150D01*
X137432D01*
Y187106D01*
X137388D01*
Y187061D01*
X137343D01*
Y187016D01*
X137298D01*
Y186972D01*
X137254D01*
Y186927D01*
X137209D01*
Y186882D01*
X137164D01*
Y186838D01*
X137120D01*
Y186793D01*
X137075D01*
Y186748D01*
X137031D01*
Y186704D01*
X136986D01*
Y186614D01*
X136941D01*
Y186570D01*
X136897D01*
Y186525D01*
X136852D01*
Y186481D01*
X136807D01*
Y186436D01*
X136763D01*
Y186391D01*
X136718D01*
Y186347D01*
X136673D01*
Y186302D01*
X136629D01*
Y186257D01*
X136584D01*
Y186168D01*
X136539D01*
Y186123D01*
X136495D01*
Y186079D01*
X136450D01*
Y186034D01*
X136405D01*
Y185989D01*
X136361D01*
Y185945D01*
X136316D01*
Y185855D01*
X136272D01*
Y185811D01*
X136227D01*
Y185766D01*
X136182D01*
Y185721D01*
X136138D01*
Y185677D01*
X136093D01*
Y185632D01*
X136048D01*
Y185543D01*
X136004D01*
Y185498D01*
X135959D01*
Y185454D01*
X135914D01*
Y185409D01*
X135870D01*
Y185320D01*
X135825D01*
Y185275D01*
X135780D01*
Y185230D01*
X135736D01*
Y185186D01*
X135691D01*
Y185096D01*
X135646D01*
Y185052D01*
X135602D01*
Y185007D01*
X135557D01*
Y184918D01*
X135513D01*
Y184873D01*
X135468D01*
Y184828D01*
X135423D01*
Y184739D01*
X135379D01*
Y184695D01*
X135334D01*
Y184650D01*
X135289D01*
Y184561D01*
X135245D01*
Y184516D01*
X135200D01*
Y184471D01*
X135155D01*
Y184382D01*
X135111D01*
Y184337D01*
X135066D01*
Y184248D01*
X135021D01*
Y184203D01*
X134977D01*
Y184114D01*
X134932D01*
Y184069D01*
X134888D01*
Y183980D01*
X134843D01*
Y183936D01*
X134798D01*
Y183846D01*
X134754D01*
Y183802D01*
X134709D01*
Y183712D01*
X134664D01*
Y183668D01*
X134620D01*
Y183578D01*
X134575D01*
Y183534D01*
X134530D01*
Y183444D01*
X134486D01*
Y183400D01*
X134441D01*
Y183311D01*
X134396D01*
Y183221D01*
X134352D01*
Y183176D01*
X134307D01*
Y183087D01*
X134262D01*
Y182998D01*
X134218D01*
Y182953D01*
X134173D01*
Y182864D01*
X134129D01*
Y182775D01*
X134084D01*
Y182730D01*
X134039D01*
Y182641D01*
X133995D01*
Y182551D01*
X133950D01*
Y182462D01*
X133905D01*
Y182373D01*
X133861D01*
Y182328D01*
X133816D01*
Y182239D01*
X133771D01*
Y182150D01*
X133727D01*
Y182060D01*
X133682D01*
Y181971D01*
X133637D01*
Y181882D01*
X133593D01*
Y181792D01*
X133548D01*
Y181703D01*
X133503D01*
Y181658D01*
X133459D01*
Y181569D01*
X133414D01*
Y181480D01*
X133369D01*
Y181391D01*
X133325D01*
Y181301D01*
X133280D01*
Y181212D01*
X133236D01*
Y181123D01*
X133191D01*
Y181033D01*
X133146D01*
Y180944D01*
X133102D01*
Y180855D01*
X133057D01*
Y180765D01*
X133012D01*
Y180676D01*
X132968D01*
Y180632D01*
X132923D01*
Y180542D01*
X132878D01*
Y180453D01*
X132834D01*
Y180364D01*
X132789D01*
Y180274D01*
X132744D01*
Y180185D01*
X132700D01*
Y180096D01*
X132655D01*
Y180007D01*
X132610D01*
Y179917D01*
X132566D01*
Y179828D01*
X132521D01*
Y179739D01*
X132476D01*
Y179649D01*
X132432D01*
Y179605D01*
X132387D01*
Y179515D01*
X132343D01*
Y179426D01*
X132298D01*
Y179381D01*
X132253D01*
Y179337D01*
X132209D01*
Y179247D01*
X132164D01*
Y179203D01*
X132119D01*
Y179158D01*
X132075D01*
Y179114D01*
X132030D01*
Y179069D01*
X131985D01*
Y179024D01*
X131941D01*
Y178980D01*
X131851D01*
Y178935D01*
X131807D01*
Y178890D01*
X131762D01*
Y178846D01*
X131673D01*
Y178801D01*
X131583D01*
Y178756D01*
X131494D01*
Y178712D01*
X131360D01*
Y178667D01*
X131182D01*
Y178622D01*
X131003D01*
Y178578D01*
X130557D01*
Y178622D01*
X130333D01*
Y178667D01*
X130155D01*
Y178712D01*
X130021D01*
Y178756D01*
X129931D01*
Y178801D01*
X129842D01*
Y178846D01*
X129753D01*
Y178890D01*
X129708D01*
Y178756D01*
X129664D01*
Y178578D01*
X129619D01*
Y178444D01*
X129574D01*
Y178265D01*
X129530D01*
Y178087D01*
X129485D01*
Y177908D01*
X129440D01*
Y177729D01*
X129396D01*
Y177551D01*
X129351D01*
Y177372D01*
X129306D01*
Y177149D01*
X129262D01*
Y176926D01*
X129217D01*
Y176702D01*
X129172D01*
Y176479D01*
X129128D01*
Y176211D01*
X129083D01*
Y175944D01*
X129038D01*
Y175676D01*
X128994D01*
Y175363D01*
X128949D01*
Y175006D01*
X128905D01*
Y174604D01*
X128860D01*
Y174113D01*
X128815D01*
Y173443D01*
X128771D01*
Y171077D01*
X128815D01*
Y170452D01*
X128860D01*
Y169961D01*
X128905D01*
Y169603D01*
X128949D01*
Y169246D01*
X128994D01*
Y168889D01*
X129038D01*
Y168621D01*
X129083D01*
Y168353D01*
X129128D01*
Y168085D01*
X129172D01*
Y167817D01*
X129217D01*
Y167594D01*
X129262D01*
Y167371D01*
X129306D01*
Y167148D01*
X129351D01*
Y166924D01*
X129396D01*
Y166746D01*
X129440D01*
Y166523D01*
X129485D01*
Y166344D01*
X129530D01*
Y166166D01*
X129574D01*
Y165942D01*
X129619D01*
Y165764D01*
X129664D01*
Y165585D01*
X129708D01*
Y165406D01*
X129753D01*
Y165228D01*
X129798D01*
Y165049D01*
X129842D01*
Y164871D01*
X129887D01*
Y164737D01*
X129931D01*
Y164558D01*
X129976D01*
Y164380D01*
X130021D01*
Y164246D01*
X130065D01*
Y164067D01*
X130110D01*
Y163933D01*
X130155D01*
Y163754D01*
X130199D01*
Y163620D01*
X130244D01*
Y163487D01*
X130289D01*
Y163353D01*
X130333D01*
Y163174D01*
X130378D01*
Y163040D01*
X130423D01*
Y162906D01*
X130467D01*
Y162772D01*
X130512D01*
Y162594D01*
X130557D01*
Y162460D01*
X130601D01*
Y162326D01*
X130646D01*
Y162192D01*
X130690D01*
Y162058D01*
X130735D01*
Y161879D01*
X130780D01*
Y161745D01*
X130824D01*
Y161611D01*
X130869D01*
Y161477D01*
X130914D01*
Y161343D01*
X130958D01*
Y161210D01*
X131003D01*
Y161075D01*
X131048D01*
Y160942D01*
X131092D01*
Y160808D01*
X131137D01*
Y160674D01*
X131182D01*
Y160540D01*
X131226D01*
Y160406D01*
X131271D01*
Y160272D01*
X131316D01*
Y160138D01*
X131360D01*
Y160004D01*
X131405D01*
Y159870D01*
X131449D01*
Y159736D01*
X131494D01*
Y159602D01*
X131539D01*
Y159513D01*
X131583D01*
Y159379D01*
X131628D01*
Y159245D01*
X131673D01*
Y159111D01*
X131717D01*
Y158977D01*
X131762D01*
Y158843D01*
X131807D01*
Y158709D01*
X131851D01*
Y158575D01*
X131896D01*
Y158441D01*
X131941D01*
Y158307D01*
X131985D01*
Y158173D01*
X132030D01*
Y158039D01*
X132075D01*
Y157906D01*
X132119D01*
Y157772D01*
X132164D01*
Y157638D01*
X132209D01*
Y157504D01*
X132253D01*
Y157370D01*
X132298D01*
Y157236D01*
X132343D01*
Y157102D01*
X132387D01*
Y156968D01*
X132432D01*
Y156834D01*
X132476D01*
Y156655D01*
X132521D01*
Y156521D01*
X132566D01*
Y156387D01*
X132610D01*
Y156253D01*
X132655D01*
Y156120D01*
X132700D01*
Y155941D01*
X132744D01*
Y155807D01*
X132789D01*
Y155718D01*
X132744D01*
Y155673D01*
X132610D01*
Y155628D01*
X132432D01*
Y155584D01*
X132298D01*
Y155539D01*
X132119D01*
Y155494D01*
X131985D01*
Y155450D01*
X131807D01*
Y155405D01*
X131673D01*
Y155360D01*
X131494D01*
Y155316D01*
X131316D01*
Y155271D01*
X131182D01*
Y155227D01*
X131003D01*
Y155182D01*
X130869D01*
Y155137D01*
X130690D01*
Y155093D01*
X130557D01*
Y155048D01*
X130378D01*
Y155003D01*
X130244D01*
Y154959D01*
X130065D01*
Y154914D01*
X129931D01*
Y154869D01*
X129753D01*
Y154825D01*
X129619D01*
Y154780D01*
X129440D01*
Y154735D01*
X129306D01*
Y154691D01*
X129128D01*
Y154646D01*
X128949D01*
Y154601D01*
X128815D01*
Y154646D01*
X128771D01*
Y154780D01*
X128726D01*
Y154914D01*
X128681D01*
Y155093D01*
X128637D01*
Y155227D01*
X128592D01*
Y155360D01*
X128547D01*
Y155494D01*
X128503D01*
Y155673D01*
X128458D01*
Y155807D01*
X128413D01*
Y155941D01*
X128369D01*
Y156075D01*
X128324D01*
Y156209D01*
X128279D01*
Y156343D01*
X128235D01*
Y156477D01*
X128190D01*
Y156611D01*
X128146D01*
Y156745D01*
X128101D01*
Y156879D01*
X128056D01*
Y157013D01*
X128012D01*
Y157147D01*
X127967D01*
Y157280D01*
X127922D01*
Y157414D01*
X127878D01*
Y157504D01*
X127833D01*
Y157638D01*
X127788D01*
Y157772D01*
X127744D01*
Y157906D01*
X127699D01*
Y158039D01*
X127654D01*
Y158173D01*
X127610D01*
Y158307D01*
X127565D01*
Y158441D01*
X127521D01*
Y158575D01*
X127476D01*
Y158709D01*
X127431D01*
Y158843D01*
X127387D01*
Y158977D01*
X127342D01*
Y159111D01*
X127297D01*
Y159245D01*
X127253D01*
Y159379D01*
X127208D01*
Y159513D01*
X127163D01*
Y159647D01*
X127119D01*
Y159781D01*
X127074D01*
Y159915D01*
X127029D01*
Y160049D01*
X126985D01*
Y160183D01*
X126940D01*
Y160317D01*
X126895D01*
Y160450D01*
X126851D01*
Y160584D01*
X126806D01*
Y160718D01*
X126761D01*
Y160897D01*
X126717D01*
Y161031D01*
X126672D01*
Y161165D01*
X126628D01*
Y161299D01*
X126583D01*
Y161433D01*
X126538D01*
Y161611D01*
X126494D01*
Y161745D01*
X126449D01*
Y161879D01*
X126404D01*
Y162013D01*
X126360D01*
Y162192D01*
X126315D01*
Y162326D01*
X126270D01*
Y162460D01*
X126226D01*
Y162638D01*
X126181D01*
Y162772D01*
X126136D01*
Y162951D01*
X126092D01*
Y163085D01*
X126047D01*
Y163263D01*
X126002D01*
Y163397D01*
X125958D01*
Y163576D01*
X125913D01*
Y163754D01*
X125869D01*
Y163888D01*
X125824D01*
Y164067D01*
X125779D01*
Y164246D01*
X125735D01*
Y164424D01*
X125690D01*
Y164603D01*
X125645D01*
Y164781D01*
X125601D01*
Y164960D01*
X125556D01*
Y165139D01*
X125511D01*
Y165362D01*
X125467D01*
Y165540D01*
X125422D01*
Y165764D01*
X125377D01*
Y165942D01*
X125333D01*
Y166166D01*
X125288D01*
Y166389D01*
X125243D01*
Y166612D01*
X125199D01*
Y166835D01*
X125154D01*
Y167058D01*
X125110D01*
Y167326D01*
X125065D01*
Y167550D01*
X125020D01*
Y167817D01*
X124976D01*
Y168130D01*
X124931D01*
Y168398D01*
X124886D01*
Y168755D01*
X124842D01*
Y169068D01*
X124797D01*
Y169469D01*
X124752D01*
Y169916D01*
X124708D01*
Y170496D01*
X124663D01*
Y171300D01*
X124618D01*
Y173398D01*
X124663D01*
Y174158D01*
X124708D01*
Y174693D01*
X124752D01*
Y175140D01*
X124797D01*
Y175542D01*
X124842D01*
Y175899D01*
X124886D01*
Y176211D01*
X124931D01*
Y176524D01*
X124976D01*
Y176792D01*
X125020D01*
Y177060D01*
X125065D01*
Y177283D01*
X125110D01*
Y177506D01*
X125154D01*
Y177729D01*
X125199D01*
Y177953D01*
X125243D01*
Y178176D01*
X125288D01*
Y178354D01*
X125333D01*
Y178533D01*
X125377D01*
Y178756D01*
X125422D01*
Y178935D01*
X125467D01*
Y179114D01*
X125511D01*
Y179292D01*
X125556D01*
Y179426D01*
X125601D01*
Y179605D01*
X125645D01*
Y179739D01*
X125690D01*
Y179917D01*
X125735D01*
Y180051D01*
X125779D01*
Y180230D01*
X125824D01*
Y180364D01*
X125869D01*
Y180498D01*
X125913D01*
Y180632D01*
X125958D01*
Y180765D01*
X126002D01*
Y180855D01*
X125913D01*
Y180899D01*
X125824D01*
Y180944D01*
X125735D01*
Y180989D01*
X125645D01*
Y181033D01*
X125556D01*
Y181078D01*
X125467D01*
Y181123D01*
X125377D01*
Y181167D01*
X125333D01*
Y181212D01*
X125243D01*
Y181257D01*
X125154D01*
Y181301D01*
X125065D01*
Y181346D01*
X124976D01*
Y181391D01*
X124931D01*
Y181435D01*
X124886D01*
Y181480D01*
X124797D01*
Y181525D01*
X124752D01*
Y181569D01*
X124708D01*
Y181614D01*
X124663D01*
Y181658D01*
X124618D01*
Y181703D01*
X124574D01*
Y181748D01*
X124529D01*
Y181837D01*
X124484D01*
Y181882D01*
X124440D01*
Y181926D01*
X124395D01*
Y182016D01*
X124350D01*
Y182105D01*
X124306D01*
Y182194D01*
X124261D01*
Y182328D01*
X124216D01*
Y182462D01*
X124172D01*
Y182685D01*
X124127D01*
Y183176D01*
X124172D01*
Y183400D01*
X124216D01*
Y183534D01*
X124261D01*
Y183668D01*
X124306D01*
Y183757D01*
X124350D01*
Y183846D01*
X124395D01*
Y183936D01*
X124440D01*
Y184025D01*
X124484D01*
Y184114D01*
X124529D01*
Y184203D01*
X124574D01*
Y184293D01*
X124618D01*
Y184382D01*
X124663D01*
Y184471D01*
X124708D01*
Y184561D01*
X124752D01*
Y184605D01*
X124797D01*
Y184695D01*
X124842D01*
Y184784D01*
X124886D01*
Y184873D01*
X124931D01*
Y184962D01*
X124976D01*
Y185052D01*
X125020D01*
Y185141D01*
X125065D01*
Y185230D01*
X125110D01*
Y185320D01*
X125154D01*
Y185409D01*
X125199D01*
Y185498D01*
X125243D01*
Y185543D01*
X125288D01*
Y185632D01*
X125333D01*
Y185721D01*
X125377D01*
Y185811D01*
X125422D01*
Y185900D01*
X125467D01*
Y185989D01*
X125511D01*
Y186079D01*
X125556D01*
Y186168D01*
X125601D01*
Y186257D01*
X125645D01*
Y186347D01*
X125690D01*
Y186391D01*
X125735D01*
Y186481D01*
X125779D01*
Y186570D01*
X125824D01*
Y186659D01*
X125869D01*
Y186748D01*
X125913D01*
Y186838D01*
X125958D01*
Y186882D01*
X126002D01*
Y186972D01*
X126047D01*
Y187061D01*
X126092D01*
Y187150D01*
X126136D01*
Y187239D01*
X126181D01*
Y187284D01*
X126226D01*
Y187374D01*
X126270D01*
Y187463D01*
X126315D01*
Y187507D01*
X126360D01*
Y187597D01*
X126404D01*
Y187686D01*
X126449D01*
Y187775D01*
X126494D01*
Y187820D01*
X126538D01*
Y187909D01*
X126583D01*
Y187999D01*
X126628D01*
Y188043D01*
X126672D01*
Y188132D01*
X126717D01*
Y188177D01*
X126761D01*
Y188266D01*
X126806D01*
Y188356D01*
X126851D01*
Y188400D01*
X126895D01*
Y188490D01*
X126940D01*
Y188534D01*
X126985D01*
Y188624D01*
X127029D01*
Y188668D01*
X127074D01*
Y188758D01*
X127119D01*
Y188847D01*
X127163D01*
Y188892D01*
X127208D01*
Y188936D01*
X127253D01*
Y189025D01*
X127297D01*
Y189070D01*
X127342D01*
Y189159D01*
X127387D01*
Y189204D01*
X127431D01*
Y189293D01*
X127476D01*
Y189338D01*
X127521D01*
Y189427D01*
X127565D01*
Y189472D01*
X127610D01*
Y189561D01*
X127654D01*
Y189606D01*
X127699D01*
Y189695D01*
X127744D01*
Y189740D01*
X127788D01*
Y189785D01*
X127833D01*
Y189874D01*
X127878D01*
Y189918D01*
X127922D01*
Y189963D01*
X127967D01*
Y190052D01*
X128012D01*
Y190097D01*
X128056D01*
Y190142D01*
X128101D01*
Y190231D01*
X128146D01*
Y190276D01*
X128190D01*
Y190365D01*
X128235D01*
Y190410D01*
X128279D01*
Y190454D01*
X128324D01*
Y190499D01*
X128369D01*
Y190588D01*
X128413D01*
Y190633D01*
X128458D01*
Y190677D01*
X128503D01*
Y190767D01*
X128547D01*
Y190811D01*
X128592D01*
Y190856D01*
X128637D01*
Y190901D01*
X128681D01*
Y190990D01*
X128726D01*
Y191035D01*
X128771D01*
Y191079D01*
X128815D01*
Y191124D01*
X128860D01*
Y191213D01*
X128905D01*
Y191258D01*
X128949D01*
Y191303D01*
X128994D01*
Y191347D01*
X129038D01*
Y191437D01*
X129083D01*
Y191481D01*
X129128D01*
Y191526D01*
X129172D01*
Y191570D01*
X129217D01*
Y191615D01*
X129262D01*
Y191660D01*
X129306D01*
Y191749D01*
X129351D01*
Y191794D01*
X129396D01*
Y191838D01*
X129440D01*
Y191883D01*
X129485D01*
Y191928D01*
X129530D01*
Y192017D01*
X129574D01*
Y192062D01*
X129619D01*
Y192106D01*
X129664D01*
Y192151D01*
X129708D01*
Y192195D01*
X129753D01*
Y192240D01*
X129798D01*
Y192285D01*
X129842D01*
Y192329D01*
X129887D01*
Y192419D01*
X129931D01*
Y192463D01*
X129976D01*
Y192508D01*
X130021D01*
Y192553D01*
X130065D01*
Y192597D01*
X130110D01*
Y192642D01*
X130155D01*
Y192687D01*
X130199D01*
Y192731D01*
X130244D01*
Y192821D01*
X130289D01*
Y192865D01*
X130333D01*
Y192910D01*
X130378D01*
Y192955D01*
X130423D01*
Y192999D01*
X130467D01*
Y193044D01*
X130512D01*
Y193088D01*
X130557D01*
Y193133D01*
X130601D01*
Y193178D01*
X130646D01*
Y193222D01*
X130690D01*
Y193267D01*
X130735D01*
Y193312D01*
X130780D01*
Y193356D01*
X130824D01*
Y193401D01*
X130869D01*
Y193446D01*
X130914D01*
Y193490D01*
X130958D01*
Y193535D01*
X131003D01*
Y193580D01*
X131048D01*
Y193624D01*
X131092D01*
Y193669D01*
X131137D01*
Y193714D01*
X131182D01*
Y193758D01*
X131226D01*
Y193803D01*
X131271D01*
Y193848D01*
X131316D01*
Y193892D01*
X131360D01*
Y193937D01*
X131405D01*
Y193981D01*
X131449D01*
Y194026D01*
X131494D01*
Y194071D01*
X131539D01*
Y194115D01*
X131583D01*
Y194160D01*
X131628D01*
Y194205D01*
X131673D01*
Y194249D01*
X131717D01*
Y194294D01*
X131807D01*
Y194339D01*
X131851D01*
Y194383D01*
X131896D01*
Y194428D01*
X131941D01*
Y194473D01*
X131985D01*
Y194517D01*
X132030D01*
Y194562D01*
X132075D01*
Y194606D01*
X132119D01*
Y194651D01*
X132164D01*
Y194696D01*
X132209D01*
Y194741D01*
X132298D01*
Y194785D01*
X132343D01*
Y194830D01*
X132387D01*
Y194874D01*
X132432D01*
Y194919D01*
X132476D01*
Y194964D01*
X132521D01*
Y195008D01*
X132566D01*
Y195053D01*
X132610D01*
Y195098D01*
X132700D01*
Y195142D01*
X132744D01*
Y195187D01*
X132789D01*
Y195232D01*
X132834D01*
Y195276D01*
X132878D01*
Y195321D01*
X132923D01*
Y195366D01*
X133012D01*
Y195410D01*
X133057D01*
Y195455D01*
X133102D01*
Y195499D01*
X133146D01*
Y195544D01*
X133191D01*
Y195589D01*
X133280D01*
Y195633D01*
X133325D01*
Y195678D01*
X133369D01*
Y195723D01*
X133414D01*
Y195767D01*
X133503D01*
Y195812D01*
X133548D01*
Y195857D01*
X133593D01*
Y195901D01*
X133637D01*
Y195946D01*
X133727D01*
Y195991D01*
X133771D01*
Y196035D01*
X133816D01*
Y196080D01*
X133905D01*
Y196125D01*
X133950D01*
Y196169D01*
X133995D01*
Y196214D01*
X134039D01*
Y196259D01*
X134129D01*
Y196303D01*
X134173D01*
Y196348D01*
X134262D01*
Y196392D01*
X134307D01*
Y196437D01*
X134352D01*
Y196482D01*
X134441D01*
Y196526D01*
X134486D01*
Y196571D01*
X134530D01*
Y196616D01*
X134620D01*
Y196660D01*
X134664D01*
Y196705D01*
X134709D01*
Y196750D01*
X134798D01*
Y196794D01*
X134843D01*
Y196839D01*
X134888D01*
Y196884D01*
X134977D01*
Y196928D01*
X135021D01*
Y196973D01*
X135111D01*
Y197017D01*
X135155D01*
Y197062D01*
X135245D01*
Y197107D01*
X135289D01*
Y197152D01*
X135379D01*
Y197196D01*
X135423D01*
Y197241D01*
X135468D01*
Y197285D01*
X135557D01*
Y197330D01*
X135602D01*
Y197375D01*
X135691D01*
Y197419D01*
X135736D01*
Y197464D01*
X135825D01*
Y197509D01*
X135914D01*
Y197553D01*
X135959D01*
Y197598D01*
X136048D01*
Y197643D01*
X136093D01*
Y197687D01*
X136182D01*
Y197732D01*
X136227D01*
Y197777D01*
X136316D01*
Y197821D01*
X136361D01*
Y197866D01*
X136450D01*
Y197910D01*
X136539D01*
Y197955D01*
X136584D01*
Y198000D01*
X136673D01*
Y198044D01*
X136763D01*
Y198089D01*
X136807D01*
Y198134D01*
X136897D01*
Y198178D01*
X136986D01*
Y198223D01*
X137031D01*
Y198268D01*
X137120D01*
Y198312D01*
X137209D01*
Y198357D01*
X137254D01*
Y198402D01*
X137343D01*
Y198446D01*
X137432D01*
Y198491D01*
X137477D01*
Y198536D01*
X137566D01*
Y198580D01*
X137656D01*
Y198625D01*
X137745D01*
Y198669D01*
X137834D01*
Y198714D01*
X137879D01*
Y198759D01*
X137968D01*
Y198804D01*
X138057D01*
Y198848D01*
X138147D01*
Y198893D01*
X138236D01*
Y198937D01*
X138325D01*
Y198982D01*
X138415D01*
Y199027D01*
X138504D01*
Y199071D01*
X138593D01*
Y199116D01*
X138683D01*
Y199161D01*
X138772D01*
Y199205D01*
X138861D01*
Y199250D01*
X138951D01*
Y199295D01*
X139040D01*
Y199339D01*
X139129D01*
Y199384D01*
X139218D01*
Y199429D01*
X139308D01*
Y199473D01*
X139397D01*
Y199518D01*
X139486D01*
Y199562D01*
X139576D01*
Y199607D01*
X139665D01*
Y199652D01*
X139754D01*
Y199696D01*
X139888D01*
Y199741D01*
X139977D01*
Y199786D01*
X140067D01*
Y199830D01*
X140156D01*
Y199875D01*
X140290D01*
Y199920D01*
X140379D01*
Y199964D01*
X140469D01*
Y200009D01*
X140603D01*
Y200054D01*
X140692D01*
Y200098D01*
X140781D01*
Y200143D01*
X140915D01*
Y200188D01*
X141004D01*
Y200232D01*
X141138D01*
Y200277D01*
X141228D01*
Y200322D01*
X141362D01*
Y200366D01*
X141451D01*
Y200411D01*
X141585D01*
Y200455D01*
X141719D01*
Y200500D01*
X141808D01*
Y200545D01*
X141942D01*
Y200589D01*
X142076D01*
Y200634D01*
X142165D01*
Y200679D01*
X142299D01*
Y200723D01*
X142433D01*
Y200768D01*
X142567D01*
Y200813D01*
X142701D01*
Y200857D01*
X142790D01*
Y200902D01*
X142924D01*
Y200947D01*
X143058D01*
Y200991D01*
X143237D01*
Y201036D01*
X143371D01*
Y201080D01*
X143505D01*
Y201125D01*
X143683D01*
Y201170D01*
X143817D01*
Y201215D01*
X143951D01*
Y201259D01*
X144130D01*
Y201304D01*
X144308D01*
Y201348D01*
X144442D01*
Y201393D01*
X144621D01*
Y201438D01*
X144799D01*
Y201482D01*
X144978D01*
Y201527D01*
X145157D01*
Y201572D01*
X145335D01*
Y201616D01*
X145514D01*
Y201661D01*
X145692D01*
Y201706D01*
X145871D01*
Y201750D01*
X146094D01*
Y201795D01*
X146318D01*
Y201840D01*
X146541D01*
Y201884D01*
X146809D01*
Y201929D01*
X147032D01*
Y201973D01*
X147300D01*
Y202018D01*
X147568D01*
Y202063D01*
X147836D01*
Y202107D01*
X148148D01*
Y202152D01*
X148505D01*
Y202197D01*
X148862D01*
Y202241D01*
X149264D01*
Y202286D01*
X149800D01*
Y202331D01*
X150380D01*
Y202375D01*
X151273D01*
Y202420D01*
X153417D01*
Y202375D01*
D02*
G37*
G36*
X167034Y169335D02*
X167391D01*
Y169291D01*
X167615D01*
Y169246D01*
X167793D01*
Y169202D01*
X167927D01*
Y169157D01*
X168106D01*
Y169112D01*
X168240D01*
Y169068D01*
X168329D01*
Y169023D01*
X168463D01*
Y168978D01*
X168552D01*
Y168934D01*
X168686D01*
Y168889D01*
X168776D01*
Y168844D01*
X168865D01*
Y168800D01*
X168910D01*
Y168755D01*
X168999D01*
Y168710D01*
X169088D01*
Y168666D01*
X169177D01*
Y168621D01*
X169222D01*
Y168577D01*
X169311D01*
Y168532D01*
X169356D01*
Y168487D01*
X169445D01*
Y168442D01*
X169490D01*
Y168398D01*
X169579D01*
Y168353D01*
X169624D01*
Y168309D01*
X169669D01*
Y168264D01*
X169758D01*
Y168219D01*
X169803D01*
Y168175D01*
X169847D01*
Y168130D01*
X169892D01*
Y168085D01*
X169937D01*
Y168041D01*
X169981D01*
Y167996D01*
X170070D01*
Y167951D01*
X170115D01*
Y167907D01*
X170160D01*
Y167862D01*
X170204D01*
Y167817D01*
X170249D01*
Y167773D01*
X170294D01*
Y167728D01*
X170338D01*
Y167639D01*
X170383D01*
Y167594D01*
X170428D01*
Y167550D01*
X170472D01*
Y167505D01*
X170517D01*
Y167460D01*
X170562D01*
Y167371D01*
X170606D01*
Y167326D01*
X170651D01*
Y167282D01*
X170695D01*
Y167192D01*
X170740D01*
Y167148D01*
X170785D01*
Y167103D01*
X170830D01*
Y167014D01*
X170874D01*
Y166969D01*
X170919D01*
Y166880D01*
X170963D01*
Y166791D01*
X171008D01*
Y166701D01*
X171053D01*
Y166657D01*
X171097D01*
Y166567D01*
X171142D01*
Y166478D01*
X171187D01*
Y166389D01*
X171231D01*
Y166299D01*
X171276D01*
Y166166D01*
X171321D01*
Y166076D01*
X171365D01*
Y165942D01*
X171410D01*
Y165808D01*
X171455D01*
Y165674D01*
X171499D01*
Y165540D01*
X171544D01*
Y165362D01*
X171588D01*
Y165139D01*
X171633D01*
Y164871D01*
X171678D01*
Y164290D01*
X171722D01*
Y164022D01*
X171678D01*
Y163397D01*
X171633D01*
Y163085D01*
X171588D01*
Y162772D01*
X171544D01*
Y162460D01*
X171499D01*
Y162192D01*
X171455D01*
Y161879D01*
X171410D01*
Y161567D01*
X171365D01*
Y161254D01*
X171321D01*
Y160986D01*
X171276D01*
Y160674D01*
X171231D01*
Y160361D01*
X171187D01*
Y160049D01*
X171142D01*
Y159781D01*
X171097D01*
Y159468D01*
X171053D01*
Y159156D01*
X171008D01*
Y158843D01*
X170963D01*
Y158575D01*
X170919D01*
Y158263D01*
X170874D01*
Y157950D01*
X170830D01*
Y157682D01*
X170785D01*
Y157370D01*
X170740D01*
Y157057D01*
X170695D01*
Y156745D01*
X170651D01*
Y156477D01*
X170606D01*
Y156164D01*
X170562D01*
Y155852D01*
X170517D01*
Y155539D01*
X170472D01*
Y155271D01*
X170428D01*
Y154959D01*
X170383D01*
Y154646D01*
X170338D01*
Y154334D01*
X170294D01*
Y154066D01*
X170249D01*
Y153753D01*
X170204D01*
Y153441D01*
X170160D01*
Y153128D01*
X170115D01*
Y152860D01*
X170070D01*
Y152548D01*
X170026D01*
Y152235D01*
X169981D01*
Y151923D01*
X169937D01*
Y151655D01*
X169892D01*
Y151342D01*
X169847D01*
Y151030D01*
X169803D01*
Y150717D01*
X169758D01*
Y150449D01*
X169713D01*
Y150137D01*
X169669D01*
Y149824D01*
X169624D01*
Y149556D01*
X169579D01*
Y149333D01*
X169535D01*
Y149154D01*
X169490D01*
Y149021D01*
X169445D01*
Y148886D01*
X169401D01*
Y148753D01*
X169356D01*
Y148619D01*
X169311D01*
Y148485D01*
X169267D01*
Y148395D01*
X169222D01*
Y148306D01*
X169177D01*
Y148217D01*
X169133D01*
Y148127D01*
X169088D01*
Y148038D01*
X169044D01*
Y147949D01*
X168999D01*
Y147860D01*
X168954D01*
Y147815D01*
X168910D01*
Y147726D01*
X168865D01*
Y147681D01*
X168820D01*
Y147592D01*
X168776D01*
Y147547D01*
X168731D01*
Y147458D01*
X168686D01*
Y147413D01*
X168642D01*
Y147324D01*
X168597D01*
Y147279D01*
X168552D01*
Y147234D01*
X168508D01*
Y147190D01*
X168463D01*
Y147145D01*
X168419D01*
Y147056D01*
X168374D01*
Y147011D01*
X168329D01*
Y146967D01*
X168284D01*
Y146922D01*
X168240D01*
Y146877D01*
X168195D01*
Y146833D01*
X168151D01*
Y146788D01*
X168106D01*
Y146743D01*
X168061D01*
Y146699D01*
X168017D01*
Y146654D01*
X167972D01*
Y146609D01*
X167927D01*
Y146565D01*
X167883D01*
Y146520D01*
X167793D01*
Y146475D01*
X167749D01*
Y146431D01*
X167704D01*
Y146386D01*
X167659D01*
Y146342D01*
X167570D01*
Y146297D01*
X167526D01*
Y146252D01*
X167481D01*
Y146208D01*
X167391D01*
Y146163D01*
X167347D01*
Y146118D01*
X167258D01*
Y146074D01*
X167168D01*
Y146029D01*
X167124D01*
Y145984D01*
X167034D01*
Y145940D01*
X166945D01*
Y145895D01*
X166856D01*
Y145850D01*
X166766D01*
Y145806D01*
X166722D01*
Y145761D01*
X166588D01*
Y145716D01*
X166499D01*
Y145672D01*
X166409D01*
Y145627D01*
X166275D01*
Y145583D01*
X166141D01*
Y145538D01*
X166007D01*
Y145493D01*
X165874D01*
Y145449D01*
X165695D01*
Y145404D01*
X165516D01*
Y145359D01*
X165248D01*
Y145315D01*
X164936D01*
Y145270D01*
X163954D01*
Y145315D01*
X163596D01*
Y145359D01*
X163328D01*
Y145404D01*
X163150D01*
Y145449D01*
X163016D01*
Y145493D01*
X162837D01*
Y145538D01*
X162703D01*
Y145583D01*
X162570D01*
Y145627D01*
X162480D01*
Y145672D01*
X162391D01*
Y145716D01*
X162257D01*
Y145761D01*
X162168D01*
Y145806D01*
X162078D01*
Y145850D01*
X161989D01*
Y145895D01*
X161900D01*
Y145940D01*
X161855D01*
Y145984D01*
X161766D01*
Y146029D01*
X161677D01*
Y146074D01*
X161587D01*
Y146118D01*
X161543D01*
Y146163D01*
X161453D01*
Y146208D01*
X161409D01*
Y146252D01*
X161364D01*
Y146297D01*
X161275D01*
Y146342D01*
X161230D01*
Y146386D01*
X161185D01*
Y146431D01*
X161141D01*
Y146475D01*
X161051D01*
Y146520D01*
X161007D01*
Y146565D01*
X160962D01*
Y146609D01*
X160917D01*
Y146654D01*
X160873D01*
Y146699D01*
X160828D01*
Y146743D01*
X160784D01*
Y146788D01*
X160739D01*
Y146833D01*
X160694D01*
Y146877D01*
X160650D01*
Y146922D01*
X160605D01*
Y146967D01*
X160560D01*
Y147011D01*
X160516D01*
Y147056D01*
X160471D01*
Y147101D01*
X160426D01*
Y147190D01*
X160382D01*
Y147234D01*
X160337D01*
Y147279D01*
X160292D01*
Y147324D01*
X160248D01*
Y147413D01*
X160203D01*
Y147458D01*
X160159D01*
Y147502D01*
X160114D01*
Y147592D01*
X160069D01*
Y147636D01*
X160025D01*
Y147726D01*
X159980D01*
Y147815D01*
X159935D01*
Y147860D01*
X159891D01*
Y147949D01*
X159846D01*
Y148038D01*
X159801D01*
Y148127D01*
X159757D01*
Y148217D01*
X159712D01*
Y148306D01*
X159667D01*
Y148395D01*
X159623D01*
Y148485D01*
X159578D01*
Y148619D01*
X159533D01*
Y148753D01*
X159489D01*
Y148886D01*
X159444D01*
Y149021D01*
X159399D01*
Y149154D01*
X159355D01*
Y149378D01*
X159310D01*
Y149601D01*
X159265D01*
Y149869D01*
X159221D01*
Y151119D01*
X159265D01*
Y151432D01*
X159310D01*
Y151744D01*
X159355D01*
Y152057D01*
X159399D01*
Y152324D01*
X159444D01*
Y152637D01*
X159489D01*
Y152949D01*
X159533D01*
Y153262D01*
X159578D01*
Y153530D01*
X159623D01*
Y153842D01*
X159667D01*
Y154155D01*
X159712D01*
Y154468D01*
X159757D01*
Y154735D01*
X159801D01*
Y155048D01*
X159846D01*
Y155360D01*
X159891D01*
Y155673D01*
X159935D01*
Y155941D01*
X159980D01*
Y156253D01*
X160025D01*
Y156566D01*
X160069D01*
Y156879D01*
X160114D01*
Y157147D01*
X160159D01*
Y157459D01*
X160203D01*
Y157772D01*
X160248D01*
Y158084D01*
X160292D01*
Y158352D01*
X160337D01*
Y158665D01*
X160382D01*
Y158977D01*
X160426D01*
Y159290D01*
X160471D01*
Y159558D01*
X160516D01*
Y159870D01*
X160560D01*
Y160183D01*
X160605D01*
Y160495D01*
X160650D01*
Y160763D01*
X160694D01*
Y161075D01*
X160739D01*
Y161388D01*
X160784D01*
Y161701D01*
X160828D01*
Y161968D01*
X160873D01*
Y162281D01*
X160917D01*
Y162594D01*
X160962D01*
Y162906D01*
X161007D01*
Y163174D01*
X161051D01*
Y163487D01*
X161096D01*
Y163799D01*
X161141D01*
Y164112D01*
X161185D01*
Y164380D01*
X161230D01*
Y164692D01*
X161275D01*
Y165005D01*
X161319D01*
Y165273D01*
X161364D01*
Y165451D01*
X161409D01*
Y165630D01*
X161453D01*
Y165764D01*
X161498D01*
Y165898D01*
X161543D01*
Y166031D01*
X161587D01*
Y166121D01*
X161632D01*
Y166255D01*
X161677D01*
Y166344D01*
X161721D01*
Y166433D01*
X161766D01*
Y166523D01*
X161810D01*
Y166612D01*
X161855D01*
Y166701D01*
X161900D01*
Y166746D01*
X161944D01*
Y166835D01*
X161989D01*
Y166924D01*
X162034D01*
Y166969D01*
X162078D01*
Y167058D01*
X162123D01*
Y167103D01*
X162168D01*
Y167192D01*
X162212D01*
Y167237D01*
X162257D01*
Y167282D01*
X162302D01*
Y167371D01*
X162346D01*
Y167416D01*
X162391D01*
Y167460D01*
X162436D01*
Y167550D01*
X162480D01*
Y167594D01*
X162525D01*
Y167639D01*
X162570D01*
Y167684D01*
X162614D01*
Y167728D01*
X162659D01*
Y167773D01*
X162703D01*
Y167817D01*
X162748D01*
Y167862D01*
X162793D01*
Y167907D01*
X162837D01*
Y167951D01*
X162882D01*
Y167996D01*
X162927D01*
Y168041D01*
X162971D01*
Y168085D01*
X163016D01*
Y168130D01*
X163105D01*
Y168175D01*
X163150D01*
Y168219D01*
X163195D01*
Y168264D01*
X163239D01*
Y168309D01*
X163328D01*
Y168353D01*
X163373D01*
Y168398D01*
X163418D01*
Y168442D01*
X163507D01*
Y168487D01*
X163552D01*
Y168532D01*
X163641D01*
Y168577D01*
X163686D01*
Y168621D01*
X163775D01*
Y168666D01*
X163820D01*
Y168710D01*
X163909D01*
Y168755D01*
X163998D01*
Y168800D01*
X164088D01*
Y168844D01*
X164177D01*
Y168889D01*
X164266D01*
Y168934D01*
X164355D01*
Y168978D01*
X164489D01*
Y169023D01*
X164579D01*
Y169068D01*
X164713D01*
Y169112D01*
X164847D01*
Y169157D01*
X164981D01*
Y169202D01*
X165159D01*
Y169246D01*
X165338D01*
Y169291D01*
X165561D01*
Y169335D01*
X165874D01*
Y169380D01*
X167034D01*
Y169335D01*
D02*
G37*
G36*
X138816D02*
X139129D01*
Y169291D01*
X139352D01*
Y169246D01*
X139531D01*
Y169202D01*
X139710D01*
Y169157D01*
X139844D01*
Y169112D01*
X139977D01*
Y169068D01*
X140067D01*
Y169023D01*
X140201D01*
Y168978D01*
X140335D01*
Y168934D01*
X140424D01*
Y168889D01*
X140513D01*
Y168844D01*
X140603D01*
Y168800D01*
X140692D01*
Y168755D01*
X140781D01*
Y168710D01*
X140826D01*
Y168666D01*
X140915D01*
Y168621D01*
X141004D01*
Y168577D01*
X141049D01*
Y168532D01*
X141138D01*
Y168487D01*
X141183D01*
Y168442D01*
X141228D01*
Y168398D01*
X141317D01*
Y168353D01*
X141362D01*
Y168309D01*
X141451D01*
Y168264D01*
X141495D01*
Y168219D01*
X141540D01*
Y168175D01*
X141585D01*
Y168130D01*
X141629D01*
Y168085D01*
X141674D01*
Y168041D01*
X141763D01*
Y167996D01*
X141808D01*
Y167951D01*
X141853D01*
Y167907D01*
X141897D01*
Y167862D01*
X141942D01*
Y167817D01*
X141987D01*
Y167773D01*
X142031D01*
Y167728D01*
X142076D01*
Y167684D01*
X142121D01*
Y167639D01*
X142165D01*
Y167550D01*
X142210D01*
Y167505D01*
X142254D01*
Y167460D01*
X142299D01*
Y167416D01*
X142344D01*
Y167326D01*
X142388D01*
Y167282D01*
X142433D01*
Y167237D01*
X142478D01*
Y167148D01*
X142522D01*
Y167103D01*
X142567D01*
Y167014D01*
X142612D01*
Y166969D01*
X142656D01*
Y166880D01*
X142701D01*
Y166791D01*
X142746D01*
Y166746D01*
X142790D01*
Y166657D01*
X142835D01*
Y166567D01*
X142879D01*
Y166478D01*
X142924D01*
Y166389D01*
X142969D01*
Y166299D01*
X143013D01*
Y166210D01*
X143058D01*
Y166076D01*
X143103D01*
Y165987D01*
X143147D01*
Y165853D01*
X143192D01*
Y165719D01*
X143237D01*
Y165540D01*
X143281D01*
Y165362D01*
X143326D01*
Y165183D01*
X143371D01*
Y164960D01*
X143415D01*
Y164692D01*
X143460D01*
Y164380D01*
X143505D01*
Y164112D01*
X143549D01*
Y163799D01*
X143594D01*
Y163487D01*
X143639D01*
Y163174D01*
X143683D01*
Y162906D01*
X143728D01*
Y162594D01*
X143772D01*
Y162281D01*
X143817D01*
Y161968D01*
X143862D01*
Y161701D01*
X143906D01*
Y161388D01*
X143951D01*
Y161075D01*
X143996D01*
Y160763D01*
X144040D01*
Y160495D01*
X144085D01*
Y160183D01*
X144130D01*
Y159870D01*
X144174D01*
Y159558D01*
X144219D01*
Y159290D01*
X144264D01*
Y158977D01*
X144308D01*
Y158665D01*
X144353D01*
Y158352D01*
X144398D01*
Y158084D01*
X144442D01*
Y157772D01*
X144487D01*
Y157459D01*
X144531D01*
Y157147D01*
X144576D01*
Y156879D01*
X144621D01*
Y156566D01*
X144665D01*
Y156253D01*
X144710D01*
Y155941D01*
X144755D01*
Y155673D01*
X144799D01*
Y155360D01*
X144844D01*
Y155048D01*
X144889D01*
Y154735D01*
X144933D01*
Y154468D01*
X144978D01*
Y154155D01*
X145023D01*
Y153842D01*
X145067D01*
Y153530D01*
X145112D01*
Y153262D01*
X145157D01*
Y152949D01*
X145201D01*
Y152637D01*
X145246D01*
Y152324D01*
X145291D01*
Y152057D01*
X145335D01*
Y151744D01*
X145380D01*
Y151432D01*
X145424D01*
Y151119D01*
X145469D01*
Y149913D01*
X145424D01*
Y149601D01*
X145380D01*
Y149378D01*
X145335D01*
Y149199D01*
X145291D01*
Y149021D01*
X145246D01*
Y148886D01*
X145201D01*
Y148753D01*
X145157D01*
Y148619D01*
X145112D01*
Y148529D01*
X145067D01*
Y148440D01*
X145023D01*
Y148306D01*
X144978D01*
Y148217D01*
X144933D01*
Y148127D01*
X144889D01*
Y148038D01*
X144844D01*
Y147949D01*
X144799D01*
Y147904D01*
X144755D01*
Y147815D01*
X144710D01*
Y147726D01*
X144665D01*
Y147681D01*
X144621D01*
Y147592D01*
X144576D01*
Y147547D01*
X144531D01*
Y147458D01*
X144487D01*
Y147413D01*
X144442D01*
Y147368D01*
X144398D01*
Y147279D01*
X144353D01*
Y147234D01*
X144308D01*
Y147190D01*
X144264D01*
Y147145D01*
X144219D01*
Y147056D01*
X144174D01*
Y147011D01*
X144130D01*
Y146967D01*
X144085D01*
Y146922D01*
X144040D01*
Y146877D01*
X143996D01*
Y146833D01*
X143951D01*
Y146788D01*
X143906D01*
Y146743D01*
X143862D01*
Y146699D01*
X143817D01*
Y146654D01*
X143772D01*
Y146609D01*
X143728D01*
Y146565D01*
X143683D01*
Y146520D01*
X143594D01*
Y146475D01*
X143549D01*
Y146431D01*
X143505D01*
Y146386D01*
X143460D01*
Y146342D01*
X143371D01*
Y146297D01*
X143326D01*
Y146252D01*
X143281D01*
Y146208D01*
X143192D01*
Y146163D01*
X143147D01*
Y146118D01*
X143058D01*
Y146074D01*
X143013D01*
Y146029D01*
X142924D01*
Y145984D01*
X142835D01*
Y145940D01*
X142746D01*
Y145895D01*
X142656D01*
Y145850D01*
X142612D01*
Y145806D01*
X142522D01*
Y145761D01*
X142388D01*
Y145716D01*
X142299D01*
Y145672D01*
X142210D01*
Y145627D01*
X142076D01*
Y145583D01*
X141942D01*
Y145538D01*
X141808D01*
Y145493D01*
X141674D01*
Y145449D01*
X141540D01*
Y145404D01*
X141317D01*
Y145359D01*
X141094D01*
Y145315D01*
X140736D01*
Y145270D01*
X139754D01*
Y145315D01*
X139442D01*
Y145359D01*
X139174D01*
Y145404D01*
X138951D01*
Y145449D01*
X138772D01*
Y145493D01*
X138638D01*
Y145538D01*
X138504D01*
Y145583D01*
X138370D01*
Y145627D01*
X138281D01*
Y145672D01*
X138191D01*
Y145716D01*
X138057D01*
Y145761D01*
X137968D01*
Y145806D01*
X137879D01*
Y145850D01*
X137790D01*
Y145895D01*
X137745D01*
Y145940D01*
X137656D01*
Y145984D01*
X137566D01*
Y146029D01*
X137477D01*
Y146074D01*
X137432D01*
Y146118D01*
X137343D01*
Y146163D01*
X137298D01*
Y146208D01*
X137209D01*
Y146252D01*
X137164D01*
Y146297D01*
X137075D01*
Y146342D01*
X137031D01*
Y146386D01*
X136986D01*
Y146431D01*
X136941D01*
Y146475D01*
X136852D01*
Y146520D01*
X136807D01*
Y146565D01*
X136763D01*
Y146609D01*
X136718D01*
Y146654D01*
X136673D01*
Y146699D01*
X136629D01*
Y146743D01*
X136584D01*
Y146788D01*
X136539D01*
Y146833D01*
X136495D01*
Y146877D01*
X136450D01*
Y146922D01*
X136405D01*
Y146967D01*
X136361D01*
Y147011D01*
X136316D01*
Y147056D01*
X136272D01*
Y147101D01*
X136227D01*
Y147190D01*
X136182D01*
Y147234D01*
X136138D01*
Y147279D01*
X136093D01*
Y147324D01*
X136048D01*
Y147413D01*
X136004D01*
Y147458D01*
X135959D01*
Y147502D01*
X135914D01*
Y147592D01*
X135870D01*
Y147636D01*
X135825D01*
Y147726D01*
X135780D01*
Y147815D01*
X135736D01*
Y147860D01*
X135691D01*
Y147949D01*
X135646D01*
Y148038D01*
X135602D01*
Y148127D01*
X135557D01*
Y148217D01*
X135513D01*
Y148306D01*
X135468D01*
Y148395D01*
X135423D01*
Y148485D01*
X135379D01*
Y148619D01*
X135334D01*
Y148753D01*
X135289D01*
Y148842D01*
X135245D01*
Y149021D01*
X135200D01*
Y149154D01*
X135155D01*
Y149333D01*
X135111D01*
Y149556D01*
X135066D01*
Y149601D01*
Y149646D01*
Y149824D01*
X135021D01*
Y150137D01*
X134977D01*
Y150449D01*
X134932D01*
Y150717D01*
X134888D01*
Y151030D01*
X134843D01*
Y151342D01*
X134798D01*
Y151655D01*
X134754D01*
Y151923D01*
X134709D01*
Y152235D01*
X134664D01*
Y152548D01*
X134620D01*
Y152860D01*
X134575D01*
Y153128D01*
X134530D01*
Y153441D01*
X134486D01*
Y153753D01*
X134441D01*
Y154066D01*
X134396D01*
Y154334D01*
X134352D01*
Y154646D01*
X134307D01*
Y154959D01*
X134262D01*
Y155271D01*
X134218D01*
Y155539D01*
X134173D01*
Y155852D01*
X134129D01*
Y156164D01*
X134084D01*
Y156477D01*
X134039D01*
Y156745D01*
X133995D01*
Y157057D01*
X133950D01*
Y157370D01*
X133905D01*
Y157682D01*
X133861D01*
Y157950D01*
X133816D01*
Y158263D01*
X133771D01*
Y158575D01*
X133727D01*
Y158888D01*
X133682D01*
Y159156D01*
X133637D01*
Y159468D01*
X133593D01*
Y159781D01*
X133548D01*
Y160093D01*
X133503D01*
Y160361D01*
X133459D01*
Y160674D01*
X133414D01*
Y160986D01*
X133369D01*
Y161254D01*
X133325D01*
Y161567D01*
X133280D01*
Y161879D01*
X133236D01*
Y162192D01*
X133191D01*
Y162460D01*
X133146D01*
Y162772D01*
X133102D01*
Y163085D01*
X133057D01*
Y163397D01*
X133012D01*
Y163665D01*
X132968D01*
Y164647D01*
X133012D01*
Y165005D01*
X133057D01*
Y165228D01*
X133102D01*
Y165406D01*
X133146D01*
Y165585D01*
X133191D01*
Y165719D01*
X133236D01*
Y165853D01*
X133280D01*
Y165987D01*
X133325D01*
Y166121D01*
X133369D01*
Y166210D01*
X133414D01*
Y166299D01*
X133459D01*
Y166389D01*
X133503D01*
Y166478D01*
X133548D01*
Y166567D01*
X133593D01*
Y166657D01*
X133637D01*
Y166746D01*
X133682D01*
Y166835D01*
X133727D01*
Y166880D01*
X133771D01*
Y166969D01*
X133816D01*
Y167058D01*
X133861D01*
Y167103D01*
X133905D01*
Y167148D01*
X133950D01*
Y167237D01*
X133995D01*
Y167282D01*
X134039D01*
Y167326D01*
X134084D01*
Y167416D01*
X134129D01*
Y167460D01*
X134173D01*
Y167505D01*
X134218D01*
Y167550D01*
X134262D01*
Y167639D01*
X134307D01*
Y167684D01*
X134352D01*
Y167728D01*
X134396D01*
Y167773D01*
X134441D01*
Y167817D01*
X134486D01*
Y167862D01*
X134530D01*
Y167907D01*
X134575D01*
Y167951D01*
X134620D01*
Y167996D01*
X134664D01*
Y168041D01*
X134709D01*
Y168085D01*
X134798D01*
Y168130D01*
X134843D01*
Y168175D01*
X134888D01*
Y168219D01*
X134932D01*
Y168264D01*
X134977D01*
Y168309D01*
X135066D01*
Y168353D01*
X135111D01*
Y168398D01*
X135200D01*
Y168442D01*
X135245D01*
Y168487D01*
X135289D01*
Y168532D01*
X135379D01*
Y168577D01*
X135423D01*
Y168621D01*
X135513D01*
Y168666D01*
X135602D01*
Y168710D01*
X135691D01*
Y168755D01*
X135736D01*
Y168800D01*
X135825D01*
Y168844D01*
X135914D01*
Y168889D01*
X136004D01*
Y168934D01*
X136138D01*
Y168978D01*
X136227D01*
Y169023D01*
X136316D01*
Y169068D01*
X136450D01*
Y169112D01*
X136584D01*
Y169157D01*
X136763D01*
Y169202D01*
X136897D01*
Y169246D01*
X137075D01*
Y169291D01*
X137298D01*
Y169335D01*
X137656D01*
Y169380D01*
X138816D01*
Y169335D01*
D02*
G37*
G36*
X81617Y140869D02*
X81641D01*
Y140820D01*
X81666D01*
Y140770D01*
X81691D01*
Y140745D01*
X81716D01*
Y140597D01*
X81741D01*
Y140572D01*
X81765D01*
Y140448D01*
X81790D01*
Y140399D01*
X81815D01*
Y140374D01*
X81840D01*
Y140250D01*
X81864D01*
Y140225D01*
X81889D01*
Y140101D01*
X81914D01*
Y140052D01*
X81939D01*
Y140002D01*
X81964D01*
Y139953D01*
X81988D01*
Y139829D01*
X82013D01*
Y139804D01*
X82038D01*
Y139680D01*
X82063D01*
Y139630D01*
X82087D01*
Y139482D01*
X82063D01*
Y139457D01*
X82038D01*
Y139432D01*
X82013D01*
Y139408D01*
X81864D01*
Y139383D01*
X81840D01*
Y139358D01*
X81716D01*
Y139333D01*
X81691D01*
Y139308D01*
X81542D01*
Y139284D01*
X81517D01*
Y139259D01*
X81369D01*
Y139209D01*
X81220D01*
Y139185D01*
X81195D01*
Y139160D01*
X81146D01*
Y139135D01*
X81096D01*
Y139110D01*
X81047D01*
Y139085D01*
X80997D01*
Y139061D01*
X80972D01*
Y139036D01*
X80824D01*
Y138986D01*
X80725D01*
Y138961D01*
X80700D01*
Y138937D01*
X80675D01*
Y138912D01*
X80650D01*
Y138937D01*
X80625D01*
Y138912D01*
X80601D01*
Y138887D01*
X80576D01*
Y138862D01*
X80477D01*
Y138813D01*
X80378D01*
Y138788D01*
X80353D01*
Y138763D01*
X80328D01*
Y138739D01*
X80254D01*
Y138714D01*
X80229D01*
Y138689D01*
X80155D01*
Y138664D01*
X80130D01*
Y138639D01*
X80056D01*
Y138615D01*
X80031D01*
Y138590D01*
X79957D01*
Y138565D01*
X79932D01*
Y138540D01*
X79833D01*
Y138516D01*
X79808D01*
Y138491D01*
X79783D01*
Y138466D01*
X79758D01*
Y138441D01*
X79734D01*
Y138417D01*
X79634D01*
Y138392D01*
X79610D01*
Y138367D01*
X79535D01*
Y138342D01*
X79511D01*
Y138317D01*
X79486D01*
Y138293D01*
X79461D01*
Y138268D01*
X79412D01*
Y138243D01*
X79362D01*
Y138218D01*
X79337D01*
Y138194D01*
X79312D01*
Y138169D01*
X79288D01*
Y138144D01*
X79213D01*
Y138119D01*
X79188D01*
Y138094D01*
X79164D01*
Y138070D01*
X79139D01*
Y138045D01*
X79065D01*
Y138020D01*
X79040D01*
Y137995D01*
X79015D01*
Y137971D01*
X78990D01*
Y137946D01*
X78966D01*
Y137921D01*
X78941D01*
Y137896D01*
X78916D01*
Y137871D01*
X78891D01*
Y137847D01*
X78866D01*
Y137871D01*
X78842D01*
Y137847D01*
X78817D01*
Y137822D01*
X78792D01*
Y137797D01*
X78742D01*
Y137747D01*
X78718D01*
Y137723D01*
X78668D01*
Y137698D01*
X78619D01*
Y137673D01*
X78569D01*
Y137648D01*
X78544D01*
Y137624D01*
X78520D01*
Y137599D01*
X78495D01*
Y137574D01*
X78470D01*
Y137549D01*
X78445D01*
Y137524D01*
X78420D01*
Y137500D01*
X78396D01*
Y137475D01*
X78371D01*
Y137450D01*
X78346D01*
Y137425D01*
X78272D01*
Y137401D01*
X78247D01*
Y137376D01*
X78222D01*
Y137351D01*
X78197D01*
Y137326D01*
X78173D01*
Y137302D01*
X78148D01*
Y137277D01*
X78123D01*
Y137252D01*
X78098D01*
Y137227D01*
X78074D01*
Y137202D01*
X78049D01*
Y137178D01*
X78024D01*
Y137153D01*
X77999D01*
Y137128D01*
X77974D01*
Y137103D01*
X77950D01*
Y137079D01*
X77925D01*
Y137054D01*
X77900D01*
Y137029D01*
X77875D01*
Y137004D01*
X77850D01*
Y136979D01*
X77826D01*
Y136955D01*
X77801D01*
Y136930D01*
X77776D01*
Y136905D01*
X77751D01*
Y136880D01*
X77727D01*
Y136855D01*
X77702D01*
Y136831D01*
X77677D01*
Y136806D01*
X77652D01*
Y136781D01*
X77628D01*
Y136756D01*
X77603D01*
Y136732D01*
X77578D01*
Y136707D01*
X77553D01*
Y136682D01*
X77528D01*
Y136657D01*
X77504D01*
Y136632D01*
X77479D01*
Y136608D01*
X77454D01*
Y136583D01*
X77429D01*
Y136558D01*
X77405D01*
Y136533D01*
X77380D01*
Y136509D01*
X77355D01*
Y136484D01*
X77330D01*
Y136459D01*
X77305D01*
Y136385D01*
X77281D01*
Y136360D01*
X77256D01*
Y136310D01*
X77206D01*
Y136261D01*
X77157D01*
Y136236D01*
X77132D01*
Y136187D01*
X77083D01*
Y136087D01*
X77058D01*
Y136063D01*
X77008D01*
Y136013D01*
X76959D01*
Y135964D01*
X76934D01*
Y135939D01*
X76909D01*
Y135889D01*
X76884D01*
Y135840D01*
X76835D01*
Y135790D01*
X76810D01*
Y135765D01*
X76785D01*
Y135741D01*
X76760D01*
Y135691D01*
X76736D01*
Y135641D01*
X76711D01*
Y135617D01*
X76686D01*
Y135592D01*
X76661D01*
Y135518D01*
X76637D01*
Y135493D01*
X76612D01*
Y135468D01*
X76587D01*
Y135443D01*
X76562D01*
Y135394D01*
X76537D01*
Y135319D01*
X76513D01*
Y135295D01*
X76488D01*
Y135270D01*
X76463D01*
Y135245D01*
X76438D01*
Y135220D01*
X76413D01*
Y135146D01*
X76389D01*
Y135121D01*
X76364D01*
Y135047D01*
X76339D01*
Y135022D01*
X76314D01*
Y134948D01*
X76290D01*
Y134923D01*
X76265D01*
Y134898D01*
X76240D01*
Y134873D01*
X76215D01*
Y134849D01*
X76191D01*
Y134774D01*
X76166D01*
Y134749D01*
X76141D01*
Y134650D01*
X76091D01*
Y134601D01*
X76067D01*
Y134527D01*
X76042D01*
Y134502D01*
X76017D01*
Y134353D01*
X75992D01*
Y134328D01*
X75967D01*
Y134279D01*
X75943D01*
Y134229D01*
X75918D01*
Y134180D01*
X75893D01*
Y134105D01*
X75868D01*
Y134080D01*
X75844D01*
Y134031D01*
X75819D01*
Y133907D01*
X75794D01*
Y133882D01*
X75769D01*
Y133734D01*
X75745D01*
Y133709D01*
X75720D01*
Y133585D01*
X75695D01*
Y133535D01*
X75670D01*
Y133511D01*
X75645D01*
Y133387D01*
X75621D01*
Y133362D01*
X75596D01*
Y133238D01*
X75571D01*
Y133213D01*
X75546D01*
Y133065D01*
X75521D01*
Y133040D01*
X75497D01*
Y133015D01*
X75472D01*
Y132817D01*
X75447D01*
Y132792D01*
X75422D01*
Y132569D01*
X75398D01*
Y132520D01*
X75373D01*
Y132495D01*
X75348D01*
Y132272D01*
X75323D01*
Y132247D01*
X75299D01*
Y131875D01*
X75274D01*
Y131851D01*
X75249D01*
Y131330D01*
X75224D01*
Y131306D01*
X75199D01*
Y130810D01*
X75175D01*
Y130760D01*
X73713D01*
Y130785D01*
X73688D01*
Y131727D01*
X73713D01*
Y131751D01*
X73738D01*
Y131826D01*
X73762D01*
Y131851D01*
X73738D01*
Y132222D01*
X73762D01*
Y132272D01*
X73787D01*
Y132297D01*
X73812D01*
Y132594D01*
X73837D01*
Y132619D01*
X73861D01*
Y132842D01*
X73886D01*
Y132891D01*
X73911D01*
Y133065D01*
X73936D01*
Y133114D01*
X73961D01*
Y133288D01*
X73985D01*
Y133337D01*
X74010D01*
Y133486D01*
X74035D01*
Y133535D01*
X74060D01*
Y133659D01*
X74085D01*
Y133684D01*
X74109D01*
Y133882D01*
X74134D01*
Y133907D01*
X74159D01*
Y133957D01*
X74184D01*
Y134080D01*
X74208D01*
Y134105D01*
X74233D01*
Y134180D01*
X74258D01*
Y134204D01*
X74283D01*
Y134328D01*
X74307D01*
Y134353D01*
X74332D01*
Y134403D01*
X74357D01*
Y134527D01*
X74407D01*
Y134626D01*
X74431D01*
Y134650D01*
X74456D01*
Y134749D01*
X74506D01*
Y134774D01*
X74531D01*
Y134923D01*
X74555D01*
Y134948D01*
X74580D01*
Y135022D01*
X74605D01*
Y135047D01*
X74630D01*
Y135096D01*
X74654D01*
Y135146D01*
X74679D01*
Y135196D01*
X74704D01*
Y135245D01*
X74729D01*
Y135295D01*
X74753D01*
Y135344D01*
X74778D01*
Y135394D01*
X74803D01*
Y135468D01*
X74828D01*
Y135493D01*
X74853D01*
Y135567D01*
X74877D01*
Y135617D01*
X74902D01*
Y135666D01*
X74927D01*
Y135716D01*
X74977D01*
Y135765D01*
X75001D01*
Y135815D01*
X75026D01*
Y135864D01*
X75051D01*
Y135914D01*
X75076D01*
Y135964D01*
X75100D01*
Y135988D01*
X75125D01*
Y136013D01*
X75150D01*
Y136038D01*
X75175D01*
Y136112D01*
X75199D01*
Y136137D01*
X75224D01*
Y136211D01*
X75249D01*
Y136236D01*
X75274D01*
Y136261D01*
X75299D01*
Y136286D01*
X75323D01*
Y136310D01*
X75348D01*
Y136410D01*
X75373D01*
Y136434D01*
X75398D01*
Y136459D01*
X75422D01*
Y136484D01*
X75472D01*
Y136583D01*
X75497D01*
Y136608D01*
X75521D01*
Y136632D01*
X75546D01*
Y136657D01*
X75571D01*
Y136682D01*
X75596D01*
Y136707D01*
X75621D01*
Y136732D01*
X75645D01*
Y136806D01*
X75670D01*
Y136831D01*
X75695D01*
Y136855D01*
X75720D01*
Y136880D01*
X75745D01*
Y136905D01*
X75769D01*
Y136955D01*
X75794D01*
Y137004D01*
X75819D01*
Y137029D01*
X75844D01*
Y137054D01*
X75868D01*
Y137079D01*
X75893D01*
Y137103D01*
X75918D01*
Y137128D01*
X75943D01*
Y137153D01*
X75967D01*
Y137178D01*
X75992D01*
Y137202D01*
X76017D01*
Y137302D01*
X76042D01*
Y137326D01*
X76067D01*
Y137351D01*
X76091D01*
Y137376D01*
X76116D01*
Y137401D01*
X76141D01*
Y137425D01*
X76166D01*
Y137450D01*
X76191D01*
Y137475D01*
X76215D01*
Y137500D01*
X76240D01*
Y137524D01*
X76265D01*
Y137549D01*
X76290D01*
Y137574D01*
X76314D01*
Y137599D01*
X76339D01*
Y137624D01*
X76364D01*
Y137648D01*
X76389D01*
Y137673D01*
X76413D01*
Y137723D01*
X76438D01*
Y137772D01*
X76463D01*
Y137797D01*
X76488D01*
Y137822D01*
X76513D01*
Y137847D01*
X76537D01*
Y137871D01*
X76562D01*
Y137896D01*
X76587D01*
Y137921D01*
X76612D01*
Y137946D01*
X76637D01*
Y137971D01*
X76661D01*
Y137995D01*
X76686D01*
Y138020D01*
X76711D01*
Y138045D01*
X76736D01*
Y138070D01*
X76760D01*
Y138094D01*
X76785D01*
Y138119D01*
X76810D01*
Y138144D01*
X76835D01*
Y138169D01*
X76859D01*
Y138194D01*
X76884D01*
Y138218D01*
X76909D01*
Y138243D01*
X76934D01*
Y138268D01*
X77008D01*
Y138293D01*
X77033D01*
Y138317D01*
X77058D01*
Y138342D01*
X77083D01*
Y138367D01*
X77107D01*
Y138392D01*
X77132D01*
Y138417D01*
X77157D01*
Y138441D01*
X77206D01*
Y138491D01*
X77256D01*
Y138516D01*
X77281D01*
Y138540D01*
X77305D01*
Y138565D01*
X77330D01*
Y138590D01*
X77355D01*
Y138615D01*
X77380D01*
Y138639D01*
X77429D01*
Y138664D01*
X77479D01*
Y138689D01*
X77504D01*
Y138714D01*
X77528D01*
Y138739D01*
X77553D01*
Y138763D01*
X77578D01*
Y138788D01*
X77603D01*
Y138813D01*
X77628D01*
Y138838D01*
X77652D01*
Y138862D01*
X77727D01*
Y138887D01*
X77751D01*
Y138912D01*
X77776D01*
Y138937D01*
X77801D01*
Y138961D01*
X77826D01*
Y138986D01*
X77850D01*
Y139011D01*
X77875D01*
Y139036D01*
X77950D01*
Y139061D01*
X77974D01*
Y139085D01*
X77999D01*
Y139110D01*
X78024D01*
Y139135D01*
X78049D01*
Y139160D01*
X78074D01*
Y139185D01*
X78098D01*
Y139209D01*
X78197D01*
Y139234D01*
X78222D01*
Y139284D01*
X78272D01*
Y139308D01*
X78296D01*
Y139333D01*
X78371D01*
Y139358D01*
X78396D01*
Y139383D01*
X78420D01*
Y139408D01*
X78470D01*
Y139432D01*
X78520D01*
Y139457D01*
X78544D01*
Y139482D01*
X78569D01*
Y139507D01*
X78594D01*
Y139531D01*
X78668D01*
Y139556D01*
X78693D01*
Y139581D01*
X78792D01*
Y139606D01*
X78817D01*
Y139630D01*
X78842D01*
Y139655D01*
X78866D01*
Y139680D01*
X78891D01*
Y139705D01*
X78966D01*
Y139730D01*
X78990D01*
Y139754D01*
X79089D01*
Y139804D01*
X79139D01*
Y139829D01*
X79213D01*
Y139878D01*
X79238D01*
Y139903D01*
X79263D01*
Y139928D01*
X79337D01*
Y139953D01*
X79362D01*
Y139977D01*
X79436D01*
Y140002D01*
X79461D01*
Y140027D01*
X79511D01*
Y140052D01*
X79585D01*
Y140101D01*
X79684D01*
Y140126D01*
X79709D01*
Y140151D01*
X79808D01*
Y140176D01*
X79833D01*
Y140200D01*
X79858D01*
Y140225D01*
X79932D01*
Y140250D01*
X79957D01*
Y140275D01*
X79981D01*
Y140250D01*
X80056D01*
Y140275D01*
X80080D01*
Y140300D01*
X80155D01*
Y140324D01*
X80180D01*
Y140349D01*
X80254D01*
Y140374D01*
X80303D01*
Y140399D01*
X80328D01*
Y140423D01*
X80452D01*
Y140448D01*
X80477D01*
Y140473D01*
X80576D01*
Y140498D01*
X80601D01*
Y140522D01*
X80725D01*
Y140547D01*
X80749D01*
Y140572D01*
X80774D01*
Y140597D01*
X80873D01*
Y140622D01*
X80898D01*
Y140646D01*
X81022D01*
Y140671D01*
X81047D01*
Y140696D01*
X81171D01*
Y140721D01*
X81195D01*
Y140745D01*
X81220D01*
Y140770D01*
X81369D01*
Y140820D01*
X81517D01*
Y140845D01*
X81542D01*
Y140869D01*
X81567D01*
Y140894D01*
X81617D01*
Y140869D01*
D02*
G37*
G36*
X82385Y138689D02*
X82434D01*
Y138540D01*
X82459D01*
Y138516D01*
X82484D01*
Y138392D01*
X82509D01*
Y138367D01*
X82533D01*
Y138342D01*
X82558D01*
Y138218D01*
X82583D01*
Y138194D01*
X82608D01*
Y138094D01*
X82632D01*
Y138070D01*
X82657D01*
Y137946D01*
X82682D01*
Y137896D01*
X82707D01*
Y137871D01*
X82732D01*
Y137747D01*
X82756D01*
Y137698D01*
X82781D01*
Y137599D01*
X82806D01*
Y137549D01*
X82831D01*
Y137450D01*
X82856D01*
Y137401D01*
X82880D01*
Y137277D01*
X82905D01*
Y137227D01*
X82930D01*
Y137153D01*
X82955D01*
Y137128D01*
X82979D01*
Y137004D01*
X83004D01*
Y136979D01*
X83029D01*
Y136855D01*
X83054D01*
Y136806D01*
X83078D01*
Y136682D01*
X83103D01*
Y136657D01*
X83128D01*
Y136632D01*
X83153D01*
Y136558D01*
X83128D01*
Y136533D01*
X83029D01*
Y136484D01*
X82880D01*
Y136459D01*
X82856D01*
Y136434D01*
X82732D01*
Y136410D01*
X82707D01*
Y136385D01*
X82657D01*
Y136360D01*
X82608D01*
Y136335D01*
X82583D01*
Y136310D01*
X82434D01*
Y136261D01*
X82335D01*
Y136236D01*
X82310D01*
Y136187D01*
X82211D01*
Y136162D01*
X82186D01*
Y136137D01*
X82038D01*
Y136112D01*
X82013D01*
Y136087D01*
X81988D01*
Y136063D01*
X81914D01*
Y136038D01*
X81864D01*
Y136013D01*
X81815D01*
Y135988D01*
X81790D01*
Y135964D01*
X81765D01*
Y135939D01*
X81691D01*
Y135914D01*
X81666D01*
Y135889D01*
X81641D01*
Y135864D01*
X81542D01*
Y135840D01*
X81517D01*
Y135815D01*
X81493D01*
Y135790D01*
X81468D01*
Y135765D01*
X81369D01*
Y135716D01*
X81294D01*
Y135691D01*
X81245D01*
Y135666D01*
X81220D01*
Y135641D01*
X81195D01*
Y135592D01*
X81146D01*
Y135567D01*
X81121D01*
Y135542D01*
X81072D01*
Y135518D01*
X81047D01*
Y135493D01*
X81022D01*
Y135468D01*
X80997D01*
Y135443D01*
X80972D01*
Y135419D01*
X80948D01*
Y135394D01*
X80923D01*
Y135369D01*
X80849D01*
Y135344D01*
X80824D01*
Y135319D01*
X80799D01*
Y135295D01*
X80774D01*
Y135270D01*
X80749D01*
Y135245D01*
X80725D01*
Y135220D01*
X80700D01*
Y135196D01*
X80650D01*
Y135171D01*
X80625D01*
Y135146D01*
X80601D01*
Y135121D01*
X80576D01*
Y135096D01*
X80551D01*
Y135072D01*
X80526D01*
Y135096D01*
X80502D01*
Y135072D01*
X80477D01*
Y135047D01*
X80452D01*
Y135022D01*
X80427D01*
Y134997D01*
X80403D01*
Y134972D01*
X80378D01*
Y134948D01*
X80353D01*
Y134923D01*
X80328D01*
Y134898D01*
X80303D01*
Y134873D01*
X80279D01*
Y134849D01*
X80254D01*
Y134824D01*
X80229D01*
Y134799D01*
X80204D01*
Y134774D01*
X80180D01*
Y134749D01*
X80155D01*
Y134725D01*
X80130D01*
Y134700D01*
X80105D01*
Y134626D01*
X80080D01*
Y134601D01*
X80056D01*
Y134551D01*
X80031D01*
Y134527D01*
X80006D01*
Y134502D01*
X79981D01*
Y134477D01*
X79957D01*
Y134452D01*
X79932D01*
Y134427D01*
X79907D01*
Y134403D01*
X79882D01*
Y134378D01*
X79858D01*
Y134353D01*
X79833D01*
Y134328D01*
X79808D01*
Y134254D01*
X79783D01*
Y134229D01*
X79734D01*
Y134204D01*
X79709D01*
Y134180D01*
X79684D01*
Y134155D01*
X79659D01*
Y134105D01*
X79634D01*
Y134056D01*
X79610D01*
Y134031D01*
X79585D01*
Y133981D01*
X79560D01*
Y133957D01*
X79535D01*
Y133907D01*
X79511D01*
Y133857D01*
X79486D01*
Y133833D01*
X79461D01*
Y133808D01*
X79436D01*
Y133758D01*
X79412D01*
Y133709D01*
X79387D01*
Y133684D01*
X79362D01*
Y133659D01*
X79337D01*
Y133610D01*
X79312D01*
Y133560D01*
X79288D01*
Y133511D01*
X79263D01*
Y133461D01*
X79238D01*
Y133412D01*
X79213D01*
Y133337D01*
X79188D01*
Y133313D01*
X79164D01*
Y133238D01*
X79139D01*
Y133213D01*
X79114D01*
Y133139D01*
X79089D01*
Y133114D01*
X79065D01*
Y133089D01*
X79040D01*
Y132941D01*
X79015D01*
Y132916D01*
X78990D01*
Y132817D01*
X78941D01*
Y132792D01*
X78916D01*
Y132643D01*
X78891D01*
Y132619D01*
X78866D01*
Y132495D01*
X78842D01*
Y132470D01*
X78817D01*
Y132346D01*
X78792D01*
Y132321D01*
X78767D01*
Y132297D01*
X78742D01*
Y132098D01*
X78718D01*
Y132074D01*
X78693D01*
Y131801D01*
X78668D01*
Y131776D01*
X78643D01*
Y131504D01*
X78619D01*
Y131454D01*
X78594D01*
Y130860D01*
X78569D01*
Y130810D01*
X78544D01*
Y130785D01*
X78520D01*
Y130760D01*
X76191D01*
Y130785D01*
X76166D01*
Y130810D01*
X76141D01*
Y130884D01*
X76116D01*
Y130909D01*
X76141D01*
Y131107D01*
X76116D01*
Y131157D01*
X76141D01*
Y131182D01*
X76166D01*
Y131206D01*
X76191D01*
Y131801D01*
X76215D01*
Y131826D01*
X76240D01*
Y132173D01*
X76265D01*
Y132198D01*
X76290D01*
Y132222D01*
X76314D01*
Y132470D01*
X76339D01*
Y132495D01*
X76364D01*
Y132693D01*
X76389D01*
Y132718D01*
X76413D01*
Y132891D01*
X76438D01*
Y132941D01*
X76463D01*
Y133040D01*
X76488D01*
Y133089D01*
X76513D01*
Y133139D01*
X76537D01*
Y133263D01*
X76562D01*
Y133313D01*
X76587D01*
Y133412D01*
X76612D01*
Y133511D01*
X76637D01*
Y133560D01*
X76661D01*
Y133635D01*
X76686D01*
Y133734D01*
X76711D01*
Y133758D01*
X76736D01*
Y133833D01*
X76760D01*
Y133882D01*
X76785D01*
Y133957D01*
X76810D01*
Y133981D01*
X76835D01*
Y134006D01*
X76859D01*
Y134080D01*
X76884D01*
Y134105D01*
X76909D01*
Y134180D01*
X76934D01*
Y134204D01*
X76959D01*
Y134279D01*
X76983D01*
Y134304D01*
X77008D01*
Y134378D01*
X77033D01*
Y134403D01*
X77058D01*
Y134427D01*
X77083D01*
Y134527D01*
X77132D01*
Y134626D01*
X77157D01*
Y134650D01*
X77182D01*
Y134675D01*
X77206D01*
Y134749D01*
X77231D01*
Y134774D01*
X77256D01*
Y134873D01*
X77305D01*
Y134898D01*
X77330D01*
Y134948D01*
X77355D01*
Y134972D01*
X77380D01*
Y135047D01*
X77405D01*
Y135072D01*
X77429D01*
Y135096D01*
X77454D01*
Y135146D01*
X77479D01*
Y135171D01*
X77504D01*
Y135220D01*
X77528D01*
Y135245D01*
X77553D01*
Y135295D01*
X77578D01*
Y135344D01*
X77603D01*
Y135369D01*
X77628D01*
Y135394D01*
X77652D01*
Y135419D01*
X77677D01*
Y135518D01*
X77702D01*
Y135542D01*
X77727D01*
Y135567D01*
X77751D01*
Y135592D01*
X77776D01*
Y135617D01*
X77801D01*
Y135641D01*
X77826D01*
Y135666D01*
X77850D01*
Y135691D01*
X77875D01*
Y135716D01*
X77900D01*
Y135741D01*
X77925D01*
Y135815D01*
X77950D01*
Y135840D01*
X77974D01*
Y135864D01*
X77999D01*
Y135889D01*
X78024D01*
Y135914D01*
X78049D01*
Y135939D01*
X78074D01*
Y135964D01*
X78098D01*
Y135988D01*
X78123D01*
Y136013D01*
X78148D01*
Y136038D01*
X78173D01*
Y136063D01*
X78197D01*
Y136112D01*
X78222D01*
Y136162D01*
X78247D01*
Y136187D01*
X78272D01*
Y136211D01*
X78296D01*
Y136236D01*
X78321D01*
Y136261D01*
X78346D01*
Y136286D01*
X78371D01*
Y136310D01*
X78396D01*
Y136335D01*
X78420D01*
Y136360D01*
X78445D01*
Y136385D01*
X78470D01*
Y136410D01*
X78495D01*
Y136434D01*
X78520D01*
Y136459D01*
X78544D01*
Y136484D01*
X78569D01*
Y136509D01*
X78594D01*
Y136533D01*
X78619D01*
Y136558D01*
X78643D01*
Y136583D01*
X78668D01*
Y136608D01*
X78693D01*
Y136632D01*
X78718D01*
Y136657D01*
X78742D01*
Y136682D01*
X78767D01*
Y136707D01*
X78792D01*
Y136732D01*
X78817D01*
Y136756D01*
X78891D01*
Y136781D01*
X78941D01*
Y136831D01*
X78990D01*
Y136855D01*
X79015D01*
Y136880D01*
X79040D01*
Y136905D01*
X79065D01*
Y136930D01*
X79089D01*
Y136955D01*
X79114D01*
Y136979D01*
X79139D01*
Y137004D01*
X79164D01*
Y137029D01*
X79238D01*
Y137054D01*
X79263D01*
Y137079D01*
X79288D01*
Y137103D01*
X79312D01*
Y137128D01*
X79337D01*
Y137153D01*
X79362D01*
Y137178D01*
X79387D01*
Y137202D01*
X79412D01*
Y137252D01*
X79511D01*
Y137277D01*
X79535D01*
Y137302D01*
X79560D01*
Y137326D01*
X79585D01*
Y137376D01*
X79684D01*
Y137401D01*
X79709D01*
Y137425D01*
X79734D01*
Y137450D01*
X79758D01*
Y137475D01*
X79783D01*
Y137500D01*
X79808D01*
Y137524D01*
X79833D01*
Y137549D01*
X79932D01*
Y137574D01*
X79957D01*
Y137599D01*
X80031D01*
Y137624D01*
X80056D01*
Y137648D01*
X80080D01*
Y137673D01*
X80105D01*
Y137698D01*
X80155D01*
Y137723D01*
X80204D01*
Y137747D01*
X80229D01*
Y137772D01*
X80254D01*
Y137797D01*
X80328D01*
Y137822D01*
X80353D01*
Y137847D01*
X80427D01*
Y137871D01*
X80477D01*
Y137921D01*
X80576D01*
Y137946D01*
X80601D01*
Y137971D01*
X80700D01*
Y138020D01*
X80725D01*
Y138045D01*
X80824D01*
Y138070D01*
X80849D01*
Y138094D01*
X80923D01*
Y138119D01*
X80948D01*
Y138144D01*
X80997D01*
Y138169D01*
X81047D01*
Y138194D01*
X81072D01*
Y138218D01*
X81146D01*
Y138243D01*
X81171D01*
Y138268D01*
X81245D01*
Y138293D01*
X81270D01*
Y138317D01*
X81344D01*
Y138342D01*
X81369D01*
Y138367D01*
X81394D01*
Y138392D01*
X81443D01*
Y138367D01*
X81517D01*
Y138392D01*
X81542D01*
Y138417D01*
X81567D01*
Y138441D01*
X81666D01*
Y138491D01*
X81815D01*
Y138516D01*
X81840D01*
Y138540D01*
X81964D01*
Y138565D01*
X81988D01*
Y138590D01*
X82137D01*
Y138639D01*
X82310D01*
Y138689D01*
X82360D01*
Y138714D01*
X82385D01*
Y138689D01*
D02*
G37*
G36*
X148638Y135295D02*
X148712D01*
Y135270D01*
X148737D01*
Y135245D01*
X149480D01*
Y135220D01*
X149505D01*
Y135196D01*
X149901D01*
Y135171D01*
X149926D01*
Y135146D01*
X150199D01*
Y135121D01*
X150223D01*
Y135096D01*
X150446D01*
Y135072D01*
X150496D01*
Y135047D01*
X150669D01*
Y135022D01*
X150694D01*
Y134997D01*
X150843D01*
Y134972D01*
X150868D01*
Y134948D01*
X150892D01*
Y134923D01*
X150967D01*
Y134948D01*
X150991D01*
Y134923D01*
X151041D01*
Y134873D01*
X151190D01*
Y134849D01*
X151214D01*
Y134824D01*
X151289D01*
Y134799D01*
X151313D01*
Y134774D01*
X151363D01*
Y134749D01*
X151413D01*
Y134725D01*
X151437D01*
Y134700D01*
X151586D01*
Y134650D01*
X151685D01*
Y134626D01*
X151710D01*
Y134601D01*
X151735D01*
Y134576D01*
X151760D01*
Y134527D01*
X151859D01*
Y134502D01*
X151883D01*
Y134477D01*
X151982D01*
Y134427D01*
X152007D01*
Y134403D01*
X152057D01*
Y134378D01*
X152082D01*
Y134353D01*
X152156D01*
Y134328D01*
X152181D01*
Y134304D01*
X152205D01*
Y134279D01*
X152230D01*
Y134229D01*
X152305D01*
Y134204D01*
X152354D01*
Y134180D01*
X152379D01*
Y134155D01*
X152404D01*
Y134130D01*
X152429D01*
Y134105D01*
X152453D01*
Y134080D01*
X152478D01*
Y134056D01*
X152503D01*
Y134031D01*
X152528D01*
Y134006D01*
X152552D01*
Y133981D01*
X152577D01*
Y133957D01*
X152602D01*
Y133932D01*
X152627D01*
Y133907D01*
X152652D01*
Y133882D01*
X152676D01*
Y133857D01*
X152701D01*
Y133833D01*
X152726D01*
Y133808D01*
X152751D01*
Y133783D01*
X152775D01*
Y133758D01*
X152800D01*
Y133734D01*
X152825D01*
Y133635D01*
X152874D01*
Y133610D01*
X152899D01*
Y133585D01*
X152924D01*
Y133560D01*
X152949D01*
Y133511D01*
X152974D01*
Y133486D01*
X152998D01*
Y133412D01*
X153023D01*
Y133387D01*
X153073D01*
Y133313D01*
X153097D01*
Y133288D01*
X153122D01*
Y133238D01*
X153147D01*
Y133164D01*
X153172D01*
Y133139D01*
X153196D01*
Y133040D01*
X153246D01*
Y132941D01*
X153271D01*
Y132916D01*
X153296D01*
Y132891D01*
X153320D01*
Y132842D01*
X153296D01*
Y132792D01*
X153320D01*
Y132767D01*
X153345D01*
Y132743D01*
X153370D01*
Y132594D01*
X153395D01*
Y132569D01*
X153420D01*
Y132445D01*
X153444D01*
Y132421D01*
X153469D01*
Y132222D01*
X153494D01*
Y132198D01*
X153543D01*
Y131925D01*
X153568D01*
Y131900D01*
X153593D01*
Y131504D01*
X153618D01*
Y131479D01*
X153643D01*
Y131454D01*
X153667D01*
Y121643D01*
X153643D01*
Y121593D01*
X153667D01*
Y121519D01*
X153643D01*
Y121494D01*
X153618D01*
Y121444D01*
X153593D01*
Y120974D01*
X153543D01*
Y120726D01*
X153519D01*
Y120701D01*
X153494D01*
Y120652D01*
X153469D01*
Y120552D01*
X153444D01*
Y120528D01*
X153420D01*
Y120330D01*
X153395D01*
Y120305D01*
X153370D01*
Y120206D01*
X153320D01*
Y120181D01*
X153296D01*
Y120106D01*
X153320D01*
Y120057D01*
X153296D01*
Y120032D01*
X153271D01*
Y120007D01*
X153246D01*
Y119908D01*
X153196D01*
Y119834D01*
X153172D01*
Y119784D01*
X153147D01*
Y119735D01*
X153122D01*
Y119685D01*
X153097D01*
Y119611D01*
X153073D01*
Y119586D01*
X153048D01*
Y119561D01*
X153023D01*
Y119537D01*
X152998D01*
Y119462D01*
X152974D01*
Y119438D01*
X152949D01*
Y119413D01*
X152924D01*
Y119388D01*
X152899D01*
Y119363D01*
X152874D01*
Y119264D01*
X152850D01*
Y119239D01*
X152825D01*
Y119214D01*
X152800D01*
Y119190D01*
X152775D01*
Y119165D01*
X152751D01*
Y119140D01*
X152726D01*
Y119115D01*
X152701D01*
Y119091D01*
X152676D01*
Y119066D01*
X152652D01*
Y119041D01*
X152627D01*
Y119016D01*
X152602D01*
Y118991D01*
X152577D01*
Y118967D01*
X152528D01*
Y118942D01*
X152503D01*
Y118917D01*
X152478D01*
Y118892D01*
X152453D01*
Y118868D01*
X152429D01*
Y118843D01*
X152404D01*
Y118818D01*
X152379D01*
Y118793D01*
X152354D01*
Y118769D01*
X152329D01*
Y118744D01*
X152305D01*
Y118719D01*
X152280D01*
Y118694D01*
X152255D01*
Y118669D01*
X152205D01*
Y118645D01*
X152156D01*
Y118620D01*
X152131D01*
Y118595D01*
X152106D01*
Y118570D01*
X152082D01*
Y118546D01*
X152007D01*
Y118521D01*
X151982D01*
Y118496D01*
X151958D01*
Y118471D01*
X151933D01*
Y118446D01*
X151908D01*
Y118422D01*
X151834D01*
Y118397D01*
X151809D01*
Y118372D01*
X151784D01*
Y118347D01*
X151760D01*
Y118372D01*
X151710D01*
Y118347D01*
X151685D01*
Y118298D01*
X151586D01*
Y118273D01*
X151561D01*
Y118248D01*
X151487D01*
Y118223D01*
X151462D01*
Y118199D01*
X151413D01*
Y118174D01*
X151338D01*
Y118149D01*
X151313D01*
Y118124D01*
X151264D01*
Y118099D01*
X151115D01*
Y118075D01*
X151090D01*
Y118050D01*
X151041D01*
Y118025D01*
X151016D01*
Y118050D01*
X150942D01*
Y118025D01*
X150917D01*
Y118000D01*
X150892D01*
Y117976D01*
X150768D01*
Y117951D01*
X150744D01*
Y117926D01*
X150595D01*
Y117901D01*
X150570D01*
Y117877D01*
X150397D01*
Y117852D01*
X150372D01*
Y117827D01*
X150099D01*
Y117777D01*
X150075D01*
Y117753D01*
X149703D01*
Y117728D01*
X149678D01*
Y117703D01*
X149207D01*
Y117654D01*
X149158D01*
Y117629D01*
X149133D01*
Y117654D01*
X128147D01*
Y121717D01*
X128172D01*
Y121742D01*
X128197D01*
Y121767D01*
X128222D01*
Y121816D01*
X148737D01*
Y121841D01*
X148762D01*
Y121866D01*
X148836D01*
Y121890D01*
X148861D01*
Y121915D01*
X148935D01*
Y121940D01*
X148960D01*
Y121965D01*
X148984D01*
Y121989D01*
X149009D01*
Y122014D01*
X149034D01*
Y122039D01*
X149059D01*
Y122064D01*
X149084D01*
Y122089D01*
X149108D01*
Y122113D01*
X149133D01*
Y122138D01*
X149158D01*
Y122163D01*
X149183D01*
Y122188D01*
X149207D01*
Y122312D01*
X149232D01*
Y122336D01*
X149257D01*
Y130637D01*
X149232D01*
Y130661D01*
X149207D01*
Y130711D01*
X149183D01*
Y130760D01*
X149158D01*
Y130785D01*
X149133D01*
Y130860D01*
X149108D01*
Y130884D01*
X149084D01*
Y130909D01*
X149059D01*
Y130934D01*
X149034D01*
Y130959D01*
X149009D01*
Y130983D01*
X148910D01*
Y131008D01*
X148885D01*
Y131033D01*
X148836D01*
Y131058D01*
X148786D01*
Y131082D01*
X148662D01*
Y131107D01*
X148638D01*
Y131132D01*
X128246D01*
Y131157D01*
X128222D01*
Y135245D01*
X128246D01*
Y135270D01*
X128271D01*
Y135295D01*
X128296D01*
Y135319D01*
X128345D01*
Y135295D01*
X148588D01*
Y135319D01*
X148638D01*
Y135295D01*
D02*
G37*
G36*
X83425Y135716D02*
X83475D01*
Y135666D01*
X83500D01*
Y135542D01*
X83524D01*
Y135518D01*
X83549D01*
Y135369D01*
X83574D01*
Y135344D01*
X83599D01*
Y135220D01*
X83624D01*
Y135171D01*
X83648D01*
Y135121D01*
X83673D01*
Y135072D01*
X83698D01*
Y134948D01*
X83723D01*
Y134923D01*
X83747D01*
Y134774D01*
X83797D01*
Y134725D01*
X83822D01*
Y134675D01*
X83797D01*
Y134626D01*
X83822D01*
Y134601D01*
X83847D01*
Y134576D01*
X83871D01*
Y134477D01*
X95616D01*
Y134452D01*
X95640D01*
Y134403D01*
X95665D01*
Y134378D01*
X95690D01*
Y134328D01*
X95665D01*
Y134254D01*
Y134229D01*
Y130315D01*
X85407D01*
Y130290D01*
X85383D01*
Y130265D01*
X85358D01*
Y130240D01*
X85383D01*
Y116836D01*
X85358D01*
Y116811D01*
X81047D01*
Y116836D01*
X81022D01*
Y116861D01*
X80997D01*
Y116885D01*
X80972D01*
Y130711D01*
X80997D01*
Y130736D01*
X80972D01*
Y130810D01*
X79560D01*
Y130835D01*
X79535D01*
Y130860D01*
X79511D01*
Y130909D01*
X79535D01*
Y131429D01*
X79560D01*
Y131454D01*
X79585D01*
Y131751D01*
X79634D01*
Y132024D01*
X79684D01*
Y132049D01*
X79709D01*
Y132123D01*
X79684D01*
Y132173D01*
X79709D01*
Y132198D01*
X79734D01*
Y132222D01*
X79758D01*
Y132371D01*
X79783D01*
Y132396D01*
X79808D01*
Y132520D01*
X79833D01*
Y132544D01*
X79858D01*
Y132569D01*
X79882D01*
Y132693D01*
X79907D01*
Y132718D01*
X79932D01*
Y132792D01*
X79957D01*
Y132817D01*
X79981D01*
Y132916D01*
X80031D01*
Y133015D01*
X80056D01*
Y133040D01*
X80080D01*
Y133065D01*
X80105D01*
Y133164D01*
X80130D01*
Y133189D01*
X80155D01*
Y133263D01*
X80180D01*
Y133288D01*
X80204D01*
Y133362D01*
X80229D01*
Y133387D01*
X80254D01*
Y133412D01*
X80279D01*
Y133436D01*
X80303D01*
Y133511D01*
X80328D01*
Y133535D01*
X80353D01*
Y133560D01*
X80378D01*
Y133585D01*
X80403D01*
Y133659D01*
X80427D01*
Y133684D01*
X80452D01*
Y133709D01*
X80477D01*
Y133734D01*
X80502D01*
Y133758D01*
X80526D01*
Y133783D01*
X80551D01*
Y133808D01*
X80576D01*
Y133833D01*
X80601D01*
Y133932D01*
X80650D01*
Y133981D01*
X80675D01*
Y134006D01*
X80700D01*
Y134031D01*
X80725D01*
Y134056D01*
X80774D01*
Y134105D01*
X80824D01*
Y134155D01*
X80849D01*
Y134180D01*
X80898D01*
Y134229D01*
X80923D01*
Y134279D01*
X80948D01*
Y134328D01*
X80972D01*
Y134353D01*
X80997D01*
Y134378D01*
X81022D01*
Y134403D01*
X81096D01*
Y134427D01*
X81121D01*
Y134452D01*
X81171D01*
Y134502D01*
X81195D01*
Y134527D01*
X81245D01*
Y134576D01*
X81294D01*
Y134626D01*
X81319D01*
Y134650D01*
X81344D01*
Y134675D01*
X81369D01*
Y134700D01*
X81418D01*
Y134749D01*
X81443D01*
Y134774D01*
X81493D01*
Y134749D01*
X81517D01*
Y134774D01*
X81542D01*
Y134799D01*
X81567D01*
Y134824D01*
X81592D01*
Y134849D01*
X81617D01*
Y134873D01*
X81641D01*
Y134898D01*
X81666D01*
Y134923D01*
X81691D01*
Y134948D01*
X81765D01*
Y134972D01*
X81790D01*
Y134997D01*
X81815D01*
Y135022D01*
X81840D01*
Y135047D01*
X81914D01*
Y135072D01*
X81939D01*
Y135096D01*
X81964D01*
Y135121D01*
X82013D01*
Y135146D01*
X82063D01*
Y135171D01*
X82087D01*
Y135196D01*
X82186D01*
Y135220D01*
X82211D01*
Y135245D01*
X82236D01*
Y135270D01*
X82261D01*
Y135295D01*
X82286D01*
Y135319D01*
X82310D01*
Y135295D01*
X82335D01*
Y135319D01*
X82360D01*
Y135344D01*
X82385D01*
Y135369D01*
X82484D01*
Y135394D01*
X82509D01*
Y135419D01*
X82583D01*
Y135443D01*
X82608D01*
Y135468D01*
X82732D01*
Y135493D01*
X82756D01*
Y135518D01*
X82806D01*
Y135542D01*
X82856D01*
Y135567D01*
X82880D01*
Y135592D01*
X83029D01*
Y135641D01*
X83128D01*
Y135666D01*
X83153D01*
Y135716D01*
X83326D01*
Y135765D01*
X83425D01*
Y135716D01*
D02*
G37*
G36*
X124034Y134948D02*
X124059D01*
Y126499D01*
X124084D01*
Y126474D01*
X124134D01*
Y126499D01*
X126339D01*
Y126474D01*
X126413D01*
Y126499D01*
X126438D01*
Y129968D01*
X126462D01*
Y129992D01*
X126760D01*
Y129968D01*
X126785D01*
Y129943D01*
X126809D01*
Y129918D01*
X126834D01*
Y126499D01*
X126958D01*
Y126524D01*
X126983D01*
Y126548D01*
X127032D01*
Y126573D01*
X127107D01*
Y126598D01*
X127131D01*
Y126623D01*
X127206D01*
Y126648D01*
X127255D01*
Y126672D01*
X127280D01*
Y126697D01*
X127379D01*
Y126747D01*
X127478D01*
Y126771D01*
X127503D01*
Y126796D01*
X127577D01*
Y126821D01*
X127602D01*
Y126846D01*
X127627D01*
Y126870D01*
X127726D01*
Y126895D01*
X127751D01*
Y126920D01*
X127825D01*
Y126945D01*
X127850D01*
Y126970D01*
X127900D01*
Y126994D01*
X127949D01*
Y127019D01*
X127999D01*
Y127044D01*
X128048D01*
Y127069D01*
X128073D01*
Y127093D01*
X128147D01*
Y127118D01*
X128172D01*
Y127143D01*
X128246D01*
Y127168D01*
X128271D01*
Y127193D01*
X128296D01*
Y127217D01*
X128395D01*
Y127267D01*
X128494D01*
Y127292D01*
X128519D01*
Y127317D01*
X128593D01*
Y127341D01*
X128618D01*
Y127366D01*
X128668D01*
Y127391D01*
X128742D01*
Y127416D01*
X128767D01*
Y127440D01*
X128841D01*
Y127465D01*
X128866D01*
Y127515D01*
X128965D01*
Y127540D01*
X128990D01*
Y127564D01*
X129015D01*
Y127589D01*
X129089D01*
Y127614D01*
X129114D01*
Y127639D01*
X129213D01*
Y127663D01*
X129237D01*
Y127688D01*
X129312D01*
Y127713D01*
X129337D01*
Y127738D01*
X129361D01*
Y127762D01*
X129436D01*
Y127787D01*
X129460D01*
Y127812D01*
X129535D01*
Y127837D01*
X129560D01*
Y127862D01*
X129634D01*
Y127886D01*
X129659D01*
Y127911D01*
X129708D01*
Y127936D01*
X129758D01*
Y127961D01*
X129782D01*
Y127985D01*
X129882D01*
Y128035D01*
X129981D01*
Y128060D01*
X130006D01*
Y128085D01*
X130030D01*
Y128109D01*
X130105D01*
Y128134D01*
X130129D01*
Y128159D01*
X130229D01*
Y128184D01*
X130253D01*
Y128209D01*
X130328D01*
Y128233D01*
X130352D01*
Y128258D01*
X130402D01*
Y128283D01*
X130476D01*
Y128308D01*
X130501D01*
Y128332D01*
X130551D01*
Y128357D01*
X130625D01*
Y128382D01*
X130650D01*
Y128407D01*
X130749D01*
Y128431D01*
X130774D01*
Y128456D01*
X130798D01*
Y128481D01*
X130873D01*
Y128506D01*
X130898D01*
Y128531D01*
X130997D01*
Y128555D01*
X131021D01*
Y128580D01*
X131096D01*
Y128605D01*
X131121D01*
Y128630D01*
X131145D01*
Y128654D01*
X131220D01*
Y128679D01*
X131244D01*
Y128704D01*
X131319D01*
Y128729D01*
X131343D01*
Y128753D01*
X131418D01*
Y128778D01*
X131443D01*
Y128803D01*
X131492D01*
Y128828D01*
X131542D01*
Y128853D01*
X131566D01*
Y128877D01*
X131666D01*
Y128927D01*
X131765D01*
Y128952D01*
X131790D01*
Y128976D01*
X131814D01*
Y129001D01*
X131839D01*
Y129026D01*
X131864D01*
Y129051D01*
X131963D01*
Y129100D01*
X132062D01*
Y129125D01*
X132087D01*
Y129150D01*
X132136D01*
Y129175D01*
X132211D01*
Y129199D01*
X132235D01*
Y129224D01*
X132285D01*
Y129249D01*
X132359D01*
Y129274D01*
X132384D01*
Y129299D01*
X132483D01*
Y129348D01*
X132582D01*
Y129373D01*
X132607D01*
Y129398D01*
X132632D01*
Y129423D01*
X132731D01*
Y129472D01*
X132830D01*
Y129497D01*
X132855D01*
Y129522D01*
X132880D01*
Y129546D01*
X132954D01*
Y129571D01*
X132979D01*
Y129596D01*
X133053D01*
Y129621D01*
X133078D01*
Y129646D01*
X133152D01*
Y129670D01*
X133177D01*
Y129695D01*
X133226D01*
Y129720D01*
X133276D01*
Y129745D01*
X133301D01*
Y129769D01*
X133375D01*
Y129794D01*
X133400D01*
Y129819D01*
X133499D01*
Y129868D01*
X133598D01*
Y129893D01*
X133623D01*
Y129918D01*
X133648D01*
Y129943D01*
X133747D01*
Y129992D01*
X133821D01*
Y129968D01*
X133846D01*
Y129943D01*
X133871D01*
Y129918D01*
X133896D01*
Y129868D01*
X133920D01*
Y129819D01*
X133896D01*
Y126524D01*
X133920D01*
Y126499D01*
X133945D01*
Y126474D01*
X133995D01*
Y126499D01*
X136447D01*
Y126474D01*
X136522D01*
Y126499D01*
X136571D01*
Y127911D01*
X136596D01*
Y127936D01*
X147820D01*
Y127911D01*
X147870D01*
Y125012D01*
X147845D01*
Y124987D01*
X147820D01*
Y124963D01*
X136720D01*
Y124987D01*
X136695D01*
Y124963D01*
X136621D01*
Y124987D01*
X136571D01*
Y126078D01*
X133920D01*
Y126053D01*
X133896D01*
Y122584D01*
X133796D01*
Y122634D01*
X133697D01*
Y122659D01*
X133673D01*
Y122683D01*
X133648D01*
Y122708D01*
X133623D01*
Y122683D01*
X133598D01*
Y122708D01*
X133573D01*
Y122733D01*
X133549D01*
Y122758D01*
X133449D01*
Y122807D01*
X133350D01*
Y122832D01*
X133326D01*
Y122857D01*
X133301D01*
Y122881D01*
X133226D01*
Y122906D01*
X133202D01*
Y122931D01*
X133127D01*
Y122956D01*
X133078D01*
Y122981D01*
X133028D01*
Y123005D01*
X132979D01*
Y123030D01*
X132929D01*
Y123055D01*
X132880D01*
Y123080D01*
X132805D01*
Y123104D01*
X132781D01*
Y123129D01*
X132706D01*
Y123154D01*
X132681D01*
Y123179D01*
X132607D01*
Y123203D01*
X132557D01*
Y123228D01*
X132508D01*
Y123253D01*
X132458D01*
Y123278D01*
X132409D01*
Y123303D01*
X132359D01*
Y123327D01*
X132335D01*
Y123352D01*
X132260D01*
Y123377D01*
X132235D01*
Y123402D01*
X132161D01*
Y123427D01*
X132136D01*
Y123451D01*
X132112D01*
Y123476D01*
X132013D01*
Y123526D01*
X131913D01*
Y123550D01*
X131889D01*
Y123575D01*
X131864D01*
Y123600D01*
X131839D01*
Y123575D01*
X131814D01*
Y123600D01*
X131790D01*
Y123625D01*
X131765D01*
Y123650D01*
X131666D01*
Y123699D01*
X131566D01*
Y123724D01*
X131542D01*
Y123749D01*
X131517D01*
Y123773D01*
X131443D01*
Y123798D01*
X131393D01*
Y123823D01*
X131343D01*
Y123848D01*
X131294D01*
Y123872D01*
X131244D01*
Y123897D01*
X131195D01*
Y123922D01*
X131145D01*
Y123947D01*
X131096D01*
Y123972D01*
X131021D01*
Y123996D01*
X130997D01*
Y124021D01*
X130947D01*
Y124071D01*
X130873D01*
Y124095D01*
X130823D01*
Y124120D01*
X130774D01*
Y124145D01*
X130724D01*
Y124170D01*
X130674D01*
Y124195D01*
X130625D01*
Y124219D01*
X130600D01*
Y124244D01*
X130526D01*
Y124269D01*
X130501D01*
Y124294D01*
X130427D01*
Y124319D01*
X130402D01*
Y124343D01*
X130377D01*
Y124368D01*
X130303D01*
Y124393D01*
X130278D01*
Y124418D01*
X130179D01*
Y124467D01*
X130080D01*
Y124492D01*
X130055D01*
Y124517D01*
X130030D01*
Y124542D01*
X129956D01*
Y124566D01*
X129931D01*
Y124591D01*
X129832D01*
Y124616D01*
X129807D01*
Y124641D01*
X129782D01*
Y124665D01*
X129708D01*
Y124690D01*
X129659D01*
Y124715D01*
X129609D01*
Y124740D01*
X129560D01*
Y124764D01*
X129510D01*
Y124789D01*
X129436D01*
Y124814D01*
X129411D01*
Y124839D01*
X129337D01*
Y124864D01*
X129287D01*
Y124888D01*
X129262D01*
Y124913D01*
X129188D01*
Y124938D01*
X129163D01*
Y124963D01*
X129089D01*
Y124987D01*
X129039D01*
Y125012D01*
X128990D01*
Y125037D01*
X128940D01*
Y125062D01*
X128891D01*
Y125087D01*
X128841D01*
Y125111D01*
X128816D01*
Y125136D01*
X128742D01*
Y125161D01*
X128717D01*
Y125186D01*
X128643D01*
Y125211D01*
X128618D01*
Y125235D01*
X128593D01*
Y125260D01*
X128519D01*
Y125285D01*
X128494D01*
Y125310D01*
X128395D01*
Y125359D01*
X128296D01*
Y125384D01*
X128271D01*
Y125409D01*
X128246D01*
Y125434D01*
X128172D01*
Y125458D01*
X128147D01*
Y125483D01*
X128048D01*
Y125508D01*
X128023D01*
Y125533D01*
X127999D01*
Y125557D01*
X127974D01*
Y125582D01*
X127949D01*
Y125607D01*
X127875D01*
Y125632D01*
X127825D01*
Y125656D01*
X127776D01*
Y125681D01*
X127701D01*
Y125706D01*
X127676D01*
Y125731D01*
X127602D01*
Y125756D01*
X127577D01*
Y125780D01*
X127528D01*
Y125805D01*
X127453D01*
Y125830D01*
X127429D01*
Y125855D01*
X127354D01*
Y125879D01*
X127330D01*
Y125904D01*
X127255D01*
Y125929D01*
X127231D01*
Y125954D01*
X127181D01*
Y125978D01*
X127131D01*
Y126003D01*
X127082D01*
Y126028D01*
X127032D01*
Y126053D01*
X127008D01*
Y126078D01*
X126933D01*
Y126102D01*
X126909D01*
Y126127D01*
X126834D01*
Y122436D01*
X126809D01*
Y122411D01*
X126785D01*
Y122386D01*
X126760D01*
Y122361D01*
X126562D01*
Y122386D01*
X126537D01*
Y122411D01*
X126487D01*
Y122460D01*
X126462D01*
Y122485D01*
X126438D01*
Y126078D01*
X124134D01*
Y126102D01*
X124109D01*
Y126127D01*
X124084D01*
Y126152D01*
X124059D01*
Y126127D01*
X124034D01*
Y126078D01*
X124059D01*
Y117356D01*
X124034D01*
Y117307D01*
X119847D01*
Y117331D01*
X119822D01*
Y130810D01*
X119228D01*
Y130785D01*
X119178D01*
Y130760D01*
X118955D01*
Y130736D01*
X118930D01*
Y130711D01*
X118782D01*
Y130686D01*
X118757D01*
Y130661D01*
X118608D01*
Y130637D01*
X118583D01*
Y130612D01*
X118559D01*
Y130587D01*
X118484D01*
Y130562D01*
X118460D01*
Y130538D01*
X118385D01*
Y130513D01*
X118361D01*
Y130488D01*
X118286D01*
Y130463D01*
X118261D01*
Y130438D01*
X118212D01*
Y130414D01*
X118162D01*
Y130389D01*
X118138D01*
Y130364D01*
X118113D01*
Y130339D01*
X118088D01*
Y130315D01*
X118014D01*
Y130290D01*
X117989D01*
Y130265D01*
X117964D01*
Y130240D01*
X117939D01*
Y130215D01*
X117914D01*
Y130191D01*
X117815D01*
Y130166D01*
X117791D01*
Y130141D01*
X117766D01*
Y130116D01*
X117741D01*
Y130091D01*
X117716D01*
Y130067D01*
X117691D01*
Y130042D01*
X117667D01*
Y130017D01*
X117642D01*
Y129992D01*
X117592D01*
Y129968D01*
X117543D01*
Y129943D01*
X117518D01*
Y129918D01*
X117493D01*
Y129893D01*
X117469D01*
Y129868D01*
X117444D01*
Y129844D01*
X117419D01*
Y129819D01*
X117394D01*
Y129794D01*
X117369D01*
Y129769D01*
X117345D01*
Y129745D01*
X117320D01*
Y129720D01*
X117295D01*
Y129695D01*
X117270D01*
Y129670D01*
X117246D01*
Y129646D01*
X117221D01*
Y129621D01*
X117196D01*
Y129596D01*
X117171D01*
Y129571D01*
X117146D01*
Y129546D01*
X117122D01*
Y129522D01*
X117097D01*
Y129423D01*
X117047D01*
Y129398D01*
X117022D01*
Y129373D01*
X116998D01*
Y129348D01*
X116973D01*
Y129323D01*
X116948D01*
Y129299D01*
X116923D01*
Y129274D01*
X116899D01*
Y129249D01*
X116874D01*
Y129224D01*
X116849D01*
Y129199D01*
X116824D01*
Y129175D01*
X116800D01*
Y129150D01*
X116775D01*
Y129125D01*
X116750D01*
Y129051D01*
X116725D01*
Y129026D01*
X116700D01*
Y129001D01*
X116676D01*
Y128976D01*
X116651D01*
Y128952D01*
X116626D01*
Y128927D01*
X116601D01*
Y128902D01*
X116577D01*
Y128877D01*
X116552D01*
Y128853D01*
X116527D01*
Y128828D01*
X116502D01*
Y128778D01*
X116453D01*
Y128753D01*
X116428D01*
Y128654D01*
X116403D01*
Y128630D01*
X116378D01*
Y128605D01*
X116354D01*
Y128580D01*
X116329D01*
Y128555D01*
X116304D01*
Y128531D01*
X116279D01*
Y128506D01*
X116255D01*
Y128481D01*
X116230D01*
Y128456D01*
X116205D01*
Y128431D01*
X116180D01*
Y128407D01*
X116155D01*
Y128382D01*
X116131D01*
Y128357D01*
X116106D01*
Y128332D01*
X116081D01*
Y128283D01*
X116056D01*
Y128233D01*
X116007D01*
Y128209D01*
X115982D01*
Y128184D01*
X115957D01*
Y128159D01*
X115932D01*
Y128134D01*
X115908D01*
Y128109D01*
X115883D01*
Y128085D01*
X115858D01*
Y128035D01*
X115833D01*
Y128010D01*
X115808D01*
Y127985D01*
X115759D01*
Y127886D01*
X115734D01*
Y127862D01*
X115709D01*
Y127837D01*
X115685D01*
Y127812D01*
X115660D01*
Y127787D01*
X115635D01*
Y127762D01*
X115610D01*
Y127738D01*
X115585D01*
Y127713D01*
X115561D01*
Y127688D01*
X115536D01*
Y127663D01*
X115511D01*
Y127639D01*
X115486D01*
Y127614D01*
X115462D01*
Y127589D01*
X115437D01*
Y127515D01*
X115412D01*
Y127490D01*
X115387D01*
Y127465D01*
X115363D01*
Y127440D01*
X115338D01*
Y127416D01*
X115313D01*
Y127391D01*
X115288D01*
Y127366D01*
X115263D01*
Y127341D01*
X115239D01*
Y127317D01*
X115214D01*
Y127292D01*
X115189D01*
Y127267D01*
X115164D01*
Y127242D01*
X115140D01*
Y127217D01*
X115115D01*
Y127193D01*
X115090D01*
Y127118D01*
X115065D01*
Y127093D01*
X115040D01*
Y127069D01*
X115016D01*
Y127044D01*
X114991D01*
Y127019D01*
X114966D01*
Y126994D01*
X114941D01*
Y126970D01*
X114916D01*
Y126945D01*
X114892D01*
Y126920D01*
X114867D01*
Y126895D01*
X114842D01*
Y126846D01*
X114817D01*
Y126821D01*
X114793D01*
Y126796D01*
X114768D01*
Y126747D01*
X114743D01*
Y126697D01*
X114718D01*
Y126672D01*
X114693D01*
Y126648D01*
X114669D01*
Y126623D01*
X114644D01*
Y126598D01*
X114619D01*
Y126573D01*
X114594D01*
Y126548D01*
X114545D01*
Y126499D01*
X114495D01*
Y126474D01*
X114471D01*
Y126449D01*
X114446D01*
Y126425D01*
X114421D01*
Y126325D01*
X114371D01*
Y126276D01*
X114347D01*
Y126251D01*
X114297D01*
Y126201D01*
X114248D01*
Y126152D01*
X114223D01*
Y126127D01*
X114198D01*
Y126102D01*
X114173D01*
Y126078D01*
X114148D01*
Y126053D01*
X114124D01*
Y126028D01*
X114099D01*
Y126003D01*
X114074D01*
Y125929D01*
X114049D01*
Y125904D01*
X114025D01*
Y125879D01*
X114000D01*
Y125855D01*
X113975D01*
Y125830D01*
X113950D01*
Y125805D01*
X113926D01*
Y125780D01*
X113901D01*
Y125756D01*
X113876D01*
Y125731D01*
X113851D01*
Y125706D01*
X113826D01*
Y125681D01*
X113802D01*
Y125656D01*
X113777D01*
Y125582D01*
X113752D01*
Y125557D01*
X113727D01*
Y125533D01*
X113702D01*
Y125508D01*
X113678D01*
Y125483D01*
X113653D01*
Y125458D01*
X113628D01*
Y125434D01*
X113603D01*
Y125409D01*
X113579D01*
Y125384D01*
X113554D01*
Y125359D01*
X113529D01*
Y125334D01*
X113504D01*
Y125310D01*
X113479D01*
Y125285D01*
X113455D01*
Y125260D01*
X113430D01*
Y125235D01*
X113405D01*
Y125136D01*
X113356D01*
Y125087D01*
X113331D01*
Y125062D01*
X113281D01*
Y125012D01*
X113232D01*
Y124963D01*
X113182D01*
Y124913D01*
X113157D01*
Y124888D01*
X113108D01*
Y124814D01*
X113083D01*
Y124789D01*
X113058D01*
Y124740D01*
X113034D01*
Y124715D01*
X113009D01*
Y124690D01*
X112984D01*
Y124665D01*
X112959D01*
Y124641D01*
X112934D01*
Y124616D01*
X112910D01*
Y124591D01*
X112885D01*
Y124566D01*
X112860D01*
Y124542D01*
X112835D01*
Y124517D01*
X112810D01*
Y124492D01*
X112786D01*
Y124467D01*
X112761D01*
Y124393D01*
X112736D01*
Y124368D01*
X112711D01*
Y124343D01*
X112687D01*
Y124319D01*
X112662D01*
Y124294D01*
X112637D01*
Y124269D01*
X112612D01*
Y124244D01*
X112587D01*
Y124219D01*
X112563D01*
Y124195D01*
X112538D01*
Y124170D01*
X112513D01*
Y124145D01*
X112488D01*
Y124120D01*
X112464D01*
Y124095D01*
X112439D01*
Y124071D01*
X112414D01*
Y124021D01*
X112389D01*
Y123972D01*
X112365D01*
Y123947D01*
X112340D01*
Y123922D01*
X112315D01*
Y123897D01*
X112290D01*
Y123872D01*
X112265D01*
Y123848D01*
X112241D01*
Y123823D01*
X112216D01*
Y123798D01*
X112191D01*
Y123773D01*
X112166D01*
Y123749D01*
X112142D01*
Y123724D01*
X112117D01*
Y123699D01*
X112092D01*
Y123600D01*
X112067D01*
Y123575D01*
X112042D01*
Y123550D01*
X112018D01*
Y123526D01*
X111993D01*
Y123501D01*
X111968D01*
Y123476D01*
X111943D01*
Y123451D01*
X111918D01*
Y123427D01*
X111894D01*
Y123402D01*
X111869D01*
Y123377D01*
X111844D01*
Y123352D01*
X111819D01*
Y123327D01*
X111795D01*
Y123303D01*
X111770D01*
Y123278D01*
X111745D01*
Y123228D01*
X111720D01*
Y123179D01*
X111671D01*
Y123154D01*
X111646D01*
Y123129D01*
X111621D01*
Y123104D01*
X111596D01*
Y123080D01*
X111572D01*
Y123055D01*
X111547D01*
Y123030D01*
X111522D01*
Y123005D01*
X111497D01*
Y122981D01*
X111473D01*
Y122956D01*
X111448D01*
Y122931D01*
X111423D01*
Y122832D01*
X111398D01*
Y122807D01*
X111374D01*
Y122782D01*
X111349D01*
Y122758D01*
X111324D01*
Y122733D01*
X111299D01*
Y122708D01*
X111274D01*
Y122683D01*
X111250D01*
Y122659D01*
X111225D01*
Y122634D01*
X111200D01*
Y122609D01*
X111175D01*
Y122584D01*
X111151D01*
Y122559D01*
X111126D01*
Y122535D01*
X111101D01*
Y122485D01*
X111076D01*
Y122436D01*
X111051D01*
Y122411D01*
X111027D01*
Y122386D01*
X111002D01*
Y122361D01*
X110977D01*
Y122336D01*
X110952D01*
Y122312D01*
X110927D01*
Y122287D01*
X110903D01*
Y122262D01*
X110878D01*
Y122237D01*
X110853D01*
Y122212D01*
X110828D01*
Y122188D01*
X110804D01*
Y122163D01*
X110779D01*
Y122138D01*
X110754D01*
Y122089D01*
X110729D01*
Y122039D01*
X110704D01*
Y122014D01*
X110680D01*
Y121989D01*
X110655D01*
Y121965D01*
X110630D01*
Y121940D01*
X110605D01*
Y121915D01*
X110581D01*
Y121890D01*
X110556D01*
Y121866D01*
X110531D01*
Y121841D01*
X110506D01*
Y121816D01*
X110482D01*
Y121791D01*
X110457D01*
Y121767D01*
X110432D01*
Y121717D01*
X110407D01*
Y121643D01*
X110382D01*
Y121618D01*
X110358D01*
Y121593D01*
X110333D01*
Y121568D01*
X110308D01*
Y121544D01*
X110283D01*
Y121519D01*
X110259D01*
Y121494D01*
X110209D01*
Y121444D01*
X110159D01*
Y121420D01*
X110135D01*
Y121395D01*
X110110D01*
Y121370D01*
X110085D01*
Y121296D01*
X110060D01*
Y121271D01*
X110035D01*
Y121246D01*
X110011D01*
Y121221D01*
X109986D01*
Y121197D01*
X109961D01*
Y121147D01*
X109912D01*
Y121122D01*
X109887D01*
Y121097D01*
X109862D01*
Y121073D01*
X109837D01*
Y121023D01*
X109788D01*
Y120974D01*
X109763D01*
Y120949D01*
X109738D01*
Y120875D01*
X109713D01*
Y120850D01*
X109689D01*
Y120825D01*
X109664D01*
Y120800D01*
X109639D01*
Y120775D01*
X109614D01*
Y120751D01*
X109590D01*
Y120726D01*
X109565D01*
Y120701D01*
X109540D01*
Y120676D01*
X109515D01*
Y120652D01*
X109490D01*
Y120627D01*
X109466D01*
Y120602D01*
X109441D01*
Y120577D01*
X109416D01*
Y120503D01*
X109391D01*
Y120478D01*
X109367D01*
Y120453D01*
X109342D01*
Y120429D01*
X109317D01*
Y120404D01*
X109292D01*
Y120379D01*
X109267D01*
Y120354D01*
X109243D01*
Y120330D01*
X109218D01*
Y120305D01*
X109193D01*
Y120280D01*
X109168D01*
Y120255D01*
X109143D01*
Y120230D01*
X109119D01*
Y120206D01*
X109094D01*
Y120181D01*
X109069D01*
Y120082D01*
X109020D01*
Y120057D01*
X108995D01*
Y120032D01*
X108970D01*
Y120007D01*
X108945D01*
Y119958D01*
X108896D01*
Y119933D01*
X108871D01*
Y119908D01*
X108846D01*
Y119883D01*
X108821D01*
Y119834D01*
X108772D01*
Y119784D01*
X108747D01*
Y119735D01*
X108722D01*
Y119685D01*
X108698D01*
Y119661D01*
X108673D01*
Y119636D01*
X108648D01*
Y119611D01*
X108623D01*
Y119586D01*
X108598D01*
Y119561D01*
X108574D01*
Y119537D01*
X108549D01*
Y119512D01*
X108524D01*
Y119487D01*
X108475D01*
Y119438D01*
X108450D01*
Y119413D01*
X108425D01*
Y119388D01*
X108400D01*
Y119363D01*
X108376D01*
Y119338D01*
X108351D01*
Y119314D01*
X108326D01*
Y119289D01*
X108301D01*
Y119264D01*
X108276D01*
Y119239D01*
X108252D01*
Y119214D01*
X108227D01*
Y119190D01*
X108202D01*
Y119165D01*
X108177D01*
Y119140D01*
X108153D01*
Y119115D01*
X108128D01*
Y119091D01*
X108103D01*
Y119066D01*
X108053D01*
Y119016D01*
X108029D01*
Y118991D01*
X108004D01*
Y118967D01*
X107979D01*
Y118942D01*
X107954D01*
Y118917D01*
X107929D01*
Y118892D01*
X107905D01*
Y118868D01*
X107880D01*
Y118843D01*
X107855D01*
Y118818D01*
X107830D01*
Y118793D01*
X107806D01*
Y118769D01*
X107756D01*
Y118719D01*
X107657D01*
Y118694D01*
X107632D01*
Y118669D01*
X107607D01*
Y118645D01*
X107583D01*
Y118620D01*
X107558D01*
Y118595D01*
X107533D01*
Y118570D01*
X107508D01*
Y118546D01*
X107434D01*
Y118521D01*
X107409D01*
Y118496D01*
X107384D01*
Y118471D01*
X107360D01*
Y118446D01*
X107335D01*
Y118422D01*
X107310D01*
Y118397D01*
X107285D01*
Y118372D01*
X107261D01*
Y118347D01*
X107186D01*
Y118322D01*
X107161D01*
Y118298D01*
X107137D01*
Y118273D01*
X107112D01*
Y118248D01*
X107037D01*
Y118223D01*
X106988D01*
Y118199D01*
X106938D01*
Y118174D01*
X106889D01*
Y118124D01*
X106864D01*
Y118099D01*
X106765D01*
Y118075D01*
X106740D01*
Y118050D01*
X106666D01*
Y118025D01*
X106641D01*
Y118000D01*
X106616D01*
Y117976D01*
X106517D01*
Y117951D01*
X106492D01*
Y117926D01*
X106418D01*
Y117901D01*
X106393D01*
Y117877D01*
X106270D01*
Y117852D01*
X106245D01*
Y117827D01*
X106170D01*
Y117802D01*
X106146D01*
Y117777D01*
X106096D01*
Y117753D01*
X105972D01*
Y117728D01*
X105947D01*
Y117703D01*
X105873D01*
Y117678D01*
X105848D01*
Y117654D01*
X105650D01*
Y117629D01*
X105625D01*
Y117604D01*
X105601D01*
Y117579D01*
X105452D01*
Y117530D01*
X105254D01*
Y117505D01*
X105229D01*
Y117480D01*
X104981D01*
Y117455D01*
X104956D01*
Y117431D01*
X104931D01*
Y117406D01*
X104560D01*
Y117381D01*
X104535D01*
Y117356D01*
X104015D01*
Y117331D01*
X103990D01*
Y117307D01*
X98911D01*
Y134997D01*
X103098D01*
Y134972D01*
X103123D01*
Y121494D01*
X103148D01*
Y121469D01*
X103222D01*
Y121494D01*
X103247D01*
Y121469D01*
X103643D01*
Y121494D01*
X103693D01*
Y121469D01*
X103767D01*
Y121494D01*
X103792D01*
Y121519D01*
X103841D01*
Y121544D01*
X103916D01*
Y121519D01*
X103990D01*
Y121544D01*
X104015D01*
Y121568D01*
X104039D01*
Y121593D01*
X104188D01*
Y121618D01*
X104213D01*
Y121643D01*
X104337D01*
Y121667D01*
X104362D01*
Y121692D01*
X104436D01*
Y121717D01*
X104461D01*
Y121742D01*
X104535D01*
Y121767D01*
X104560D01*
Y121791D01*
X104634D01*
Y121816D01*
X104659D01*
Y121841D01*
X104684D01*
Y121866D01*
X104708D01*
Y121890D01*
X104733D01*
Y121915D01*
X104832D01*
Y121940D01*
X104857D01*
Y121989D01*
X104907D01*
Y122039D01*
X105006D01*
Y122064D01*
X105031D01*
Y122089D01*
X105055D01*
Y122113D01*
X105080D01*
Y122138D01*
X105105D01*
Y122163D01*
X105130D01*
Y122188D01*
X105154D01*
Y122212D01*
X105229D01*
Y122237D01*
X105254D01*
Y122262D01*
X105278D01*
Y122287D01*
X105303D01*
Y122312D01*
X105328D01*
Y122336D01*
X105353D01*
Y122361D01*
X105378D01*
Y122386D01*
X105402D01*
Y122411D01*
X105427D01*
Y122436D01*
X105452D01*
Y122460D01*
X105477D01*
Y122485D01*
X105501D01*
Y122510D01*
X105526D01*
Y122535D01*
X105551D01*
Y122559D01*
X105576D01*
Y122584D01*
X105601D01*
Y122609D01*
X105625D01*
Y122634D01*
X105650D01*
Y122659D01*
X105675D01*
Y122683D01*
X105700D01*
Y122708D01*
X105724D01*
Y122733D01*
X105749D01*
Y122758D01*
X105774D01*
Y122782D01*
X105799D01*
Y122807D01*
X105823D01*
Y122832D01*
X105848D01*
Y122857D01*
X105873D01*
Y122881D01*
X105898D01*
Y122906D01*
X105923D01*
Y122931D01*
X105947D01*
Y122956D01*
X105972D01*
Y122981D01*
X105997D01*
Y123005D01*
X106022D01*
Y123030D01*
X106046D01*
Y123055D01*
X106071D01*
Y123080D01*
X106096D01*
Y123154D01*
X106121D01*
Y123179D01*
X106146D01*
Y123203D01*
X106170D01*
Y123228D01*
X106195D01*
Y123253D01*
X106220D01*
Y123278D01*
X106245D01*
Y123303D01*
X106270D01*
Y123327D01*
X106294D01*
Y123352D01*
X106319D01*
Y123377D01*
X106344D01*
Y123402D01*
X106369D01*
Y123427D01*
X106393D01*
Y123451D01*
X106418D01*
Y123476D01*
X106443D01*
Y123501D01*
X106468D01*
Y123526D01*
X106443D01*
Y123550D01*
X106468D01*
Y123575D01*
X106492D01*
Y123600D01*
X106517D01*
Y123625D01*
X106542D01*
Y123650D01*
X106567D01*
Y123674D01*
X106592D01*
Y123699D01*
X106616D01*
Y123724D01*
X106641D01*
Y123749D01*
X106666D01*
Y123773D01*
X106691D01*
Y123798D01*
X106715D01*
Y123823D01*
X106740D01*
Y123848D01*
X106765D01*
Y123872D01*
X106790D01*
Y123897D01*
X106814D01*
Y123996D01*
X106864D01*
Y124021D01*
X106889D01*
Y124046D01*
X106914D01*
Y124071D01*
X106938D01*
Y124095D01*
X106963D01*
Y124120D01*
X106988D01*
Y124145D01*
X107013D01*
Y124170D01*
X107037D01*
Y124195D01*
X107062D01*
Y124219D01*
X107087D01*
Y124244D01*
X107112D01*
Y124269D01*
X107137D01*
Y124294D01*
X107161D01*
Y124319D01*
X107186D01*
Y124418D01*
X107211D01*
Y124442D01*
X107236D01*
Y124467D01*
X107261D01*
Y124492D01*
X107285D01*
Y124517D01*
X107310D01*
Y124542D01*
X107335D01*
Y124566D01*
X107360D01*
Y124591D01*
X107384D01*
Y124616D01*
X107409D01*
Y124641D01*
X107434D01*
Y124665D01*
X107459D01*
Y124690D01*
X107484D01*
Y124715D01*
X107508D01*
Y124740D01*
X107533D01*
Y124814D01*
X107558D01*
Y124839D01*
X107583D01*
Y124864D01*
X107607D01*
Y124888D01*
X107632D01*
Y124913D01*
X107657D01*
Y124938D01*
X107682D01*
Y124963D01*
X107706D01*
Y124987D01*
X107731D01*
Y125012D01*
X107756D01*
Y125037D01*
X107781D01*
Y125062D01*
X107806D01*
Y125087D01*
X107830D01*
Y125111D01*
X107855D01*
Y125136D01*
X107905D01*
Y125235D01*
X107929D01*
Y125260D01*
X107954D01*
Y125285D01*
X107979D01*
Y125310D01*
X108004D01*
Y125334D01*
X108029D01*
Y125359D01*
X108053D01*
Y125384D01*
X108078D01*
Y125409D01*
X108103D01*
Y125434D01*
X108128D01*
Y125458D01*
X108153D01*
Y125483D01*
X108177D01*
Y125508D01*
X108202D01*
Y125533D01*
X108227D01*
Y125582D01*
X108252D01*
Y125656D01*
X108301D01*
Y125681D01*
X108326D01*
Y125706D01*
X108351D01*
Y125731D01*
X108376D01*
Y125756D01*
X108400D01*
Y125780D01*
X108425D01*
Y125805D01*
X108450D01*
Y125830D01*
X108475D01*
Y125855D01*
X108499D01*
Y125879D01*
X108524D01*
Y125904D01*
X108549D01*
Y125929D01*
X108574D01*
Y125954D01*
X108598D01*
Y125978D01*
X108623D01*
Y126003D01*
X108648D01*
Y126078D01*
X108673D01*
Y126102D01*
X108698D01*
Y126127D01*
X108722D01*
Y126152D01*
X108747D01*
Y126177D01*
X108772D01*
Y126201D01*
X108797D01*
Y126251D01*
X108821D01*
Y126276D01*
X108846D01*
Y126301D01*
X108871D01*
Y126325D01*
X108896D01*
Y126350D01*
X108921D01*
Y126375D01*
X108945D01*
Y126400D01*
X108970D01*
Y126425D01*
X108995D01*
Y126449D01*
X109020D01*
Y126524D01*
X109044D01*
Y126548D01*
X109069D01*
Y126573D01*
X109094D01*
Y126598D01*
X109119D01*
Y126623D01*
X109143D01*
Y126648D01*
X109168D01*
Y126672D01*
X109193D01*
Y126697D01*
X109243D01*
Y126747D01*
X109292D01*
Y126771D01*
X109317D01*
Y126796D01*
X109342D01*
Y126821D01*
X109367D01*
Y126920D01*
X109416D01*
Y126970D01*
X109441D01*
Y126994D01*
X109466D01*
Y127019D01*
X109490D01*
Y127044D01*
X109515D01*
Y127069D01*
X109540D01*
Y127093D01*
X109565D01*
Y127118D01*
X109590D01*
Y127143D01*
X109614D01*
Y127168D01*
X109639D01*
Y127193D01*
X109664D01*
Y127217D01*
X109689D01*
Y127242D01*
X109713D01*
Y127267D01*
X109738D01*
Y127317D01*
X109763D01*
Y127366D01*
X109788D01*
Y127391D01*
X109812D01*
Y127416D01*
X109837D01*
Y127440D01*
X109862D01*
Y127465D01*
X109887D01*
Y127490D01*
X109912D01*
Y127515D01*
X109936D01*
Y127540D01*
X109961D01*
Y127564D01*
X109986D01*
Y127589D01*
X110011D01*
Y127614D01*
X110035D01*
Y127639D01*
X110060D01*
Y127663D01*
X110085D01*
Y127738D01*
X110110D01*
Y127762D01*
X110135D01*
Y127787D01*
X110159D01*
Y127812D01*
X110184D01*
Y127837D01*
X110209D01*
Y127862D01*
X110234D01*
Y127886D01*
X110259D01*
Y127911D01*
X110283D01*
Y127936D01*
X110308D01*
Y127961D01*
X110333D01*
Y127985D01*
X110358D01*
Y128010D01*
X110382D01*
Y128035D01*
X110407D01*
Y128060D01*
X110432D01*
Y128109D01*
X110457D01*
Y128134D01*
X110482D01*
Y128209D01*
X110506D01*
Y128233D01*
X110531D01*
Y128258D01*
X110556D01*
Y128283D01*
X110581D01*
Y128308D01*
X110605D01*
Y128332D01*
X110630D01*
Y128357D01*
X110655D01*
Y128382D01*
X110680D01*
Y128407D01*
X110729D01*
Y128456D01*
X110779D01*
Y128506D01*
X110804D01*
Y128580D01*
X110828D01*
Y128605D01*
X110853D01*
Y128630D01*
X110878D01*
Y128654D01*
X110903D01*
Y128679D01*
X110927D01*
Y128704D01*
X110952D01*
Y128729D01*
X110977D01*
Y128753D01*
X111002D01*
Y128778D01*
X111027D01*
Y128803D01*
X111051D01*
Y128828D01*
X111076D01*
Y128853D01*
X111101D01*
Y128877D01*
X111126D01*
Y128902D01*
X111151D01*
Y128927D01*
X111175D01*
Y128952D01*
X111200D01*
Y129026D01*
X111225D01*
Y129051D01*
X111250D01*
Y129076D01*
X111274D01*
Y129100D01*
X111299D01*
Y129125D01*
X111324D01*
Y129150D01*
X111349D01*
Y129175D01*
X111374D01*
Y129199D01*
X111398D01*
Y129224D01*
X111423D01*
Y129249D01*
X111448D01*
Y129274D01*
X111473D01*
Y129299D01*
X111497D01*
Y129323D01*
X111522D01*
Y129398D01*
X111547D01*
Y129423D01*
X111572D01*
Y129447D01*
X111596D01*
Y129472D01*
X111621D01*
Y129522D01*
X111671D01*
Y129546D01*
X111696D01*
Y129596D01*
X111745D01*
Y129646D01*
X111795D01*
Y129695D01*
X111844D01*
Y129720D01*
X111869D01*
Y129769D01*
X111918D01*
Y129868D01*
X111943D01*
Y129893D01*
X111993D01*
Y129943D01*
X112042D01*
Y129992D01*
X112092D01*
Y130017D01*
X112117D01*
Y130042D01*
X112142D01*
Y130067D01*
X112166D01*
Y130091D01*
X112191D01*
Y130116D01*
X112216D01*
Y130141D01*
X112241D01*
Y130166D01*
X112265D01*
Y130191D01*
X112290D01*
Y130290D01*
X112315D01*
Y130315D01*
X112340D01*
Y130339D01*
X112365D01*
Y130364D01*
X112389D01*
Y130389D01*
X112414D01*
Y130414D01*
X112439D01*
Y130438D01*
X112464D01*
Y130463D01*
X112488D01*
Y130488D01*
X112513D01*
Y130513D01*
X112538D01*
Y130538D01*
X112563D01*
Y130562D01*
X112587D01*
Y130587D01*
X112612D01*
Y130612D01*
X112637D01*
Y130686D01*
X112662D01*
Y130711D01*
X112687D01*
Y130736D01*
X112711D01*
Y130760D01*
X112736D01*
Y130785D01*
X112761D01*
Y130810D01*
X112786D01*
Y130835D01*
X112810D01*
Y130860D01*
X112835D01*
Y130884D01*
X112860D01*
Y130909D01*
X112885D01*
Y130934D01*
X112910D01*
Y130959D01*
X112934D01*
Y130983D01*
X112959D01*
Y131008D01*
X112984D01*
Y131033D01*
X113009D01*
Y131058D01*
X113034D01*
Y131132D01*
X113058D01*
Y131157D01*
X113083D01*
Y131182D01*
X113108D01*
Y131206D01*
X113133D01*
Y131231D01*
X113157D01*
Y131256D01*
X113182D01*
Y131281D01*
X113207D01*
Y131306D01*
X113232D01*
Y131330D01*
X113257D01*
Y131355D01*
X113281D01*
Y131380D01*
X113306D01*
Y131429D01*
X113356D01*
Y131529D01*
X113380D01*
Y131553D01*
X113405D01*
Y131578D01*
X113430D01*
Y131603D01*
X113455D01*
Y131628D01*
X113479D01*
Y131652D01*
X113504D01*
Y131677D01*
X113554D01*
Y131702D01*
X113579D01*
Y131727D01*
X113603D01*
Y131751D01*
X113628D01*
Y131776D01*
X113653D01*
Y131801D01*
X113678D01*
Y131826D01*
X113702D01*
Y131851D01*
X113727D01*
Y131875D01*
X113752D01*
Y131950D01*
X113777D01*
Y131974D01*
X113802D01*
Y131999D01*
X113826D01*
Y132024D01*
X113851D01*
Y132049D01*
X113876D01*
Y132074D01*
X113901D01*
Y132098D01*
X113926D01*
Y132123D01*
X113950D01*
Y132148D01*
X113975D01*
Y132198D01*
X114000D01*
Y132222D01*
X114025D01*
Y132247D01*
X114049D01*
Y132272D01*
X114074D01*
Y132321D01*
X114099D01*
Y132371D01*
X114124D01*
Y132396D01*
X114148D01*
Y132421D01*
X114173D01*
Y132445D01*
X114198D01*
Y132470D01*
X114223D01*
Y132495D01*
X114248D01*
Y132520D01*
X114272D01*
Y132544D01*
X114297D01*
Y132569D01*
X114322D01*
Y132594D01*
X114347D01*
Y132619D01*
X114371D01*
Y132643D01*
X114396D01*
Y132668D01*
X114421D01*
Y132693D01*
X114471D01*
Y132743D01*
X114520D01*
Y132767D01*
X114545D01*
Y132792D01*
X114570D01*
Y132817D01*
X114594D01*
Y132866D01*
X114644D01*
Y132966D01*
X114669D01*
Y132990D01*
X114693D01*
Y133015D01*
X114718D01*
Y133040D01*
X114793D01*
Y133065D01*
X114817D01*
Y133089D01*
X114842D01*
Y133114D01*
X114867D01*
Y133139D01*
X114892D01*
Y133164D01*
X114916D01*
Y133189D01*
X114941D01*
Y133213D01*
X114966D01*
Y133238D01*
X114991D01*
Y133263D01*
X115016D01*
Y133288D01*
X115040D01*
Y133313D01*
X115065D01*
Y133337D01*
X115090D01*
Y133362D01*
X115115D01*
Y133387D01*
X115140D01*
Y133412D01*
X115164D01*
Y133436D01*
X115189D01*
Y133461D01*
X115214D01*
Y133486D01*
X115239D01*
Y133511D01*
X115263D01*
Y133535D01*
X115363D01*
Y133560D01*
X115387D01*
Y133585D01*
X115412D01*
Y133610D01*
X115437D01*
Y133635D01*
X115462D01*
Y133659D01*
X115486D01*
Y133684D01*
X115511D01*
Y133709D01*
X115536D01*
Y133734D01*
X115561D01*
Y133758D01*
X115635D01*
Y133783D01*
X115660D01*
Y133808D01*
X115685D01*
Y133833D01*
X115709D01*
Y133857D01*
X115759D01*
Y133882D01*
X115808D01*
Y133907D01*
X115833D01*
Y133932D01*
X115858D01*
Y133957D01*
X115883D01*
Y133981D01*
X115957D01*
Y134006D01*
X115982D01*
Y134031D01*
X116007D01*
Y134056D01*
X116032D01*
Y134080D01*
X116056D01*
Y134105D01*
X116131D01*
Y134130D01*
X116155D01*
Y134155D01*
X116180D01*
Y134180D01*
X116205D01*
Y134204D01*
X116304D01*
Y134229D01*
X116329D01*
Y134254D01*
X116354D01*
Y134279D01*
X116453D01*
Y134304D01*
X116477D01*
Y134328D01*
X116552D01*
Y134353D01*
X116601D01*
Y134378D01*
X116626D01*
Y134403D01*
X116700D01*
Y134427D01*
X116750D01*
Y134452D01*
X116775D01*
Y134477D01*
X116899D01*
Y134502D01*
X116923D01*
Y134527D01*
X117022D01*
Y134551D01*
X117047D01*
Y134576D01*
X117072D01*
Y134601D01*
X117122D01*
Y134576D01*
X117171D01*
Y134601D01*
X117196D01*
Y134626D01*
X117221D01*
Y134650D01*
X117369D01*
Y134675D01*
X117394D01*
Y134700D01*
X117568D01*
Y134725D01*
X117592D01*
Y134749D01*
X117642D01*
Y134774D01*
X117716D01*
Y134749D01*
X117766D01*
Y134774D01*
X117815D01*
Y134824D01*
X118088D01*
Y134849D01*
X118113D01*
Y134873D01*
X118410D01*
Y134898D01*
X118435D01*
Y134923D01*
X118484D01*
Y134948D01*
X118534D01*
Y134923D01*
X119005D01*
Y134948D01*
X119054D01*
Y134972D01*
X119079D01*
Y134997D01*
X124034D01*
Y134948D01*
D02*
G37*
G36*
X65090Y134972D02*
X65115D01*
Y134948D01*
X65165D01*
Y134923D01*
X65710D01*
Y134948D01*
X65760D01*
Y134923D01*
X65784D01*
Y134898D01*
X65809D01*
Y134873D01*
X66156D01*
Y134849D01*
X66181D01*
Y134824D01*
X66428D01*
Y134799D01*
X66453D01*
Y134774D01*
X66503D01*
Y134749D01*
X66528D01*
Y134774D01*
X66552D01*
Y134749D01*
X66577D01*
Y134774D01*
X66652D01*
Y134749D01*
X66676D01*
Y134725D01*
X66701D01*
Y134700D01*
X66899D01*
Y134675D01*
X66924D01*
Y134650D01*
X67098D01*
Y134626D01*
X67122D01*
Y134601D01*
X67172D01*
Y134576D01*
X67221D01*
Y134551D01*
X67246D01*
Y134527D01*
X67395D01*
Y134502D01*
X67420D01*
Y134477D01*
X67544D01*
Y134452D01*
X67568D01*
Y134427D01*
X67593D01*
Y134403D01*
X67618D01*
Y134427D01*
X67667D01*
Y134403D01*
X67692D01*
Y134378D01*
X67717D01*
Y134353D01*
X67791D01*
Y134328D01*
X67816D01*
Y134304D01*
X67915D01*
Y134279D01*
X67940D01*
Y134254D01*
X67989D01*
Y134229D01*
X68039D01*
Y134180D01*
X68088D01*
Y134155D01*
X68163D01*
Y134105D01*
X68262D01*
Y134080D01*
X68287D01*
Y134056D01*
X68312D01*
Y134031D01*
X68336D01*
Y134006D01*
X68361D01*
Y133981D01*
X68386D01*
Y133957D01*
X68411D01*
Y133932D01*
X68510D01*
Y133882D01*
X68559D01*
Y133857D01*
X68584D01*
Y133808D01*
X68634D01*
Y133758D01*
X68658D01*
Y133734D01*
X68683D01*
Y133709D01*
X68708D01*
Y133684D01*
X68733D01*
Y133659D01*
X68758D01*
Y133635D01*
X68782D01*
Y133610D01*
X68807D01*
Y133585D01*
X68832D01*
Y133560D01*
X68857D01*
Y133535D01*
X68881D01*
Y133511D01*
X68906D01*
Y133486D01*
X68931D01*
Y133461D01*
X68956D01*
Y133436D01*
X68980D01*
Y133412D01*
X69005D01*
Y133337D01*
X69030D01*
Y133313D01*
X69055D01*
Y133288D01*
X69080D01*
Y133263D01*
X69104D01*
Y133238D01*
X69129D01*
Y133213D01*
X69154D01*
Y133189D01*
X69179D01*
Y133114D01*
X69204D01*
Y133089D01*
X69228D01*
Y133065D01*
X69253D01*
Y133040D01*
X69278D01*
Y133015D01*
X69303D01*
Y132916D01*
X69352D01*
Y132817D01*
X69377D01*
Y132792D01*
X69402D01*
Y132767D01*
X69426D01*
Y132693D01*
X69451D01*
Y132668D01*
X69476D01*
Y132594D01*
X69501D01*
Y132569D01*
X69526D01*
Y132445D01*
X69550D01*
Y132421D01*
X69575D01*
Y132272D01*
X69600D01*
Y132247D01*
X69625D01*
Y132222D01*
X69650D01*
Y132198D01*
X69625D01*
Y132123D01*
X69650D01*
Y132074D01*
X69699D01*
Y131999D01*
X69674D01*
Y131925D01*
X69699D01*
Y131851D01*
X69724D01*
Y131826D01*
X69749D01*
Y131677D01*
X69724D01*
Y131652D01*
X69749D01*
Y131603D01*
X69773D01*
Y131553D01*
X69798D01*
Y131107D01*
X69823D01*
Y131058D01*
X69848D01*
Y121221D01*
X69823D01*
Y121197D01*
X69798D01*
Y120726D01*
X69773D01*
Y120676D01*
X69749D01*
Y120652D01*
X69724D01*
Y120602D01*
X69749D01*
Y120453D01*
X69724D01*
Y120429D01*
X69699D01*
Y120330D01*
X69674D01*
Y120305D01*
X69699D01*
Y120230D01*
X69674D01*
Y120206D01*
X69650D01*
Y120181D01*
X69625D01*
Y120106D01*
X69650D01*
Y120082D01*
X69625D01*
Y120032D01*
X69600D01*
Y120007D01*
X69575D01*
Y119883D01*
X69550D01*
Y119859D01*
X69526D01*
Y119735D01*
X69501D01*
Y119710D01*
X69476D01*
Y119611D01*
X69426D01*
Y119561D01*
X69402D01*
Y119487D01*
X69377D01*
Y119462D01*
X69352D01*
Y119388D01*
X69327D01*
Y119363D01*
X69303D01*
Y119264D01*
X69278D01*
Y119239D01*
X69228D01*
Y119190D01*
X69179D01*
Y119091D01*
X69154D01*
Y119066D01*
X69104D01*
Y119016D01*
X69055D01*
Y118967D01*
X69030D01*
Y118942D01*
X69005D01*
Y118892D01*
X68980D01*
Y118843D01*
X68956D01*
Y118818D01*
X68931D01*
Y118793D01*
X68906D01*
Y118769D01*
X68881D01*
Y118744D01*
X68857D01*
Y118719D01*
X68832D01*
Y118694D01*
X68807D01*
Y118669D01*
X68782D01*
Y118645D01*
X68758D01*
Y118620D01*
X68733D01*
Y118595D01*
X68708D01*
Y118570D01*
X68683D01*
Y118546D01*
X68658D01*
Y118521D01*
X68634D01*
Y118496D01*
X68609D01*
Y118471D01*
X68584D01*
Y118446D01*
X68559D01*
Y118422D01*
X68534D01*
Y118397D01*
X68510D01*
Y118372D01*
X68435D01*
Y118347D01*
X68411D01*
Y118322D01*
X68386D01*
Y118298D01*
X68361D01*
Y118273D01*
X68336D01*
Y118248D01*
X68287D01*
Y118223D01*
X68262D01*
Y118199D01*
X68188D01*
Y118174D01*
X68163D01*
Y118149D01*
X68138D01*
Y118124D01*
X68064D01*
Y118099D01*
X68039D01*
Y118075D01*
X68014D01*
Y118050D01*
X67940D01*
Y118025D01*
X67915D01*
Y118000D01*
X67841D01*
Y117976D01*
X67816D01*
Y117951D01*
X67791D01*
Y117926D01*
X67692D01*
Y117901D01*
X67667D01*
Y117877D01*
X67593D01*
Y117852D01*
X67568D01*
Y117827D01*
X67420D01*
Y117802D01*
X67395D01*
Y117777D01*
X67370D01*
Y117753D01*
X67296D01*
Y117728D01*
X67271D01*
Y117703D01*
X67147D01*
Y117678D01*
X67122D01*
Y117654D01*
X66998D01*
Y117629D01*
X66974D01*
Y117604D01*
X66949D01*
Y117579D01*
X66751D01*
Y117555D01*
X66726D01*
Y117530D01*
X66528D01*
Y117505D01*
X66503D01*
Y117480D01*
X66478D01*
Y117455D01*
X66428D01*
Y117480D01*
X66280D01*
Y117455D01*
X66230D01*
Y117431D01*
X66181D01*
Y117406D01*
X65908D01*
Y117431D01*
X65883D01*
Y117406D01*
X65834D01*
Y117356D01*
X65239D01*
Y117331D01*
X65214D01*
Y117307D01*
X44377D01*
Y121469D01*
X44402D01*
Y121494D01*
X44476D01*
Y121469D01*
X64769D01*
Y121494D01*
X64793D01*
Y121469D01*
X64868D01*
Y121494D01*
X64892D01*
Y121519D01*
X64917D01*
Y121544D01*
X64991D01*
Y121519D01*
X65041D01*
Y121544D01*
X65066D01*
Y121568D01*
X65090D01*
Y121593D01*
X65165D01*
Y121618D01*
X65190D01*
Y121643D01*
X65214D01*
Y121667D01*
X65239D01*
Y121692D01*
X65264D01*
Y121717D01*
X65289D01*
Y121742D01*
X65314D01*
Y121767D01*
X65338D01*
Y121841D01*
X65363D01*
Y121866D01*
X65388D01*
Y121890D01*
X65413D01*
Y121915D01*
X65388D01*
Y121965D01*
X65413D01*
Y121989D01*
X65437D01*
Y122014D01*
X65462D01*
Y130290D01*
X65437D01*
Y130315D01*
X65413D01*
Y130389D01*
X65388D01*
Y130414D01*
X65363D01*
Y130438D01*
X65338D01*
Y130538D01*
X65314D01*
Y130562D01*
X65289D01*
Y130587D01*
X65264D01*
Y130612D01*
X65239D01*
Y130637D01*
X65190D01*
Y130661D01*
X65140D01*
Y130686D01*
X65115D01*
Y130711D01*
X65090D01*
Y130736D01*
X65066D01*
Y130760D01*
X64843D01*
Y130785D01*
X64818D01*
Y130810D01*
X64793D01*
Y130835D01*
X64769D01*
Y130810D01*
X44451D01*
Y130835D01*
X44427D01*
Y131652D01*
Y131677D01*
Y134972D01*
X44451D01*
Y134997D01*
X65090D01*
Y134972D01*
D02*
G37*
G36*
X133673Y112872D02*
X133028D01*
Y112896D01*
X133004D01*
Y113218D01*
X133028D01*
Y113243D01*
X133673D01*
Y112872D01*
D02*
G37*
G36*
X88604D02*
X87959D01*
Y112896D01*
X87935D01*
Y113243D01*
X88604D01*
Y112872D01*
D02*
G37*
G36*
X80824Y112896D02*
X80799D01*
Y112872D01*
X80180D01*
Y112896D01*
X80155D01*
Y112921D01*
X80130D01*
Y112971D01*
X80155D01*
Y113169D01*
X80130D01*
Y113218D01*
X80155D01*
Y113243D01*
X80824D01*
Y112896D01*
D02*
G37*
G36*
X62266Y113218D02*
X62291D01*
Y113144D01*
X62266D01*
Y113119D01*
X62291D01*
Y113020D01*
X62266D01*
Y112971D01*
X62291D01*
Y112921D01*
X62266D01*
Y112872D01*
X61647D01*
Y112896D01*
X61622D01*
Y113243D01*
X62266D01*
Y113218D01*
D02*
G37*
G36*
X50745D02*
X50770D01*
Y112921D01*
X50745D01*
Y112872D01*
X50101D01*
Y113243D01*
X50745D01*
Y113218D01*
D02*
G37*
G36*
X71780Y113169D02*
X71805D01*
Y113144D01*
X71954D01*
Y113119D01*
X71979D01*
Y113095D01*
X72003D01*
Y113070D01*
X72078D01*
Y113045D01*
X72102D01*
Y113020D01*
X72127D01*
Y112996D01*
X72152D01*
Y112971D01*
X72177D01*
Y112946D01*
X72201D01*
Y112872D01*
X72226D01*
Y112847D01*
X72251D01*
Y111063D01*
X72226D01*
Y111038D01*
X72201D01*
Y111013D01*
X72177D01*
Y110989D01*
X72152D01*
Y110890D01*
X72127D01*
Y110865D01*
X72102D01*
Y110840D01*
X72078D01*
Y110815D01*
X71979D01*
Y110766D01*
X71954D01*
Y110741D01*
X71855D01*
Y110766D01*
X71830D01*
Y110741D01*
X71805D01*
Y110716D01*
X71780D01*
Y110691D01*
X68460D01*
Y111236D01*
X68485D01*
Y111261D01*
X71508D01*
Y111286D01*
X71533D01*
Y111311D01*
X71557D01*
Y111360D01*
X71582D01*
Y111435D01*
X71557D01*
Y111559D01*
X71582D01*
Y111608D01*
X71557D01*
Y111633D01*
X68534D01*
Y111658D01*
X68510D01*
Y112153D01*
X68534D01*
Y112203D01*
X71483D01*
Y112178D01*
X71508D01*
Y112203D01*
X71557D01*
Y112252D01*
X71582D01*
Y112327D01*
X71557D01*
Y112500D01*
X71582D01*
Y112550D01*
X71557D01*
Y112599D01*
X71533D01*
Y112624D01*
X71508D01*
Y112649D01*
X68460D01*
Y113194D01*
X71780D01*
Y113169D01*
D02*
G37*
G36*
X142716Y113119D02*
X142741D01*
Y112599D01*
X143063D01*
Y112574D01*
X143088D01*
Y112128D01*
X143063D01*
Y112104D01*
X143038D01*
Y112079D01*
X142989D01*
Y112104D01*
X142790D01*
Y112079D01*
X142741D01*
Y110716D01*
X142716D01*
Y110691D01*
X142072D01*
Y112079D01*
X142047D01*
Y112104D01*
X141973D01*
Y112079D01*
X141948D01*
Y112104D01*
X141799D01*
Y112079D01*
X141725D01*
Y112104D01*
X141700D01*
Y112525D01*
X141675D01*
Y112550D01*
X141700D01*
Y112574D01*
X141725D01*
Y112599D01*
X142072D01*
Y113119D01*
X142097D01*
Y113144D01*
X142716D01*
Y113119D01*
D02*
G37*
G36*
X128420Y112574D02*
X128445D01*
Y112376D01*
Y112351D01*
Y112104D01*
X128420D01*
Y112079D01*
X128370D01*
Y112104D01*
X126859D01*
Y112079D01*
X126809D01*
Y112104D01*
X126760D01*
Y112079D01*
X126735D01*
Y112054D01*
X126685D01*
Y112029D01*
X126661D01*
Y112004D01*
X126636D01*
Y111980D01*
X126611D01*
Y111831D01*
X126636D01*
Y111806D01*
X128147D01*
Y111831D01*
X128172D01*
Y111806D01*
X128222D01*
Y111757D01*
X128321D01*
Y111732D01*
X128345D01*
Y111707D01*
X128370D01*
Y111682D01*
X128395D01*
Y111583D01*
X128445D01*
Y110939D01*
X128420D01*
Y110914D01*
X128395D01*
Y110815D01*
X128345D01*
Y110790D01*
X128321D01*
Y110741D01*
X128222D01*
Y110716D01*
X128197D01*
Y110691D01*
X126339D01*
Y110716D01*
X126314D01*
Y110741D01*
X126264D01*
Y110766D01*
X126215D01*
Y110790D01*
X126190D01*
Y110815D01*
X126116D01*
Y110840D01*
X126091D01*
Y110865D01*
X126066D01*
Y110890D01*
X126041D01*
Y110914D01*
X126017D01*
Y110939D01*
X125992D01*
Y111038D01*
X125967D01*
Y111063D01*
X125942D01*
Y112178D01*
X125967D01*
Y112203D01*
X125992D01*
Y112277D01*
X126017D01*
Y112302D01*
X126041D01*
Y112376D01*
X126066D01*
Y112426D01*
X126091D01*
Y112450D01*
X126140D01*
Y112475D01*
X126190D01*
Y112500D01*
X126215D01*
Y112525D01*
X126289D01*
Y112550D01*
X126314D01*
Y112574D01*
X126363D01*
Y112599D01*
X128420D01*
Y112574D01*
D02*
G37*
G36*
X84962D02*
X84986D01*
Y112104D01*
X84962D01*
Y112079D01*
X84912D01*
Y112104D01*
X83400D01*
Y112079D01*
X83351D01*
Y112104D01*
X83277D01*
Y112079D01*
X83252D01*
Y112054D01*
X83227D01*
Y112029D01*
X83202D01*
Y112004D01*
X83178D01*
Y111980D01*
X83153D01*
Y111831D01*
X83178D01*
Y111806D01*
X84689D01*
Y111831D01*
X84714D01*
Y111806D01*
X84763D01*
Y111757D01*
X84862D01*
Y111732D01*
X84887D01*
Y111707D01*
X84912D01*
Y111682D01*
X84937D01*
Y111583D01*
X84986D01*
Y110939D01*
X84962D01*
Y110914D01*
X84937D01*
Y110815D01*
X84887D01*
Y110790D01*
X84862D01*
Y110766D01*
X84838D01*
Y110741D01*
X84763D01*
Y110716D01*
X84739D01*
Y110691D01*
X82880D01*
Y110716D01*
X82856D01*
Y110741D01*
X82806D01*
Y110766D01*
X82756D01*
Y110790D01*
X82732D01*
Y110815D01*
X82657D01*
Y110840D01*
X82632D01*
Y110865D01*
X82608D01*
Y110890D01*
X82583D01*
Y110914D01*
X82558D01*
Y110964D01*
X82533D01*
Y111038D01*
X82509D01*
Y111063D01*
X82484D01*
Y112178D01*
X82509D01*
Y112203D01*
X82533D01*
Y112277D01*
X82558D01*
Y112302D01*
X82583D01*
Y112351D01*
X82608D01*
Y112426D01*
X82632D01*
Y112450D01*
X82682D01*
Y112475D01*
X82732D01*
Y112500D01*
X82756D01*
Y112525D01*
X82831D01*
Y112550D01*
X82856D01*
Y112574D01*
X82905D01*
Y112599D01*
X84962D01*
Y112574D01*
D02*
G37*
G36*
X82013Y113119D02*
X82038D01*
Y112649D01*
X82013D01*
Y112624D01*
X82038D01*
Y112599D01*
X82360D01*
Y112550D01*
X82385D01*
Y112500D01*
X82360D01*
Y112450D01*
X82385D01*
Y112128D01*
X82360D01*
Y112104D01*
X82335D01*
Y112079D01*
X82286D01*
Y112104D01*
X82087D01*
Y112079D01*
X82038D01*
Y111881D01*
Y111856D01*
Y110716D01*
X82013D01*
Y110691D01*
X81369D01*
Y112054D01*
X81344D01*
Y112104D01*
X81270D01*
Y112079D01*
X81245D01*
Y112104D01*
X81096D01*
Y112079D01*
X81022D01*
Y112104D01*
X80997D01*
Y112128D01*
X80972D01*
Y112574D01*
X81022D01*
Y112599D01*
X81369D01*
Y113119D01*
X81394D01*
Y113144D01*
X82013D01*
Y113119D01*
D02*
G37*
G36*
X94501Y111682D02*
Y111658D01*
Y111063D01*
X94476D01*
Y111038D01*
X94451D01*
Y110939D01*
X94426D01*
Y110914D01*
X94377D01*
Y110865D01*
X94327D01*
Y110815D01*
X94253D01*
Y110790D01*
X94203D01*
Y110766D01*
X94178D01*
Y110741D01*
X94054D01*
Y110716D01*
X94030D01*
Y110691D01*
X92345D01*
Y110716D01*
X92320D01*
Y110741D01*
X92196D01*
Y110766D01*
X92171D01*
Y110790D01*
X92147D01*
Y110815D01*
X92122D01*
Y110840D01*
X92097D01*
Y110865D01*
X92072D01*
Y110890D01*
X92048D01*
Y110914D01*
X92023D01*
Y110939D01*
X91998D01*
Y110964D01*
X91973D01*
Y110989D01*
X91948D01*
Y111063D01*
X91924D01*
Y111088D01*
X91899D01*
Y111137D01*
X91874D01*
Y112500D01*
X91899D01*
Y112525D01*
X92593D01*
Y111236D01*
X92618D01*
Y111212D01*
X93782D01*
Y111236D01*
X93807D01*
Y111261D01*
X93832D01*
Y111311D01*
X93856D01*
Y111335D01*
X93832D01*
Y112500D01*
X93856D01*
Y112525D01*
X94501D01*
Y111682D01*
D02*
G37*
G36*
X120714Y112599D02*
X122176D01*
Y112574D01*
X122201D01*
Y112550D01*
X122226D01*
Y112525D01*
X122374D01*
Y112500D01*
X122399D01*
Y112475D01*
X122473D01*
Y112450D01*
X122498D01*
Y112426D01*
X122523D01*
Y112401D01*
X122548D01*
Y112327D01*
X122572D01*
Y112302D01*
X122597D01*
Y112277D01*
X122622D01*
Y112252D01*
X122647D01*
Y112203D01*
X122672D01*
Y112153D01*
X122647D01*
Y111137D01*
X122672D01*
Y111063D01*
X122647D01*
Y111038D01*
X122622D01*
Y111013D01*
X122597D01*
Y110989D01*
X122572D01*
Y110964D01*
X122548D01*
Y110865D01*
X122498D01*
Y110815D01*
X122399D01*
Y110790D01*
X122374D01*
Y110766D01*
X122350D01*
Y110741D01*
X122275D01*
Y110766D01*
X122250D01*
Y110741D01*
X122201D01*
Y110691D01*
X120442D01*
Y110716D01*
X120417D01*
Y110741D01*
X120343D01*
Y110766D01*
X120318D01*
Y110790D01*
X120293D01*
Y110815D01*
X120219D01*
Y110840D01*
X120194D01*
Y110865D01*
X120169D01*
Y110890D01*
X120144D01*
Y110914D01*
X120120D01*
Y110939D01*
X120095D01*
Y110964D01*
X120070D01*
Y110989D01*
X120045D01*
Y111112D01*
X120021D01*
Y111162D01*
X119996D01*
Y111509D01*
Y111534D01*
Y113243D01*
X120714D01*
Y112599D01*
D02*
G37*
G36*
X57930Y112550D02*
X57955D01*
Y112525D01*
X58103D01*
Y112500D01*
X58128D01*
Y112475D01*
X58153D01*
Y112450D01*
X58178D01*
Y112426D01*
X58203D01*
Y112401D01*
X58227D01*
Y112376D01*
X58252D01*
Y112351D01*
X58277D01*
Y112327D01*
X58302D01*
Y112302D01*
X58327D01*
Y112277D01*
X58351D01*
Y112252D01*
Y112227D01*
Y112203D01*
X58327D01*
Y112178D01*
X58351D01*
Y111162D01*
X58327D01*
Y111137D01*
X58351D01*
Y111063D01*
X58327D01*
Y111038D01*
X58302D01*
Y111013D01*
X58277D01*
Y110939D01*
X58252D01*
Y110914D01*
X58227D01*
Y110890D01*
X58203D01*
Y110865D01*
X58178D01*
Y110840D01*
X58153D01*
Y110815D01*
X58128D01*
Y110790D01*
X58103D01*
Y110766D01*
X58079D01*
Y110741D01*
X58004D01*
Y110766D01*
X57980D01*
Y110741D01*
X57930D01*
Y110691D01*
X55898D01*
Y110716D01*
X55874D01*
Y111162D01*
X55898D01*
Y111187D01*
X55923D01*
Y111212D01*
X57608D01*
Y111236D01*
X57633D01*
Y111261D01*
X57657D01*
Y111459D01*
X56097D01*
Y111484D01*
X56047D01*
Y111509D01*
X56022D01*
Y111534D01*
X55998D01*
Y111559D01*
X55973D01*
Y111583D01*
X55948D01*
Y111608D01*
X55923D01*
Y111633D01*
X55898D01*
Y111658D01*
X55874D01*
Y111682D01*
X55849D01*
Y111707D01*
X55824D01*
Y112277D01*
X55849D01*
Y112302D01*
X55874D01*
Y112401D01*
X55898D01*
Y112426D01*
X55923D01*
Y112450D01*
X55948D01*
Y112475D01*
X55973D01*
Y112500D01*
X55998D01*
Y112525D01*
X56072D01*
Y112550D01*
X56097D01*
Y112574D01*
X56121D01*
Y112599D01*
X57930D01*
Y112550D01*
D02*
G37*
G36*
X152924Y113169D02*
X152949D01*
Y113144D01*
X153073D01*
Y113119D01*
X153097D01*
Y113095D01*
X153147D01*
Y113070D01*
X153196D01*
Y113045D01*
X153221D01*
Y113020D01*
X153246D01*
Y112996D01*
X153271D01*
Y112971D01*
X153296D01*
Y112921D01*
X153320D01*
Y112872D01*
X153345D01*
Y112847D01*
X153370D01*
Y111063D01*
X153345D01*
Y111038D01*
X153320D01*
Y111013D01*
X153296D01*
Y110989D01*
X153271D01*
Y110964D01*
X153246D01*
Y110865D01*
X153196D01*
Y110815D01*
X153122D01*
Y110790D01*
X153097D01*
Y110766D01*
X153048D01*
Y110741D01*
X152924D01*
Y110716D01*
X152899D01*
Y110691D01*
X149604D01*
Y110716D01*
X149579D01*
Y111212D01*
X149604D01*
Y111236D01*
X149629D01*
Y111261D01*
X152652D01*
Y111286D01*
X152676D01*
Y111311D01*
X152701D01*
Y111633D01*
X149678D01*
Y111658D01*
X149629D01*
Y112153D01*
X149654D01*
Y112178D01*
X149678D01*
Y112203D01*
X152701D01*
Y112574D01*
X152676D01*
Y112599D01*
X152652D01*
Y112624D01*
X152627D01*
Y112649D01*
X149604D01*
Y112673D01*
X149579D01*
Y113169D01*
X149604D01*
Y113194D01*
X152924D01*
Y113169D01*
D02*
G37*
G36*
X149307Y110691D02*
X148662D01*
Y110716D01*
X148638D01*
Y111286D01*
Y111311D01*
Y113218D01*
X148662D01*
Y113243D01*
X149307D01*
Y110691D01*
D02*
G37*
G36*
X147870Y112574D02*
X147919D01*
Y112550D01*
X147944D01*
Y112525D01*
X148068D01*
Y112500D01*
X148092D01*
Y112475D01*
X148117D01*
Y112450D01*
X148142D01*
Y112426D01*
X148167D01*
Y112401D01*
X148192D01*
Y112376D01*
X148216D01*
Y112351D01*
X148241D01*
Y112327D01*
X148266D01*
Y112302D01*
X148291D01*
Y112277D01*
X148315D01*
Y111063D01*
X148291D01*
Y111038D01*
X148266D01*
Y111013D01*
X148241D01*
Y110939D01*
X148216D01*
Y110914D01*
X148192D01*
Y110890D01*
X148167D01*
Y110865D01*
X148142D01*
Y110840D01*
X148117D01*
Y110815D01*
X148092D01*
Y110790D01*
X148068D01*
Y110766D01*
X148043D01*
Y110741D01*
X147919D01*
Y110716D01*
X147894D01*
Y110691D01*
X145887D01*
Y110716D01*
X145863D01*
Y111187D01*
X145887D01*
Y111212D01*
X147597D01*
Y111261D01*
X147622D01*
Y111286D01*
X147647D01*
Y111459D01*
X146061D01*
Y111484D01*
X146036D01*
Y111509D01*
X146011D01*
Y111534D01*
X145986D01*
Y111559D01*
X145962D01*
Y111583D01*
X145937D01*
Y111608D01*
X145912D01*
Y111633D01*
X145887D01*
Y111658D01*
X145863D01*
Y111682D01*
X145838D01*
Y111707D01*
X145813D01*
Y112302D01*
X145838D01*
Y112327D01*
X145863D01*
Y112401D01*
X145887D01*
Y112426D01*
X145912D01*
Y112450D01*
X145937D01*
Y112475D01*
X145962D01*
Y112500D01*
X145986D01*
Y112525D01*
X146036D01*
Y112550D01*
X146086D01*
Y112574D01*
X146110D01*
Y112599D01*
X147870D01*
Y112574D01*
D02*
G37*
G36*
X145045D02*
X145095D01*
Y112550D01*
X145119D01*
Y112525D01*
X145243D01*
Y112500D01*
X145268D01*
Y112475D01*
X145342D01*
Y112450D01*
X145367D01*
Y112426D01*
X145392D01*
Y112376D01*
X145417D01*
Y112302D01*
X145466D01*
Y112277D01*
X145491D01*
Y112252D01*
X145516D01*
Y111038D01*
X145491D01*
Y111013D01*
X145466D01*
Y110989D01*
X145417D01*
Y110890D01*
X145392D01*
Y110865D01*
X145367D01*
Y110840D01*
X145342D01*
Y110815D01*
X145293D01*
Y110790D01*
X145243D01*
Y110766D01*
X145218D01*
Y110741D01*
X145095D01*
Y110716D01*
X145070D01*
Y110691D01*
X143211D01*
Y110716D01*
X143187D01*
Y111187D01*
X143211D01*
Y111212D01*
X144797D01*
Y111236D01*
X144822D01*
Y111261D01*
X144847D01*
Y111311D01*
X144872D01*
Y111360D01*
X144847D01*
Y111905D01*
X144872D01*
Y111955D01*
X144847D01*
Y112029D01*
X144822D01*
Y112054D01*
X144797D01*
Y112079D01*
X144773D01*
Y112104D01*
X144698D01*
Y112079D01*
X144673D01*
Y112104D01*
X143286D01*
Y112079D01*
X143211D01*
Y112104D01*
X143187D01*
Y112574D01*
X143211D01*
Y112599D01*
X145045D01*
Y112574D01*
D02*
G37*
G36*
X141031D02*
X141056D01*
Y112550D01*
X141105D01*
Y112525D01*
X141229D01*
Y112500D01*
X141254D01*
Y112475D01*
X141328D01*
Y112450D01*
X141353D01*
Y112426D01*
X141378D01*
Y112401D01*
X141403D01*
Y112327D01*
X141428D01*
Y112302D01*
X141452D01*
Y112277D01*
X141477D01*
Y112252D01*
X141502D01*
Y112227D01*
X141527D01*
Y110716D01*
X141502D01*
Y110691D01*
X140883D01*
Y110716D01*
X140858D01*
Y112004D01*
X140833D01*
Y112054D01*
X140808D01*
Y112079D01*
X140734D01*
Y112104D01*
X139941D01*
Y112079D01*
X139892D01*
Y112104D01*
X139867D01*
Y112525D01*
X139842D01*
Y112550D01*
X139867D01*
Y112574D01*
X139892D01*
Y112599D01*
X141031D01*
Y112574D01*
D02*
G37*
G36*
X139148D02*
X139173D01*
Y112550D01*
X139222D01*
Y112525D01*
X139346D01*
Y112475D01*
X139445D01*
Y112450D01*
X139470D01*
Y112426D01*
X139495D01*
Y112401D01*
X139520D01*
Y112302D01*
X139569D01*
Y112277D01*
X139594D01*
Y112252D01*
X139619D01*
Y112178D01*
Y112153D01*
Y111038D01*
X139569D01*
Y110989D01*
X139520D01*
Y110890D01*
X139495D01*
Y110865D01*
X139470D01*
Y110840D01*
X139445D01*
Y110815D01*
X139371D01*
Y110790D01*
X139346D01*
Y110766D01*
X139322D01*
Y110741D01*
X139173D01*
Y110716D01*
X139148D01*
Y110691D01*
X137414D01*
Y110741D01*
X137315D01*
Y110766D01*
X137290D01*
Y110790D01*
X137265D01*
Y110815D01*
X137191D01*
Y110840D01*
X137166D01*
Y110865D01*
X137141D01*
Y110890D01*
X137116D01*
Y110914D01*
X137092D01*
Y110939D01*
X137067D01*
Y110964D01*
X137042D01*
Y110989D01*
X137017D01*
Y111112D01*
X136993D01*
Y111162D01*
X136968D01*
Y111187D01*
X136943D01*
Y112104D01*
X136968D01*
Y112128D01*
X136993D01*
Y112178D01*
X137017D01*
Y112252D01*
X137067D01*
Y112351D01*
X137092D01*
Y112376D01*
X137116D01*
Y112401D01*
X137141D01*
Y112426D01*
X137166D01*
Y112450D01*
X137191D01*
Y112475D01*
X137290D01*
Y112500D01*
X137315D01*
Y112525D01*
X137364D01*
Y112550D01*
X137414D01*
Y112574D01*
X137439D01*
Y112599D01*
X139148D01*
Y112574D01*
D02*
G37*
G36*
X136646D02*
X136671D01*
Y110716D01*
X136646D01*
Y110691D01*
X136026D01*
Y110716D01*
X136002D01*
Y112079D01*
X135977D01*
Y112104D01*
X135902D01*
Y112079D01*
X135878D01*
Y112104D01*
X134936D01*
Y112079D01*
X134911D01*
Y112104D01*
X134837D01*
Y112079D01*
X134787D01*
Y112054D01*
X134763D01*
Y112029D01*
X134738D01*
Y110716D01*
X134713D01*
Y110691D01*
X134019D01*
Y110716D01*
X133995D01*
Y112104D01*
X134019D01*
Y112128D01*
X134044D01*
Y112203D01*
X134069D01*
Y112227D01*
X134094D01*
Y112327D01*
X134118D01*
Y112351D01*
X134143D01*
Y112376D01*
X134168D01*
Y112401D01*
X134193D01*
Y112426D01*
X134218D01*
Y112450D01*
X134242D01*
Y112475D01*
X134317D01*
Y112500D01*
X134341D01*
Y112525D01*
X134441D01*
Y112550D01*
X134465D01*
Y112599D01*
X136646D01*
Y112574D01*
D02*
G37*
G36*
X133648D02*
X133673D01*
Y110691D01*
X133028D01*
Y110716D01*
X133004D01*
Y111459D01*
Y111484D01*
Y112574D01*
X133028D01*
Y112599D01*
X133648D01*
Y112574D01*
D02*
G37*
G36*
X132186D02*
X132235D01*
Y112550D01*
X132260D01*
Y112525D01*
X132384D01*
Y112500D01*
X132409D01*
Y112475D01*
X132483D01*
Y112450D01*
X132508D01*
Y112426D01*
X132533D01*
Y112401D01*
X132557D01*
Y112327D01*
X132582D01*
Y112302D01*
X132607D01*
Y112277D01*
X132632D01*
Y112252D01*
X132657D01*
Y112203D01*
X132681D01*
Y111063D01*
X132657D01*
Y111038D01*
X132632D01*
Y111013D01*
X132607D01*
Y110989D01*
X132582D01*
Y110964D01*
X132557D01*
Y110890D01*
X132533D01*
Y110865D01*
X132508D01*
Y110840D01*
X132483D01*
Y110815D01*
X132409D01*
Y110790D01*
X132384D01*
Y110766D01*
X132359D01*
Y110741D01*
X132235D01*
Y110716D01*
X132211D01*
Y110691D01*
X130352D01*
Y110741D01*
X130328D01*
Y110766D01*
X130352D01*
Y111212D01*
X131963D01*
Y111261D01*
X131988D01*
Y111286D01*
X132013D01*
Y112004D01*
X131988D01*
Y112029D01*
X131963D01*
Y112079D01*
X131913D01*
Y112104D01*
X130427D01*
Y112079D01*
X130377D01*
Y112104D01*
X130352D01*
Y112153D01*
X130328D01*
Y112178D01*
X130352D01*
Y112525D01*
X130328D01*
Y112550D01*
X130352D01*
Y112574D01*
X130377D01*
Y112599D01*
X132186D01*
Y112574D01*
D02*
G37*
G36*
X125645Y112550D02*
X125670D01*
Y112500D01*
X125645D01*
Y110766D01*
X125670D01*
Y110741D01*
X125645D01*
Y110691D01*
X125001D01*
Y112079D01*
X124951D01*
Y112104D01*
X123811D01*
Y112079D01*
X123762D01*
Y112054D01*
X123737D01*
Y112029D01*
X123712D01*
Y111881D01*
Y111856D01*
Y110716D01*
X123687D01*
Y110691D01*
X122994D01*
Y112054D01*
X122969D01*
Y112079D01*
X122994D01*
Y112128D01*
X123019D01*
Y112178D01*
X123043D01*
Y112227D01*
X123068D01*
Y112252D01*
X123093D01*
Y112327D01*
X123118D01*
Y112351D01*
X123142D01*
Y112376D01*
X123167D01*
Y112401D01*
X123192D01*
Y112426D01*
X123217D01*
Y112475D01*
X123316D01*
Y112500D01*
X123341D01*
Y112525D01*
X123390D01*
Y112550D01*
X123440D01*
Y112574D01*
X123464D01*
Y112599D01*
X125645D01*
Y112550D01*
D02*
G37*
G36*
X118088Y113169D02*
X118113D01*
Y113095D01*
X118088D01*
Y112748D01*
X118113D01*
Y112673D01*
X118088D01*
Y112649D01*
X116552D01*
Y112624D01*
X116527D01*
Y112574D01*
X116552D01*
Y110890D01*
X116527D01*
Y110840D01*
X116552D01*
Y110815D01*
X116527D01*
Y110790D01*
X116552D01*
Y110741D01*
X116527D01*
Y110691D01*
X115883D01*
Y110716D01*
X115858D01*
Y112649D01*
X114322D01*
Y112673D01*
X114297D01*
Y113169D01*
X114322D01*
Y113194D01*
X118088D01*
Y113169D01*
D02*
G37*
G36*
X113876Y112574D02*
X113926D01*
Y112550D01*
X113950D01*
Y112525D01*
X114074D01*
Y112500D01*
X114099D01*
Y112475D01*
X114124D01*
Y112450D01*
X114148D01*
Y112426D01*
X114173D01*
Y112401D01*
X114198D01*
Y112376D01*
X114223D01*
Y112351D01*
X114248D01*
Y112327D01*
X114272D01*
Y112302D01*
X114297D01*
Y111038D01*
X114248D01*
Y110939D01*
X114223D01*
Y110914D01*
X114198D01*
Y110890D01*
X114173D01*
Y110865D01*
X114148D01*
Y110840D01*
X114124D01*
Y110815D01*
X114099D01*
Y110790D01*
X114074D01*
Y110766D01*
X114049D01*
Y110741D01*
X113926D01*
Y110716D01*
X113901D01*
Y110691D01*
X111869D01*
Y111212D01*
X113579D01*
Y111236D01*
X113603D01*
Y111261D01*
X113628D01*
Y111286D01*
X113653D01*
Y111459D01*
X113603D01*
Y111484D01*
X113579D01*
Y111459D01*
X112067D01*
Y111484D01*
X112042D01*
Y111509D01*
X112018D01*
Y111534D01*
X111993D01*
Y111559D01*
X111968D01*
Y111583D01*
X111943D01*
Y111608D01*
X111918D01*
Y111633D01*
X111894D01*
Y111658D01*
X111869D01*
Y111682D01*
X111844D01*
Y111707D01*
X111819D01*
Y111732D01*
X111795D01*
Y112277D01*
X111819D01*
Y112302D01*
X111844D01*
Y112327D01*
X111869D01*
Y112401D01*
X111894D01*
Y112426D01*
X111918D01*
Y112450D01*
X111943D01*
Y112475D01*
X111968D01*
Y112500D01*
X111993D01*
Y112525D01*
X112067D01*
Y112550D01*
X112092D01*
Y112574D01*
X112117D01*
Y112599D01*
X113876D01*
Y112574D01*
D02*
G37*
G36*
X111448Y113218D02*
X111473D01*
Y112401D01*
Y112376D01*
Y110716D01*
X111448D01*
Y110691D01*
X110804D01*
Y113243D01*
X111448D01*
Y113218D01*
D02*
G37*
G36*
X110060Y112574D02*
X110085D01*
Y112550D01*
X110110D01*
Y112525D01*
X110259D01*
Y112475D01*
X110283D01*
Y112450D01*
X110308D01*
Y112426D01*
X110333D01*
Y112401D01*
X110358D01*
Y112376D01*
X110382D01*
Y112351D01*
X110407D01*
Y112327D01*
X110432D01*
Y112302D01*
X110457D01*
Y112277D01*
X110482D01*
Y111063D01*
X110457D01*
Y111038D01*
X110432D01*
Y110939D01*
X110382D01*
Y110890D01*
X110358D01*
Y110865D01*
X110308D01*
Y110815D01*
X110259D01*
Y110766D01*
X110234D01*
Y110741D01*
X110085D01*
Y110716D01*
X110060D01*
Y110691D01*
X108029D01*
Y110741D01*
X108004D01*
Y111162D01*
X108029D01*
Y111187D01*
X108053D01*
Y111212D01*
X109738D01*
Y111236D01*
X109763D01*
Y111261D01*
X109788D01*
Y111459D01*
X109738D01*
Y111484D01*
X109713D01*
Y111459D01*
X108227D01*
Y111484D01*
X108177D01*
Y111509D01*
X108153D01*
Y111534D01*
X108128D01*
Y111583D01*
X108078D01*
Y111633D01*
X108053D01*
Y111658D01*
X108029D01*
Y111682D01*
X108004D01*
Y111707D01*
X107979D01*
Y111732D01*
X107954D01*
Y112277D01*
X107979D01*
Y112302D01*
X108004D01*
Y112401D01*
X108053D01*
Y112450D01*
X108078D01*
Y112475D01*
X108103D01*
Y112500D01*
X108128D01*
Y112525D01*
X108227D01*
Y112574D01*
X108252D01*
Y112599D01*
X110060D01*
Y112574D01*
D02*
G37*
G36*
X107211D02*
X107236D01*
Y112550D01*
X107261D01*
Y112525D01*
X107409D01*
Y112475D01*
X107508D01*
Y112450D01*
X107533D01*
Y112426D01*
X107558D01*
Y112401D01*
X107583D01*
Y112302D01*
X107632D01*
Y112277D01*
X107657D01*
Y112252D01*
X107682D01*
Y112227D01*
X107706D01*
Y112128D01*
X107682D01*
Y112104D01*
X107706D01*
Y111162D01*
X107682D01*
Y111137D01*
X107706D01*
Y111063D01*
X107682D01*
Y111038D01*
X107657D01*
Y111013D01*
X107632D01*
Y110989D01*
X107607D01*
Y110964D01*
X107583D01*
Y110890D01*
X107558D01*
Y110865D01*
X107533D01*
Y110840D01*
X107508D01*
Y110815D01*
X107409D01*
Y110766D01*
X107384D01*
Y110741D01*
X107236D01*
Y110716D01*
X107211D01*
Y110691D01*
X105378D01*
Y110716D01*
X105353D01*
Y111187D01*
X105378D01*
Y111212D01*
X106963D01*
Y111236D01*
X106988D01*
Y111261D01*
X107013D01*
Y111311D01*
X107037D01*
Y111360D01*
X107013D01*
Y111930D01*
X107037D01*
Y111980D01*
X107013D01*
Y112029D01*
X106988D01*
Y112054D01*
X106963D01*
Y112079D01*
X106914D01*
Y112104D01*
X105452D01*
Y112079D01*
X105402D01*
Y112104D01*
X105353D01*
Y112574D01*
X105378D01*
Y112599D01*
X107211D01*
Y112574D01*
D02*
G37*
G36*
X104585D02*
X104609D01*
Y112550D01*
X104659D01*
Y112525D01*
X104783D01*
Y112500D01*
X104808D01*
Y112475D01*
X104907D01*
Y112426D01*
X104931D01*
Y112401D01*
X104956D01*
Y112327D01*
X104981D01*
Y112302D01*
X105006D01*
Y112277D01*
X105031D01*
Y112252D01*
X105055D01*
Y112227D01*
X105080D01*
Y111063D01*
X105055D01*
Y111038D01*
X105031D01*
Y111013D01*
X105006D01*
Y110989D01*
X104981D01*
Y110964D01*
X104956D01*
Y110865D01*
X104907D01*
Y110815D01*
X104808D01*
Y110790D01*
X104783D01*
Y110766D01*
X104758D01*
Y110741D01*
X104609D01*
Y110691D01*
X102875D01*
Y110716D01*
X102825D01*
Y110741D01*
X102776D01*
Y110766D01*
X102751D01*
Y110790D01*
X102702D01*
Y110815D01*
X102652D01*
Y110840D01*
X102627D01*
Y110865D01*
X102603D01*
Y110890D01*
X102578D01*
Y110914D01*
X102553D01*
Y110939D01*
X102528D01*
Y110964D01*
X102503D01*
Y110989D01*
X102479D01*
Y111013D01*
X102454D01*
Y111137D01*
X102429D01*
Y111162D01*
X102404D01*
Y112128D01*
X102429D01*
Y112153D01*
X102454D01*
Y112203D01*
X102479D01*
Y112252D01*
X102503D01*
Y112302D01*
X102528D01*
Y112351D01*
X102553D01*
Y112376D01*
X102578D01*
Y112401D01*
X102603D01*
Y112426D01*
X102627D01*
Y112450D01*
X102652D01*
Y112475D01*
X102726D01*
Y112500D01*
X102751D01*
Y112525D01*
X102801D01*
Y112550D01*
X102850D01*
Y112574D01*
X102875D01*
Y112599D01*
X104585D01*
Y112574D01*
D02*
G37*
G36*
X102107Y110691D02*
X101463D01*
Y111732D01*
Y111757D01*
Y112054D01*
X101438D01*
Y112104D01*
X101364D01*
Y112079D01*
X101339D01*
Y112104D01*
X100868D01*
Y112079D01*
X100843D01*
Y112104D01*
X100769D01*
Y112079D01*
X100744D01*
Y110716D01*
X100719D01*
Y110691D01*
X100026D01*
Y110741D01*
X100001D01*
Y110766D01*
X100026D01*
Y112054D01*
X100001D01*
Y112079D01*
X99951D01*
Y112104D01*
X99456D01*
Y112079D01*
X99406D01*
Y112054D01*
X99382D01*
Y112029D01*
X99357D01*
Y112004D01*
X99332D01*
Y110691D01*
X98613D01*
Y112128D01*
X98638D01*
Y112153D01*
X98663D01*
Y112277D01*
X98688D01*
Y112302D01*
X98713D01*
Y112327D01*
X98737D01*
Y112351D01*
X98762D01*
Y112376D01*
X98787D01*
Y112401D01*
X98812D01*
Y112426D01*
X98836D01*
Y112450D01*
X98861D01*
Y112475D01*
X98935D01*
Y112500D01*
X98960D01*
Y112525D01*
X99035D01*
Y112550D01*
X99059D01*
Y112574D01*
X99084D01*
Y112599D01*
X102107D01*
Y110691D01*
D02*
G37*
G36*
X98267Y112574D02*
X98291D01*
Y110716D01*
X98267D01*
Y110691D01*
X97622D01*
Y110741D01*
X97598D01*
Y110790D01*
X97622D01*
Y112029D01*
X97598D01*
Y112079D01*
X97573D01*
Y112104D01*
X97499D01*
Y112079D01*
X97474D01*
Y112104D01*
X96929D01*
Y112079D01*
X96904D01*
Y112054D01*
X96879D01*
Y110691D01*
X96185D01*
Y110716D01*
X96160D01*
Y112079D01*
X96136D01*
Y112104D01*
X96061D01*
Y112079D01*
X96037D01*
Y112104D01*
X95715D01*
Y112079D01*
X95665D01*
Y112104D01*
X95591D01*
Y112079D01*
X95566D01*
Y112054D01*
X95541D01*
Y112029D01*
X95516D01*
Y110716D01*
X95492D01*
Y110691D01*
X94798D01*
Y110741D01*
X94773D01*
Y110766D01*
X94798D01*
Y112029D01*
X94773D01*
Y112104D01*
X94798D01*
Y112153D01*
X94823D01*
Y112178D01*
X94847D01*
Y112302D01*
X94872D01*
Y112327D01*
X94897D01*
Y112351D01*
X94922D01*
Y112376D01*
X94946D01*
Y112401D01*
X94971D01*
Y112426D01*
X94996D01*
Y112450D01*
X95021D01*
Y112475D01*
X95095D01*
Y112500D01*
X95120D01*
Y112525D01*
X95194D01*
Y112550D01*
X95219D01*
Y112574D01*
X95244D01*
Y112599D01*
X98267D01*
Y112574D01*
D02*
G37*
G36*
X91527D02*
X91552D01*
Y110716D01*
X91527D01*
Y110691D01*
X90883D01*
Y112054D01*
X90858D01*
Y112104D01*
X90784D01*
Y112079D01*
X90734D01*
Y112104D01*
X89818D01*
Y112079D01*
X89793D01*
Y112104D01*
X89694D01*
Y112079D01*
X89669D01*
Y112054D01*
X89644D01*
Y112029D01*
X89620D01*
Y110716D01*
X89595D01*
Y110691D01*
X88901D01*
Y110716D01*
X88876D01*
Y112128D01*
X88901D01*
Y112153D01*
X88926D01*
Y112227D01*
X88951D01*
Y112252D01*
X88975D01*
Y112327D01*
X89000D01*
Y112351D01*
X89025D01*
Y112376D01*
X89050D01*
Y112401D01*
X89074D01*
Y112426D01*
X89099D01*
Y112475D01*
X89198D01*
Y112500D01*
X89223D01*
Y112525D01*
X89322D01*
Y112574D01*
X89347D01*
Y112599D01*
X91527D01*
Y112574D01*
D02*
G37*
G36*
X88579D02*
X88604D01*
Y110691D01*
X87959D01*
Y110716D01*
X87935D01*
Y111385D01*
Y111410D01*
Y112574D01*
X87959D01*
Y112599D01*
X88579D01*
Y112574D01*
D02*
G37*
G36*
X87117D02*
X87142D01*
Y112550D01*
X87191D01*
Y112525D01*
X87315D01*
Y112500D01*
X87340D01*
Y112475D01*
X87414D01*
Y112450D01*
X87439D01*
Y112426D01*
X87464D01*
Y112401D01*
X87489D01*
Y112327D01*
X87514D01*
Y112302D01*
X87538D01*
Y112277D01*
X87563D01*
Y112252D01*
X87588D01*
Y112227D01*
X87613D01*
Y111063D01*
X87588D01*
Y111038D01*
X87563D01*
Y111013D01*
X87538D01*
Y110989D01*
X87514D01*
Y110964D01*
X87489D01*
Y110890D01*
X87464D01*
Y110865D01*
X87439D01*
Y110840D01*
X87414D01*
Y110815D01*
X87340D01*
Y110790D01*
X87315D01*
Y110766D01*
X87290D01*
Y110741D01*
X87142D01*
Y110691D01*
X85284D01*
Y110716D01*
X85259D01*
Y111162D01*
X85284D01*
Y111212D01*
X86869D01*
Y111236D01*
X86894D01*
Y111261D01*
X86919D01*
Y111286D01*
X86944D01*
Y112004D01*
X86919D01*
Y112029D01*
X86894D01*
Y112054D01*
X86869D01*
Y112079D01*
X86845D01*
Y112104D01*
X85358D01*
Y112079D01*
X85308D01*
Y112104D01*
X85284D01*
Y112128D01*
X85259D01*
Y112574D01*
X85308D01*
Y112599D01*
X87117D01*
Y112574D01*
D02*
G37*
G36*
X80799D02*
X80824D01*
Y110716D01*
X80799D01*
Y110691D01*
X80155D01*
Y110741D01*
Y110766D01*
Y112525D01*
X80130D01*
Y112550D01*
X80155D01*
Y112574D01*
X80180D01*
Y112599D01*
X80799D01*
Y112574D01*
D02*
G37*
G36*
X79337D02*
X79362D01*
Y112550D01*
X79387D01*
Y112525D01*
X79511D01*
Y112500D01*
X79535D01*
Y112475D01*
X79634D01*
Y112426D01*
X79684D01*
Y112376D01*
X79709D01*
Y112302D01*
X79758D01*
Y112252D01*
X79783D01*
Y112227D01*
X79808D01*
Y111038D01*
X79758D01*
Y110989D01*
X79709D01*
Y110890D01*
X79684D01*
Y110865D01*
X79659D01*
Y110840D01*
X79634D01*
Y110815D01*
X79535D01*
Y110766D01*
X79511D01*
Y110741D01*
X79362D01*
Y110716D01*
X79337D01*
Y110691D01*
X77603D01*
Y110716D01*
X77578D01*
Y110741D01*
X77504D01*
Y110766D01*
X77479D01*
Y110790D01*
X77429D01*
Y110815D01*
X77380D01*
Y110840D01*
X77355D01*
Y110865D01*
X77330D01*
Y110890D01*
X77305D01*
Y110914D01*
X77281D01*
Y110939D01*
X77256D01*
Y110964D01*
X77231D01*
Y110989D01*
X77206D01*
Y111112D01*
X77182D01*
Y111162D01*
X77157D01*
Y111187D01*
X77132D01*
Y112104D01*
X77157D01*
Y112153D01*
X77182D01*
Y112178D01*
X77206D01*
Y112252D01*
X77231D01*
Y112277D01*
X77256D01*
Y112351D01*
X77281D01*
Y112376D01*
X77305D01*
Y112401D01*
X77330D01*
Y112426D01*
X77355D01*
Y112450D01*
X77380D01*
Y112475D01*
X77454D01*
Y112500D01*
X77479D01*
Y112525D01*
X77553D01*
Y112550D01*
X77578D01*
Y112574D01*
X77628D01*
Y112599D01*
X79337D01*
Y112574D01*
D02*
G37*
G36*
X76835D02*
X76859D01*
Y110716D01*
X76835D01*
Y110691D01*
X76191D01*
Y112079D01*
X76166D01*
Y112104D01*
X76091D01*
Y112079D01*
X76067D01*
Y112104D01*
X75125D01*
Y112079D01*
X75100D01*
Y112104D01*
X75026D01*
Y112079D01*
X74977D01*
Y112054D01*
X74952D01*
Y112029D01*
X74927D01*
Y110716D01*
X74902D01*
Y110691D01*
X74208D01*
Y110716D01*
X74184D01*
Y110964D01*
Y110989D01*
Y112128D01*
X74208D01*
Y112153D01*
X74233D01*
Y112227D01*
X74258D01*
Y112252D01*
X74283D01*
Y112327D01*
X74307D01*
Y112351D01*
X74332D01*
Y112376D01*
X74357D01*
Y112401D01*
X74382D01*
Y112426D01*
X74407D01*
Y112475D01*
X74506D01*
Y112500D01*
X74531D01*
Y112525D01*
X74630D01*
Y112574D01*
X74654D01*
Y112599D01*
X76835D01*
Y112574D01*
D02*
G37*
G36*
X68138D02*
X68163D01*
Y112550D01*
X68188D01*
Y112525D01*
X68163D01*
Y110766D01*
X68188D01*
Y110741D01*
X68163D01*
Y110691D01*
X67519D01*
Y111559D01*
Y111583D01*
Y112054D01*
X67494D01*
Y112104D01*
X67420D01*
Y112079D01*
X67370D01*
Y112104D01*
X66453D01*
Y112079D01*
X66428D01*
Y112104D01*
X66329D01*
Y112079D01*
X66305D01*
Y112054D01*
X66255D01*
Y112004D01*
X66230D01*
Y110716D01*
X66206D01*
Y110691D01*
X65536D01*
Y110716D01*
X65512D01*
Y112128D01*
X65536D01*
Y112178D01*
X65561D01*
Y112227D01*
X65586D01*
Y112252D01*
X65611D01*
Y112351D01*
X65660D01*
Y112401D01*
X65685D01*
Y112426D01*
X65710D01*
Y112450D01*
X65735D01*
Y112475D01*
X65834D01*
Y112500D01*
X65859D01*
Y112525D01*
X65933D01*
Y112550D01*
X65958D01*
Y112574D01*
X65982D01*
Y112599D01*
X68138D01*
Y112574D01*
D02*
G37*
G36*
X62266D02*
X62291D01*
Y112500D01*
X62266D01*
Y112450D01*
X62291D01*
Y110815D01*
X62266D01*
Y110790D01*
X62291D01*
Y110716D01*
X62266D01*
Y110691D01*
X61622D01*
Y111038D01*
Y111063D01*
Y112574D01*
X61647D01*
Y112599D01*
X62266D01*
Y112574D01*
D02*
G37*
G36*
X61250D02*
X61275D01*
Y110691D01*
X60631D01*
Y110716D01*
X60606D01*
Y112079D01*
X60581D01*
Y112104D01*
X60507D01*
Y112079D01*
X60482D01*
Y112104D01*
X59541D01*
Y112079D01*
X59516D01*
Y112104D01*
X59441D01*
Y112079D01*
X59392D01*
Y112054D01*
X59367D01*
Y112029D01*
X59342D01*
Y110716D01*
X59318D01*
Y110691D01*
X58624D01*
Y110716D01*
X58599D01*
Y112104D01*
X58624D01*
Y112153D01*
X58649D01*
Y112227D01*
X58673D01*
Y112252D01*
X58698D01*
Y112327D01*
X58723D01*
Y112351D01*
X58748D01*
Y112376D01*
X58773D01*
Y112401D01*
X58797D01*
Y112426D01*
X58822D01*
Y112450D01*
X58847D01*
Y112475D01*
X58946D01*
Y112525D01*
X59045D01*
Y112550D01*
X59070D01*
Y112574D01*
X59095D01*
Y112599D01*
X61250D01*
Y112574D01*
D02*
G37*
G36*
X55081D02*
X55106D01*
Y112550D01*
X55130D01*
Y112525D01*
X55254D01*
Y112500D01*
X55279D01*
Y112475D01*
X55304D01*
Y112450D01*
X55328D01*
Y112426D01*
X55353D01*
Y112401D01*
X55378D01*
Y112376D01*
X55403D01*
Y112351D01*
X55428D01*
Y112327D01*
X55452D01*
Y112302D01*
X55477D01*
Y112277D01*
X55502D01*
Y111063D01*
X55477D01*
Y111038D01*
X55452D01*
Y110964D01*
X55428D01*
Y110939D01*
X55403D01*
Y110914D01*
X55378D01*
Y110865D01*
X55328D01*
Y110840D01*
X55304D01*
Y110815D01*
X55279D01*
Y110790D01*
X55254D01*
Y110741D01*
X55106D01*
Y110716D01*
X55081D01*
Y110691D01*
X53074D01*
Y110716D01*
X53049D01*
Y111187D01*
X53074D01*
Y111212D01*
X54783D01*
Y111261D01*
X54808D01*
Y111286D01*
X54833D01*
Y111459D01*
X53247D01*
Y111484D01*
X53222D01*
Y111509D01*
X53198D01*
Y111534D01*
X53173D01*
Y111559D01*
X53148D01*
Y111583D01*
X53123D01*
Y111608D01*
X53099D01*
Y111633D01*
X53074D01*
Y111658D01*
X53049D01*
Y111682D01*
X53024D01*
Y111707D01*
X53000D01*
Y112302D01*
X53024D01*
Y112327D01*
X53049D01*
Y112401D01*
X53074D01*
Y112426D01*
X53099D01*
Y112450D01*
X53123D01*
Y112475D01*
X53148D01*
Y112500D01*
X53173D01*
Y112525D01*
X53222D01*
Y112550D01*
X53272D01*
Y112574D01*
X53297D01*
Y112599D01*
X55081D01*
Y112574D01*
D02*
G37*
G36*
X52182D02*
X52207D01*
Y112550D01*
X52231D01*
Y112525D01*
X52380D01*
Y112500D01*
X52405D01*
Y112475D01*
X52454D01*
Y112450D01*
X52504D01*
Y112426D01*
X52529D01*
Y112376D01*
X52554D01*
Y112302D01*
X52578D01*
Y112277D01*
X52603D01*
Y112252D01*
X52628D01*
Y112227D01*
X52653D01*
Y110691D01*
X52008D01*
Y110716D01*
X51984D01*
Y111410D01*
Y111435D01*
Y112029D01*
X51959D01*
Y112054D01*
X51934D01*
Y112079D01*
X51909D01*
Y112104D01*
X51835D01*
Y112079D01*
X51810D01*
Y112104D01*
X51067D01*
Y112079D01*
X51017D01*
Y112104D01*
X50993D01*
Y112153D01*
X50968D01*
Y112178D01*
X50993D01*
Y112525D01*
X50968D01*
Y112550D01*
X50993D01*
Y112599D01*
X52182D01*
Y112574D01*
D02*
G37*
G36*
X50745D02*
X50770D01*
Y111484D01*
Y111459D01*
Y110716D01*
X50745D01*
Y110691D01*
X50101D01*
Y112599D01*
X50745D01*
Y112574D01*
D02*
G37*
G36*
X49778D02*
X49828D01*
Y112500D01*
X49803D01*
Y112475D01*
X49828D01*
Y110716D01*
X49803D01*
Y110691D01*
X49159D01*
Y110716D01*
X49134D01*
Y112079D01*
X49110D01*
Y112104D01*
X49035D01*
Y112079D01*
X49011D01*
Y112104D01*
X48069D01*
Y112079D01*
X48044D01*
Y112104D01*
X47970D01*
Y112079D01*
X47945D01*
Y112054D01*
X47895D01*
Y112004D01*
X47871D01*
Y110691D01*
X47177D01*
Y110716D01*
X47152D01*
Y112128D01*
X47177D01*
Y112178D01*
X47202D01*
Y112227D01*
X47227D01*
Y112252D01*
X47251D01*
Y112351D01*
X47276D01*
Y112376D01*
X47301D01*
Y112401D01*
X47326D01*
Y112426D01*
X47350D01*
Y112450D01*
X47375D01*
Y112475D01*
X47474D01*
Y112525D01*
X47573D01*
Y112550D01*
X47598D01*
Y112574D01*
X47623D01*
Y112599D01*
X49778D01*
Y112574D01*
D02*
G37*
G36*
X64818D02*
X64843D01*
Y112550D01*
X64868D01*
Y112525D01*
X65016D01*
Y112475D01*
X65066D01*
Y112426D01*
X65090D01*
Y112401D01*
X65140D01*
Y112351D01*
X65190D01*
Y112302D01*
X65214D01*
Y112277D01*
X65239D01*
Y111286D01*
X65214D01*
Y111261D01*
X65190D01*
Y111187D01*
X65165D01*
Y111162D01*
X65140D01*
Y111112D01*
X65090D01*
Y111088D01*
X65066D01*
Y111038D01*
X64967D01*
Y111013D01*
X64942D01*
Y110989D01*
X63307D01*
Y110964D01*
X63282D01*
Y110642D01*
X63381D01*
Y110617D01*
X63406D01*
Y110592D01*
X63431D01*
Y110567D01*
X63480D01*
Y110592D01*
X65090D01*
Y110567D01*
X65115D01*
Y110543D01*
X65140D01*
Y110468D01*
X65115D01*
Y110443D01*
X65140D01*
Y110221D01*
X65115D01*
Y110196D01*
X65140D01*
Y110121D01*
X65115D01*
Y110097D01*
X63009D01*
Y110121D01*
X62984D01*
Y110146D01*
X62910D01*
Y110171D01*
X62885D01*
Y110196D01*
X62836D01*
Y110221D01*
X62786D01*
Y110245D01*
X62762D01*
Y110270D01*
X62737D01*
Y110295D01*
X62712D01*
Y110320D01*
X62687D01*
Y110369D01*
X62662D01*
Y110419D01*
X62638D01*
Y110493D01*
X62613D01*
Y110518D01*
X62588D01*
Y110543D01*
X62563D01*
Y112227D01*
X62588D01*
Y112252D01*
X62613D01*
Y112327D01*
X62638D01*
Y112376D01*
X62662D01*
Y112401D01*
X62687D01*
Y112426D01*
X62712D01*
Y112450D01*
X62762D01*
Y112475D01*
X62811D01*
Y112500D01*
X62836D01*
Y112525D01*
X62984D01*
Y112550D01*
X63009D01*
Y112574D01*
X63034D01*
Y112599D01*
X64818D01*
Y112574D01*
D02*
G37*
G36*
X46384D02*
X46409D01*
Y112550D01*
X46459D01*
Y112525D01*
X46582D01*
Y112500D01*
X46607D01*
Y112475D01*
X46632D01*
Y112450D01*
X46657D01*
Y112426D01*
X46681D01*
Y112401D01*
X46706D01*
Y112376D01*
X46731D01*
Y112351D01*
X46756D01*
Y112327D01*
X46781D01*
Y112302D01*
X46805D01*
Y112277D01*
X46830D01*
Y112203D01*
X46805D01*
Y112178D01*
X46830D01*
Y112128D01*
Y112104D01*
Y111311D01*
X46805D01*
Y111261D01*
X46781D01*
Y111236D01*
X46756D01*
Y111162D01*
X46731D01*
Y111137D01*
X46706D01*
Y111112D01*
X46681D01*
Y111088D01*
X46657D01*
Y111063D01*
X46632D01*
Y111038D01*
X46533D01*
Y110989D01*
X44873D01*
Y110939D01*
X44848D01*
Y110914D01*
X44873D01*
Y110716D01*
X44848D01*
Y110691D01*
X44873D01*
Y110642D01*
X44972D01*
Y110592D01*
X44997D01*
Y110567D01*
X45046D01*
Y110592D01*
X46681D01*
Y110567D01*
X46706D01*
Y110097D01*
X44600D01*
Y110121D01*
X44575D01*
Y110146D01*
X44501D01*
Y110171D01*
X44476D01*
Y110196D01*
X44402D01*
Y110221D01*
X44377D01*
Y110245D01*
X44352D01*
Y110270D01*
X44328D01*
Y110295D01*
X44303D01*
Y110320D01*
X44278D01*
Y110344D01*
X44253D01*
Y110419D01*
X44229D01*
Y110443D01*
X44204D01*
Y110518D01*
X44179D01*
Y110543D01*
X44154D01*
Y112178D01*
X44130D01*
Y112203D01*
X44154D01*
Y112252D01*
X44179D01*
Y112277D01*
X44204D01*
Y112351D01*
X44229D01*
Y112376D01*
X44253D01*
Y112401D01*
X44278D01*
Y112426D01*
X44303D01*
Y112450D01*
X44328D01*
Y112475D01*
X44402D01*
Y112500D01*
X44427D01*
Y112525D01*
X44551D01*
Y112550D01*
X44600D01*
Y112574D01*
X44625D01*
Y112599D01*
X46384D01*
Y112574D01*
D02*
G37*
%LPC*%
G36*
X126685Y111484D02*
X126636D01*
Y111459D01*
X126611D01*
Y111311D01*
X126636D01*
Y111286D01*
X126661D01*
Y111236D01*
X126685D01*
Y111212D01*
X127726D01*
Y111236D01*
X127751D01*
Y111286D01*
X127776D01*
Y111335D01*
X127800D01*
Y111360D01*
X127776D01*
Y111410D01*
X127751D01*
Y111435D01*
X127726D01*
Y111459D01*
X126685D01*
Y111484D01*
D02*
G37*
G36*
X83227D02*
X83178D01*
Y111459D01*
X83153D01*
Y111311D01*
X83178D01*
Y111286D01*
X83202D01*
Y111236D01*
X83227D01*
Y111212D01*
X84268D01*
Y111236D01*
X84292D01*
Y111286D01*
X84317D01*
Y111311D01*
X84342D01*
Y111360D01*
X84317D01*
Y111410D01*
X84292D01*
Y111435D01*
X84268D01*
Y111459D01*
X83227D01*
Y111484D01*
D02*
G37*
G36*
X121879Y112104D02*
X121805D01*
Y112079D01*
X121780D01*
Y112104D01*
X120838D01*
Y112079D01*
X120813D01*
Y112104D01*
X120739D01*
Y112079D01*
X120714D01*
Y111286D01*
Y111261D01*
X120739D01*
Y111236D01*
X120764D01*
Y111212D01*
X120813D01*
Y111187D01*
X120838D01*
Y111212D01*
X121928D01*
Y111236D01*
X121953D01*
Y111261D01*
X121978D01*
Y112029D01*
X121953D01*
Y112054D01*
X121928D01*
Y112079D01*
X121879D01*
Y112104D01*
D02*
G37*
G36*
X57558D02*
X57484D01*
Y112079D01*
X57459D01*
Y112104D01*
X56691D01*
Y112079D01*
X56666D01*
Y112104D01*
X56592D01*
Y112079D01*
X56567D01*
Y112004D01*
X56518D01*
Y111930D01*
X56543D01*
Y111881D01*
X56567D01*
Y111831D01*
X56592D01*
Y111806D01*
X57633D01*
Y111831D01*
X57657D01*
Y112029D01*
X57633D01*
Y112054D01*
X57608D01*
Y112079D01*
X57558D01*
Y112104D01*
D02*
G37*
G36*
X147548D02*
X146656D01*
Y112079D01*
X146631D01*
Y112104D01*
X146556D01*
Y112079D01*
X146532D01*
Y112054D01*
X146507D01*
Y112029D01*
X146482D01*
Y112004D01*
X146457D01*
Y111955D01*
X146482D01*
Y111930D01*
X146507D01*
Y111905D01*
X146532D01*
Y111831D01*
X146556D01*
Y111806D01*
X147622D01*
Y111831D01*
X147647D01*
Y112004D01*
X147622D01*
Y112054D01*
X147597D01*
Y112079D01*
X147548D01*
Y112104D01*
D02*
G37*
G36*
X138876D02*
X137761D01*
Y112079D01*
X137736D01*
Y112054D01*
X137711D01*
Y112029D01*
X137686D01*
Y111980D01*
X137662D01*
Y111286D01*
X137686D01*
Y111261D01*
X137711D01*
Y111236D01*
X137736D01*
Y111212D01*
X138900D01*
Y111236D01*
X138925D01*
Y111261D01*
X138950D01*
Y111286D01*
X138975D01*
Y112004D01*
X138950D01*
Y112029D01*
X138925D01*
Y112054D01*
X138900D01*
Y112079D01*
X138876D01*
Y112104D01*
D02*
G37*
G36*
X113554D02*
X113479D01*
Y112079D01*
X113455D01*
Y112104D01*
X112563D01*
Y112079D01*
X112513D01*
Y112029D01*
X112488D01*
Y112004D01*
X112464D01*
Y111930D01*
X112513D01*
Y111831D01*
X112538D01*
Y111806D01*
X113628D01*
Y111831D01*
X113653D01*
Y112004D01*
X113628D01*
Y112029D01*
X113603D01*
Y112054D01*
X113579D01*
Y112079D01*
X113554D01*
Y112104D01*
D02*
G37*
G36*
X109713D02*
X109614D01*
Y112079D01*
X109590D01*
Y112104D01*
X108846D01*
Y112079D01*
X108797D01*
Y112104D01*
X108722D01*
Y112079D01*
X108698D01*
Y112054D01*
X108673D01*
Y112029D01*
X108648D01*
Y111930D01*
X108673D01*
Y111905D01*
X108698D01*
Y111831D01*
X108722D01*
Y111806D01*
X109763D01*
Y111831D01*
X109788D01*
Y112029D01*
X109763D01*
Y112054D01*
X109738D01*
Y112079D01*
X109713D01*
Y112104D01*
D02*
G37*
G36*
X104287D02*
X104213D01*
Y112079D01*
X104188D01*
Y112104D01*
X103321D01*
Y112079D01*
X103272D01*
Y112104D01*
X103197D01*
Y112079D01*
X103172D01*
Y112054D01*
X103148D01*
Y112029D01*
X103123D01*
Y111286D01*
X103148D01*
Y111261D01*
X103172D01*
Y111212D01*
X104362D01*
Y111261D01*
X104386D01*
Y111286D01*
X104411D01*
Y111757D01*
Y111782D01*
Y112004D01*
X104386D01*
Y112054D01*
X104337D01*
Y112079D01*
X104287D01*
Y112104D01*
D02*
G37*
G36*
X79040D02*
X78024D01*
Y112079D01*
X77999D01*
Y112104D01*
X77950D01*
Y112079D01*
X77925D01*
Y112054D01*
X77900D01*
Y112029D01*
X77875D01*
Y112004D01*
X77850D01*
Y111583D01*
Y111559D01*
Y111286D01*
X77875D01*
Y111261D01*
X77900D01*
Y111236D01*
X77925D01*
Y111212D01*
X79089D01*
Y111236D01*
X79114D01*
Y111261D01*
X79139D01*
Y111311D01*
X79164D01*
Y111360D01*
X79139D01*
Y111905D01*
X79164D01*
Y111980D01*
X79139D01*
Y112029D01*
X79114D01*
Y112054D01*
X79089D01*
Y112079D01*
X79040D01*
Y112104D01*
D02*
G37*
G36*
X54734D02*
X53842D01*
Y112079D01*
X53817D01*
Y112104D01*
X53743D01*
Y112079D01*
X53718D01*
Y112004D01*
X53693D01*
Y111980D01*
X53668D01*
Y111930D01*
X53693D01*
Y111905D01*
X53718D01*
Y111831D01*
X53743D01*
Y111806D01*
X54808D01*
Y111831D01*
X54833D01*
Y112004D01*
X54808D01*
Y112054D01*
X54783D01*
Y112079D01*
X54734D01*
Y112104D01*
D02*
G37*
G36*
X64471D02*
X64372D01*
Y112079D01*
X64347D01*
Y112104D01*
X63480D01*
Y112079D01*
X63431D01*
Y112104D01*
X63381D01*
Y112079D01*
X63356D01*
Y112054D01*
X63307D01*
Y112004D01*
X63282D01*
Y111484D01*
X63307D01*
Y111459D01*
X64471D01*
Y111484D01*
X64496D01*
Y111509D01*
X64521D01*
Y111534D01*
X64545D01*
Y111559D01*
X64570D01*
Y112004D01*
X64545D01*
Y112054D01*
X64496D01*
Y112079D01*
X64471D01*
Y112104D01*
D02*
G37*
G36*
X46062D02*
X45046D01*
Y112079D01*
X45021D01*
Y112104D01*
X44947D01*
Y112079D01*
X44922D01*
Y112054D01*
X44897D01*
Y112029D01*
X44873D01*
Y111980D01*
X44848D01*
Y111905D01*
X44873D01*
Y111559D01*
X44848D01*
Y111534D01*
X44873D01*
Y111484D01*
X44897D01*
Y111459D01*
X46062D01*
Y111484D01*
X46087D01*
Y111509D01*
X46112D01*
Y111534D01*
X46136D01*
Y111559D01*
X46161D01*
Y111658D01*
Y111682D01*
Y112004D01*
X46136D01*
Y112029D01*
X46112D01*
Y112054D01*
X46087D01*
Y112079D01*
X46062D01*
Y112104D01*
D02*
G37*
%LPD*%
D13*
X-83566Y496316D02*
G03*
X-75946Y496316I3810J0D01*
G01*
D02*
G03*
X-83566Y496316I-3810J0D01*
G01*
D15*
X-6604Y275336D02*
Y282956D01*
X-10414Y279146D02*
X-2794D01*
X16256D02*
X21336D01*
X205486Y256286D02*
Y261366D01*
Y280416D02*
Y288036D01*
X201676Y284226D02*
X209296D01*
D16*
X51816Y475995D02*
X46737D01*
X49277Y478534D02*
Y473455D01*
X44198Y478534D02*
X42929Y479803D01*
X40390D01*
X39120Y478534D01*
Y477264D01*
X40390Y475995D01*
X41659D01*
X40390D01*
X39120Y474725D01*
Y473455D01*
X40390Y472186D01*
X42929D01*
X44198Y473455D01*
X36581Y472186D02*
Y473455D01*
X35311D01*
Y472186D01*
X36581D01*
X30233Y479803D02*
X25155D01*
Y478534D01*
X30233Y473455D01*
Y472186D01*
X22615Y479803D02*
Y474725D01*
X20076Y472186D01*
X17537Y474725D01*
Y479803D01*
X5082Y478788D02*
X6351Y480057D01*
X8890D01*
X10160Y478788D01*
Y473710D01*
X8890Y472440D01*
X6351D01*
X5082Y473710D01*
Y476249D01*
X7621D01*
X2542Y472440D02*
Y480057D01*
X-2536Y472440D01*
Y480057D01*
X-5075D02*
Y472440D01*
X-8884D01*
X-10153Y473710D01*
Y478788D01*
X-8884Y480057D01*
X-5075D01*
X-19050Y476249D02*
X-24128D01*
X-26667Y478788D02*
X-27937Y480057D01*
X-30476D01*
X-31746Y478788D01*
Y477518D01*
X-30476Y476249D01*
X-29207D01*
X-30476D01*
X-31746Y474979D01*
Y473710D01*
X-30476Y472440D01*
X-27937D01*
X-26667Y473710D01*
X-34285Y472440D02*
Y473710D01*
X-35555D01*
Y472440D01*
X-34285D01*
X-40633Y480057D02*
X-45711D01*
Y478788D01*
X-40633Y473710D01*
Y472440D01*
X-48251Y480057D02*
Y474979D01*
X-50790Y472440D01*
X-53329Y474979D01*
Y480057D01*
X28956Y119126D02*
Y126743D01*
X25147D01*
X23877Y125474D01*
Y122935D01*
X25147Y121665D01*
X28956D01*
X26417D02*
X23877Y119126D01*
X-26924Y128013D02*
Y120396D01*
X-32002D01*
D17*
X107016Y183896D02*
Y161041D01*
X105928Y183896D02*
Y161041D01*
X92868Y183896D02*
Y161041D01*
X91779Y183896D02*
Y161041D01*
X110281Y183896D02*
X102663D01*
X96133D02*
X88514D01*
X105928Y173013D02*
X92868D01*
X110281Y161041D02*
X102663D01*
X96133D02*
X88514D01*
X84705Y169748D02*
X71645D01*
Y171924D01*
X72733Y174101D01*
X73822Y175189D01*
X75998Y176278D01*
X79263D01*
X82528Y175189D01*
X84705Y173013D01*
X85793Y169748D01*
Y167571D01*
X84705Y164306D01*
X82528Y162129D01*
X79263Y161041D01*
X77087D01*
X73822Y162129D01*
X71645Y164306D01*
X72733Y169748D02*
Y173013D01*
X73822Y175189D01*
X79263Y176278D02*
X81440Y175189D01*
X83617Y173013D01*
X84705Y169748D01*
Y167571D01*
X83617Y164306D01*
X81440Y162129D01*
X79263Y161041D01*
X64897Y176278D02*
Y161041D01*
X63809Y176278D02*
Y161041D01*
Y169748D02*
X62721Y173013D01*
X60544Y175189D01*
X58367Y176278D01*
X55102D01*
X54014Y175189D01*
Y174101D01*
X55102Y173013D01*
X56191Y174101D01*
X55102Y175189D01*
X68162Y176278D02*
X63809D01*
X68162Y161041D02*
X60544D01*
X44001D02*
X45090Y162129D01*
X46178Y165394D01*
Y183896D01*
X47266D01*
Y165394D01*
X46178Y162129D01*
X44001Y161041D01*
X41824D01*
X39648Y162129D01*
X38560Y164306D01*
X50531Y176278D02*
X41824D01*
X22887D02*
X34859Y161041D01*
X21799Y176278D02*
X33771Y161041D01*
Y176278D02*
X34859Y171924D01*
Y176278D01*
X21799D01*
X34859Y161041D02*
X21799D01*
Y165394D01*
X22887Y161041D01*
M02*
