G04*
G04 #@! TF.GenerationSoftware,Altium Limited,Altium Designer,25.4.2 (15)*
G04*
G04 Layer_Color=65535*
%FSLAX44Y44*%
%MOMM*%
G71*
G04*
G04 #@! TF.SameCoordinates,EFA8AECF-6775-45FA-9087-7286BAC92A8B*
G04*
G04*
G04 #@! TF.FilePolarity,Positive*
G04*
G01*
G75*
%ADD10C,0.2500*%
%ADD11C,0.2000*%
%ADD12C,0.5080*%
%ADD13C,0.2400*%
%ADD14C,0.3810*%
%ADD15C,0.1270*%
%ADD16C,0.2540*%
%ADD17C,0.2794*%
G36*
X95941Y185629D02*
X96833D01*
Y185585D01*
X97414D01*
Y185540D01*
X97950D01*
Y185495D01*
X98352D01*
Y185451D01*
X98709D01*
Y185406D01*
X99066D01*
Y185361D01*
X99378D01*
Y185317D01*
X99646D01*
Y185272D01*
X99914D01*
Y185228D01*
X100182D01*
Y185183D01*
X100405D01*
Y185138D01*
X100673D01*
Y185094D01*
X100897D01*
Y185049D01*
X101120D01*
Y185004D01*
X101298D01*
Y184960D01*
X101522D01*
Y184915D01*
X101700D01*
Y184870D01*
X101879D01*
Y184826D01*
X102057D01*
Y184781D01*
X102236D01*
Y184736D01*
X102415D01*
Y184692D01*
X102593D01*
Y184647D01*
X102727D01*
Y184603D01*
X102906D01*
Y184558D01*
X103084D01*
Y184513D01*
X103263D01*
Y184468D01*
X103397D01*
Y184424D01*
X103531D01*
Y184379D01*
X103709D01*
Y184335D01*
X103843D01*
Y184290D01*
X103977D01*
Y184245D01*
X104111D01*
Y184201D01*
X104290D01*
Y184156D01*
X104379D01*
Y184111D01*
X104513D01*
Y184067D01*
X104647D01*
Y184022D01*
X104781D01*
Y183977D01*
X104915D01*
Y183933D01*
X105049D01*
Y183888D01*
X105138D01*
Y183843D01*
X105272D01*
Y183799D01*
X105406D01*
Y183754D01*
X105495D01*
Y183710D01*
X105629D01*
Y183665D01*
X105719D01*
Y183620D01*
X105852D01*
Y183575D01*
X105986D01*
Y183531D01*
X106076D01*
Y183486D01*
X106210D01*
Y183442D01*
X106299D01*
Y183397D01*
X106433D01*
Y183352D01*
X106522D01*
Y183308D01*
X106611D01*
Y183263D01*
X106746D01*
Y183218D01*
X106835D01*
Y183174D01*
X106924D01*
Y183129D01*
X107058D01*
Y183084D01*
X107147D01*
Y183040D01*
X107237D01*
Y182995D01*
X107326D01*
Y182950D01*
X107415D01*
Y182906D01*
X107505D01*
Y182861D01*
X107638D01*
Y182817D01*
X107728D01*
Y182772D01*
X107817D01*
Y182727D01*
X107906D01*
Y182683D01*
X107996D01*
Y182638D01*
X108085D01*
Y182593D01*
X108174D01*
Y182549D01*
X108264D01*
Y182504D01*
X108353D01*
Y182459D01*
X108442D01*
Y182415D01*
X108531D01*
Y182370D01*
X108621D01*
Y182325D01*
X108710D01*
Y182281D01*
X108799D01*
Y182236D01*
X108889D01*
Y182191D01*
X108978D01*
Y182147D01*
X109067D01*
Y182102D01*
X109157D01*
Y182057D01*
X109201D01*
Y182013D01*
X109290D01*
Y181968D01*
X109380D01*
Y181924D01*
X109469D01*
Y181879D01*
X109558D01*
Y181834D01*
X109648D01*
Y181790D01*
X109692D01*
Y181745D01*
X109782D01*
Y181700D01*
X109871D01*
Y181656D01*
X109960D01*
Y181611D01*
X110005D01*
Y181566D01*
X110094D01*
Y181522D01*
X110183D01*
Y181477D01*
X110228D01*
Y181432D01*
X110317D01*
Y181388D01*
X110407D01*
Y181343D01*
X110451D01*
Y181298D01*
X110541D01*
Y181254D01*
X110630D01*
Y181209D01*
X110675D01*
Y181164D01*
X110764D01*
Y181120D01*
X110853D01*
Y181075D01*
X110898D01*
Y181031D01*
X110987D01*
Y180986D01*
X111032D01*
Y180941D01*
X111121D01*
Y180897D01*
X111166D01*
Y180852D01*
X111255D01*
Y180807D01*
X111300D01*
Y180763D01*
X111389D01*
Y180718D01*
X111478D01*
Y180673D01*
X111523D01*
Y180629D01*
X111612D01*
Y180584D01*
X111657D01*
Y180539D01*
X111746D01*
Y180495D01*
X111791D01*
Y180450D01*
X111835D01*
Y180406D01*
X111925D01*
Y180361D01*
X111969D01*
Y180316D01*
X112059D01*
Y180271D01*
X112103D01*
Y180227D01*
X112193D01*
Y180182D01*
X112237D01*
Y180138D01*
X112282D01*
Y180093D01*
X112371D01*
Y180048D01*
X112416D01*
Y180004D01*
X112505D01*
Y179959D01*
X112550D01*
Y179914D01*
X112594D01*
Y179870D01*
X112684D01*
Y179825D01*
X112728D01*
Y179780D01*
X112773D01*
Y179736D01*
X112862D01*
Y179691D01*
X112907D01*
Y179646D01*
X112952D01*
Y179602D01*
X113041D01*
Y179557D01*
X113086D01*
Y179513D01*
X113130D01*
Y179468D01*
X113219D01*
Y179423D01*
X113264D01*
Y179379D01*
X113309D01*
Y179334D01*
X113398D01*
Y179289D01*
X113443D01*
Y179245D01*
X113487D01*
Y179200D01*
X113532D01*
Y179155D01*
X113621D01*
Y179111D01*
X113666D01*
Y179066D01*
X113711D01*
Y179021D01*
X113755D01*
Y178977D01*
X113845D01*
Y178932D01*
X113889D01*
Y178888D01*
X113934D01*
Y178843D01*
X114023D01*
Y178798D01*
X114068D01*
Y178754D01*
X114113D01*
Y178709D01*
X114157D01*
Y178664D01*
X114202D01*
Y178620D01*
X114246D01*
Y178575D01*
X114336D01*
Y178530D01*
X114380D01*
Y178486D01*
X114425D01*
Y178441D01*
X114470D01*
Y178396D01*
X114514D01*
Y178352D01*
X114559D01*
Y178307D01*
X114648D01*
Y178262D01*
X114693D01*
Y178218D01*
X114738D01*
Y178173D01*
X114782D01*
Y178128D01*
X114827D01*
Y178084D01*
X114872D01*
Y178039D01*
X114916D01*
Y177994D01*
X114961D01*
Y177950D01*
X115050D01*
Y177905D01*
X115095D01*
Y177861D01*
X115139D01*
Y177816D01*
X115184D01*
Y177771D01*
X115229D01*
Y177727D01*
X115273D01*
Y177682D01*
X115318D01*
Y177637D01*
X115363D01*
Y177593D01*
X115407D01*
Y177548D01*
X115452D01*
Y177503D01*
X115541D01*
Y177459D01*
X115586D01*
Y177414D01*
X115631D01*
Y177369D01*
X115675D01*
Y177325D01*
X115720D01*
Y177280D01*
X115765D01*
Y177235D01*
X115809D01*
Y177191D01*
X115854D01*
Y177146D01*
X115898D01*
Y177101D01*
X115943D01*
Y177057D01*
X115988D01*
Y177012D01*
X116032D01*
Y176968D01*
X116077D01*
Y176923D01*
X116122D01*
Y176878D01*
X116166D01*
Y176834D01*
X116211D01*
Y176789D01*
X116256D01*
Y176744D01*
X116300D01*
Y176700D01*
X116345D01*
Y176655D01*
X116390D01*
Y176610D01*
X116434D01*
Y176566D01*
X116479D01*
Y176521D01*
X116524D01*
Y176476D01*
X116568D01*
Y176432D01*
X116613D01*
Y176387D01*
X116657D01*
Y176343D01*
X116702D01*
Y176298D01*
X116747D01*
Y176253D01*
X116791D01*
Y176208D01*
X116836D01*
Y176119D01*
X116881D01*
Y176075D01*
X116925D01*
Y176030D01*
X116970D01*
Y175985D01*
X117015D01*
Y175941D01*
X117059D01*
Y175896D01*
X117104D01*
Y175851D01*
X117149D01*
Y175807D01*
X117193D01*
Y175762D01*
X117238D01*
Y175717D01*
X117282D01*
Y175628D01*
X117327D01*
Y175583D01*
X117372D01*
Y175539D01*
X117416D01*
Y175494D01*
X117461D01*
Y175450D01*
X117506D01*
Y175405D01*
X117550D01*
Y175360D01*
X117595D01*
Y175316D01*
X117640D01*
Y175226D01*
X117684D01*
Y175182D01*
X117729D01*
Y175137D01*
X117774D01*
Y175092D01*
X117818D01*
Y175048D01*
X117863D01*
Y174958D01*
X117908D01*
Y174914D01*
X117952D01*
Y174869D01*
X117997D01*
Y174824D01*
X118041D01*
Y174780D01*
X118086D01*
Y174735D01*
X118131D01*
Y174646D01*
X118175D01*
Y174601D01*
X118220D01*
Y174557D01*
X118265D01*
Y174512D01*
X118309D01*
Y174423D01*
X118354D01*
Y174378D01*
X118399D01*
Y174333D01*
X118443D01*
Y174289D01*
X118488D01*
Y174199D01*
X118533D01*
Y174155D01*
X118577D01*
Y174110D01*
X118622D01*
Y174065D01*
X118667D01*
Y173976D01*
X118711D01*
Y173932D01*
X118756D01*
Y173887D01*
X118801D01*
Y173842D01*
X118845D01*
Y173753D01*
X118890D01*
Y173708D01*
X118934D01*
Y173664D01*
X118979D01*
Y173574D01*
X119024D01*
Y173530D01*
X119068D01*
Y173485D01*
X119113D01*
Y173396D01*
X119158D01*
Y173351D01*
X119202D01*
Y173262D01*
X119247D01*
Y173217D01*
X119292D01*
Y173172D01*
X119336D01*
Y173083D01*
X119381D01*
Y173039D01*
X119426D01*
Y172994D01*
X119470D01*
Y172905D01*
X119515D01*
Y172860D01*
X119560D01*
Y172771D01*
X119604D01*
Y172726D01*
X119649D01*
Y172637D01*
X119693D01*
Y172592D01*
X119738D01*
Y172503D01*
X119783D01*
Y172458D01*
X119827D01*
Y172413D01*
X119872D01*
Y172324D01*
X119917D01*
Y172279D01*
X119961D01*
Y172190D01*
X120006D01*
Y172146D01*
X120051D01*
Y172056D01*
X120095D01*
Y172012D01*
X120140D01*
Y171922D01*
X120185D01*
Y171833D01*
X120229D01*
Y171788D01*
X120274D01*
Y171699D01*
X120319D01*
Y171654D01*
X120363D01*
Y171565D01*
X120408D01*
Y171520D01*
X120453D01*
Y171431D01*
X120497D01*
Y171342D01*
X120542D01*
Y171297D01*
X120587D01*
Y171208D01*
X120631D01*
Y171163D01*
X120676D01*
Y171074D01*
X120720D01*
Y170985D01*
X120765D01*
Y170895D01*
X120810D01*
Y170851D01*
X120854D01*
Y170761D01*
X120899D01*
Y170672D01*
X120944D01*
Y170627D01*
X120988D01*
Y170538D01*
X121033D01*
Y170449D01*
X121078D01*
Y170360D01*
X121122D01*
Y170315D01*
X121167D01*
Y170226D01*
X121212D01*
Y170136D01*
X121256D01*
Y170047D01*
X121301D01*
Y169958D01*
X121346D01*
Y169913D01*
X121390D01*
Y169824D01*
X121435D01*
Y169734D01*
X121480D01*
Y169645D01*
X121524D01*
Y169556D01*
X121569D01*
Y169511D01*
X121613D01*
Y169422D01*
X121658D01*
Y169333D01*
X121703D01*
Y169243D01*
X121747D01*
Y169154D01*
X121792D01*
Y169065D01*
X121837D01*
Y168976D01*
X121881D01*
Y168886D01*
X121926D01*
Y168797D01*
X121971D01*
Y168752D01*
X122015D01*
Y168663D01*
X122060D01*
Y168574D01*
X122105D01*
Y168484D01*
X122149D01*
Y168395D01*
X122194D01*
Y168306D01*
X122239D01*
Y168216D01*
X122283D01*
Y168127D01*
X122328D01*
Y168038D01*
X122373D01*
Y167949D01*
X122417D01*
Y167859D01*
X122462D01*
Y167815D01*
X122506D01*
Y167725D01*
X122551D01*
Y167636D01*
X122596D01*
Y167547D01*
X122640D01*
Y167458D01*
X122685D01*
Y167368D01*
X122730D01*
Y167279D01*
X122774D01*
Y167190D01*
X122819D01*
Y167100D01*
X122864D01*
Y167011D01*
X122908D01*
Y166922D01*
X122953D01*
Y166788D01*
X122998D01*
Y166654D01*
X123042D01*
Y166386D01*
X123087D01*
Y165984D01*
X123042D01*
Y165761D01*
X122998D01*
Y165582D01*
X122953D01*
Y165493D01*
X122908D01*
Y165404D01*
X122864D01*
Y165270D01*
X122819D01*
Y165225D01*
X122774D01*
Y165136D01*
X122730D01*
Y165091D01*
X122685D01*
Y165002D01*
X122640D01*
Y164957D01*
X122596D01*
Y164912D01*
X122551D01*
Y164868D01*
X122506D01*
Y164823D01*
X122462D01*
Y164778D01*
X122417D01*
Y164734D01*
X122328D01*
Y164689D01*
X122283D01*
Y164645D01*
X122194D01*
Y164600D01*
X122149D01*
Y164555D01*
X122060D01*
Y164511D01*
X121971D01*
Y164466D01*
X121881D01*
Y164421D01*
X121837D01*
Y164377D01*
X121747D01*
Y164332D01*
X121658D01*
Y164287D01*
X121569D01*
Y164243D01*
X121480D01*
Y164198D01*
X121390D01*
Y164153D01*
X121301D01*
Y164109D01*
X121212D01*
Y164020D01*
X121256D01*
Y163886D01*
X121301D01*
Y163752D01*
X121346D01*
Y163618D01*
X121390D01*
Y163439D01*
X121435D01*
Y163305D01*
X121480D01*
Y163171D01*
X121524D01*
Y162993D01*
X121569D01*
Y162859D01*
X121613D01*
Y162680D01*
X121658D01*
Y162502D01*
X121703D01*
Y162323D01*
X121747D01*
Y162144D01*
X121792D01*
Y161966D01*
X121837D01*
Y161787D01*
X121881D01*
Y161609D01*
X121926D01*
Y161385D01*
X121971D01*
Y161207D01*
X122015D01*
Y160983D01*
X122060D01*
Y160760D01*
X122105D01*
Y160492D01*
X122149D01*
Y160269D01*
X122194D01*
Y160001D01*
X122239D01*
Y159733D01*
X122283D01*
Y159421D01*
X122328D01*
Y159108D01*
X122373D01*
Y158751D01*
X122417D01*
Y158349D01*
X122462D01*
Y157858D01*
X122506D01*
Y157278D01*
X122551D01*
Y156340D01*
X122596D01*
Y154599D01*
X122551D01*
Y153750D01*
X122506D01*
Y153215D01*
X122462D01*
Y152768D01*
X122417D01*
Y152366D01*
X122373D01*
Y152009D01*
X122328D01*
Y151697D01*
X122283D01*
Y151384D01*
X122239D01*
Y151116D01*
X122194D01*
Y150848D01*
X122149D01*
Y150580D01*
X122105D01*
Y150357D01*
X122060D01*
Y150134D01*
X122015D01*
Y149866D01*
X121971D01*
Y149643D01*
X121926D01*
Y149464D01*
X121881D01*
Y149241D01*
X121837D01*
Y149018D01*
X121792D01*
Y148839D01*
X121747D01*
Y148660D01*
X121703D01*
Y148437D01*
X121658D01*
Y148259D01*
X121613D01*
Y148080D01*
X121569D01*
Y147901D01*
X121524D01*
Y147723D01*
X121480D01*
Y147544D01*
X121435D01*
Y147366D01*
X121390D01*
Y147187D01*
X121346D01*
Y147053D01*
X121301D01*
Y146875D01*
X121256D01*
Y146696D01*
X121212D01*
Y146562D01*
X121167D01*
Y146383D01*
X121122D01*
Y146249D01*
X121078D01*
Y146071D01*
X121033D01*
Y145937D01*
X120988D01*
Y145758D01*
X120944D01*
Y145580D01*
X120899D01*
Y145446D01*
X120854D01*
Y145267D01*
X120810D01*
Y145133D01*
X120765D01*
Y144999D01*
X120720D01*
Y144865D01*
X120676D01*
Y144687D01*
X120631D01*
Y144553D01*
X120587D01*
Y144419D01*
X120542D01*
Y144285D01*
X120497D01*
Y144151D01*
X120453D01*
Y144017D01*
X120408D01*
Y143838D01*
X120363D01*
Y143705D01*
X120319D01*
Y143570D01*
X120274D01*
Y143437D01*
X120229D01*
Y143303D01*
X120185D01*
Y143169D01*
X120140D01*
Y143035D01*
X120095D01*
Y142901D01*
X120051D01*
Y142767D01*
X120006D01*
Y142633D01*
X119961D01*
Y142499D01*
X119917D01*
Y142365D01*
X119872D01*
Y142231D01*
X119827D01*
Y142097D01*
X119783D01*
Y141963D01*
X119738D01*
Y141829D01*
X119693D01*
Y141695D01*
X119649D01*
Y141561D01*
X119604D01*
Y141427D01*
X119560D01*
Y141293D01*
X119515D01*
Y141204D01*
X119470D01*
Y141070D01*
X119426D01*
Y140936D01*
X119381D01*
Y140802D01*
X119336D01*
Y140668D01*
X119292D01*
Y140534D01*
X119247D01*
Y140400D01*
X119202D01*
Y140267D01*
X119158D01*
Y140133D01*
X119113D01*
Y139999D01*
X119068D01*
Y139865D01*
X119024D01*
Y139731D01*
X118979D01*
Y139597D01*
X118934D01*
Y139463D01*
X118890D01*
Y139329D01*
X118845D01*
Y139195D01*
X118801D01*
Y139061D01*
X118756D01*
Y138927D01*
X118711D01*
Y138793D01*
X118667D01*
Y138659D01*
X118622D01*
Y138525D01*
X118577D01*
Y138391D01*
X118533D01*
Y138213D01*
X118488D01*
Y138079D01*
X118443D01*
Y137900D01*
X118399D01*
Y137856D01*
X118265D01*
Y137900D01*
X118086D01*
Y137945D01*
X117908D01*
Y137990D01*
X117774D01*
Y138034D01*
X117595D01*
Y138079D01*
X117461D01*
Y138123D01*
X117282D01*
Y138168D01*
X117149D01*
Y138213D01*
X116970D01*
Y138257D01*
X116836D01*
Y138302D01*
X116657D01*
Y138347D01*
X116524D01*
Y138391D01*
X116345D01*
Y138436D01*
X116211D01*
Y138481D01*
X116032D01*
Y138525D01*
X115898D01*
Y138570D01*
X115720D01*
Y138615D01*
X115541D01*
Y138659D01*
X115407D01*
Y138704D01*
X115229D01*
Y138749D01*
X115095D01*
Y138793D01*
X114916D01*
Y138838D01*
X114782D01*
Y138883D01*
X114604D01*
Y138927D01*
X114470D01*
Y138972D01*
X114425D01*
Y139061D01*
X114470D01*
Y139240D01*
X114514D01*
Y139374D01*
X114559D01*
Y139552D01*
X114604D01*
Y139686D01*
X114648D01*
Y139820D01*
X114693D01*
Y139954D01*
X114738D01*
Y140088D01*
X114782D01*
Y140222D01*
X114827D01*
Y140400D01*
X114872D01*
Y140534D01*
X114916D01*
Y140668D01*
X114961D01*
Y140802D01*
X115005D01*
Y140936D01*
X115050D01*
Y141070D01*
X115095D01*
Y141204D01*
X115139D01*
Y141338D01*
X115184D01*
Y141472D01*
X115229D01*
Y141561D01*
X115273D01*
Y141695D01*
X115318D01*
Y141829D01*
X115363D01*
Y141963D01*
X115407D01*
Y142097D01*
X115452D01*
Y142231D01*
X115497D01*
Y142365D01*
X115541D01*
Y142499D01*
X115586D01*
Y142633D01*
X115631D01*
Y142767D01*
X115675D01*
Y142901D01*
X115720D01*
Y143035D01*
X115765D01*
Y143169D01*
X115809D01*
Y143258D01*
X115854D01*
Y143392D01*
X115898D01*
Y143526D01*
X115943D01*
Y143660D01*
X115988D01*
Y143794D01*
X116032D01*
Y143928D01*
X116077D01*
Y144062D01*
X116122D01*
Y144196D01*
X116166D01*
Y144330D01*
X116211D01*
Y144464D01*
X116256D01*
Y144598D01*
X116300D01*
Y144731D01*
X116345D01*
Y144865D01*
X116390D01*
Y144999D01*
X116434D01*
Y145178D01*
X116479D01*
Y145312D01*
X116524D01*
Y145446D01*
X116568D01*
Y145580D01*
X116613D01*
Y145714D01*
X116657D01*
Y145848D01*
X116702D01*
Y146026D01*
X116747D01*
Y146160D01*
X116791D01*
Y146294D01*
X116836D01*
Y146428D01*
X116881D01*
Y146607D01*
X116925D01*
Y146741D01*
X116970D01*
Y146919D01*
X117015D01*
Y147053D01*
X117059D01*
Y147232D01*
X117104D01*
Y147366D01*
X117149D01*
Y147544D01*
X117193D01*
Y147678D01*
X117238D01*
Y147857D01*
X117282D01*
Y147991D01*
X117327D01*
Y148169D01*
X117372D01*
Y148348D01*
X117416D01*
Y148526D01*
X117461D01*
Y148705D01*
X117506D01*
Y148884D01*
X117550D01*
Y149062D01*
X117595D01*
Y149241D01*
X117640D01*
Y149419D01*
X117684D01*
Y149598D01*
X117729D01*
Y149821D01*
X117774D01*
Y150000D01*
X117818D01*
Y150223D01*
X117863D01*
Y150446D01*
X117908D01*
Y150670D01*
X117952D01*
Y150893D01*
X117997D01*
Y151116D01*
X118041D01*
Y151384D01*
X118086D01*
Y151607D01*
X118131D01*
Y151920D01*
X118175D01*
Y152188D01*
X118220D01*
Y152500D01*
X118265D01*
Y152857D01*
X118309D01*
Y153259D01*
X118354D01*
Y153706D01*
X118399D01*
Y154331D01*
X118443D01*
Y156608D01*
X118399D01*
Y157322D01*
X118354D01*
Y157813D01*
X118309D01*
Y158260D01*
X118265D01*
Y158572D01*
X118220D01*
Y158930D01*
X118175D01*
Y159198D01*
X118131D01*
Y159465D01*
X118086D01*
Y159733D01*
X118041D01*
Y159957D01*
X117997D01*
Y160180D01*
X117952D01*
Y160403D01*
X117908D01*
Y160626D01*
X117863D01*
Y160805D01*
X117818D01*
Y160983D01*
X117774D01*
Y161162D01*
X117729D01*
Y161341D01*
X117684D01*
Y161519D01*
X117640D01*
Y161698D01*
X117595D01*
Y161832D01*
X117550D01*
Y162010D01*
X117506D01*
Y162144D01*
X117461D01*
Y162100D01*
X117372D01*
Y162055D01*
X117282D01*
Y162010D01*
X117193D01*
Y161966D01*
X117059D01*
Y161921D01*
X116881D01*
Y161876D01*
X116657D01*
Y161832D01*
X116211D01*
Y161876D01*
X116032D01*
Y161921D01*
X115854D01*
Y161966D01*
X115720D01*
Y162010D01*
X115631D01*
Y162055D01*
X115541D01*
Y162100D01*
X115452D01*
Y162144D01*
X115407D01*
Y162189D01*
X115363D01*
Y162234D01*
X115273D01*
Y162278D01*
X115229D01*
Y162323D01*
X115184D01*
Y162367D01*
X115139D01*
Y162412D01*
X115095D01*
Y162457D01*
X115050D01*
Y162502D01*
X115005D01*
Y162591D01*
X114961D01*
Y162635D01*
X114916D01*
Y162680D01*
X114872D01*
Y162769D01*
X114827D01*
Y162859D01*
X114782D01*
Y162903D01*
X114738D01*
Y162993D01*
X114693D01*
Y163082D01*
X114648D01*
Y163171D01*
X114604D01*
Y163260D01*
X114559D01*
Y163350D01*
X114514D01*
Y163439D01*
X114470D01*
Y163528D01*
X114425D01*
Y163618D01*
X114380D01*
Y163707D01*
X114336D01*
Y163796D01*
X114291D01*
Y163841D01*
X114246D01*
Y163930D01*
X114202D01*
Y164020D01*
X114157D01*
Y164109D01*
X114113D01*
Y164198D01*
X114068D01*
Y164287D01*
X114023D01*
Y164377D01*
X113979D01*
Y164466D01*
X113934D01*
Y164555D01*
X113889D01*
Y164645D01*
X113845D01*
Y164734D01*
X113800D01*
Y164823D01*
X113755D01*
Y164912D01*
X113711D01*
Y164957D01*
X113666D01*
Y165046D01*
X113621D01*
Y165136D01*
X113577D01*
Y165225D01*
X113532D01*
Y165314D01*
X113487D01*
Y165404D01*
X113443D01*
Y165493D01*
X113398D01*
Y165538D01*
X113353D01*
Y165627D01*
X113309D01*
Y165716D01*
X113264D01*
Y165805D01*
X113219D01*
Y165895D01*
X113175D01*
Y165939D01*
X113130D01*
Y166029D01*
X113086D01*
Y166118D01*
X113041D01*
Y166163D01*
X112996D01*
Y166252D01*
X112952D01*
Y166341D01*
X112907D01*
Y166386D01*
X112862D01*
Y166475D01*
X112818D01*
Y166565D01*
X112773D01*
Y166609D01*
X112728D01*
Y166698D01*
X112684D01*
Y166743D01*
X112639D01*
Y166832D01*
X112594D01*
Y166922D01*
X112550D01*
Y166966D01*
X112505D01*
Y167056D01*
X112460D01*
Y167100D01*
X112416D01*
Y167190D01*
X112371D01*
Y167234D01*
X112326D01*
Y167323D01*
X112282D01*
Y167368D01*
X112237D01*
Y167458D01*
X112193D01*
Y167502D01*
X112148D01*
Y167547D01*
X112103D01*
Y167636D01*
X112059D01*
Y167681D01*
X112014D01*
Y167770D01*
X111969D01*
Y167815D01*
X111925D01*
Y167859D01*
X111880D01*
Y167949D01*
X111835D01*
Y167993D01*
X111791D01*
Y168038D01*
X111746D01*
Y168127D01*
X111701D01*
Y168172D01*
X111657D01*
Y168261D01*
X111612D01*
Y168306D01*
X111567D01*
Y168350D01*
X111523D01*
Y168395D01*
X111478D01*
Y168484D01*
X111434D01*
Y168529D01*
X111389D01*
Y168574D01*
X111344D01*
Y168618D01*
X111300D01*
Y168708D01*
X111255D01*
Y168752D01*
X111210D01*
Y168797D01*
X111166D01*
Y168841D01*
X111121D01*
Y168931D01*
X111076D01*
Y168976D01*
X111032D01*
Y169020D01*
X110987D01*
Y169065D01*
X110942D01*
Y169109D01*
X110898D01*
Y169154D01*
X110853D01*
Y169243D01*
X110808D01*
Y169288D01*
X110764D01*
Y169333D01*
X110719D01*
Y169377D01*
X110675D01*
Y169422D01*
X110630D01*
Y169467D01*
X110585D01*
Y169556D01*
X110541D01*
Y169601D01*
X110496D01*
Y169645D01*
X110451D01*
Y169690D01*
X110407D01*
Y169734D01*
X110362D01*
Y169779D01*
X110317D01*
Y169824D01*
X110273D01*
Y169868D01*
X110228D01*
Y169913D01*
X110183D01*
Y169958D01*
X110139D01*
Y170002D01*
X110094D01*
Y170047D01*
X110049D01*
Y170092D01*
X110005D01*
Y170181D01*
X109960D01*
Y170226D01*
X109916D01*
Y170270D01*
X109871D01*
Y170315D01*
X109826D01*
Y170360D01*
X109782D01*
Y170404D01*
X109737D01*
Y170449D01*
X109692D01*
Y170494D01*
X109648D01*
Y170538D01*
X109558D01*
Y170583D01*
X109514D01*
Y170627D01*
X109469D01*
Y170672D01*
X109424D01*
Y170717D01*
X109380D01*
Y170761D01*
X109335D01*
Y170806D01*
X109290D01*
Y170851D01*
X109246D01*
Y170895D01*
X109201D01*
Y170940D01*
X109157D01*
Y170985D01*
X109112D01*
Y171029D01*
X109067D01*
Y171074D01*
X109023D01*
Y171119D01*
X108978D01*
Y171163D01*
X108933D01*
Y171208D01*
X108889D01*
Y171253D01*
X108799D01*
Y171297D01*
X108755D01*
Y171342D01*
X108710D01*
Y171387D01*
X108665D01*
Y171431D01*
X108621D01*
Y171476D01*
X108576D01*
Y171520D01*
X108487D01*
Y171565D01*
X108442D01*
Y171610D01*
X108398D01*
Y171654D01*
X108353D01*
Y171699D01*
X108308D01*
Y171744D01*
X108264D01*
Y171788D01*
X108174D01*
Y171833D01*
X108130D01*
Y171878D01*
X108085D01*
Y171922D01*
X108040D01*
Y171967D01*
X107951D01*
Y172012D01*
X107906D01*
Y172056D01*
X107862D01*
Y172101D01*
X107817D01*
Y172146D01*
X107728D01*
Y172190D01*
X107683D01*
Y172235D01*
X107638D01*
Y172279D01*
X107594D01*
Y172324D01*
X107505D01*
Y172369D01*
X107460D01*
Y172413D01*
X107415D01*
Y172458D01*
X107326D01*
Y172503D01*
X107281D01*
Y172547D01*
X107237D01*
Y172592D01*
X107147D01*
Y172637D01*
X107103D01*
Y172681D01*
X107013D01*
Y172726D01*
X106969D01*
Y172771D01*
X106879D01*
Y172815D01*
X106835D01*
Y172860D01*
X106790D01*
Y172905D01*
X106701D01*
Y172949D01*
X106656D01*
Y172994D01*
X106567D01*
Y173039D01*
X106522D01*
Y173083D01*
X106433D01*
Y173128D01*
X106388D01*
Y173172D01*
X106299D01*
Y173217D01*
X106210D01*
Y173262D01*
X106165D01*
Y173306D01*
X106076D01*
Y173351D01*
X106031D01*
Y173396D01*
X105942D01*
Y173440D01*
X105852D01*
Y173485D01*
X105808D01*
Y173530D01*
X105719D01*
Y173574D01*
X105629D01*
Y173619D01*
X105585D01*
Y173664D01*
X105495D01*
Y173708D01*
X105406D01*
Y173753D01*
X105317D01*
Y173797D01*
X105272D01*
Y173842D01*
X105183D01*
Y173887D01*
X105093D01*
Y173932D01*
X105004D01*
Y173976D01*
X104915D01*
Y174021D01*
X104870D01*
Y174065D01*
X104781D01*
Y174110D01*
X104692D01*
Y174155D01*
X104602D01*
Y174199D01*
X104513D01*
Y174244D01*
X104424D01*
Y174289D01*
X104334D01*
Y174333D01*
X104245D01*
Y174378D01*
X104156D01*
Y174423D01*
X104067D01*
Y174467D01*
X103977D01*
Y174512D01*
X103888D01*
Y174557D01*
X103799D01*
Y174601D01*
X103709D01*
Y174646D01*
X103620D01*
Y174690D01*
X103531D01*
Y174735D01*
X103397D01*
Y174780D01*
X103308D01*
Y174824D01*
X103218D01*
Y174869D01*
X103084D01*
Y174914D01*
X102995D01*
Y174958D01*
X102906D01*
Y175003D01*
X102772D01*
Y175048D01*
X102683D01*
Y175092D01*
X102549D01*
Y175137D01*
X102459D01*
Y175182D01*
X102325D01*
Y175226D01*
X102191D01*
Y175271D01*
X102102D01*
Y175316D01*
X101968D01*
Y175360D01*
X101834D01*
Y175405D01*
X101700D01*
Y175450D01*
X101566D01*
Y175494D01*
X101432D01*
Y175539D01*
X101298D01*
Y175583D01*
X101164D01*
Y175628D01*
X101031D01*
Y175673D01*
X100852D01*
Y175717D01*
X100718D01*
Y175762D01*
X100539D01*
Y175807D01*
X100405D01*
Y175851D01*
X100227D01*
Y175896D01*
X100048D01*
Y175941D01*
X99870D01*
Y175985D01*
X99691D01*
Y176030D01*
X99513D01*
Y176075D01*
X99289D01*
Y176119D01*
X99111D01*
Y176164D01*
X98887D01*
Y176208D01*
X98664D01*
Y176253D01*
X98352D01*
Y176298D01*
X98084D01*
Y176343D01*
X97771D01*
Y176387D01*
X97414D01*
Y176432D01*
X97012D01*
Y176476D01*
X96521D01*
Y176521D01*
X95807D01*
Y176566D01*
X93931D01*
Y176521D01*
X93217D01*
Y176476D01*
X92726D01*
Y176432D01*
X92324D01*
Y176387D01*
X91967D01*
Y176343D01*
X91654D01*
Y176298D01*
X91342D01*
Y176253D01*
X91074D01*
Y176208D01*
X90851D01*
Y176164D01*
X90627D01*
Y176119D01*
X90404D01*
Y176075D01*
X90226D01*
Y176030D01*
X90047D01*
Y175985D01*
X89868D01*
Y175941D01*
X89690D01*
Y175896D01*
X89511D01*
Y175851D01*
X89333D01*
Y175807D01*
X89199D01*
Y175762D01*
X89020D01*
Y175717D01*
X88886D01*
Y175673D01*
X88708D01*
Y175628D01*
X88574D01*
Y175583D01*
X88440D01*
Y175539D01*
X88306D01*
Y175494D01*
X88172D01*
Y175450D01*
X88038D01*
Y175405D01*
X87904D01*
Y175360D01*
X87770D01*
Y175316D01*
X87636D01*
Y175271D01*
X87547D01*
Y175226D01*
X87413D01*
Y175182D01*
X87279D01*
Y175137D01*
X87190D01*
Y175092D01*
X87056D01*
Y175048D01*
X86966D01*
Y175003D01*
X86832D01*
Y174958D01*
X86743D01*
Y174914D01*
X86609D01*
Y174869D01*
X86520D01*
Y174824D01*
X86430D01*
Y174780D01*
X86297D01*
Y174735D01*
X86207D01*
Y174690D01*
X86118D01*
Y174646D01*
X86029D01*
Y174601D01*
X85939D01*
Y174557D01*
X85850D01*
Y174512D01*
X85761D01*
Y174467D01*
X85627D01*
Y174423D01*
X85538D01*
Y174378D01*
X85493D01*
Y174333D01*
X85403D01*
Y174289D01*
X85314D01*
Y174244D01*
X85225D01*
Y174199D01*
X85136D01*
Y174155D01*
X85046D01*
Y174110D01*
X84957D01*
Y174065D01*
X84868D01*
Y174021D01*
X84778D01*
Y173976D01*
X84734D01*
Y173932D01*
X84644D01*
Y173887D01*
X84555D01*
Y173842D01*
X84466D01*
Y173797D01*
X84377D01*
Y173753D01*
X84332D01*
Y173708D01*
X84243D01*
Y173664D01*
X84153D01*
Y173619D01*
X84109D01*
Y173574D01*
X84019D01*
Y173530D01*
X83930D01*
Y173485D01*
X83841D01*
Y173440D01*
X83796D01*
Y173396D01*
X83707D01*
Y173351D01*
X83662D01*
Y173306D01*
X83573D01*
Y173262D01*
X83528D01*
Y173217D01*
X83439D01*
Y173172D01*
X83350D01*
Y173128D01*
X83305D01*
Y173083D01*
X83216D01*
Y173039D01*
X83171D01*
Y172994D01*
X83082D01*
Y172949D01*
X83037D01*
Y172905D01*
X82948D01*
Y172860D01*
X82903D01*
Y172815D01*
X82859D01*
Y172771D01*
X82769D01*
Y172726D01*
X82725D01*
Y172681D01*
X82635D01*
Y172637D01*
X82591D01*
Y172592D01*
X82501D01*
Y172547D01*
X82457D01*
Y172503D01*
X82412D01*
Y172458D01*
X82323D01*
Y172413D01*
X82278D01*
Y172369D01*
X82233D01*
Y172324D01*
X82144D01*
Y172279D01*
X82100D01*
Y172235D01*
X82055D01*
Y172190D01*
X82010D01*
Y172146D01*
X81921D01*
Y172101D01*
X81876D01*
Y172056D01*
X81832D01*
Y172012D01*
X81787D01*
Y171967D01*
X81698D01*
Y171922D01*
X81653D01*
Y171878D01*
X81608D01*
Y171833D01*
X81564D01*
Y171788D01*
X81475D01*
Y171744D01*
X81430D01*
Y171699D01*
X81385D01*
Y171654D01*
X81341D01*
Y171610D01*
X81296D01*
Y171565D01*
X81207D01*
Y171520D01*
X81162D01*
Y171476D01*
X81117D01*
Y171431D01*
X81073D01*
Y171387D01*
X81028D01*
Y171342D01*
X80983D01*
Y171297D01*
X80939D01*
Y171253D01*
X80849D01*
Y171208D01*
X80805D01*
Y171163D01*
X80760D01*
Y171119D01*
X80715D01*
Y171074D01*
X80671D01*
Y171029D01*
X80626D01*
Y170985D01*
X80582D01*
Y170940D01*
X80537D01*
Y170895D01*
X80492D01*
Y170851D01*
X80448D01*
Y170806D01*
X80403D01*
Y170761D01*
X80358D01*
Y170717D01*
X80314D01*
Y170672D01*
X80224D01*
Y170627D01*
X80180D01*
Y170583D01*
X80135D01*
Y170538D01*
X80090D01*
Y170494D01*
X80046D01*
Y170449D01*
X80001D01*
Y170404D01*
X79956D01*
Y170360D01*
X79912D01*
Y170315D01*
X79867D01*
Y170270D01*
X79823D01*
Y170226D01*
X79778D01*
Y170181D01*
X79733D01*
Y170136D01*
X79689D01*
Y170092D01*
X79644D01*
Y170047D01*
X79599D01*
Y170002D01*
X79555D01*
Y169958D01*
X79510D01*
Y169868D01*
X79465D01*
Y169824D01*
X79421D01*
Y169779D01*
X79376D01*
Y169734D01*
X79331D01*
Y169690D01*
X79287D01*
Y169645D01*
X79242D01*
Y169601D01*
X79197D01*
Y169556D01*
X79153D01*
Y169511D01*
X79108D01*
Y169422D01*
X79063D01*
Y169377D01*
X79019D01*
Y169333D01*
X78974D01*
Y169288D01*
X78930D01*
Y169243D01*
X78885D01*
Y169199D01*
X78840D01*
Y169109D01*
X78796D01*
Y169065D01*
X78751D01*
Y169020D01*
X78706D01*
Y168976D01*
X78662D01*
Y168931D01*
X78617D01*
Y168886D01*
X78572D01*
Y168797D01*
X78528D01*
Y168752D01*
X78483D01*
Y168708D01*
X78438D01*
Y168663D01*
X78394D01*
Y168574D01*
X78349D01*
Y168529D01*
X78304D01*
Y168484D01*
X78260D01*
Y168440D01*
X78215D01*
Y168350D01*
X78170D01*
Y168306D01*
X78126D01*
Y168261D01*
X78081D01*
Y168172D01*
X78036D01*
Y168127D01*
X77992D01*
Y168083D01*
X77947D01*
Y167993D01*
X77903D01*
Y167949D01*
X77858D01*
Y167904D01*
X77813D01*
Y167815D01*
X77769D01*
Y167770D01*
X77724D01*
Y167725D01*
X77679D01*
Y167636D01*
X77635D01*
Y167591D01*
X77590D01*
Y167502D01*
X77545D01*
Y167458D01*
X77501D01*
Y167368D01*
X77456D01*
Y167323D01*
X77411D01*
Y167234D01*
X77367D01*
Y167190D01*
X77322D01*
Y167100D01*
X77277D01*
Y167056D01*
X77233D01*
Y166966D01*
X77188D01*
Y166922D01*
X77144D01*
Y166832D01*
X77099D01*
Y166788D01*
X77054D01*
Y166698D01*
X77010D01*
Y166654D01*
X76965D01*
Y166565D01*
X76920D01*
Y166475D01*
X76876D01*
Y166430D01*
X76831D01*
Y166341D01*
X76786D01*
Y166252D01*
X76742D01*
Y166207D01*
X76697D01*
Y166118D01*
X76652D01*
Y166029D01*
X76608D01*
Y165984D01*
X76563D01*
Y165895D01*
X76519D01*
Y165805D01*
X76474D01*
Y165716D01*
X76429D01*
Y165627D01*
X76385D01*
Y165582D01*
X76340D01*
Y165493D01*
X76295D01*
Y165404D01*
X76251D01*
Y165314D01*
X76206D01*
Y165225D01*
X76161D01*
Y165136D01*
X76117D01*
Y165046D01*
X76072D01*
Y164957D01*
X76027D01*
Y164912D01*
X75983D01*
Y164823D01*
X75938D01*
Y164734D01*
X75893D01*
Y164645D01*
X75849D01*
Y164555D01*
X75804D01*
Y164466D01*
X75760D01*
Y164377D01*
X75715D01*
Y164287D01*
X75670D01*
Y164198D01*
X75626D01*
Y164109D01*
X75581D01*
Y164020D01*
X75536D01*
Y163930D01*
X75492D01*
Y163886D01*
X75447D01*
Y163796D01*
X75402D01*
Y163707D01*
X75358D01*
Y163618D01*
X75313D01*
Y163528D01*
X75268D01*
Y163439D01*
X75224D01*
Y163350D01*
X75179D01*
Y163260D01*
X75134D01*
Y163171D01*
X75090D01*
Y163082D01*
X75045D01*
Y162993D01*
X75000D01*
Y162903D01*
X74956D01*
Y162859D01*
X74911D01*
Y162769D01*
X74866D01*
Y162680D01*
X74822D01*
Y162635D01*
X74777D01*
Y162591D01*
X74733D01*
Y162502D01*
X74688D01*
Y162457D01*
X74643D01*
Y162412D01*
X74599D01*
Y162367D01*
X74554D01*
Y162323D01*
X74509D01*
Y162278D01*
X74465D01*
Y162234D01*
X74375D01*
Y162189D01*
X74331D01*
Y162144D01*
X74286D01*
Y162100D01*
X74197D01*
Y162055D01*
X74107D01*
Y162010D01*
X74018D01*
Y161966D01*
X73884D01*
Y161921D01*
X73706D01*
Y161876D01*
X73527D01*
Y161832D01*
X73081D01*
Y161876D01*
X72857D01*
Y161921D01*
X72679D01*
Y161966D01*
X72545D01*
Y162010D01*
X72456D01*
Y162055D01*
X72366D01*
Y162100D01*
X72277D01*
Y162144D01*
X72232D01*
Y162010D01*
X72188D01*
Y161832D01*
X72143D01*
Y161698D01*
X72098D01*
Y161519D01*
X72054D01*
Y161341D01*
X72009D01*
Y161162D01*
X71964D01*
Y160983D01*
X71920D01*
Y160805D01*
X71875D01*
Y160626D01*
X71830D01*
Y160403D01*
X71786D01*
Y160180D01*
X71741D01*
Y159957D01*
X71697D01*
Y159733D01*
X71652D01*
Y159465D01*
X71607D01*
Y159198D01*
X71562D01*
Y158930D01*
X71518D01*
Y158617D01*
X71473D01*
Y158260D01*
X71429D01*
Y157858D01*
X71384D01*
Y157367D01*
X71339D01*
Y156697D01*
X71295D01*
Y154331D01*
X71339D01*
Y153706D01*
X71384D01*
Y153215D01*
X71429D01*
Y152857D01*
X71473D01*
Y152500D01*
X71518D01*
Y152143D01*
X71562D01*
Y151875D01*
X71607D01*
Y151607D01*
X71652D01*
Y151339D01*
X71697D01*
Y151072D01*
X71741D01*
Y150848D01*
X71786D01*
Y150625D01*
X71830D01*
Y150402D01*
X71875D01*
Y150178D01*
X71920D01*
Y150000D01*
X71964D01*
Y149777D01*
X72009D01*
Y149598D01*
X72054D01*
Y149419D01*
X72098D01*
Y149196D01*
X72143D01*
Y149018D01*
X72188D01*
Y148839D01*
X72232D01*
Y148660D01*
X72277D01*
Y148482D01*
X72322D01*
Y148303D01*
X72366D01*
Y148125D01*
X72411D01*
Y147991D01*
X72456D01*
Y147812D01*
X72500D01*
Y147633D01*
X72545D01*
Y147500D01*
X72589D01*
Y147321D01*
X72634D01*
Y147187D01*
X72679D01*
Y147008D01*
X72723D01*
Y146875D01*
X72768D01*
Y146741D01*
X72813D01*
Y146607D01*
X72857D01*
Y146428D01*
X72902D01*
Y146294D01*
X72947D01*
Y146160D01*
X72991D01*
Y146026D01*
X73036D01*
Y145848D01*
X73081D01*
Y145714D01*
X73125D01*
Y145580D01*
X73170D01*
Y145446D01*
X73215D01*
Y145312D01*
X73259D01*
Y145133D01*
X73304D01*
Y144999D01*
X73348D01*
Y144865D01*
X73393D01*
Y144731D01*
X73438D01*
Y144598D01*
X73482D01*
Y144464D01*
X73527D01*
Y144330D01*
X73572D01*
Y144196D01*
X73616D01*
Y144062D01*
X73661D01*
Y143928D01*
X73706D01*
Y143794D01*
X73750D01*
Y143660D01*
X73795D01*
Y143526D01*
X73840D01*
Y143392D01*
X73884D01*
Y143258D01*
X73929D01*
Y143124D01*
X73973D01*
Y142990D01*
X74018D01*
Y142856D01*
X74063D01*
Y142767D01*
X74107D01*
Y142633D01*
X74152D01*
Y142499D01*
X74197D01*
Y142365D01*
X74241D01*
Y142231D01*
X74286D01*
Y142097D01*
X74331D01*
Y141963D01*
X74375D01*
Y141829D01*
X74420D01*
Y141695D01*
X74465D01*
Y141561D01*
X74509D01*
Y141427D01*
X74554D01*
Y141293D01*
X74599D01*
Y141159D01*
X74643D01*
Y141026D01*
X74688D01*
Y140892D01*
X74733D01*
Y140758D01*
X74777D01*
Y140624D01*
X74822D01*
Y140490D01*
X74866D01*
Y140356D01*
X74911D01*
Y140222D01*
X74956D01*
Y140088D01*
X75000D01*
Y139909D01*
X75045D01*
Y139775D01*
X75090D01*
Y139642D01*
X75134D01*
Y139508D01*
X75179D01*
Y139374D01*
X75224D01*
Y139195D01*
X75268D01*
Y139061D01*
X75313D01*
Y138972D01*
X75268D01*
Y138927D01*
X75134D01*
Y138883D01*
X74956D01*
Y138838D01*
X74822D01*
Y138793D01*
X74643D01*
Y138749D01*
X74509D01*
Y138704D01*
X74331D01*
Y138659D01*
X74197D01*
Y138615D01*
X74018D01*
Y138570D01*
X73840D01*
Y138525D01*
X73706D01*
Y138481D01*
X73527D01*
Y138436D01*
X73393D01*
Y138391D01*
X73215D01*
Y138347D01*
X73081D01*
Y138302D01*
X72902D01*
Y138257D01*
X72768D01*
Y138213D01*
X72589D01*
Y138168D01*
X72456D01*
Y138123D01*
X72277D01*
Y138079D01*
X72143D01*
Y138034D01*
X71964D01*
Y137990D01*
X71830D01*
Y137945D01*
X71652D01*
Y137900D01*
X71473D01*
Y137856D01*
X71339D01*
Y137900D01*
X71295D01*
Y138034D01*
X71250D01*
Y138168D01*
X71205D01*
Y138347D01*
X71161D01*
Y138481D01*
X71116D01*
Y138615D01*
X71071D01*
Y138749D01*
X71027D01*
Y138927D01*
X70982D01*
Y139061D01*
X70938D01*
Y139195D01*
X70893D01*
Y139329D01*
X70848D01*
Y139463D01*
X70803D01*
Y139597D01*
X70759D01*
Y139731D01*
X70714D01*
Y139865D01*
X70670D01*
Y139999D01*
X70625D01*
Y140133D01*
X70580D01*
Y140267D01*
X70536D01*
Y140400D01*
X70491D01*
Y140534D01*
X70446D01*
Y140668D01*
X70402D01*
Y140758D01*
X70357D01*
Y140892D01*
X70312D01*
Y141026D01*
X70268D01*
Y141159D01*
X70223D01*
Y141293D01*
X70178D01*
Y141427D01*
X70134D01*
Y141561D01*
X70089D01*
Y141695D01*
X70044D01*
Y141829D01*
X70000D01*
Y141963D01*
X69955D01*
Y142097D01*
X69910D01*
Y142231D01*
X69866D01*
Y142365D01*
X69821D01*
Y142499D01*
X69777D01*
Y142633D01*
X69732D01*
Y142767D01*
X69687D01*
Y142901D01*
X69643D01*
Y143035D01*
X69598D01*
Y143169D01*
X69553D01*
Y143303D01*
X69509D01*
Y143437D01*
X69464D01*
Y143570D01*
X69419D01*
Y143705D01*
X69375D01*
Y143838D01*
X69330D01*
Y143972D01*
X69285D01*
Y144151D01*
X69241D01*
Y144285D01*
X69196D01*
Y144419D01*
X69152D01*
Y144553D01*
X69107D01*
Y144687D01*
X69062D01*
Y144865D01*
X69018D01*
Y144999D01*
X68973D01*
Y145133D01*
X68928D01*
Y145267D01*
X68884D01*
Y145446D01*
X68839D01*
Y145580D01*
X68794D01*
Y145714D01*
X68750D01*
Y145892D01*
X68705D01*
Y146026D01*
X68660D01*
Y146205D01*
X68616D01*
Y146339D01*
X68571D01*
Y146517D01*
X68526D01*
Y146651D01*
X68482D01*
Y146830D01*
X68437D01*
Y147008D01*
X68393D01*
Y147142D01*
X68348D01*
Y147321D01*
X68303D01*
Y147500D01*
X68259D01*
Y147678D01*
X68214D01*
Y147857D01*
X68169D01*
Y148035D01*
X68125D01*
Y148214D01*
X68080D01*
Y148393D01*
X68035D01*
Y148616D01*
X67991D01*
Y148794D01*
X67946D01*
Y149018D01*
X67901D01*
Y149196D01*
X67857D01*
Y149419D01*
X67812D01*
Y149643D01*
X67767D01*
Y149866D01*
X67723D01*
Y150089D01*
X67678D01*
Y150312D01*
X67633D01*
Y150580D01*
X67589D01*
Y150804D01*
X67544D01*
Y151072D01*
X67499D01*
Y151384D01*
X67455D01*
Y151652D01*
X67410D01*
Y152009D01*
X67366D01*
Y152322D01*
X67321D01*
Y152723D01*
X67276D01*
Y153170D01*
X67232D01*
Y153750D01*
X67187D01*
Y154554D01*
X67142D01*
Y156652D01*
X67187D01*
Y157411D01*
X67232D01*
Y157947D01*
X67276D01*
Y158394D01*
X67321D01*
Y158796D01*
X67366D01*
Y159153D01*
X67410D01*
Y159465D01*
X67455D01*
Y159778D01*
X67499D01*
Y160046D01*
X67544D01*
Y160314D01*
X67589D01*
Y160537D01*
X67633D01*
Y160760D01*
X67678D01*
Y160983D01*
X67723D01*
Y161207D01*
X67767D01*
Y161430D01*
X67812D01*
Y161609D01*
X67857D01*
Y161787D01*
X67901D01*
Y162010D01*
X67946D01*
Y162189D01*
X67991D01*
Y162367D01*
X68035D01*
Y162546D01*
X68080D01*
Y162680D01*
X68125D01*
Y162859D01*
X68169D01*
Y162993D01*
X68214D01*
Y163171D01*
X68259D01*
Y163305D01*
X68303D01*
Y163484D01*
X68348D01*
Y163618D01*
X68393D01*
Y163752D01*
X68437D01*
Y163886D01*
X68482D01*
Y164020D01*
X68526D01*
Y164109D01*
X68437D01*
Y164153D01*
X68348D01*
Y164198D01*
X68259D01*
Y164243D01*
X68169D01*
Y164287D01*
X68080D01*
Y164332D01*
X67991D01*
Y164377D01*
X67901D01*
Y164421D01*
X67857D01*
Y164466D01*
X67767D01*
Y164511D01*
X67678D01*
Y164555D01*
X67589D01*
Y164600D01*
X67499D01*
Y164645D01*
X67455D01*
Y164689D01*
X67410D01*
Y164734D01*
X67321D01*
Y164778D01*
X67276D01*
Y164823D01*
X67232D01*
Y164868D01*
X67187D01*
Y164912D01*
X67142D01*
Y164957D01*
X67098D01*
Y165002D01*
X67053D01*
Y165091D01*
X67008D01*
Y165136D01*
X66964D01*
Y165180D01*
X66919D01*
Y165270D01*
X66874D01*
Y165359D01*
X66830D01*
Y165448D01*
X66785D01*
Y165582D01*
X66740D01*
Y165716D01*
X66696D01*
Y165939D01*
X66651D01*
Y166430D01*
X66696D01*
Y166654D01*
X66740D01*
Y166788D01*
X66785D01*
Y166922D01*
X66830D01*
Y167011D01*
X66874D01*
Y167100D01*
X66919D01*
Y167190D01*
X66964D01*
Y167279D01*
X67008D01*
Y167368D01*
X67053D01*
Y167458D01*
X67098D01*
Y167547D01*
X67142D01*
Y167636D01*
X67187D01*
Y167725D01*
X67232D01*
Y167815D01*
X67276D01*
Y167859D01*
X67321D01*
Y167949D01*
X67366D01*
Y168038D01*
X67410D01*
Y168127D01*
X67455D01*
Y168216D01*
X67499D01*
Y168306D01*
X67544D01*
Y168395D01*
X67589D01*
Y168484D01*
X67633D01*
Y168574D01*
X67678D01*
Y168663D01*
X67723D01*
Y168752D01*
X67767D01*
Y168797D01*
X67812D01*
Y168886D01*
X67857D01*
Y168976D01*
X67901D01*
Y169065D01*
X67946D01*
Y169154D01*
X67991D01*
Y169243D01*
X68035D01*
Y169333D01*
X68080D01*
Y169422D01*
X68125D01*
Y169511D01*
X68169D01*
Y169601D01*
X68214D01*
Y169645D01*
X68259D01*
Y169734D01*
X68303D01*
Y169824D01*
X68348D01*
Y169913D01*
X68393D01*
Y170002D01*
X68437D01*
Y170092D01*
X68482D01*
Y170136D01*
X68526D01*
Y170226D01*
X68571D01*
Y170315D01*
X68616D01*
Y170404D01*
X68660D01*
Y170494D01*
X68705D01*
Y170538D01*
X68750D01*
Y170627D01*
X68794D01*
Y170717D01*
X68839D01*
Y170761D01*
X68884D01*
Y170851D01*
X68928D01*
Y170940D01*
X68973D01*
Y171029D01*
X69018D01*
Y171074D01*
X69062D01*
Y171163D01*
X69107D01*
Y171253D01*
X69152D01*
Y171297D01*
X69196D01*
Y171387D01*
X69241D01*
Y171431D01*
X69285D01*
Y171520D01*
X69330D01*
Y171610D01*
X69375D01*
Y171654D01*
X69419D01*
Y171744D01*
X69464D01*
Y171788D01*
X69509D01*
Y171878D01*
X69553D01*
Y171922D01*
X69598D01*
Y172012D01*
X69643D01*
Y172101D01*
X69687D01*
Y172146D01*
X69732D01*
Y172190D01*
X69777D01*
Y172279D01*
X69821D01*
Y172324D01*
X69866D01*
Y172413D01*
X69910D01*
Y172458D01*
X69955D01*
Y172547D01*
X70000D01*
Y172592D01*
X70044D01*
Y172681D01*
X70089D01*
Y172726D01*
X70134D01*
Y172815D01*
X70178D01*
Y172860D01*
X70223D01*
Y172949D01*
X70268D01*
Y172994D01*
X70312D01*
Y173039D01*
X70357D01*
Y173128D01*
X70402D01*
Y173172D01*
X70446D01*
Y173217D01*
X70491D01*
Y173306D01*
X70536D01*
Y173351D01*
X70580D01*
Y173396D01*
X70625D01*
Y173485D01*
X70670D01*
Y173530D01*
X70714D01*
Y173619D01*
X70759D01*
Y173664D01*
X70803D01*
Y173708D01*
X70848D01*
Y173753D01*
X70893D01*
Y173842D01*
X70938D01*
Y173887D01*
X70982D01*
Y173932D01*
X71027D01*
Y174021D01*
X71071D01*
Y174065D01*
X71116D01*
Y174110D01*
X71161D01*
Y174155D01*
X71205D01*
Y174244D01*
X71250D01*
Y174289D01*
X71295D01*
Y174333D01*
X71339D01*
Y174378D01*
X71384D01*
Y174467D01*
X71429D01*
Y174512D01*
X71473D01*
Y174557D01*
X71518D01*
Y174601D01*
X71562D01*
Y174690D01*
X71607D01*
Y174735D01*
X71652D01*
Y174780D01*
X71697D01*
Y174824D01*
X71741D01*
Y174869D01*
X71786D01*
Y174914D01*
X71830D01*
Y175003D01*
X71875D01*
Y175048D01*
X71920D01*
Y175092D01*
X71964D01*
Y175137D01*
X72009D01*
Y175182D01*
X72054D01*
Y175271D01*
X72098D01*
Y175316D01*
X72143D01*
Y175360D01*
X72188D01*
Y175405D01*
X72232D01*
Y175450D01*
X72277D01*
Y175494D01*
X72322D01*
Y175539D01*
X72366D01*
Y175583D01*
X72411D01*
Y175673D01*
X72456D01*
Y175717D01*
X72500D01*
Y175762D01*
X72545D01*
Y175807D01*
X72589D01*
Y175851D01*
X72634D01*
Y175896D01*
X72679D01*
Y175941D01*
X72723D01*
Y175985D01*
X72768D01*
Y176075D01*
X72813D01*
Y176119D01*
X72857D01*
Y176164D01*
X72902D01*
Y176208D01*
X72947D01*
Y176253D01*
X72991D01*
Y176298D01*
X73036D01*
Y176343D01*
X73081D01*
Y176387D01*
X73125D01*
Y176432D01*
X73170D01*
Y176476D01*
X73215D01*
Y176521D01*
X73259D01*
Y176566D01*
X73304D01*
Y176610D01*
X73348D01*
Y176655D01*
X73393D01*
Y176700D01*
X73438D01*
Y176744D01*
X73482D01*
Y176789D01*
X73527D01*
Y176834D01*
X73572D01*
Y176878D01*
X73616D01*
Y176923D01*
X73661D01*
Y176968D01*
X73706D01*
Y177012D01*
X73750D01*
Y177057D01*
X73795D01*
Y177101D01*
X73840D01*
Y177146D01*
X73884D01*
Y177191D01*
X73929D01*
Y177235D01*
X73973D01*
Y177280D01*
X74018D01*
Y177325D01*
X74063D01*
Y177369D01*
X74107D01*
Y177414D01*
X74152D01*
Y177459D01*
X74197D01*
Y177503D01*
X74241D01*
Y177548D01*
X74331D01*
Y177593D01*
X74375D01*
Y177637D01*
X74420D01*
Y177682D01*
X74465D01*
Y177727D01*
X74509D01*
Y177771D01*
X74554D01*
Y177816D01*
X74599D01*
Y177861D01*
X74643D01*
Y177905D01*
X74688D01*
Y177950D01*
X74733D01*
Y177994D01*
X74822D01*
Y178039D01*
X74866D01*
Y178084D01*
X74911D01*
Y178128D01*
X74956D01*
Y178173D01*
X75000D01*
Y178218D01*
X75045D01*
Y178262D01*
X75090D01*
Y178307D01*
X75134D01*
Y178352D01*
X75224D01*
Y178396D01*
X75268D01*
Y178441D01*
X75313D01*
Y178486D01*
X75358D01*
Y178530D01*
X75402D01*
Y178575D01*
X75447D01*
Y178620D01*
X75536D01*
Y178664D01*
X75581D01*
Y178709D01*
X75626D01*
Y178754D01*
X75670D01*
Y178798D01*
X75715D01*
Y178843D01*
X75804D01*
Y178888D01*
X75849D01*
Y178932D01*
X75893D01*
Y178977D01*
X75938D01*
Y179021D01*
X76027D01*
Y179066D01*
X76072D01*
Y179111D01*
X76117D01*
Y179155D01*
X76161D01*
Y179200D01*
X76251D01*
Y179245D01*
X76295D01*
Y179289D01*
X76340D01*
Y179334D01*
X76429D01*
Y179379D01*
X76474D01*
Y179423D01*
X76519D01*
Y179468D01*
X76563D01*
Y179513D01*
X76652D01*
Y179557D01*
X76697D01*
Y179602D01*
X76786D01*
Y179646D01*
X76831D01*
Y179691D01*
X76876D01*
Y179736D01*
X76965D01*
Y179780D01*
X77010D01*
Y179825D01*
X77054D01*
Y179870D01*
X77144D01*
Y179914D01*
X77188D01*
Y179959D01*
X77233D01*
Y180004D01*
X77322D01*
Y180048D01*
X77367D01*
Y180093D01*
X77411D01*
Y180138D01*
X77501D01*
Y180182D01*
X77545D01*
Y180227D01*
X77635D01*
Y180271D01*
X77679D01*
Y180316D01*
X77769D01*
Y180361D01*
X77813D01*
Y180406D01*
X77903D01*
Y180450D01*
X77947D01*
Y180495D01*
X77992D01*
Y180539D01*
X78081D01*
Y180584D01*
X78126D01*
Y180629D01*
X78215D01*
Y180673D01*
X78260D01*
Y180718D01*
X78349D01*
Y180763D01*
X78438D01*
Y180807D01*
X78483D01*
Y180852D01*
X78572D01*
Y180897D01*
X78617D01*
Y180941D01*
X78706D01*
Y180986D01*
X78751D01*
Y181031D01*
X78840D01*
Y181075D01*
X78885D01*
Y181120D01*
X78974D01*
Y181164D01*
X79063D01*
Y181209D01*
X79108D01*
Y181254D01*
X79197D01*
Y181298D01*
X79287D01*
Y181343D01*
X79331D01*
Y181388D01*
X79421D01*
Y181432D01*
X79510D01*
Y181477D01*
X79555D01*
Y181522D01*
X79644D01*
Y181566D01*
X79733D01*
Y181611D01*
X79778D01*
Y181656D01*
X79867D01*
Y181700D01*
X79956D01*
Y181745D01*
X80001D01*
Y181790D01*
X80090D01*
Y181834D01*
X80180D01*
Y181879D01*
X80269D01*
Y181924D01*
X80358D01*
Y181968D01*
X80403D01*
Y182013D01*
X80492D01*
Y182057D01*
X80582D01*
Y182102D01*
X80671D01*
Y182147D01*
X80760D01*
Y182191D01*
X80849D01*
Y182236D01*
X80939D01*
Y182281D01*
X81028D01*
Y182325D01*
X81117D01*
Y182370D01*
X81207D01*
Y182415D01*
X81296D01*
Y182459D01*
X81385D01*
Y182504D01*
X81475D01*
Y182549D01*
X81564D01*
Y182593D01*
X81653D01*
Y182638D01*
X81742D01*
Y182683D01*
X81832D01*
Y182727D01*
X81921D01*
Y182772D01*
X82010D01*
Y182817D01*
X82100D01*
Y182861D01*
X82189D01*
Y182906D01*
X82278D01*
Y182950D01*
X82412D01*
Y182995D01*
X82501D01*
Y183040D01*
X82591D01*
Y183084D01*
X82680D01*
Y183129D01*
X82814D01*
Y183174D01*
X82903D01*
Y183218D01*
X82992D01*
Y183263D01*
X83126D01*
Y183308D01*
X83216D01*
Y183352D01*
X83305D01*
Y183397D01*
X83439D01*
Y183442D01*
X83528D01*
Y183486D01*
X83662D01*
Y183531D01*
X83751D01*
Y183575D01*
X83885D01*
Y183620D01*
X83975D01*
Y183665D01*
X84109D01*
Y183710D01*
X84243D01*
Y183754D01*
X84332D01*
Y183799D01*
X84466D01*
Y183843D01*
X84600D01*
Y183888D01*
X84689D01*
Y183933D01*
X84823D01*
Y183977D01*
X84957D01*
Y184022D01*
X85091D01*
Y184067D01*
X85225D01*
Y184111D01*
X85314D01*
Y184156D01*
X85448D01*
Y184201D01*
X85582D01*
Y184245D01*
X85761D01*
Y184290D01*
X85895D01*
Y184335D01*
X86029D01*
Y184379D01*
X86207D01*
Y184424D01*
X86341D01*
Y184468D01*
X86475D01*
Y184513D01*
X86654D01*
Y184558D01*
X86832D01*
Y184603D01*
X86966D01*
Y184647D01*
X87145D01*
Y184692D01*
X87323D01*
Y184736D01*
X87502D01*
Y184781D01*
X87681D01*
Y184826D01*
X87859D01*
Y184870D01*
X88038D01*
Y184915D01*
X88216D01*
Y184960D01*
X88395D01*
Y185004D01*
X88618D01*
Y185049D01*
X88841D01*
Y185094D01*
X89065D01*
Y185138D01*
X89333D01*
Y185183D01*
X89556D01*
Y185228D01*
X89824D01*
Y185272D01*
X90092D01*
Y185317D01*
X90359D01*
Y185361D01*
X90672D01*
Y185406D01*
X91029D01*
Y185451D01*
X91386D01*
Y185495D01*
X91788D01*
Y185540D01*
X92324D01*
Y185585D01*
X92905D01*
Y185629D01*
X93798D01*
Y185674D01*
X95941D01*
Y185629D01*
D02*
G37*
G36*
X109558Y152590D02*
X109916D01*
Y152545D01*
X110139D01*
Y152500D01*
X110317D01*
Y152456D01*
X110451D01*
Y152411D01*
X110630D01*
Y152366D01*
X110764D01*
Y152322D01*
X110853D01*
Y152277D01*
X110987D01*
Y152232D01*
X111076D01*
Y152188D01*
X111210D01*
Y152143D01*
X111300D01*
Y152098D01*
X111389D01*
Y152054D01*
X111434D01*
Y152009D01*
X111523D01*
Y151964D01*
X111612D01*
Y151920D01*
X111701D01*
Y151875D01*
X111746D01*
Y151831D01*
X111835D01*
Y151786D01*
X111880D01*
Y151741D01*
X111969D01*
Y151697D01*
X112014D01*
Y151652D01*
X112103D01*
Y151607D01*
X112148D01*
Y151563D01*
X112193D01*
Y151518D01*
X112282D01*
Y151473D01*
X112326D01*
Y151429D01*
X112371D01*
Y151384D01*
X112416D01*
Y151339D01*
X112460D01*
Y151295D01*
X112505D01*
Y151250D01*
X112594D01*
Y151205D01*
X112639D01*
Y151161D01*
X112684D01*
Y151116D01*
X112728D01*
Y151072D01*
X112773D01*
Y151027D01*
X112818D01*
Y150982D01*
X112862D01*
Y150893D01*
X112907D01*
Y150848D01*
X112952D01*
Y150804D01*
X112996D01*
Y150759D01*
X113041D01*
Y150714D01*
X113086D01*
Y150625D01*
X113130D01*
Y150580D01*
X113175D01*
Y150536D01*
X113219D01*
Y150446D01*
X113264D01*
Y150402D01*
X113309D01*
Y150357D01*
X113353D01*
Y150268D01*
X113398D01*
Y150223D01*
X113443D01*
Y150134D01*
X113487D01*
Y150045D01*
X113532D01*
Y149955D01*
X113577D01*
Y149911D01*
X113621D01*
Y149821D01*
X113666D01*
Y149732D01*
X113711D01*
Y149643D01*
X113755D01*
Y149553D01*
X113800D01*
Y149419D01*
X113845D01*
Y149330D01*
X113889D01*
Y149196D01*
X113934D01*
Y149062D01*
X113979D01*
Y148928D01*
X114023D01*
Y148794D01*
X114068D01*
Y148616D01*
X114113D01*
Y148393D01*
X114157D01*
Y148125D01*
X114202D01*
Y147544D01*
X114246D01*
Y147276D01*
X114202D01*
Y146651D01*
X114157D01*
Y146339D01*
X114113D01*
Y146026D01*
X114068D01*
Y145714D01*
X114023D01*
Y145446D01*
X113979D01*
Y145133D01*
X113934D01*
Y144821D01*
X113889D01*
Y144508D01*
X113845D01*
Y144240D01*
X113800D01*
Y143928D01*
X113755D01*
Y143615D01*
X113711D01*
Y143303D01*
X113666D01*
Y143035D01*
X113621D01*
Y142722D01*
X113577D01*
Y142410D01*
X113532D01*
Y142097D01*
X113487D01*
Y141829D01*
X113443D01*
Y141517D01*
X113398D01*
Y141204D01*
X113353D01*
Y140936D01*
X113309D01*
Y140624D01*
X113264D01*
Y140311D01*
X113219D01*
Y139999D01*
X113175D01*
Y139731D01*
X113130D01*
Y139418D01*
X113086D01*
Y139106D01*
X113041D01*
Y138793D01*
X112996D01*
Y138525D01*
X112952D01*
Y138213D01*
X112907D01*
Y137900D01*
X112862D01*
Y137588D01*
X112818D01*
Y137320D01*
X112773D01*
Y137007D01*
X112728D01*
Y136695D01*
X112684D01*
Y136382D01*
X112639D01*
Y136114D01*
X112594D01*
Y135802D01*
X112550D01*
Y135489D01*
X112505D01*
Y135177D01*
X112460D01*
Y134909D01*
X112416D01*
Y134596D01*
X112371D01*
Y134284D01*
X112326D01*
Y133971D01*
X112282D01*
Y133703D01*
X112237D01*
Y133391D01*
X112193D01*
Y133078D01*
X112148D01*
Y132810D01*
X112103D01*
Y132587D01*
X112059D01*
Y132408D01*
X112014D01*
Y132275D01*
X111969D01*
Y132141D01*
X111925D01*
Y132007D01*
X111880D01*
Y131873D01*
X111835D01*
Y131739D01*
X111791D01*
Y131649D01*
X111746D01*
Y131560D01*
X111701D01*
Y131471D01*
X111657D01*
Y131382D01*
X111612D01*
Y131292D01*
X111567D01*
Y131203D01*
X111523D01*
Y131114D01*
X111478D01*
Y131069D01*
X111434D01*
Y130980D01*
X111389D01*
Y130935D01*
X111344D01*
Y130846D01*
X111300D01*
Y130801D01*
X111255D01*
Y130712D01*
X111210D01*
Y130667D01*
X111166D01*
Y130578D01*
X111121D01*
Y130533D01*
X111076D01*
Y130489D01*
X111032D01*
Y130444D01*
X110987D01*
Y130399D01*
X110942D01*
Y130310D01*
X110898D01*
Y130265D01*
X110853D01*
Y130221D01*
X110808D01*
Y130176D01*
X110764D01*
Y130131D01*
X110719D01*
Y130087D01*
X110675D01*
Y130042D01*
X110630D01*
Y129997D01*
X110585D01*
Y129953D01*
X110541D01*
Y129908D01*
X110496D01*
Y129863D01*
X110451D01*
Y129819D01*
X110407D01*
Y129774D01*
X110317D01*
Y129729D01*
X110273D01*
Y129685D01*
X110228D01*
Y129640D01*
X110183D01*
Y129596D01*
X110094D01*
Y129551D01*
X110049D01*
Y129506D01*
X110005D01*
Y129462D01*
X109916D01*
Y129417D01*
X109871D01*
Y129372D01*
X109782D01*
Y129328D01*
X109692D01*
Y129283D01*
X109648D01*
Y129238D01*
X109558D01*
Y129194D01*
X109469D01*
Y129149D01*
X109380D01*
Y129104D01*
X109290D01*
Y129060D01*
X109246D01*
Y129015D01*
X109112D01*
Y128970D01*
X109023D01*
Y128926D01*
X108933D01*
Y128881D01*
X108799D01*
Y128836D01*
X108665D01*
Y128792D01*
X108531D01*
Y128747D01*
X108398D01*
Y128703D01*
X108219D01*
Y128658D01*
X108040D01*
Y128613D01*
X107772D01*
Y128569D01*
X107460D01*
Y128524D01*
X106478D01*
Y128569D01*
X106120D01*
Y128613D01*
X105852D01*
Y128658D01*
X105674D01*
Y128703D01*
X105540D01*
Y128747D01*
X105361D01*
Y128792D01*
X105227D01*
Y128836D01*
X105093D01*
Y128881D01*
X105004D01*
Y128926D01*
X104915D01*
Y128970D01*
X104781D01*
Y129015D01*
X104692D01*
Y129060D01*
X104602D01*
Y129104D01*
X104513D01*
Y129149D01*
X104424D01*
Y129194D01*
X104379D01*
Y129238D01*
X104290D01*
Y129283D01*
X104200D01*
Y129328D01*
X104111D01*
Y129372D01*
X104067D01*
Y129417D01*
X103977D01*
Y129462D01*
X103933D01*
Y129506D01*
X103888D01*
Y129551D01*
X103799D01*
Y129596D01*
X103754D01*
Y129640D01*
X103709D01*
Y129685D01*
X103665D01*
Y129729D01*
X103575D01*
Y129774D01*
X103531D01*
Y129819D01*
X103486D01*
Y129863D01*
X103441D01*
Y129908D01*
X103397D01*
Y129953D01*
X103352D01*
Y129997D01*
X103308D01*
Y130042D01*
X103263D01*
Y130087D01*
X103218D01*
Y130131D01*
X103174D01*
Y130176D01*
X103129D01*
Y130221D01*
X103084D01*
Y130265D01*
X103040D01*
Y130310D01*
X102995D01*
Y130355D01*
X102950D01*
Y130444D01*
X102906D01*
Y130489D01*
X102861D01*
Y130533D01*
X102816D01*
Y130578D01*
X102772D01*
Y130667D01*
X102727D01*
Y130712D01*
X102683D01*
Y130756D01*
X102638D01*
Y130846D01*
X102593D01*
Y130890D01*
X102549D01*
Y130980D01*
X102504D01*
Y131069D01*
X102459D01*
Y131114D01*
X102415D01*
Y131203D01*
X102370D01*
Y131292D01*
X102325D01*
Y131382D01*
X102281D01*
Y131471D01*
X102236D01*
Y131560D01*
X102191D01*
Y131649D01*
X102147D01*
Y131739D01*
X102102D01*
Y131873D01*
X102057D01*
Y132007D01*
X102013D01*
Y132141D01*
X101968D01*
Y132275D01*
X101923D01*
Y132408D01*
X101879D01*
Y132632D01*
X101834D01*
Y132855D01*
X101790D01*
Y133123D01*
X101745D01*
Y134373D01*
X101790D01*
Y134685D01*
X101834D01*
Y134998D01*
X101879D01*
Y135311D01*
X101923D01*
Y135578D01*
X101968D01*
Y135891D01*
X102013D01*
Y136203D01*
X102057D01*
Y136516D01*
X102102D01*
Y136784D01*
X102147D01*
Y137097D01*
X102191D01*
Y137409D01*
X102236D01*
Y137722D01*
X102281D01*
Y137990D01*
X102325D01*
Y138302D01*
X102370D01*
Y138615D01*
X102415D01*
Y138927D01*
X102459D01*
Y139195D01*
X102504D01*
Y139508D01*
X102549D01*
Y139820D01*
X102593D01*
Y140133D01*
X102638D01*
Y140400D01*
X102683D01*
Y140713D01*
X102727D01*
Y141026D01*
X102772D01*
Y141338D01*
X102816D01*
Y141606D01*
X102861D01*
Y141918D01*
X102906D01*
Y142231D01*
X102950D01*
Y142544D01*
X102995D01*
Y142811D01*
X103040D01*
Y143124D01*
X103084D01*
Y143437D01*
X103129D01*
Y143749D01*
X103174D01*
Y144017D01*
X103218D01*
Y144330D01*
X103263D01*
Y144642D01*
X103308D01*
Y144955D01*
X103352D01*
Y145223D01*
X103397D01*
Y145535D01*
X103441D01*
Y145848D01*
X103486D01*
Y146160D01*
X103531D01*
Y146428D01*
X103575D01*
Y146741D01*
X103620D01*
Y147053D01*
X103665D01*
Y147366D01*
X103709D01*
Y147633D01*
X103754D01*
Y147946D01*
X103799D01*
Y148259D01*
X103843D01*
Y148526D01*
X103888D01*
Y148705D01*
X103933D01*
Y148884D01*
X103977D01*
Y149018D01*
X104022D01*
Y149152D01*
X104067D01*
Y149285D01*
X104111D01*
Y149375D01*
X104156D01*
Y149509D01*
X104200D01*
Y149598D01*
X104245D01*
Y149687D01*
X104290D01*
Y149777D01*
X104334D01*
Y149866D01*
X104379D01*
Y149955D01*
X104424D01*
Y150000D01*
X104468D01*
Y150089D01*
X104513D01*
Y150178D01*
X104558D01*
Y150223D01*
X104602D01*
Y150312D01*
X104647D01*
Y150357D01*
X104692D01*
Y150446D01*
X104736D01*
Y150491D01*
X104781D01*
Y150536D01*
X104826D01*
Y150625D01*
X104870D01*
Y150670D01*
X104915D01*
Y150714D01*
X104960D01*
Y150804D01*
X105004D01*
Y150848D01*
X105049D01*
Y150893D01*
X105093D01*
Y150938D01*
X105138D01*
Y150982D01*
X105183D01*
Y151027D01*
X105227D01*
Y151072D01*
X105272D01*
Y151116D01*
X105317D01*
Y151161D01*
X105361D01*
Y151205D01*
X105406D01*
Y151250D01*
X105451D01*
Y151295D01*
X105495D01*
Y151339D01*
X105540D01*
Y151384D01*
X105629D01*
Y151429D01*
X105674D01*
Y151473D01*
X105719D01*
Y151518D01*
X105763D01*
Y151563D01*
X105852D01*
Y151607D01*
X105897D01*
Y151652D01*
X105942D01*
Y151697D01*
X106031D01*
Y151741D01*
X106076D01*
Y151786D01*
X106165D01*
Y151831D01*
X106210D01*
Y151875D01*
X106299D01*
Y151920D01*
X106344D01*
Y151964D01*
X106433D01*
Y152009D01*
X106522D01*
Y152054D01*
X106611D01*
Y152098D01*
X106701D01*
Y152143D01*
X106790D01*
Y152188D01*
X106879D01*
Y152232D01*
X107013D01*
Y152277D01*
X107103D01*
Y152322D01*
X107237D01*
Y152366D01*
X107371D01*
Y152411D01*
X107505D01*
Y152456D01*
X107683D01*
Y152500D01*
X107862D01*
Y152545D01*
X108085D01*
Y152590D01*
X108398D01*
Y152634D01*
X109558D01*
Y152590D01*
D02*
G37*
G36*
X81341D02*
X81653D01*
Y152545D01*
X81876D01*
Y152500D01*
X82055D01*
Y152456D01*
X82233D01*
Y152411D01*
X82367D01*
Y152366D01*
X82501D01*
Y152322D01*
X82591D01*
Y152277D01*
X82725D01*
Y152232D01*
X82859D01*
Y152188D01*
X82948D01*
Y152143D01*
X83037D01*
Y152098D01*
X83126D01*
Y152054D01*
X83216D01*
Y152009D01*
X83305D01*
Y151964D01*
X83350D01*
Y151920D01*
X83439D01*
Y151875D01*
X83528D01*
Y151831D01*
X83573D01*
Y151786D01*
X83662D01*
Y151741D01*
X83707D01*
Y151697D01*
X83751D01*
Y151652D01*
X83841D01*
Y151607D01*
X83885D01*
Y151563D01*
X83975D01*
Y151518D01*
X84019D01*
Y151473D01*
X84064D01*
Y151429D01*
X84109D01*
Y151384D01*
X84153D01*
Y151339D01*
X84198D01*
Y151295D01*
X84287D01*
Y151250D01*
X84332D01*
Y151205D01*
X84377D01*
Y151161D01*
X84421D01*
Y151116D01*
X84466D01*
Y151072D01*
X84511D01*
Y151027D01*
X84555D01*
Y150982D01*
X84600D01*
Y150938D01*
X84644D01*
Y150893D01*
X84689D01*
Y150804D01*
X84734D01*
Y150759D01*
X84778D01*
Y150714D01*
X84823D01*
Y150670D01*
X84868D01*
Y150580D01*
X84912D01*
Y150536D01*
X84957D01*
Y150491D01*
X85002D01*
Y150402D01*
X85046D01*
Y150357D01*
X85091D01*
Y150268D01*
X85136D01*
Y150223D01*
X85180D01*
Y150134D01*
X85225D01*
Y150045D01*
X85270D01*
Y150000D01*
X85314D01*
Y149911D01*
X85359D01*
Y149821D01*
X85403D01*
Y149732D01*
X85448D01*
Y149643D01*
X85493D01*
Y149553D01*
X85538D01*
Y149464D01*
X85582D01*
Y149330D01*
X85627D01*
Y149241D01*
X85671D01*
Y149107D01*
X85716D01*
Y148973D01*
X85761D01*
Y148794D01*
X85805D01*
Y148616D01*
X85850D01*
Y148437D01*
X85895D01*
Y148214D01*
X85939D01*
Y147946D01*
X85984D01*
Y147633D01*
X86029D01*
Y147366D01*
X86073D01*
Y147053D01*
X86118D01*
Y146741D01*
X86163D01*
Y146428D01*
X86207D01*
Y146160D01*
X86252D01*
Y145848D01*
X86297D01*
Y145535D01*
X86341D01*
Y145223D01*
X86386D01*
Y144955D01*
X86430D01*
Y144642D01*
X86475D01*
Y144330D01*
X86520D01*
Y144017D01*
X86564D01*
Y143749D01*
X86609D01*
Y143437D01*
X86654D01*
Y143124D01*
X86698D01*
Y142811D01*
X86743D01*
Y142544D01*
X86788D01*
Y142231D01*
X86832D01*
Y141918D01*
X86877D01*
Y141606D01*
X86922D01*
Y141338D01*
X86966D01*
Y141026D01*
X87011D01*
Y140713D01*
X87056D01*
Y140400D01*
X87100D01*
Y140133D01*
X87145D01*
Y139820D01*
X87190D01*
Y139508D01*
X87234D01*
Y139195D01*
X87279D01*
Y138927D01*
X87323D01*
Y138615D01*
X87368D01*
Y138302D01*
X87413D01*
Y137990D01*
X87457D01*
Y137722D01*
X87502D01*
Y137409D01*
X87547D01*
Y137097D01*
X87591D01*
Y136784D01*
X87636D01*
Y136516D01*
X87681D01*
Y136203D01*
X87725D01*
Y135891D01*
X87770D01*
Y135578D01*
X87815D01*
Y135311D01*
X87859D01*
Y134998D01*
X87904D01*
Y134685D01*
X87949D01*
Y134373D01*
X87993D01*
Y133167D01*
X87949D01*
Y132855D01*
X87904D01*
Y132632D01*
X87859D01*
Y132453D01*
X87815D01*
Y132275D01*
X87770D01*
Y132141D01*
X87725D01*
Y132007D01*
X87681D01*
Y131873D01*
X87636D01*
Y131783D01*
X87591D01*
Y131694D01*
X87547D01*
Y131560D01*
X87502D01*
Y131471D01*
X87457D01*
Y131382D01*
X87413D01*
Y131292D01*
X87368D01*
Y131203D01*
X87323D01*
Y131158D01*
X87279D01*
Y131069D01*
X87234D01*
Y130980D01*
X87190D01*
Y130935D01*
X87145D01*
Y130846D01*
X87100D01*
Y130801D01*
X87056D01*
Y130712D01*
X87011D01*
Y130667D01*
X86966D01*
Y130623D01*
X86922D01*
Y130533D01*
X86877D01*
Y130489D01*
X86832D01*
Y130444D01*
X86788D01*
Y130399D01*
X86743D01*
Y130310D01*
X86698D01*
Y130265D01*
X86654D01*
Y130221D01*
X86609D01*
Y130176D01*
X86564D01*
Y130131D01*
X86520D01*
Y130087D01*
X86475D01*
Y130042D01*
X86430D01*
Y129997D01*
X86386D01*
Y129953D01*
X86341D01*
Y129908D01*
X86297D01*
Y129863D01*
X86252D01*
Y129819D01*
X86207D01*
Y129774D01*
X86118D01*
Y129729D01*
X86073D01*
Y129685D01*
X86029D01*
Y129640D01*
X85984D01*
Y129596D01*
X85895D01*
Y129551D01*
X85850D01*
Y129506D01*
X85805D01*
Y129462D01*
X85716D01*
Y129417D01*
X85671D01*
Y129372D01*
X85582D01*
Y129328D01*
X85538D01*
Y129283D01*
X85448D01*
Y129238D01*
X85359D01*
Y129194D01*
X85270D01*
Y129149D01*
X85180D01*
Y129104D01*
X85136D01*
Y129060D01*
X85046D01*
Y129015D01*
X84912D01*
Y128970D01*
X84823D01*
Y128926D01*
X84734D01*
Y128881D01*
X84600D01*
Y128836D01*
X84466D01*
Y128792D01*
X84332D01*
Y128747D01*
X84198D01*
Y128703D01*
X84064D01*
Y128658D01*
X83841D01*
Y128613D01*
X83618D01*
Y128569D01*
X83260D01*
Y128524D01*
X82278D01*
Y128569D01*
X81966D01*
Y128613D01*
X81698D01*
Y128658D01*
X81475D01*
Y128703D01*
X81296D01*
Y128747D01*
X81162D01*
Y128792D01*
X81028D01*
Y128836D01*
X80894D01*
Y128881D01*
X80805D01*
Y128926D01*
X80715D01*
Y128970D01*
X80582D01*
Y129015D01*
X80492D01*
Y129060D01*
X80403D01*
Y129104D01*
X80314D01*
Y129149D01*
X80269D01*
Y129194D01*
X80180D01*
Y129238D01*
X80090D01*
Y129283D01*
X80001D01*
Y129328D01*
X79956D01*
Y129372D01*
X79867D01*
Y129417D01*
X79823D01*
Y129462D01*
X79733D01*
Y129506D01*
X79689D01*
Y129551D01*
X79599D01*
Y129596D01*
X79555D01*
Y129640D01*
X79510D01*
Y129685D01*
X79465D01*
Y129729D01*
X79376D01*
Y129774D01*
X79331D01*
Y129819D01*
X79287D01*
Y129863D01*
X79242D01*
Y129908D01*
X79197D01*
Y129953D01*
X79153D01*
Y129997D01*
X79108D01*
Y130042D01*
X79063D01*
Y130087D01*
X79019D01*
Y130131D01*
X78974D01*
Y130176D01*
X78930D01*
Y130221D01*
X78885D01*
Y130265D01*
X78840D01*
Y130310D01*
X78796D01*
Y130355D01*
X78751D01*
Y130444D01*
X78706D01*
Y130489D01*
X78662D01*
Y130533D01*
X78617D01*
Y130578D01*
X78572D01*
Y130667D01*
X78528D01*
Y130712D01*
X78483D01*
Y130756D01*
X78438D01*
Y130846D01*
X78394D01*
Y130890D01*
X78349D01*
Y130980D01*
X78304D01*
Y131069D01*
X78260D01*
Y131114D01*
X78215D01*
Y131203D01*
X78170D01*
Y131292D01*
X78126D01*
Y131382D01*
X78081D01*
Y131471D01*
X78036D01*
Y131560D01*
X77992D01*
Y131649D01*
X77947D01*
Y131739D01*
X77903D01*
Y131873D01*
X77858D01*
Y132007D01*
X77813D01*
Y132096D01*
X77769D01*
Y132275D01*
X77724D01*
Y132408D01*
X77679D01*
Y132587D01*
X77635D01*
Y132810D01*
X77590D01*
Y132855D01*
Y132900D01*
Y133078D01*
X77545D01*
Y133391D01*
X77501D01*
Y133703D01*
X77456D01*
Y133971D01*
X77411D01*
Y134284D01*
X77367D01*
Y134596D01*
X77322D01*
Y134909D01*
X77277D01*
Y135177D01*
X77233D01*
Y135489D01*
X77188D01*
Y135802D01*
X77144D01*
Y136114D01*
X77099D01*
Y136382D01*
X77054D01*
Y136695D01*
X77010D01*
Y137007D01*
X76965D01*
Y137320D01*
X76920D01*
Y137588D01*
X76876D01*
Y137900D01*
X76831D01*
Y138213D01*
X76786D01*
Y138525D01*
X76742D01*
Y138793D01*
X76697D01*
Y139106D01*
X76652D01*
Y139418D01*
X76608D01*
Y139731D01*
X76563D01*
Y139999D01*
X76519D01*
Y140311D01*
X76474D01*
Y140624D01*
X76429D01*
Y140936D01*
X76385D01*
Y141204D01*
X76340D01*
Y141517D01*
X76295D01*
Y141829D01*
X76251D01*
Y142142D01*
X76206D01*
Y142410D01*
X76161D01*
Y142722D01*
X76117D01*
Y143035D01*
X76072D01*
Y143347D01*
X76027D01*
Y143615D01*
X75983D01*
Y143928D01*
X75938D01*
Y144240D01*
X75893D01*
Y144508D01*
X75849D01*
Y144821D01*
X75804D01*
Y145133D01*
X75760D01*
Y145446D01*
X75715D01*
Y145714D01*
X75670D01*
Y146026D01*
X75626D01*
Y146339D01*
X75581D01*
Y146651D01*
X75536D01*
Y146919D01*
X75492D01*
Y147901D01*
X75536D01*
Y148259D01*
X75581D01*
Y148482D01*
X75626D01*
Y148660D01*
X75670D01*
Y148839D01*
X75715D01*
Y148973D01*
X75760D01*
Y149107D01*
X75804D01*
Y149241D01*
X75849D01*
Y149375D01*
X75893D01*
Y149464D01*
X75938D01*
Y149553D01*
X75983D01*
Y149643D01*
X76027D01*
Y149732D01*
X76072D01*
Y149821D01*
X76117D01*
Y149911D01*
X76161D01*
Y150000D01*
X76206D01*
Y150089D01*
X76251D01*
Y150134D01*
X76295D01*
Y150223D01*
X76340D01*
Y150312D01*
X76385D01*
Y150357D01*
X76429D01*
Y150402D01*
X76474D01*
Y150491D01*
X76519D01*
Y150536D01*
X76563D01*
Y150580D01*
X76608D01*
Y150670D01*
X76652D01*
Y150714D01*
X76697D01*
Y150759D01*
X76742D01*
Y150804D01*
X76786D01*
Y150893D01*
X76831D01*
Y150938D01*
X76876D01*
Y150982D01*
X76920D01*
Y151027D01*
X76965D01*
Y151072D01*
X77010D01*
Y151116D01*
X77054D01*
Y151161D01*
X77099D01*
Y151205D01*
X77144D01*
Y151250D01*
X77188D01*
Y151295D01*
X77233D01*
Y151339D01*
X77322D01*
Y151384D01*
X77367D01*
Y151429D01*
X77411D01*
Y151473D01*
X77456D01*
Y151518D01*
X77501D01*
Y151563D01*
X77590D01*
Y151607D01*
X77635D01*
Y151652D01*
X77724D01*
Y151697D01*
X77769D01*
Y151741D01*
X77813D01*
Y151786D01*
X77903D01*
Y151831D01*
X77947D01*
Y151875D01*
X78036D01*
Y151920D01*
X78126D01*
Y151964D01*
X78215D01*
Y152009D01*
X78260D01*
Y152054D01*
X78349D01*
Y152098D01*
X78438D01*
Y152143D01*
X78528D01*
Y152188D01*
X78662D01*
Y152232D01*
X78751D01*
Y152277D01*
X78840D01*
Y152322D01*
X78974D01*
Y152366D01*
X79108D01*
Y152411D01*
X79287D01*
Y152456D01*
X79421D01*
Y152500D01*
X79599D01*
Y152545D01*
X79823D01*
Y152590D01*
X80180D01*
Y152634D01*
X81341D01*
Y152590D01*
D02*
G37*
G36*
X81264Y108850D02*
X81287D01*
Y108827D01*
X81311D01*
Y108803D01*
X81334D01*
Y104921D01*
X81311D01*
Y104898D01*
X61947D01*
Y104874D01*
X61923D01*
Y104851D01*
X61806D01*
Y104827D01*
X61759D01*
Y104803D01*
X61712D01*
Y104780D01*
X61688D01*
Y104756D01*
X61594D01*
Y104733D01*
X61571D01*
Y104709D01*
X61547D01*
Y104686D01*
X61524D01*
Y104662D01*
X61500D01*
Y104639D01*
X61476D01*
Y104568D01*
X61453D01*
Y104545D01*
X61430D01*
Y104498D01*
X61406D01*
Y104451D01*
X61382D01*
Y104427D01*
X61359D01*
Y101651D01*
Y101627D01*
Y96545D01*
X61382D01*
Y96522D01*
X61406D01*
Y96404D01*
X61430D01*
Y96380D01*
X61453D01*
Y96357D01*
X61476D01*
Y96333D01*
X61500D01*
Y96310D01*
X61524D01*
Y96286D01*
X61547D01*
Y96263D01*
X61571D01*
Y96239D01*
X61594D01*
Y96216D01*
X61618D01*
Y96192D01*
X61641D01*
Y96169D01*
X61665D01*
Y96145D01*
X61735D01*
Y96122D01*
X61759D01*
Y96098D01*
X61829D01*
Y96074D01*
X61853D01*
Y96051D01*
X81334D01*
Y96004D01*
X81358D01*
Y95980D01*
X81382D01*
Y95957D01*
X81405D01*
Y92098D01*
X61476D01*
Y92075D01*
X61453D01*
Y92098D01*
X61430D01*
Y92122D01*
X61406D01*
Y92145D01*
X60959D01*
Y92169D01*
X60935D01*
Y92192D01*
X60582D01*
Y92216D01*
X60559D01*
Y92263D01*
X60300D01*
Y92286D01*
X60277D01*
Y92310D01*
X60112D01*
Y92333D01*
X60088D01*
Y92357D01*
X59947D01*
Y92381D01*
X59924D01*
Y92404D01*
X59806D01*
Y92428D01*
X59783D01*
Y92451D01*
X59759D01*
Y92475D01*
X59688D01*
Y92451D01*
X59665D01*
Y92475D01*
X59618D01*
Y92498D01*
X59594D01*
Y92522D01*
X59453D01*
Y92545D01*
X59406D01*
Y92569D01*
X59383D01*
Y92592D01*
X59312D01*
Y92616D01*
X59265D01*
Y92639D01*
X59241D01*
Y92663D01*
X59171D01*
Y92686D01*
X59147D01*
Y92710D01*
X59053D01*
Y92757D01*
X59030D01*
Y92781D01*
X58983D01*
Y92757D01*
X58959D01*
Y92781D01*
X58935D01*
Y92804D01*
X58912D01*
Y92828D01*
X58841D01*
Y92851D01*
X58818D01*
Y92875D01*
X58794D01*
Y92898D01*
X58771D01*
Y92922D01*
X58747D01*
Y92945D01*
X58677D01*
Y92969D01*
X58653D01*
Y92992D01*
X58630D01*
Y93016D01*
X58606D01*
Y93039D01*
X58559D01*
Y93063D01*
X58512D01*
Y93086D01*
X58488D01*
Y93110D01*
X58465D01*
Y93133D01*
X58441D01*
Y93157D01*
X58418D01*
Y93181D01*
X58394D01*
Y93204D01*
X58371D01*
Y93228D01*
X58347D01*
Y93251D01*
X58324D01*
Y93275D01*
X58300D01*
Y93298D01*
X58277D01*
Y93322D01*
X58253D01*
Y93345D01*
X58206D01*
Y93369D01*
X58183D01*
Y93392D01*
X58159D01*
Y93416D01*
X58135D01*
Y93439D01*
X58112D01*
Y93463D01*
X58088D01*
Y93486D01*
X58065D01*
Y93510D01*
X58041D01*
Y93533D01*
X58018D01*
Y93557D01*
X57994D01*
Y93581D01*
X57971D01*
Y93604D01*
X57947D01*
Y93628D01*
X57924D01*
Y93722D01*
X57900D01*
Y93745D01*
X57877D01*
Y93769D01*
X57853D01*
Y93792D01*
X57830D01*
Y93816D01*
X57806D01*
Y93886D01*
X57783D01*
Y93910D01*
X57759D01*
Y93933D01*
X57736D01*
Y93957D01*
X57712D01*
Y94028D01*
X57688D01*
Y94075D01*
X57665D01*
Y94122D01*
X57641D01*
Y94169D01*
X57618D01*
Y94239D01*
X57571D01*
Y94333D01*
X57547D01*
Y94357D01*
X57524D01*
Y94381D01*
X57500D01*
Y94427D01*
X57524D01*
Y94498D01*
X57500D01*
Y94522D01*
X57453D01*
Y94616D01*
X57430D01*
Y94639D01*
X57406D01*
Y94827D01*
X57383D01*
Y94851D01*
X57359D01*
Y94945D01*
X57336D01*
Y94992D01*
X57312D01*
Y95016D01*
X57288D01*
Y95251D01*
X57241D01*
Y95698D01*
X57218D01*
Y95745D01*
X57194D01*
Y95769D01*
X57171D01*
Y95839D01*
X57194D01*
Y105109D01*
X57171D01*
Y105133D01*
X57194D01*
Y105156D01*
X57171D01*
Y105180D01*
X57194D01*
Y105227D01*
X57218D01*
Y105251D01*
X57241D01*
Y105627D01*
X57265D01*
Y105651D01*
X57288D01*
Y105909D01*
X57336D01*
Y105933D01*
X57359D01*
Y106121D01*
X57383D01*
Y106145D01*
X57406D01*
Y106262D01*
X57430D01*
Y106286D01*
X57453D01*
Y106427D01*
X57477D01*
Y106451D01*
X57500D01*
Y106474D01*
X57524D01*
Y106521D01*
X57500D01*
Y106568D01*
X57524D01*
Y106592D01*
X57547D01*
Y106615D01*
X57571D01*
Y106709D01*
X57618D01*
Y106803D01*
X57641D01*
Y106827D01*
X57665D01*
Y106897D01*
X57688D01*
Y106945D01*
X57712D01*
Y106968D01*
X57736D01*
Y107039D01*
X57783D01*
Y107062D01*
X57806D01*
Y107133D01*
X57830D01*
Y107156D01*
X57853D01*
Y107203D01*
X57877D01*
Y107227D01*
X57900D01*
Y107250D01*
X57924D01*
Y107274D01*
X57971D01*
Y107368D01*
X57994D01*
Y107392D01*
X58018D01*
Y107415D01*
X58041D01*
Y107439D01*
X58065D01*
Y107462D01*
X58088D01*
Y107486D01*
X58112D01*
Y107509D01*
X58135D01*
Y107533D01*
X58159D01*
Y107556D01*
X58183D01*
Y107580D01*
X58206D01*
Y107603D01*
X58230D01*
Y107627D01*
X58253D01*
Y107650D01*
X58277D01*
Y107674D01*
X58300D01*
Y107697D01*
X58324D01*
Y107721D01*
X58347D01*
Y107745D01*
X58371D01*
Y107768D01*
X58394D01*
Y107792D01*
X58418D01*
Y107815D01*
X58465D01*
Y107839D01*
X58535D01*
Y107886D01*
X58559D01*
Y107909D01*
X58583D01*
Y107933D01*
X58606D01*
Y107956D01*
X58677D01*
Y107980D01*
X58700D01*
Y108003D01*
X58747D01*
Y108027D01*
X58771D01*
Y108074D01*
X58865D01*
Y108097D01*
X58888D01*
Y108121D01*
X58983D01*
Y108168D01*
X59006D01*
Y108192D01*
X59030D01*
Y108215D01*
X59053D01*
Y108239D01*
X59147D01*
Y108262D01*
X59171D01*
Y108286D01*
X59288D01*
Y108309D01*
X59312D01*
Y108333D01*
X59359D01*
Y108356D01*
X59406D01*
Y108380D01*
X59429D01*
Y108403D01*
X59500D01*
Y108427D01*
X59524D01*
Y108450D01*
X59665D01*
Y108497D01*
X59712D01*
Y108521D01*
X59735D01*
Y108497D01*
X59806D01*
Y108521D01*
X59830D01*
Y108545D01*
X59853D01*
Y108568D01*
X59994D01*
Y108592D01*
X60018D01*
Y108615D01*
X60182D01*
Y108639D01*
X60230D01*
Y108662D01*
X60441D01*
Y108686D01*
X60465D01*
Y108709D01*
X60724D01*
Y108733D01*
X60747D01*
Y108756D01*
X61124D01*
Y108780D01*
X61147D01*
Y108803D01*
X61853D01*
Y108827D01*
X61877D01*
Y108850D01*
X61947D01*
Y108874D01*
X61994D01*
Y108850D01*
X81217D01*
Y108874D01*
X81264D01*
Y108850D01*
D02*
G37*
G36*
X160884Y108545D02*
X160907D01*
Y104615D01*
X160884D01*
Y104592D01*
X141590D01*
Y104615D01*
X141567D01*
Y104592D01*
X141543D01*
Y104568D01*
X141520D01*
Y104545D01*
X141308D01*
Y104521D01*
X141285D01*
Y104498D01*
X141261D01*
Y104474D01*
X141237D01*
Y104451D01*
X141190D01*
Y104427D01*
X141143D01*
Y104403D01*
X141120D01*
Y104380D01*
X141096D01*
Y104356D01*
X141073D01*
Y104333D01*
X141049D01*
Y104239D01*
X141026D01*
Y104215D01*
X141002D01*
Y104192D01*
X140979D01*
Y104121D01*
X140955D01*
Y104098D01*
X140932D01*
Y96239D01*
X140955D01*
Y96216D01*
X140979D01*
Y96192D01*
X141002D01*
Y96145D01*
X140979D01*
Y96122D01*
X141002D01*
Y96098D01*
X141026D01*
Y96074D01*
X141049D01*
Y96004D01*
X141073D01*
Y95980D01*
X141096D01*
Y95957D01*
X141120D01*
Y95933D01*
X141143D01*
Y95910D01*
X141167D01*
Y95886D01*
X141190D01*
Y95863D01*
X141214D01*
Y95839D01*
X141285D01*
Y95816D01*
X141308D01*
Y95792D01*
X141332D01*
Y95769D01*
X141379D01*
Y95792D01*
X141449D01*
Y95769D01*
X141473D01*
Y95745D01*
X141496D01*
Y95722D01*
X141567D01*
Y95745D01*
X141590D01*
Y95722D01*
X160860D01*
Y95745D01*
X160931D01*
Y95722D01*
X160954D01*
Y91769D01*
X141167D01*
Y91792D01*
X141143D01*
Y91816D01*
X140579D01*
Y91863D01*
X140532D01*
Y91887D01*
X140508D01*
Y91863D01*
X140249D01*
Y91887D01*
X140202D01*
Y91910D01*
X140155D01*
Y91933D01*
X140014D01*
Y91910D01*
X139967D01*
Y91933D01*
X139943D01*
Y91957D01*
X139920D01*
Y91981D01*
X139732D01*
Y92004D01*
X139708D01*
Y92028D01*
X139520D01*
Y92051D01*
X139496D01*
Y92075D01*
X139473D01*
Y92098D01*
X139355D01*
Y92122D01*
X139332D01*
Y92145D01*
X139214D01*
Y92169D01*
X139191D01*
Y92192D01*
X139120D01*
Y92216D01*
X139096D01*
Y92239D01*
X139073D01*
Y92263D01*
X138932D01*
Y92286D01*
X138908D01*
Y92310D01*
X138838D01*
Y92333D01*
X138814D01*
Y92357D01*
X138720D01*
Y92381D01*
X138696D01*
Y92404D01*
X138673D01*
Y92428D01*
X138602D01*
Y92451D01*
X138579D01*
Y92475D01*
X138508D01*
Y92498D01*
X138485D01*
Y92522D01*
X138461D01*
Y92545D01*
X138391D01*
Y92569D01*
X138367D01*
Y92592D01*
X138343D01*
Y92616D01*
X138273D01*
Y92639D01*
X138249D01*
Y92663D01*
X138202D01*
Y92686D01*
X138179D01*
Y92710D01*
X138155D01*
Y92733D01*
X138132D01*
Y92757D01*
X138108D01*
Y92781D01*
X138038D01*
Y92804D01*
X138014D01*
Y92828D01*
X137991D01*
Y92851D01*
X137967D01*
Y92875D01*
X137943D01*
Y92898D01*
X137920D01*
Y92922D01*
X137896D01*
Y92945D01*
X137873D01*
Y92969D01*
X137849D01*
Y92992D01*
X137826D01*
Y93016D01*
X137802D01*
Y93039D01*
X137779D01*
Y93063D01*
X137755D01*
Y93086D01*
X137732D01*
Y93110D01*
X137708D01*
Y93133D01*
X137685D01*
Y93157D01*
X137661D01*
Y93181D01*
X137638D01*
Y93204D01*
X137614D01*
Y93228D01*
X137591D01*
Y93275D01*
X137567D01*
Y93322D01*
X137543D01*
Y93345D01*
X137520D01*
Y93392D01*
X137473D01*
Y93439D01*
X137426D01*
Y93463D01*
X137402D01*
Y93557D01*
X137355D01*
Y93604D01*
X137308D01*
Y93628D01*
X137285D01*
Y93722D01*
X137261D01*
Y93745D01*
X137238D01*
Y93816D01*
X137214D01*
Y93839D01*
X137191D01*
Y93910D01*
X137167D01*
Y93957D01*
X137120D01*
Y94051D01*
X137097D01*
Y94075D01*
X137073D01*
Y94192D01*
X137049D01*
Y94216D01*
X137026D01*
Y94333D01*
X137002D01*
Y94357D01*
X136979D01*
Y94404D01*
X136955D01*
Y94427D01*
X136979D01*
Y94498D01*
X136955D01*
Y94522D01*
X136932D01*
Y94545D01*
X136908D01*
Y94616D01*
X136932D01*
Y94639D01*
X136908D01*
Y94733D01*
X136885D01*
Y94757D01*
X136861D01*
Y94898D01*
X136885D01*
Y94945D01*
X136861D01*
Y94969D01*
X136838D01*
Y95016D01*
X136814D01*
Y95463D01*
X136791D01*
Y95486D01*
X136767D01*
Y104827D01*
X136791D01*
Y104851D01*
X136814D01*
Y105298D01*
X136838D01*
Y105345D01*
X136861D01*
Y105392D01*
X136885D01*
Y105415D01*
X136861D01*
Y105556D01*
X136885D01*
Y105580D01*
X136908D01*
Y105651D01*
X136932D01*
Y105721D01*
X136908D01*
Y105792D01*
X136955D01*
Y105839D01*
X136979D01*
Y105909D01*
X136955D01*
Y105933D01*
X136979D01*
Y105956D01*
X137002D01*
Y105980D01*
X137026D01*
Y106121D01*
X137049D01*
Y106145D01*
X137073D01*
Y106262D01*
X137097D01*
Y106286D01*
X137120D01*
Y106356D01*
X137144D01*
Y106380D01*
X137167D01*
Y106427D01*
X137191D01*
Y106474D01*
X137214D01*
Y106497D01*
X137238D01*
Y106592D01*
X137285D01*
Y106686D01*
X137308D01*
Y106709D01*
X137332D01*
Y106733D01*
X137355D01*
Y106756D01*
X137379D01*
Y106780D01*
X137402D01*
Y106851D01*
X137426D01*
Y106874D01*
X137449D01*
Y106897D01*
X137473D01*
Y106921D01*
X137497D01*
Y106945D01*
X137520D01*
Y106968D01*
X137543D01*
Y106992D01*
X137567D01*
Y107062D01*
X137591D01*
Y107086D01*
X137614D01*
Y107109D01*
X137638D01*
Y107133D01*
X137661D01*
Y107156D01*
X137685D01*
Y107180D01*
X137708D01*
Y107203D01*
X137732D01*
Y107227D01*
X137755D01*
Y107250D01*
X137779D01*
Y107274D01*
X137802D01*
Y107297D01*
X137826D01*
Y107321D01*
X137849D01*
Y107345D01*
X137873D01*
Y107368D01*
X137896D01*
Y107392D01*
X137920D01*
Y107439D01*
X137967D01*
Y107486D01*
X137991D01*
Y107509D01*
X138038D01*
Y107556D01*
X138132D01*
Y107580D01*
X138155D01*
Y107603D01*
X138179D01*
Y107627D01*
X138202D01*
Y107650D01*
X138226D01*
Y107674D01*
X138249D01*
Y107697D01*
X138273D01*
Y107721D01*
X138367D01*
Y107768D01*
X138438D01*
Y107792D01*
X138485D01*
Y107839D01*
X138532D01*
Y107862D01*
X138579D01*
Y107886D01*
X138602D01*
Y107909D01*
X138696D01*
Y107933D01*
X138720D01*
Y107956D01*
X138791D01*
Y107980D01*
X138814D01*
Y108003D01*
X138838D01*
Y108027D01*
X138885D01*
Y108003D01*
X138908D01*
Y108027D01*
X138932D01*
Y108050D01*
X138955D01*
Y108074D01*
X139073D01*
Y108097D01*
X139096D01*
Y108121D01*
X139238D01*
Y108145D01*
X139261D01*
Y108168D01*
X139308D01*
Y108192D01*
X139355D01*
Y108215D01*
X139379D01*
Y108239D01*
X139543D01*
Y108262D01*
X139567D01*
Y108286D01*
X139755D01*
Y108309D01*
X139779D01*
Y108333D01*
X139802D01*
Y108356D01*
X139873D01*
Y108333D01*
X139896D01*
Y108356D01*
X139920D01*
Y108333D01*
X139943D01*
Y108356D01*
X139991D01*
Y108380D01*
X140014D01*
Y108403D01*
X140249D01*
Y108427D01*
X140273D01*
Y108450D01*
X140602D01*
Y108474D01*
X140626D01*
Y108497D01*
X140649D01*
Y108521D01*
X140696D01*
Y108497D01*
X141214D01*
Y108521D01*
X141261D01*
Y108545D01*
X141285D01*
Y108568D01*
X160884D01*
Y108545D01*
D02*
G37*
G36*
X125638Y114144D02*
X125662D01*
Y114121D01*
X125685D01*
Y114097D01*
X125826D01*
Y114050D01*
X125968D01*
Y114027D01*
X125991D01*
Y114003D01*
X126015D01*
Y113980D01*
X126132D01*
Y113956D01*
X126156D01*
Y113933D01*
X126273D01*
Y113909D01*
X126297D01*
Y113885D01*
X126391D01*
Y113862D01*
X126415D01*
Y113838D01*
X126438D01*
Y113815D01*
X126556D01*
Y113791D01*
X126579D01*
Y113768D01*
X126673D01*
Y113744D01*
X126697D01*
Y113721D01*
X126815D01*
Y113697D01*
X126838D01*
Y113674D01*
X126885D01*
Y113650D01*
X126956D01*
Y113627D01*
X126979D01*
Y113603D01*
X127050D01*
Y113580D01*
X127073D01*
Y113556D01*
X127144D01*
Y113580D01*
X127168D01*
Y113556D01*
X127191D01*
Y113532D01*
X127262D01*
Y113509D01*
X127285D01*
Y113485D01*
X127309D01*
Y113462D01*
X127403D01*
Y113438D01*
X127426D01*
Y113415D01*
X127521D01*
Y113368D01*
X127591D01*
Y113344D01*
X127638D01*
Y113321D01*
X127662D01*
Y113297D01*
X127732D01*
Y113274D01*
X127756D01*
Y113250D01*
X127826D01*
Y113227D01*
X127850D01*
Y113203D01*
X127873D01*
Y113156D01*
X127944D01*
Y113132D01*
X127991D01*
Y113085D01*
X128085D01*
Y113062D01*
X128109D01*
Y113038D01*
X128179D01*
Y113015D01*
X128203D01*
Y112991D01*
X128226D01*
Y112968D01*
X128250D01*
Y112944D01*
X128273D01*
Y112921D01*
X128368D01*
Y112897D01*
X128391D01*
Y112874D01*
X128462D01*
Y112850D01*
X128485D01*
Y112827D01*
X128509D01*
Y112803D01*
X128532D01*
Y112780D01*
X128579D01*
Y112756D01*
X128626D01*
Y112732D01*
X128650D01*
Y112709D01*
X128673D01*
Y112685D01*
X128744D01*
Y112662D01*
X128767D01*
Y112638D01*
X128814D01*
Y112591D01*
X128838D01*
Y112568D01*
X128932D01*
Y112544D01*
X128956D01*
Y112521D01*
X128979D01*
Y112497D01*
X129003D01*
Y112474D01*
X129026D01*
Y112450D01*
X129050D01*
Y112427D01*
X129073D01*
Y112403D01*
X129144D01*
Y112380D01*
X129167D01*
Y112356D01*
X129191D01*
Y112333D01*
X129214D01*
Y112309D01*
X129238D01*
Y112285D01*
X129262D01*
Y112262D01*
X129285D01*
Y112238D01*
X129356D01*
Y112215D01*
X129379D01*
Y112191D01*
X129403D01*
Y112168D01*
X129426D01*
Y112144D01*
X129450D01*
Y112121D01*
X129473D01*
Y112097D01*
X129497D01*
Y112074D01*
X129520D01*
Y112050D01*
X129567D01*
Y112027D01*
X129614D01*
Y112003D01*
X129638D01*
Y111980D01*
X129662D01*
Y111956D01*
X129685D01*
Y111933D01*
X129709D01*
Y111909D01*
X129732D01*
Y111885D01*
X129779D01*
Y111839D01*
X129826D01*
Y111815D01*
X129850D01*
Y111791D01*
X129873D01*
Y111768D01*
X129897D01*
Y111744D01*
X129920D01*
Y111721D01*
X129944D01*
Y111697D01*
X129967D01*
Y111674D01*
X130038D01*
Y111650D01*
X130062D01*
Y111627D01*
X130085D01*
Y111603D01*
X130109D01*
Y111580D01*
X130132D01*
Y111556D01*
X130156D01*
Y111533D01*
X130179D01*
Y111509D01*
X130203D01*
Y111486D01*
X130226D01*
Y111462D01*
X130250D01*
Y111439D01*
X130273D01*
Y111415D01*
X130297D01*
Y111391D01*
X130320D01*
Y111368D01*
X130344D01*
Y111344D01*
X130367D01*
Y111321D01*
X130391D01*
Y111297D01*
X130414D01*
Y111274D01*
X130438D01*
Y111250D01*
X130462D01*
Y111227D01*
X130485D01*
Y111203D01*
X130509D01*
Y111156D01*
X130532D01*
Y111109D01*
X130556D01*
Y111086D01*
X130579D01*
Y111062D01*
X130603D01*
Y111039D01*
X130626D01*
Y111015D01*
X130650D01*
Y110991D01*
X130673D01*
Y110968D01*
X130697D01*
Y110944D01*
X130720D01*
Y110921D01*
X130744D01*
Y110897D01*
X130767D01*
Y110874D01*
X130791D01*
Y110850D01*
X130814D01*
Y110827D01*
X130838D01*
Y110803D01*
X130862D01*
Y110780D01*
X130885D01*
Y110756D01*
X130909D01*
Y110662D01*
X130932D01*
Y110639D01*
X130956D01*
Y110615D01*
X130979D01*
Y110591D01*
X131003D01*
Y110568D01*
X131026D01*
Y110544D01*
X131050D01*
Y110521D01*
X131073D01*
Y110497D01*
X131097D01*
Y110474D01*
X131120D01*
Y110427D01*
X131144D01*
Y110380D01*
X131167D01*
Y110356D01*
X131191D01*
Y110333D01*
X131214D01*
Y110309D01*
X131238D01*
Y110286D01*
X131262D01*
Y110215D01*
X131285D01*
Y110191D01*
X131308D01*
Y110168D01*
X131332D01*
Y110144D01*
X131356D01*
Y110121D01*
X131379D01*
Y110097D01*
X131403D01*
Y110074D01*
X131426D01*
Y109980D01*
X131473D01*
Y109956D01*
X131497D01*
Y109933D01*
X131520D01*
Y109909D01*
X131544D01*
Y109815D01*
X131567D01*
Y109791D01*
X131591D01*
Y109768D01*
X131614D01*
Y109744D01*
X131638D01*
Y109721D01*
X131662D01*
Y109650D01*
X131685D01*
Y109627D01*
X131708D01*
Y109556D01*
X131732D01*
Y109533D01*
X131756D01*
Y109509D01*
X131779D01*
Y109486D01*
X131803D01*
Y109439D01*
X131826D01*
Y109391D01*
X131850D01*
Y109345D01*
X131873D01*
Y109297D01*
X131897D01*
Y109250D01*
X131944D01*
Y109203D01*
X131967D01*
Y109156D01*
X131991D01*
Y109109D01*
X132014D01*
Y109039D01*
X132038D01*
Y109015D01*
X132061D01*
Y108945D01*
X132085D01*
Y108897D01*
X132108D01*
Y108850D01*
X132132D01*
Y108803D01*
X132156D01*
Y108756D01*
X132179D01*
Y108709D01*
X132203D01*
Y108662D01*
X132226D01*
Y108615D01*
X132250D01*
Y108592D01*
X132273D01*
Y108521D01*
X132297D01*
Y108497D01*
X132320D01*
Y108356D01*
X132344D01*
Y108333D01*
X132391D01*
Y108239D01*
X132414D01*
Y108215D01*
X132438D01*
Y108121D01*
X132485D01*
Y108003D01*
X132508D01*
Y107956D01*
X132532D01*
Y107933D01*
X132556D01*
Y107815D01*
X132579D01*
Y107792D01*
X132603D01*
Y107721D01*
X132626D01*
Y107697D01*
X132650D01*
Y107627D01*
Y107603D01*
Y107580D01*
X132673D01*
Y107533D01*
X132697D01*
Y107509D01*
X132720D01*
Y107321D01*
X132744D01*
Y107297D01*
X132767D01*
Y107180D01*
X132791D01*
Y107133D01*
X132814D01*
Y106992D01*
X132838D01*
Y106945D01*
X132861D01*
Y106780D01*
X132885D01*
Y106733D01*
X132908D01*
Y106568D01*
X132932D01*
Y106521D01*
X132956D01*
Y106309D01*
X132979D01*
Y106286D01*
X133003D01*
Y106003D01*
X133026D01*
Y105980D01*
X133050D01*
Y105956D01*
X133073D01*
Y105580D01*
X133050D01*
Y105556D01*
X133073D01*
Y105486D01*
X133097D01*
Y105462D01*
X133120D01*
Y104568D01*
X133097D01*
Y104545D01*
X131708D01*
Y104592D01*
X131685D01*
Y105062D01*
X131662D01*
Y105086D01*
X131638D01*
Y105580D01*
X131614D01*
Y105604D01*
X131591D01*
Y105956D01*
X131567D01*
Y105980D01*
X131544D01*
Y106192D01*
X131520D01*
Y106215D01*
X131497D01*
Y106262D01*
X131473D01*
Y106474D01*
X131450D01*
Y106497D01*
X131426D01*
Y106686D01*
X131403D01*
Y106709D01*
X131379D01*
Y106733D01*
X131356D01*
Y106874D01*
X131332D01*
Y106897D01*
X131308D01*
Y107015D01*
X131285D01*
Y107039D01*
X131262D01*
Y107156D01*
X131238D01*
Y107180D01*
X131214D01*
Y107227D01*
X131191D01*
Y107345D01*
X131167D01*
Y107368D01*
X131144D01*
Y107509D01*
X131120D01*
Y107533D01*
X131097D01*
Y107650D01*
X131073D01*
Y107697D01*
X131050D01*
Y107721D01*
X131026D01*
Y107792D01*
X131003D01*
Y107839D01*
X130979D01*
Y107886D01*
X130956D01*
Y107933D01*
X130932D01*
Y107956D01*
X130909D01*
Y108097D01*
X130885D01*
Y108121D01*
X130862D01*
Y108215D01*
X130838D01*
Y108239D01*
X130791D01*
Y108333D01*
X130767D01*
Y108356D01*
X130744D01*
Y108427D01*
X130720D01*
Y108450D01*
X130697D01*
Y108474D01*
X130673D01*
Y108497D01*
X130650D01*
Y108521D01*
X130626D01*
Y108592D01*
X130603D01*
Y108615D01*
X130579D01*
Y108686D01*
X130556D01*
Y108709D01*
X130532D01*
Y108780D01*
X130509D01*
Y108803D01*
X130485D01*
Y108827D01*
X130462D01*
Y108850D01*
X130438D01*
Y108874D01*
X130414D01*
Y108945D01*
X130391D01*
Y108991D01*
X130367D01*
Y109015D01*
X130344D01*
Y109039D01*
X130320D01*
Y109062D01*
X130297D01*
Y109133D01*
X130273D01*
Y109156D01*
X130250D01*
Y109180D01*
X130226D01*
Y109227D01*
X130203D01*
Y109274D01*
X130179D01*
Y109297D01*
X130156D01*
Y109321D01*
X130132D01*
Y109368D01*
X130085D01*
Y109415D01*
X130062D01*
Y109462D01*
X130038D01*
Y109486D01*
X130014D01*
Y109533D01*
X129967D01*
Y109580D01*
X129920D01*
Y109603D01*
X129897D01*
Y109697D01*
X129850D01*
Y109744D01*
X129826D01*
Y109768D01*
X129803D01*
Y109791D01*
X129779D01*
Y109815D01*
X129732D01*
Y109862D01*
X129709D01*
Y109886D01*
X129685D01*
Y109956D01*
X129662D01*
Y109980D01*
X129638D01*
Y110003D01*
X129614D01*
Y110027D01*
X129591D01*
Y110050D01*
X129567D01*
Y110074D01*
X129544D01*
Y110097D01*
X129520D01*
Y110121D01*
X129497D01*
Y110144D01*
X129473D01*
Y110168D01*
X129450D01*
Y110191D01*
X129426D01*
Y110215D01*
X129403D01*
Y110239D01*
X129379D01*
Y110262D01*
X129356D01*
Y110286D01*
X129332D01*
Y110309D01*
X129309D01*
Y110333D01*
X129285D01*
Y110356D01*
X129262D01*
Y110380D01*
X129238D01*
Y110403D01*
X129214D01*
Y110427D01*
X129191D01*
Y110450D01*
X129167D01*
Y110474D01*
X129144D01*
Y110497D01*
X129120D01*
Y110521D01*
X129097D01*
Y110544D01*
X129073D01*
Y110568D01*
X129050D01*
Y110591D01*
X129026D01*
Y110615D01*
X129003D01*
Y110639D01*
X128979D01*
Y110662D01*
X128956D01*
Y110686D01*
X128932D01*
Y110709D01*
X128909D01*
Y110733D01*
X128885D01*
Y110756D01*
X128862D01*
Y110780D01*
X128838D01*
Y110803D01*
X128814D01*
Y110827D01*
X128791D01*
Y110850D01*
X128767D01*
Y110874D01*
X128697D01*
Y110897D01*
X128673D01*
Y110921D01*
X128650D01*
Y110944D01*
X128626D01*
Y110968D01*
X128603D01*
Y110991D01*
X128579D01*
Y111015D01*
X128556D01*
Y111039D01*
X128532D01*
Y111062D01*
X128509D01*
Y111086D01*
X128485D01*
Y111109D01*
X128438D01*
Y111133D01*
X128391D01*
Y111156D01*
X128344D01*
Y111180D01*
X128320D01*
Y111227D01*
X128273D01*
Y111250D01*
X128250D01*
Y111274D01*
X128226D01*
Y111297D01*
X128203D01*
Y111274D01*
X128179D01*
Y111297D01*
X128156D01*
Y111321D01*
X128132D01*
Y111344D01*
X128109D01*
Y111368D01*
X128085D01*
Y111391D01*
X128062D01*
Y111415D01*
X128038D01*
Y111439D01*
X128015D01*
Y111462D01*
X127944D01*
Y111486D01*
X127921D01*
Y111509D01*
X127897D01*
Y111533D01*
X127873D01*
Y111556D01*
X127826D01*
Y111580D01*
X127779D01*
Y111603D01*
X127756D01*
Y111627D01*
X127732D01*
Y111650D01*
X127685D01*
Y111674D01*
X127638D01*
Y111697D01*
X127615D01*
Y111721D01*
X127591D01*
Y111744D01*
X127568D01*
Y111768D01*
X127497D01*
Y111791D01*
X127473D01*
Y111815D01*
X127379D01*
Y111839D01*
X127356D01*
Y111862D01*
X127332D01*
Y111885D01*
X127309D01*
Y111909D01*
X127285D01*
Y111933D01*
X127191D01*
Y111956D01*
X127168D01*
Y111980D01*
X127097D01*
Y112003D01*
X127073D01*
Y112027D01*
X127003D01*
Y112050D01*
X126979D01*
Y112074D01*
X126909D01*
Y112097D01*
X126885D01*
Y112121D01*
X126815D01*
Y112144D01*
X126791D01*
Y112168D01*
X126768D01*
Y112191D01*
X126673D01*
Y112238D01*
X126579D01*
Y112262D01*
X126556D01*
Y112285D01*
X126532D01*
Y112309D01*
X126509D01*
Y112285D01*
X126485D01*
Y112309D01*
X126462D01*
Y112333D01*
X126438D01*
Y112356D01*
X126344D01*
Y112403D01*
X126203D01*
Y112427D01*
X126179D01*
Y112450D01*
X126132D01*
Y112474D01*
X126085D01*
Y112497D01*
X126038D01*
Y112521D01*
X125991D01*
Y112544D01*
X125968D01*
Y112568D01*
X125826D01*
Y112615D01*
X125685D01*
Y112638D01*
X125662D01*
Y112662D01*
X125521D01*
Y112685D01*
X125497D01*
Y112709D01*
X125379D01*
Y112732D01*
X125356D01*
Y112756D01*
X125215D01*
Y112780D01*
X125191D01*
Y112803D01*
X125168D01*
Y112827D01*
X125144D01*
Y112968D01*
X125168D01*
Y113015D01*
X125191D01*
Y113132D01*
X125215D01*
Y113156D01*
X125238D01*
Y113274D01*
X125262D01*
Y113321D01*
X125285D01*
Y113368D01*
X125309D01*
Y113415D01*
X125332D01*
Y113532D01*
X125356D01*
Y113556D01*
X125379D01*
Y113674D01*
X125403D01*
Y113697D01*
X125427D01*
Y113744D01*
X125450D01*
Y113862D01*
X125473D01*
Y113885D01*
X125497D01*
Y114027D01*
X125521D01*
Y114050D01*
X125544D01*
Y114097D01*
X125568D01*
Y114144D01*
X125591D01*
Y114168D01*
X125638D01*
Y114144D01*
D02*
G37*
G36*
X124885Y112074D02*
X124932D01*
Y112027D01*
X125097D01*
Y111980D01*
X125238D01*
Y111956D01*
X125262D01*
Y111933D01*
X125379D01*
Y111909D01*
X125403D01*
Y111885D01*
X125544D01*
Y111862D01*
X125568D01*
Y111839D01*
X125638D01*
Y111815D01*
X125662D01*
Y111791D01*
X125685D01*
Y111768D01*
X125756D01*
Y111791D01*
X125803D01*
Y111768D01*
X125826D01*
Y111744D01*
X125850D01*
Y111721D01*
X125921D01*
Y111697D01*
X125944D01*
Y111674D01*
X126015D01*
Y111650D01*
X126038D01*
Y111627D01*
X126109D01*
Y111603D01*
X126132D01*
Y111580D01*
X126179D01*
Y111556D01*
X126226D01*
Y111533D01*
X126250D01*
Y111509D01*
X126320D01*
Y111486D01*
X126344D01*
Y111462D01*
X126438D01*
Y111439D01*
X126462D01*
Y111391D01*
X126556D01*
Y111368D01*
X126579D01*
Y111344D01*
X126673D01*
Y111297D01*
X126721D01*
Y111274D01*
X126791D01*
Y111250D01*
X126815D01*
Y111227D01*
X126885D01*
Y111203D01*
X126909D01*
Y111180D01*
X126932D01*
Y111156D01*
X126979D01*
Y111133D01*
X127026D01*
Y111109D01*
X127050D01*
Y111086D01*
X127073D01*
Y111062D01*
X127097D01*
Y111039D01*
X127168D01*
Y111015D01*
X127191D01*
Y110991D01*
X127285D01*
Y110968D01*
X127309D01*
Y110944D01*
X127332D01*
Y110921D01*
X127356D01*
Y110897D01*
X127379D01*
Y110874D01*
X127403D01*
Y110850D01*
X127426D01*
Y110827D01*
X127521D01*
Y110780D01*
X127544D01*
Y110756D01*
X127568D01*
Y110733D01*
X127591D01*
Y110709D01*
X127685D01*
Y110662D01*
X127709D01*
Y110639D01*
X127732D01*
Y110615D01*
X127756D01*
Y110591D01*
X127779D01*
Y110568D01*
X127803D01*
Y110544D01*
X127826D01*
Y110521D01*
X127850D01*
Y110497D01*
X127921D01*
Y110474D01*
X127944D01*
Y110450D01*
X127968D01*
Y110427D01*
X127991D01*
Y110403D01*
X128015D01*
Y110380D01*
X128038D01*
Y110356D01*
X128062D01*
Y110333D01*
X128085D01*
Y110309D01*
X128132D01*
Y110262D01*
X128179D01*
Y110239D01*
X128250D01*
Y110215D01*
X128273D01*
Y110191D01*
X128297D01*
Y110168D01*
X128320D01*
Y110144D01*
X128344D01*
Y110121D01*
X128368D01*
Y110097D01*
X128391D01*
Y110074D01*
X128415D01*
Y110050D01*
X128438D01*
Y110027D01*
X128462D01*
Y110003D01*
X128485D01*
Y109980D01*
X128509D01*
Y109956D01*
X128532D01*
Y109933D01*
X128556D01*
Y109909D01*
X128579D01*
Y109886D01*
X128603D01*
Y109862D01*
X128626D01*
Y109839D01*
X128650D01*
Y109815D01*
X128673D01*
Y109791D01*
X128697D01*
Y109768D01*
X128720D01*
Y109744D01*
X128744D01*
Y109721D01*
X128767D01*
Y109697D01*
X128791D01*
Y109674D01*
X128814D01*
Y109627D01*
X128838D01*
Y109580D01*
X128862D01*
Y109556D01*
X128885D01*
Y109533D01*
X128909D01*
Y109509D01*
X128932D01*
Y109486D01*
X128956D01*
Y109462D01*
X128979D01*
Y109439D01*
X129003D01*
Y109415D01*
X129026D01*
Y109391D01*
X129050D01*
Y109368D01*
X129073D01*
Y109345D01*
X129097D01*
Y109274D01*
X129120D01*
Y109250D01*
X129144D01*
Y109227D01*
X129167D01*
Y109203D01*
X129191D01*
Y109180D01*
X129214D01*
Y109156D01*
X129238D01*
Y109133D01*
X129262D01*
Y109109D01*
X129285D01*
Y109086D01*
X129309D01*
Y109062D01*
X129332D01*
Y108968D01*
X129356D01*
Y108945D01*
X129379D01*
Y108921D01*
X129403D01*
Y108897D01*
X129426D01*
Y108850D01*
X129450D01*
Y108803D01*
X129473D01*
Y108780D01*
X129497D01*
Y108756D01*
X129520D01*
Y108709D01*
X129544D01*
Y108662D01*
X129567D01*
Y108639D01*
X129591D01*
Y108615D01*
X129614D01*
Y108545D01*
X129638D01*
Y108521D01*
X129662D01*
Y108474D01*
X129685D01*
Y108450D01*
X129732D01*
Y108356D01*
X129756D01*
Y108333D01*
X129779D01*
Y108262D01*
X129803D01*
Y108239D01*
X129826D01*
Y108215D01*
X129850D01*
Y108121D01*
X129897D01*
Y108027D01*
X129920D01*
Y108003D01*
X129944D01*
Y107980D01*
X129967D01*
Y107909D01*
X129991D01*
Y107886D01*
X130014D01*
Y107815D01*
X130038D01*
Y107792D01*
X130062D01*
Y107721D01*
X130085D01*
Y107697D01*
X130109D01*
Y107650D01*
X130132D01*
Y107603D01*
X130156D01*
Y107580D01*
X130179D01*
Y107509D01*
X130203D01*
Y107462D01*
X130226D01*
Y107392D01*
X130250D01*
Y107368D01*
X130273D01*
Y107274D01*
X130297D01*
Y107203D01*
X130320D01*
Y107156D01*
X130344D01*
Y107062D01*
X130367D01*
Y106968D01*
X130391D01*
Y106921D01*
X130414D01*
Y106803D01*
X130438D01*
Y106756D01*
X130462D01*
Y106709D01*
X130485D01*
Y106615D01*
X130509D01*
Y106568D01*
X130532D01*
Y106403D01*
X130556D01*
Y106380D01*
X130579D01*
Y106192D01*
X130603D01*
Y106168D01*
X130626D01*
Y105933D01*
X130650D01*
Y105909D01*
X130673D01*
Y105886D01*
X130697D01*
Y105556D01*
X130720D01*
Y105533D01*
X130744D01*
Y104968D01*
X130767D01*
Y104945D01*
X130791D01*
Y104921D01*
X130814D01*
Y104874D01*
X130791D01*
Y104686D01*
X130814D01*
Y104662D01*
X130791D01*
Y104592D01*
X130767D01*
Y104568D01*
X130744D01*
Y104545D01*
X128532D01*
Y104568D01*
X128509D01*
Y104592D01*
X128485D01*
Y104639D01*
X128462D01*
Y105204D01*
X128438D01*
Y105251D01*
X128415D01*
Y105509D01*
X128391D01*
Y105533D01*
X128368D01*
Y105792D01*
X128344D01*
Y105815D01*
X128320D01*
Y106003D01*
X128297D01*
Y106027D01*
X128273D01*
Y106051D01*
X128250D01*
Y106168D01*
X128226D01*
Y106192D01*
X128203D01*
Y106309D01*
X128179D01*
Y106333D01*
X128156D01*
Y106474D01*
X128132D01*
Y106497D01*
X128109D01*
Y106521D01*
X128085D01*
Y106592D01*
X128062D01*
Y106615D01*
X128038D01*
Y106756D01*
X128015D01*
Y106780D01*
X127991D01*
Y106803D01*
X127968D01*
Y106874D01*
X127944D01*
Y106897D01*
X127921D01*
Y106968D01*
X127897D01*
Y106992D01*
X127873D01*
Y107062D01*
X127850D01*
Y107109D01*
X127826D01*
Y107156D01*
X127803D01*
Y107203D01*
X127779D01*
Y107250D01*
X127756D01*
Y107297D01*
X127732D01*
Y107321D01*
X127709D01*
Y107345D01*
X127685D01*
Y107392D01*
X127662D01*
Y107439D01*
X127638D01*
Y107462D01*
X127615D01*
Y107486D01*
X127591D01*
Y107533D01*
X127568D01*
Y107580D01*
X127544D01*
Y107627D01*
X127521D01*
Y107650D01*
X127497D01*
Y107674D01*
X127473D01*
Y107721D01*
X127450D01*
Y107768D01*
X127426D01*
Y107792D01*
X127403D01*
Y107815D01*
X127379D01*
Y107839D01*
X127332D01*
Y107862D01*
X127309D01*
Y107933D01*
X127285D01*
Y107956D01*
X127262D01*
Y107980D01*
X127238D01*
Y108003D01*
X127215D01*
Y108027D01*
X127191D01*
Y108050D01*
X127168D01*
Y108074D01*
X127144D01*
Y108121D01*
X127097D01*
Y108145D01*
X127073D01*
Y108192D01*
X127050D01*
Y108215D01*
X127026D01*
Y108286D01*
X127003D01*
Y108309D01*
X126979D01*
Y108333D01*
X126956D01*
Y108356D01*
X126932D01*
Y108380D01*
X126909D01*
Y108403D01*
X126885D01*
Y108427D01*
X126862D01*
Y108450D01*
X126838D01*
Y108474D01*
X126815D01*
Y108497D01*
X126791D01*
Y108521D01*
X126768D01*
Y108545D01*
X126744D01*
Y108568D01*
X126721D01*
Y108592D01*
X126697D01*
Y108615D01*
X126673D01*
Y108639D01*
X126650D01*
Y108662D01*
X126626D01*
Y108639D01*
X126603D01*
Y108662D01*
X126579D01*
Y108686D01*
X126556D01*
Y108709D01*
X126532D01*
Y108733D01*
X126509D01*
Y108756D01*
X126462D01*
Y108803D01*
X126415D01*
Y108827D01*
X126391D01*
Y108850D01*
X126368D01*
Y108874D01*
X126344D01*
Y108897D01*
X126320D01*
Y108921D01*
X126250D01*
Y108945D01*
X126226D01*
Y108968D01*
X126203D01*
Y108991D01*
X126179D01*
Y109015D01*
X126156D01*
Y109039D01*
X126132D01*
Y109062D01*
X126109D01*
Y109086D01*
X126062D01*
Y109109D01*
X126038D01*
Y109133D01*
X125991D01*
Y109180D01*
X125968D01*
Y109203D01*
X125944D01*
Y109227D01*
X125897D01*
Y109250D01*
X125826D01*
Y109297D01*
X125732D01*
Y109321D01*
X125709D01*
Y109345D01*
X125685D01*
Y109368D01*
X125662D01*
Y109391D01*
X125568D01*
Y109415D01*
X125544D01*
Y109439D01*
X125521D01*
Y109462D01*
X125450D01*
Y109486D01*
X125427D01*
Y109509D01*
X125403D01*
Y109533D01*
X125356D01*
Y109556D01*
X125309D01*
Y109580D01*
X125238D01*
Y109603D01*
X125215D01*
Y109627D01*
X125191D01*
Y109650D01*
X125050D01*
Y109674D01*
X125027D01*
Y109697D01*
X124956D01*
Y109721D01*
X124932D01*
Y109744D01*
X124909D01*
Y109768D01*
X124815D01*
Y109815D01*
X124674D01*
Y109839D01*
X124650D01*
Y109862D01*
X124603D01*
Y109886D01*
X124556D01*
Y109909D01*
X124532D01*
Y109933D01*
X124415D01*
Y109956D01*
X124391D01*
Y109980D01*
X124250D01*
Y110027D01*
X124156D01*
Y110050D01*
X124132D01*
Y110121D01*
X124156D01*
Y110144D01*
X124179D01*
Y110168D01*
X124203D01*
Y110286D01*
X124227D01*
Y110333D01*
X124250D01*
Y110450D01*
X124274D01*
Y110474D01*
X124297D01*
Y110591D01*
X124321D01*
Y110615D01*
X124344D01*
Y110686D01*
X124368D01*
Y110733D01*
X124391D01*
Y110850D01*
X124415D01*
Y110897D01*
X124438D01*
Y110991D01*
X124462D01*
Y111039D01*
X124485D01*
Y111133D01*
X124509D01*
Y111180D01*
X124532D01*
Y111297D01*
X124556D01*
Y111321D01*
X124579D01*
Y111368D01*
X124603D01*
Y111486D01*
X124627D01*
Y111509D01*
X124650D01*
Y111603D01*
X124674D01*
Y111627D01*
X124697D01*
Y111721D01*
X124721D01*
Y111768D01*
X124744D01*
Y111791D01*
X124768D01*
Y111909D01*
X124791D01*
Y111933D01*
X124815D01*
Y112074D01*
X124862D01*
Y112097D01*
X124885D01*
Y112074D01*
D02*
G37*
G36*
X109168Y91769D02*
X104345D01*
Y91792D01*
X104322D01*
Y91816D01*
X103827D01*
Y91839D01*
X103804D01*
Y91863D01*
X103451D01*
Y91887D01*
X103427D01*
Y91910D01*
X103404D01*
Y91933D01*
X103169D01*
Y91957D01*
X103145D01*
Y91981D01*
X102957D01*
Y92028D01*
X102816D01*
Y92051D01*
X102792D01*
Y92075D01*
X102769D01*
Y92098D01*
X102580D01*
Y92122D01*
X102557D01*
Y92145D01*
X102486D01*
Y92169D01*
X102463D01*
Y92192D01*
X102345D01*
Y92216D01*
X102298D01*
Y92239D01*
X102275D01*
Y92263D01*
X102204D01*
Y92286D01*
X102181D01*
Y92310D01*
X102063D01*
Y92333D01*
X102039D01*
Y92357D01*
X101969D01*
Y92381D01*
X101945D01*
Y92404D01*
X101851D01*
Y92428D01*
X101828D01*
Y92451D01*
X101804D01*
Y92475D01*
X101734D01*
Y92498D01*
X101710D01*
Y92522D01*
X101616D01*
Y92545D01*
X101592D01*
Y92592D01*
X101545D01*
Y92616D01*
X101498D01*
Y92639D01*
X101451D01*
Y92663D01*
X101381D01*
Y92686D01*
X101357D01*
Y92710D01*
X101334D01*
Y92733D01*
X101310D01*
Y92757D01*
X101239D01*
Y92781D01*
X101216D01*
Y92804D01*
X101192D01*
Y92828D01*
X101169D01*
Y92851D01*
X101145D01*
Y92875D01*
X101122D01*
Y92898D01*
X101098D01*
Y92922D01*
X101075D01*
Y92945D01*
X101004D01*
Y92969D01*
X100981D01*
Y92992D01*
X100957D01*
Y93016D01*
X100934D01*
Y93039D01*
X100910D01*
Y93063D01*
X100886D01*
Y93086D01*
X100863D01*
Y93110D01*
X100769D01*
Y93157D01*
X100722D01*
Y93181D01*
X100698D01*
Y93204D01*
X100675D01*
Y93228D01*
X100651D01*
Y93275D01*
X100604D01*
Y93298D01*
X100581D01*
Y93322D01*
X100557D01*
Y93345D01*
X100534D01*
Y93369D01*
X100510D01*
Y93392D01*
X100486D01*
Y93439D01*
X100439D01*
Y93463D01*
X100416D01*
Y93486D01*
X100392D01*
Y93510D01*
X100369D01*
Y93557D01*
X100322D01*
Y93581D01*
X100298D01*
Y93604D01*
X100275D01*
Y93628D01*
X100251D01*
Y93651D01*
X100228D01*
Y93675D01*
X100204D01*
Y93698D01*
X100181D01*
Y93722D01*
X100157D01*
Y93745D01*
X100133D01*
Y93769D01*
X100110D01*
Y93792D01*
X100086D01*
Y93839D01*
X100039D01*
Y93863D01*
X100016D01*
Y93886D01*
X99992D01*
Y93910D01*
X99969D01*
Y93933D01*
X99945D01*
Y93957D01*
X99922D01*
Y93981D01*
X99898D01*
Y94004D01*
X99875D01*
Y94028D01*
X99851D01*
Y94075D01*
X99828D01*
Y94122D01*
X99804D01*
Y94169D01*
X99757D01*
Y94216D01*
X99733D01*
Y94239D01*
X99710D01*
Y94263D01*
X99686D01*
Y94286D01*
X99639D01*
Y94333D01*
X99616D01*
Y94357D01*
X99592D01*
Y94381D01*
X99569D01*
Y94404D01*
X99522D01*
Y94498D01*
X99498D01*
Y94522D01*
X99475D01*
Y94545D01*
X99451D01*
Y94569D01*
X99428D01*
Y94592D01*
X99404D01*
Y94616D01*
X99381D01*
Y94639D01*
X99357D01*
Y94663D01*
X99334D01*
Y94686D01*
X99310D01*
Y94710D01*
X99286D01*
Y94733D01*
X99263D01*
Y94757D01*
X99240D01*
Y94780D01*
X99216D01*
Y94804D01*
X99192D01*
Y94875D01*
X99169D01*
Y94898D01*
X99145D01*
Y94922D01*
X99122D01*
Y94945D01*
X99098D01*
Y94969D01*
X99075D01*
Y94992D01*
X99051D01*
Y95016D01*
X99028D01*
Y95039D01*
X99004D01*
Y95063D01*
X98981D01*
Y95086D01*
X98957D01*
Y95110D01*
X98934D01*
Y95133D01*
X98910D01*
Y95157D01*
X98886D01*
Y95227D01*
X98863D01*
Y95251D01*
X98840D01*
Y95298D01*
X98792D01*
Y95345D01*
X98769D01*
Y95369D01*
X98745D01*
Y95392D01*
X98722D01*
Y95416D01*
X98675D01*
Y95463D01*
X98651D01*
Y95486D01*
X98628D01*
Y95510D01*
X98604D01*
Y95533D01*
X98581D01*
Y95557D01*
X98557D01*
Y95627D01*
X98534D01*
Y95651D01*
X98510D01*
Y95674D01*
X98486D01*
Y95698D01*
X98440D01*
Y95745D01*
X98392D01*
Y95769D01*
X98369D01*
Y95792D01*
X98345D01*
Y95816D01*
X98322D01*
Y95839D01*
X98298D01*
Y95863D01*
X98275D01*
Y95886D01*
X98251D01*
Y95957D01*
X98228D01*
Y96004D01*
X98204D01*
Y96027D01*
X98181D01*
Y96051D01*
X98157D01*
Y96074D01*
X98134D01*
Y96098D01*
X98110D01*
Y96122D01*
X98087D01*
Y96145D01*
X98063D01*
Y96169D01*
X98040D01*
Y96192D01*
X98016D01*
Y96216D01*
X97992D01*
Y96239D01*
X97969D01*
Y96263D01*
X97945D01*
Y96310D01*
X97922D01*
Y96357D01*
X97898D01*
Y96380D01*
X97875D01*
Y96404D01*
X97851D01*
Y96427D01*
X97828D01*
Y96451D01*
X97804D01*
Y96475D01*
X97781D01*
Y96498D01*
X97757D01*
Y96522D01*
X97734D01*
Y96545D01*
X97710D01*
Y96569D01*
X97687D01*
Y96592D01*
X97663D01*
Y96616D01*
X97640D01*
Y96639D01*
X97616D01*
Y96686D01*
X97592D01*
Y96733D01*
X97569D01*
Y96757D01*
X97545D01*
Y96780D01*
X97522D01*
Y96804D01*
X97498D01*
Y96827D01*
X97475D01*
Y96851D01*
X97451D01*
Y96875D01*
X97428D01*
Y96898D01*
X97404D01*
Y96922D01*
X97381D01*
Y96945D01*
X97357D01*
Y96969D01*
X97334D01*
Y96992D01*
X97310D01*
Y97016D01*
X97287D01*
Y97110D01*
X97263D01*
Y97133D01*
X97240D01*
Y97157D01*
X97216D01*
Y97180D01*
X97192D01*
Y97204D01*
X97169D01*
Y97227D01*
X97145D01*
Y97251D01*
X97122D01*
Y97274D01*
X97098D01*
Y97298D01*
X97075D01*
Y97322D01*
X97051D01*
Y97345D01*
X97004D01*
Y97392D01*
X96981D01*
Y97439D01*
X96957D01*
Y97463D01*
X96934D01*
Y97486D01*
X96910D01*
Y97510D01*
X96887D01*
Y97533D01*
X96863D01*
Y97557D01*
X96840D01*
Y97580D01*
X96816D01*
Y97604D01*
X96792D01*
Y97627D01*
X96769D01*
Y97651D01*
X96746D01*
Y97674D01*
X96722D01*
Y97698D01*
X96698D01*
Y97722D01*
X96675D01*
Y97745D01*
X96651D01*
Y97839D01*
X96628D01*
Y97863D01*
X96604D01*
Y97886D01*
X96581D01*
Y97910D01*
X96557D01*
Y97933D01*
X96534D01*
Y97957D01*
X96510D01*
Y97980D01*
X96487D01*
Y98004D01*
X96463D01*
Y98027D01*
X96440D01*
Y98051D01*
X96416D01*
Y98074D01*
X96392D01*
Y98098D01*
X96369D01*
Y98145D01*
X96346D01*
Y98192D01*
X96322D01*
Y98216D01*
X96298D01*
Y98239D01*
X96275D01*
Y98263D01*
X96251D01*
Y98286D01*
X96228D01*
Y98310D01*
X96204D01*
Y98333D01*
X96181D01*
Y98357D01*
X96157D01*
Y98380D01*
X96134D01*
Y98404D01*
X96110D01*
Y98427D01*
X96087D01*
Y98451D01*
X96063D01*
Y98474D01*
X96040D01*
Y98498D01*
X96016D01*
Y98568D01*
X95992D01*
Y98592D01*
X95969D01*
Y98616D01*
X95946D01*
Y98639D01*
X95922D01*
Y98663D01*
X95898D01*
Y98686D01*
X95875D01*
Y98710D01*
X95851D01*
Y98733D01*
X95828D01*
Y98757D01*
X95804D01*
Y98780D01*
X95781D01*
Y98804D01*
X95757D01*
Y98827D01*
X95734D01*
Y98874D01*
X95710D01*
Y98898D01*
X95687D01*
Y98968D01*
X95640D01*
Y99016D01*
X95616D01*
Y99039D01*
X95569D01*
Y99086D01*
X95522D01*
Y99133D01*
X95475D01*
Y99157D01*
X95451D01*
Y99204D01*
X95404D01*
Y99298D01*
X95381D01*
Y99321D01*
X95357D01*
Y99345D01*
X95334D01*
Y99368D01*
X95310D01*
Y99392D01*
X95287D01*
Y99416D01*
X95263D01*
Y99439D01*
X95240D01*
Y99463D01*
X95216D01*
Y99486D01*
X95193D01*
Y99510D01*
X95169D01*
Y99533D01*
X95146D01*
Y99557D01*
X95122D01*
Y99580D01*
X95098D01*
Y99604D01*
X95075D01*
Y99627D01*
X95051D01*
Y99698D01*
X95028D01*
Y99721D01*
X95004D01*
Y99745D01*
X94981D01*
Y99768D01*
X94957D01*
Y99792D01*
X94934D01*
Y99816D01*
X94910D01*
Y99839D01*
X94887D01*
Y99863D01*
X94863D01*
Y99886D01*
X94840D01*
Y99910D01*
X94816D01*
Y99933D01*
X94793D01*
Y99957D01*
X94769D01*
Y100027D01*
X94746D01*
Y100051D01*
X94722D01*
Y100074D01*
X94698D01*
Y100098D01*
X94675D01*
Y100121D01*
X94651D01*
Y100145D01*
X94628D01*
Y100168D01*
X94604D01*
Y100216D01*
X94557D01*
Y100262D01*
X94510D01*
Y100286D01*
X94487D01*
Y100333D01*
X94440D01*
Y100427D01*
X94416D01*
Y100451D01*
X94393D01*
Y100474D01*
X94369D01*
Y100498D01*
X94322D01*
Y100545D01*
X94275D01*
Y100568D01*
X94251D01*
Y100592D01*
X94228D01*
Y100616D01*
X94204D01*
Y100639D01*
X94181D01*
Y100662D01*
X94157D01*
Y100686D01*
X94134D01*
Y100733D01*
X94110D01*
Y100780D01*
X94087D01*
Y100804D01*
X94063D01*
Y100827D01*
X94040D01*
Y100874D01*
X94016D01*
Y100898D01*
X93993D01*
Y100921D01*
X93969D01*
Y100945D01*
X93946D01*
Y100968D01*
X93922D01*
Y100992D01*
X93898D01*
Y101015D01*
X93875D01*
Y101039D01*
X93851D01*
Y101062D01*
X93828D01*
Y101086D01*
X93804D01*
Y101157D01*
X93781D01*
Y101180D01*
X93757D01*
Y101204D01*
X93734D01*
Y101227D01*
X93710D01*
Y101251D01*
X93687D01*
Y101274D01*
X93663D01*
Y101298D01*
X93640D01*
Y101321D01*
X93616D01*
Y101345D01*
X93593D01*
Y101368D01*
X93569D01*
Y101392D01*
X93546D01*
Y101415D01*
X93522D01*
Y101439D01*
X93498D01*
Y101462D01*
X93475D01*
Y101533D01*
X93451D01*
Y101557D01*
X93428D01*
Y101580D01*
X93404D01*
Y101604D01*
X93381D01*
Y101627D01*
X93357D01*
Y101651D01*
X93334D01*
Y101674D01*
X93310D01*
Y101698D01*
X93287D01*
Y101721D01*
X93263D01*
Y101745D01*
X93240D01*
Y101768D01*
X93216D01*
Y101792D01*
X93193D01*
Y101815D01*
X93169D01*
Y101910D01*
X93122D01*
Y101933D01*
X93099D01*
Y101957D01*
X93075D01*
Y102004D01*
X93052D01*
Y102027D01*
X93028D01*
Y102051D01*
X93004D01*
Y102074D01*
X92981D01*
Y102098D01*
X92957D01*
Y102121D01*
X92934D01*
Y102145D01*
X92887D01*
Y102192D01*
X92863D01*
Y102239D01*
X92840D01*
Y102262D01*
X92816D01*
Y102286D01*
X92793D01*
Y102310D01*
X92769D01*
Y102333D01*
X92746D01*
Y102357D01*
X92722D01*
Y102380D01*
X92699D01*
Y102404D01*
X92675D01*
Y102427D01*
X92652D01*
Y102451D01*
X92628D01*
Y102474D01*
X92605D01*
Y102498D01*
X92581D01*
Y102521D01*
X92557D01*
Y102545D01*
X92534D01*
Y102639D01*
X92510D01*
Y102662D01*
X92463D01*
Y102710D01*
X92440D01*
Y102733D01*
X92416D01*
Y102757D01*
X92393D01*
Y102780D01*
X92369D01*
Y102804D01*
X92346D01*
Y102827D01*
X92322D01*
Y102851D01*
X92299D01*
Y102874D01*
X92275D01*
Y102898D01*
X92252D01*
Y102921D01*
X92228D01*
Y102992D01*
X92205D01*
Y103015D01*
X92181D01*
Y103039D01*
X92157D01*
Y103062D01*
X92134D01*
Y103086D01*
X92110D01*
Y103110D01*
X92087D01*
Y103133D01*
X92063D01*
Y103156D01*
X92040D01*
Y103180D01*
X92016D01*
Y103204D01*
X91993D01*
Y103227D01*
X91969D01*
Y103251D01*
X91946D01*
Y103274D01*
X91899D01*
Y103368D01*
X91875D01*
Y103392D01*
X91852D01*
Y103415D01*
X91828D01*
Y103439D01*
X91805D01*
Y103462D01*
X91781D01*
Y103486D01*
X91757D01*
Y103509D01*
X91734D01*
Y103533D01*
X91710D01*
Y103556D01*
X91687D01*
Y103580D01*
X91663D01*
Y103604D01*
X91640D01*
Y103627D01*
X91616D01*
Y103651D01*
X91593D01*
Y103674D01*
X91569D01*
Y103698D01*
X91546D01*
Y103721D01*
X91522D01*
Y103745D01*
X91499D01*
Y103768D01*
X91475D01*
Y103792D01*
X91428D01*
Y103815D01*
X91381D01*
Y103839D01*
X91357D01*
Y103862D01*
X91334D01*
Y103886D01*
X91310D01*
Y103909D01*
X91287D01*
Y103933D01*
X91263D01*
Y103956D01*
X91240D01*
Y103980D01*
X91216D01*
Y104003D01*
X91122D01*
Y104027D01*
X91099D01*
Y104051D01*
X91075D01*
Y104074D01*
X91052D01*
Y104098D01*
X91028D01*
Y104121D01*
X90957D01*
Y104145D01*
X90934D01*
Y104168D01*
X90910D01*
Y104192D01*
X90887D01*
Y104215D01*
X90840D01*
Y104239D01*
X90793D01*
Y104262D01*
X90769D01*
Y104286D01*
X90699D01*
Y104309D01*
X90675D01*
Y104333D01*
X90605D01*
Y104356D01*
X90581D01*
Y104380D01*
X90510D01*
Y104403D01*
X90487D01*
Y104427D01*
X90463D01*
Y104451D01*
X90322D01*
Y104474D01*
X90299D01*
Y104498D01*
X90157D01*
Y104521D01*
X90134D01*
Y104545D01*
X89922D01*
Y104568D01*
X89875D01*
Y104592D01*
X89311D01*
Y91792D01*
X89287D01*
Y91769D01*
X85311D01*
Y91816D01*
X85287D01*
Y100098D01*
X85311D01*
Y100145D01*
X85287D01*
Y100168D01*
X85264D01*
Y100145D01*
X85240D01*
Y100121D01*
X85217D01*
Y100098D01*
X83028D01*
Y96686D01*
X83005D01*
Y96663D01*
X82981D01*
Y96616D01*
X82934D01*
Y96592D01*
X82911D01*
Y96569D01*
X82723D01*
Y96592D01*
X82699D01*
Y96616D01*
X82676D01*
Y96639D01*
X82652D01*
Y100145D01*
X82581D01*
Y100121D01*
X82558D01*
Y100098D01*
X82487D01*
Y100074D01*
X82464D01*
Y100051D01*
X82417D01*
Y100027D01*
X82370D01*
Y100004D01*
X82323D01*
Y99980D01*
X82275D01*
Y99957D01*
X82252D01*
Y99933D01*
X82181D01*
Y99910D01*
X82158D01*
Y99886D01*
X82087D01*
Y99863D01*
X82064D01*
Y99839D01*
X81993D01*
Y99816D01*
X81946D01*
Y99792D01*
X81923D01*
Y99768D01*
X81852D01*
Y99745D01*
X81828D01*
Y99721D01*
X81758D01*
Y99698D01*
X81711D01*
Y99674D01*
X81664D01*
Y99651D01*
X81593D01*
Y99627D01*
X81570D01*
Y99604D01*
X81546D01*
Y99580D01*
X81523D01*
Y99557D01*
X81499D01*
Y99533D01*
X81405D01*
Y99510D01*
X81382D01*
Y99486D01*
X81311D01*
Y99463D01*
X81287D01*
Y99439D01*
X81264D01*
Y99416D01*
X81170D01*
Y99368D01*
X81076D01*
Y99345D01*
X81052D01*
Y99321D01*
X80982D01*
Y99298D01*
X80958D01*
Y99274D01*
X80934D01*
Y99251D01*
X80864D01*
Y99227D01*
X80840D01*
Y99204D01*
X80770D01*
Y99180D01*
X80746D01*
Y99157D01*
X80699D01*
Y99133D01*
X80652D01*
Y99110D01*
X80605D01*
Y99086D01*
X80558D01*
Y99063D01*
X80511D01*
Y99039D01*
X80440D01*
Y99016D01*
X80417D01*
Y98992D01*
X80346D01*
Y98968D01*
X80323D01*
Y98945D01*
X80276D01*
Y98921D01*
X80205D01*
Y98898D01*
X80182D01*
Y98874D01*
X80111D01*
Y98851D01*
X80064D01*
Y98827D01*
X80017D01*
Y98804D01*
X79970D01*
Y98780D01*
X79923D01*
Y98757D01*
X79852D01*
Y98733D01*
X79829D01*
Y98710D01*
X79805D01*
Y98686D01*
X79711D01*
Y98663D01*
X79687D01*
Y98639D01*
X79617D01*
Y98616D01*
X79593D01*
Y98592D01*
X79570D01*
Y98568D01*
X79476D01*
Y98521D01*
X79382D01*
Y98498D01*
X79358D01*
Y98474D01*
X79287D01*
Y98451D01*
X79264D01*
Y98427D01*
X79240D01*
Y98404D01*
X79170D01*
Y98380D01*
X79146D01*
Y98357D01*
X79076D01*
Y98333D01*
X79052D01*
Y98310D01*
X79005D01*
Y98286D01*
X78958D01*
Y98263D01*
X78911D01*
Y98239D01*
X78864D01*
Y98216D01*
X78817D01*
Y98192D01*
X78746D01*
Y98145D01*
X78699D01*
Y98122D01*
X78676D01*
Y98098D01*
X78605D01*
Y98074D01*
X78558D01*
Y98051D01*
X78511D01*
Y98027D01*
X78464D01*
Y98004D01*
X78417D01*
Y97980D01*
X78370D01*
Y97957D01*
X78323D01*
Y97933D01*
X78276D01*
Y97910D01*
X78205D01*
Y97886D01*
X78182D01*
Y97863D01*
X78158D01*
Y97839D01*
X78064D01*
Y97792D01*
X77970D01*
Y97768D01*
X77946D01*
Y97745D01*
X77923D01*
Y97722D01*
X77899D01*
Y97745D01*
X77876D01*
Y97722D01*
X77852D01*
Y97698D01*
X77829D01*
Y97674D01*
X77735D01*
Y97627D01*
X77641D01*
Y97604D01*
X77617D01*
Y97580D01*
X77593D01*
Y97557D01*
X77523D01*
Y97533D01*
X77499D01*
Y97510D01*
X77429D01*
Y97486D01*
X77405D01*
Y97463D01*
X77358D01*
Y97439D01*
X77311D01*
Y97416D01*
X77264D01*
Y97392D01*
X77217D01*
Y97369D01*
X77170D01*
Y97345D01*
X77099D01*
Y97322D01*
X77076D01*
Y97298D01*
X77005D01*
Y97274D01*
X76982D01*
Y97251D01*
X76911D01*
Y97227D01*
X76864D01*
Y97204D01*
X76817D01*
Y97180D01*
X76770D01*
Y97157D01*
X76723D01*
Y97133D01*
X76676D01*
Y97110D01*
X76605D01*
Y97086D01*
X76582D01*
Y97063D01*
X76511D01*
Y97039D01*
X76488D01*
Y97016D01*
X76464D01*
Y96992D01*
X76370D01*
Y96945D01*
X76276D01*
Y96922D01*
X76252D01*
Y96898D01*
X76229D01*
Y96875D01*
X76205D01*
Y96898D01*
X76182D01*
Y96875D01*
X76158D01*
Y96851D01*
X76135D01*
Y96827D01*
X76041D01*
Y96780D01*
X75946D01*
Y100074D01*
X75923D01*
Y100098D01*
X73405D01*
Y99063D01*
X73358D01*
Y99039D01*
X73288D01*
Y99063D01*
X73264D01*
Y99039D01*
X62723D01*
Y99063D01*
X62700D01*
Y99086D01*
X62677D01*
Y101839D01*
X62723D01*
Y101862D01*
X73382D01*
Y101839D01*
X73405D01*
Y100498D01*
X73452D01*
Y100474D01*
X73523D01*
Y100498D01*
X75852D01*
Y100474D01*
X75899D01*
Y100498D01*
X75923D01*
Y100521D01*
X75946D01*
Y103651D01*
X75923D01*
Y103698D01*
X75946D01*
Y103745D01*
X75970D01*
Y103768D01*
X75993D01*
Y103792D01*
X76017D01*
Y103815D01*
X76088D01*
Y103768D01*
X76182D01*
Y103745D01*
X76205D01*
Y103721D01*
X76229D01*
Y103698D01*
X76323D01*
Y103651D01*
X76417D01*
Y103627D01*
X76441D01*
Y103604D01*
X76511D01*
Y103580D01*
X76535D01*
Y103556D01*
X76582D01*
Y103533D01*
X76629D01*
Y103509D01*
X76652D01*
Y103486D01*
X76723D01*
Y103462D01*
X76746D01*
Y103439D01*
X76817D01*
Y103415D01*
X76841D01*
Y103392D01*
X76911D01*
Y103368D01*
X76935D01*
Y103345D01*
X76958D01*
Y103321D01*
X77052D01*
Y103274D01*
X77146D01*
Y103251D01*
X77170D01*
Y103227D01*
X77193D01*
Y103204D01*
X77288D01*
Y103156D01*
X77382D01*
Y103133D01*
X77405D01*
Y103110D01*
X77476D01*
Y103086D01*
X77523D01*
Y103062D01*
X77546D01*
Y103039D01*
X77617D01*
Y103015D01*
X77664D01*
Y102992D01*
X77688D01*
Y102968D01*
X77782D01*
Y102921D01*
X77876D01*
Y102898D01*
X77899D01*
Y102874D01*
X77923D01*
Y102851D01*
X77946D01*
Y102827D01*
X77970D01*
Y102804D01*
X78064D01*
Y102757D01*
X78158D01*
Y102733D01*
X78182D01*
Y102710D01*
X78229D01*
Y102686D01*
X78276D01*
Y102662D01*
X78299D01*
Y102639D01*
X78370D01*
Y102615D01*
X78393D01*
Y102592D01*
X78464D01*
Y102568D01*
X78488D01*
Y102545D01*
X78558D01*
Y102521D01*
X78582D01*
Y102498D01*
X78605D01*
Y102474D01*
X78676D01*
Y102451D01*
X78699D01*
Y102427D01*
X78793D01*
Y102404D01*
X78817D01*
Y102380D01*
X78888D01*
Y102357D01*
X78911D01*
Y102333D01*
X78934D01*
Y102310D01*
X79029D01*
Y102286D01*
X79052D01*
Y102262D01*
X79123D01*
Y102239D01*
X79170D01*
Y102215D01*
X79193D01*
Y102192D01*
X79264D01*
Y102168D01*
X79311D01*
Y102145D01*
X79335D01*
Y102121D01*
X79405D01*
Y102098D01*
X79429D01*
Y102074D01*
X79523D01*
Y102051D01*
X79546D01*
Y102027D01*
X79617D01*
Y102004D01*
X79640D01*
Y101980D01*
X79664D01*
Y101957D01*
X79758D01*
Y101910D01*
X79852D01*
Y101886D01*
X79876D01*
Y101862D01*
X79923D01*
Y101839D01*
X79970D01*
Y101815D01*
X79993D01*
Y101792D01*
X80064D01*
Y101768D01*
X80087D01*
Y101745D01*
X80158D01*
Y101721D01*
X80182D01*
Y101698D01*
X80252D01*
Y101674D01*
X80276D01*
Y101651D01*
X80299D01*
Y101627D01*
X80370D01*
Y101604D01*
X80393D01*
Y101580D01*
X80487D01*
Y101557D01*
X80511D01*
Y101533D01*
X80582D01*
Y101510D01*
X80605D01*
Y101486D01*
X80629D01*
Y101462D01*
X80723D01*
Y101415D01*
X80746D01*
Y101392D01*
X80817D01*
Y101368D01*
X80840D01*
Y101345D01*
X80911D01*
Y101321D01*
X80958D01*
Y101298D01*
X80982D01*
Y101274D01*
X81052D01*
Y101251D01*
X81076D01*
Y101227D01*
X81170D01*
Y101180D01*
X81264D01*
Y101157D01*
X81287D01*
Y101133D01*
X81311D01*
Y101110D01*
X81382D01*
Y101086D01*
X81405D01*
Y101062D01*
X81476D01*
Y101039D01*
X81499D01*
Y101015D01*
X81546D01*
Y100992D01*
X81593D01*
Y100968D01*
X81640D01*
Y100945D01*
X81687D01*
Y100921D01*
X81711D01*
Y100898D01*
X81781D01*
Y100874D01*
X81805D01*
Y100851D01*
X81899D01*
Y100827D01*
X81923D01*
Y100804D01*
X81946D01*
Y100780D01*
X82017D01*
Y100757D01*
X82040D01*
Y100733D01*
X82134D01*
Y100686D01*
X82228D01*
Y100662D01*
X82252D01*
Y100639D01*
X82299D01*
Y100616D01*
X82370D01*
Y100592D01*
X82393D01*
Y100568D01*
X82464D01*
Y100545D01*
X82511D01*
Y100521D01*
X82534D01*
Y100498D01*
X82652D01*
Y103745D01*
X82676D01*
Y103768D01*
X82699D01*
Y103792D01*
X82723D01*
Y103815D01*
X83005D01*
Y103792D01*
X83028D01*
Y100498D01*
X83052D01*
Y100474D01*
X83123D01*
Y100498D01*
X85217D01*
Y100474D01*
X85264D01*
Y100498D01*
X85287D01*
Y108521D01*
X85311D01*
Y108568D01*
X90016D01*
Y108545D01*
X90040D01*
Y108521D01*
X90087D01*
Y108497D01*
X90534D01*
Y108521D01*
X90581D01*
Y108497D01*
X90628D01*
Y108474D01*
X90652D01*
Y108450D01*
X90934D01*
Y108427D01*
X90957D01*
Y108403D01*
X91216D01*
Y108356D01*
X91263D01*
Y108333D01*
X91310D01*
Y108356D01*
X91381D01*
Y108333D01*
X91428D01*
Y108309D01*
X91452D01*
Y108286D01*
X91616D01*
Y108262D01*
X91640D01*
Y108239D01*
X91781D01*
Y108215D01*
X91805D01*
Y108192D01*
X91828D01*
Y108168D01*
X91875D01*
Y108192D01*
X91922D01*
Y108168D01*
X91946D01*
Y108145D01*
X91969D01*
Y108121D01*
X92063D01*
Y108097D01*
X92087D01*
Y108074D01*
X92205D01*
Y108050D01*
X92228D01*
Y108027D01*
X92275D01*
Y108003D01*
X92346D01*
Y107980D01*
X92369D01*
Y107956D01*
X92416D01*
Y107933D01*
X92487D01*
Y107909D01*
X92510D01*
Y107886D01*
X92605D01*
Y107862D01*
X92628D01*
Y107839D01*
X92652D01*
Y107815D01*
X92746D01*
Y107792D01*
X92769D01*
Y107768D01*
X92793D01*
Y107745D01*
X92816D01*
Y107721D01*
X92887D01*
Y107697D01*
X92910D01*
Y107674D01*
X92934D01*
Y107650D01*
X92957D01*
Y107627D01*
X92981D01*
Y107603D01*
X93052D01*
Y107580D01*
X93075D01*
Y107556D01*
X93099D01*
Y107533D01*
X93122D01*
Y107509D01*
X93169D01*
Y107486D01*
X93216D01*
Y107462D01*
X93240D01*
Y107439D01*
X93263D01*
Y107415D01*
X93287D01*
Y107392D01*
X93357D01*
Y107368D01*
X93381D01*
Y107345D01*
X93404D01*
Y107321D01*
X93428D01*
Y107297D01*
X93451D01*
Y107274D01*
X93475D01*
Y107250D01*
X93498D01*
Y107227D01*
X93522D01*
Y107203D01*
X93546D01*
Y107180D01*
X93640D01*
Y107156D01*
X93663D01*
Y107133D01*
X93687D01*
Y107109D01*
X93710D01*
Y107086D01*
X93734D01*
Y107062D01*
X93757D01*
Y107039D01*
X93781D01*
Y107015D01*
X93804D01*
Y106992D01*
X93828D01*
Y106968D01*
X93851D01*
Y106945D01*
X93875D01*
Y106921D01*
X93898D01*
Y106897D01*
X93922D01*
Y106874D01*
X93946D01*
Y106851D01*
X93969D01*
Y106827D01*
X93993D01*
Y106803D01*
X94016D01*
Y106780D01*
X94040D01*
Y106756D01*
X94063D01*
Y106733D01*
X94087D01*
Y106709D01*
X94157D01*
Y106686D01*
X94181D01*
Y106662D01*
X94204D01*
Y106639D01*
X94228D01*
Y106545D01*
X94275D01*
Y106497D01*
X94298D01*
Y106474D01*
X94346D01*
Y106427D01*
X94393D01*
Y106380D01*
X94440D01*
Y106356D01*
X94463D01*
Y106333D01*
X94487D01*
Y106309D01*
X94510D01*
Y106286D01*
X94534D01*
Y106262D01*
X94557D01*
Y106239D01*
X94581D01*
Y106215D01*
X94604D01*
Y106192D01*
X94628D01*
Y106168D01*
X94651D01*
Y106145D01*
X94675D01*
Y106121D01*
X94698D01*
Y106098D01*
X94722D01*
Y106074D01*
X94746D01*
Y106027D01*
X94769D01*
Y105980D01*
X94793D01*
Y105956D01*
X94816D01*
Y105933D01*
X94840D01*
Y105909D01*
X94863D01*
Y105862D01*
X94887D01*
Y105839D01*
X94910D01*
Y105815D01*
X94934D01*
Y105792D01*
X94957D01*
Y105768D01*
X94981D01*
Y105745D01*
X95004D01*
Y105721D01*
X95028D01*
Y105698D01*
X95051D01*
Y105674D01*
X95075D01*
Y105604D01*
X95098D01*
Y105580D01*
X95122D01*
Y105556D01*
X95146D01*
Y105533D01*
X95169D01*
Y105509D01*
X95193D01*
Y105486D01*
X95216D01*
Y105462D01*
X95240D01*
Y105439D01*
X95263D01*
Y105415D01*
X95310D01*
Y105392D01*
X95334D01*
Y105368D01*
X95357D01*
Y105345D01*
X95381D01*
Y105321D01*
X95404D01*
Y105298D01*
X95428D01*
Y105274D01*
X95451D01*
Y105180D01*
X95498D01*
Y105133D01*
X95522D01*
Y105109D01*
X95546D01*
Y105086D01*
X95569D01*
Y105062D01*
X95593D01*
Y105039D01*
X95616D01*
Y105015D01*
X95640D01*
Y104992D01*
X95663D01*
Y104968D01*
X95687D01*
Y104945D01*
X95710D01*
Y104921D01*
X95734D01*
Y104898D01*
X95757D01*
Y104827D01*
X95781D01*
Y104803D01*
X95804D01*
Y104780D01*
X95828D01*
Y104756D01*
X95851D01*
Y104733D01*
X95875D01*
Y104709D01*
X95898D01*
Y104686D01*
X95922D01*
Y104662D01*
X95946D01*
Y104639D01*
X95969D01*
Y104615D01*
X95992D01*
Y104592D01*
X96016D01*
Y104568D01*
X96040D01*
Y104545D01*
X96063D01*
Y104521D01*
X96087D01*
Y104498D01*
X96110D01*
Y104474D01*
X96134D01*
Y104403D01*
X96157D01*
Y104380D01*
X96181D01*
Y104356D01*
X96204D01*
Y104333D01*
X96228D01*
Y104309D01*
X96251D01*
Y104286D01*
X96275D01*
Y104262D01*
X96298D01*
Y104239D01*
X96322D01*
Y104215D01*
X96346D01*
Y104192D01*
X96369D01*
Y104168D01*
X96392D01*
Y104145D01*
X96416D01*
Y104121D01*
X96440D01*
Y104098D01*
X96463D01*
Y104003D01*
X96487D01*
Y103980D01*
X96510D01*
Y103956D01*
X96534D01*
Y103933D01*
X96557D01*
Y103909D01*
X96581D01*
Y103886D01*
X96604D01*
Y103862D01*
X96628D01*
Y103839D01*
X96651D01*
Y103815D01*
X96698D01*
Y103768D01*
X96746D01*
Y103721D01*
X96792D01*
Y103698D01*
X96816D01*
Y103604D01*
X96863D01*
Y103556D01*
X96887D01*
Y103533D01*
X96934D01*
Y103486D01*
X96981D01*
Y103439D01*
X97028D01*
Y103392D01*
X97051D01*
Y103368D01*
X97098D01*
Y103321D01*
X97122D01*
Y103298D01*
X97145D01*
Y103274D01*
X97169D01*
Y103251D01*
X97192D01*
Y103180D01*
X97216D01*
Y103156D01*
X97240D01*
Y103133D01*
X97263D01*
Y103110D01*
X97287D01*
Y103086D01*
X97310D01*
Y103062D01*
X97334D01*
Y103039D01*
X97357D01*
Y103015D01*
X97381D01*
Y102992D01*
X97404D01*
Y102968D01*
X97428D01*
Y102945D01*
X97451D01*
Y102921D01*
X97475D01*
Y102898D01*
X97498D01*
Y102827D01*
X97522D01*
Y102804D01*
X97545D01*
Y102780D01*
X97569D01*
Y102757D01*
X97592D01*
Y102733D01*
X97616D01*
Y102710D01*
X97640D01*
Y102686D01*
X97663D01*
Y102662D01*
X97687D01*
Y102639D01*
X97710D01*
Y102615D01*
X97734D01*
Y102592D01*
X97757D01*
Y102568D01*
X97781D01*
Y102545D01*
X97804D01*
Y102521D01*
X97828D01*
Y102498D01*
X97851D01*
Y102474D01*
X97875D01*
Y102404D01*
X97898D01*
Y102357D01*
X97945D01*
Y102310D01*
X97992D01*
Y102286D01*
X98016D01*
Y102262D01*
X98040D01*
Y102239D01*
X98063D01*
Y102215D01*
X98087D01*
Y102192D01*
X98110D01*
Y102168D01*
X98134D01*
Y102145D01*
X98157D01*
Y102121D01*
X98181D01*
Y102051D01*
X98204D01*
Y102027D01*
X98228D01*
Y101980D01*
X98251D01*
Y101957D01*
X98275D01*
Y101933D01*
X98298D01*
Y101910D01*
X98322D01*
Y101886D01*
X98345D01*
Y101862D01*
X98369D01*
Y101839D01*
X98392D01*
Y101815D01*
X98416D01*
Y101792D01*
X98440D01*
Y101768D01*
X98463D01*
Y101745D01*
X98486D01*
Y101721D01*
X98510D01*
Y101698D01*
X98534D01*
Y101674D01*
X98557D01*
Y101604D01*
X98581D01*
Y101580D01*
X98604D01*
Y101557D01*
X98628D01*
Y101533D01*
X98651D01*
Y101510D01*
X98675D01*
Y101486D01*
X98698D01*
Y101462D01*
X98722D01*
Y101439D01*
X98745D01*
Y101415D01*
X98769D01*
Y101392D01*
X98792D01*
Y101368D01*
X98816D01*
Y101345D01*
X98840D01*
Y101321D01*
X98863D01*
Y101274D01*
X98886D01*
Y101227D01*
X98910D01*
Y101204D01*
X98934D01*
Y101180D01*
X98957D01*
Y101157D01*
X98981D01*
Y101133D01*
X99004D01*
Y101110D01*
X99028D01*
Y101086D01*
X99051D01*
Y101062D01*
X99075D01*
Y101039D01*
X99098D01*
Y101015D01*
X99122D01*
Y100992D01*
X99145D01*
Y100968D01*
X99169D01*
Y100945D01*
X99192D01*
Y100898D01*
X99240D01*
Y100804D01*
X99263D01*
Y100780D01*
X99286D01*
Y100757D01*
X99310D01*
Y100733D01*
X99357D01*
Y100686D01*
X99404D01*
Y100662D01*
X99428D01*
Y100639D01*
X99451D01*
Y100616D01*
X99475D01*
Y100592D01*
X99498D01*
Y100568D01*
X99522D01*
Y100545D01*
X99545D01*
Y100521D01*
X99569D01*
Y100451D01*
X99592D01*
Y100427D01*
X99616D01*
Y100404D01*
X99639D01*
Y100380D01*
X99663D01*
Y100357D01*
X99686D01*
Y100333D01*
X99710D01*
Y100310D01*
X99733D01*
Y100286D01*
X99757D01*
Y100262D01*
X99781D01*
Y100239D01*
X99804D01*
Y100192D01*
X99828D01*
Y100168D01*
X99851D01*
Y100145D01*
X99875D01*
Y100121D01*
X99898D01*
Y100098D01*
X99922D01*
Y100027D01*
X99945D01*
Y100004D01*
X99969D01*
Y99980D01*
X99992D01*
Y99957D01*
X100016D01*
Y99933D01*
X100039D01*
Y99910D01*
X100063D01*
Y99886D01*
X100086D01*
Y99863D01*
X100110D01*
Y99839D01*
X100133D01*
Y99816D01*
X100157D01*
Y99792D01*
X100181D01*
Y99768D01*
X100204D01*
Y99745D01*
X100228D01*
Y99721D01*
X100251D01*
Y99698D01*
X100298D01*
Y99627D01*
X100322D01*
Y99580D01*
X100345D01*
Y99557D01*
X100369D01*
Y99533D01*
X100392D01*
Y99510D01*
X100416D01*
Y99486D01*
X100439D01*
Y99463D01*
X100463D01*
Y99439D01*
X100486D01*
Y99416D01*
X100510D01*
Y99392D01*
X100534D01*
Y99368D01*
X100557D01*
Y99345D01*
X100581D01*
Y99321D01*
X100604D01*
Y99298D01*
X100628D01*
Y99204D01*
X100675D01*
Y99180D01*
X100698D01*
Y99157D01*
X100722D01*
Y99133D01*
X100745D01*
Y99110D01*
X100769D01*
Y99086D01*
X100792D01*
Y99063D01*
X100816D01*
Y99039D01*
X100839D01*
Y99016D01*
X100863D01*
Y98992D01*
X100886D01*
Y98968D01*
X100910D01*
Y98945D01*
X100934D01*
Y98921D01*
X100957D01*
Y98898D01*
X100981D01*
Y98827D01*
X101004D01*
Y98804D01*
X101028D01*
Y98780D01*
X101051D01*
Y98757D01*
X101075D01*
Y98733D01*
X101098D01*
Y98710D01*
X101122D01*
Y98686D01*
X101145D01*
Y98663D01*
X101169D01*
Y98639D01*
X101192D01*
Y98616D01*
X101216D01*
Y98592D01*
X101239D01*
Y98568D01*
X101263D01*
Y98545D01*
X101286D01*
Y98521D01*
X101310D01*
Y98427D01*
X101334D01*
Y98404D01*
X101357D01*
Y98380D01*
X101381D01*
Y98357D01*
X101404D01*
Y98333D01*
X101428D01*
Y98310D01*
X101451D01*
Y98286D01*
X101475D01*
Y98263D01*
X101498D01*
Y98239D01*
X101522D01*
Y98216D01*
X101545D01*
Y98192D01*
X101569D01*
Y98168D01*
X101592D01*
Y98145D01*
X101616D01*
Y98122D01*
X101663D01*
Y98027D01*
X101686D01*
Y98004D01*
X101710D01*
Y97980D01*
X101734D01*
Y97957D01*
X101757D01*
Y97933D01*
X101781D01*
Y97910D01*
X101804D01*
Y97886D01*
X101828D01*
Y97863D01*
X101851D01*
Y97839D01*
X101875D01*
Y97816D01*
X101898D01*
Y97792D01*
X101922D01*
Y97768D01*
X101945D01*
Y97745D01*
X101969D01*
Y97722D01*
X101992D01*
Y97698D01*
X102016D01*
Y97674D01*
X101992D01*
Y97651D01*
X102016D01*
Y97627D01*
X102039D01*
Y97604D01*
X102063D01*
Y97580D01*
X102086D01*
Y97557D01*
X102110D01*
Y97533D01*
X102133D01*
Y97510D01*
X102157D01*
Y97486D01*
X102181D01*
Y97463D01*
X102204D01*
Y97439D01*
X102227D01*
Y97416D01*
X102251D01*
Y97392D01*
X102275D01*
Y97369D01*
X102298D01*
Y97345D01*
X102322D01*
Y97322D01*
X102345D01*
Y97251D01*
X102369D01*
Y97227D01*
X102392D01*
Y97204D01*
X102416D01*
Y97180D01*
X102439D01*
Y97157D01*
X102463D01*
Y97133D01*
X102486D01*
Y97110D01*
X102510D01*
Y97086D01*
X102533D01*
Y97063D01*
X102557D01*
Y97039D01*
X102580D01*
Y97016D01*
X102604D01*
Y96992D01*
X102627D01*
Y96969D01*
X102651D01*
Y96945D01*
X102675D01*
Y96922D01*
X102698D01*
Y96898D01*
X102722D01*
Y96875D01*
X102745D01*
Y96851D01*
X102769D01*
Y96827D01*
X102792D01*
Y96804D01*
X102816D01*
Y96780D01*
X102839D01*
Y96757D01*
X102863D01*
Y96733D01*
X102886D01*
Y96710D01*
X102910D01*
Y96686D01*
X102933D01*
Y96663D01*
X102957D01*
Y96639D01*
X102980D01*
Y96616D01*
X103004D01*
Y96592D01*
X103027D01*
Y96569D01*
X103051D01*
Y96545D01*
X103075D01*
Y96522D01*
X103098D01*
Y96498D01*
X103122D01*
Y96475D01*
X103145D01*
Y96451D01*
X103169D01*
Y96427D01*
X103239D01*
Y96404D01*
X103263D01*
Y96380D01*
X103286D01*
Y96357D01*
X103310D01*
Y96333D01*
X103333D01*
Y96310D01*
X103357D01*
Y96286D01*
X103380D01*
Y96263D01*
X103475D01*
Y96216D01*
X103522D01*
Y96169D01*
X103545D01*
Y96145D01*
X103639D01*
Y96122D01*
X103663D01*
Y96098D01*
X103686D01*
Y96074D01*
X103710D01*
Y96051D01*
X103733D01*
Y96027D01*
X103804D01*
Y96004D01*
X103827D01*
Y95980D01*
X103898D01*
Y95957D01*
X103922D01*
Y95933D01*
X103992D01*
Y95910D01*
X104016D01*
Y95886D01*
X104133D01*
Y95863D01*
X104157D01*
Y95839D01*
X104298D01*
Y95816D01*
X104322D01*
Y95792D01*
X104345D01*
Y95769D01*
X104416D01*
Y95792D01*
X104486D01*
Y95769D01*
X104533D01*
Y95745D01*
X104557D01*
Y95722D01*
X104627D01*
Y95745D01*
X104675D01*
Y95722D01*
X105051D01*
Y95745D01*
X105075D01*
Y95722D01*
X105145D01*
Y95745D01*
X105169D01*
Y108545D01*
X105192D01*
Y108568D01*
X109168D01*
Y91769D01*
D02*
G37*
G36*
X123968Y109250D02*
X124132D01*
Y109203D01*
X124156D01*
Y109180D01*
X124250D01*
Y109133D01*
X124391D01*
Y109109D01*
X124415D01*
Y109086D01*
X124462D01*
Y109062D01*
X124509D01*
Y109039D01*
X124532D01*
Y109015D01*
X124650D01*
Y108991D01*
X124674D01*
Y108968D01*
X124744D01*
Y108945D01*
X124768D01*
Y108921D01*
X124862D01*
Y108897D01*
X124885D01*
Y108874D01*
X124909D01*
Y108850D01*
X124932D01*
Y108874D01*
X124956D01*
Y108850D01*
X124979D01*
Y108827D01*
X125003D01*
Y108803D01*
X125027D01*
Y108780D01*
X125050D01*
Y108756D01*
X125144D01*
Y108733D01*
X125168D01*
Y108709D01*
X125215D01*
Y108686D01*
X125262D01*
Y108662D01*
X125285D01*
Y108639D01*
X125309D01*
Y108615D01*
X125379D01*
Y108592D01*
X125403D01*
Y108568D01*
X125427D01*
Y108545D01*
X125450D01*
Y108521D01*
X125521D01*
Y108497D01*
X125544D01*
Y108474D01*
X125568D01*
Y108450D01*
X125591D01*
Y108427D01*
X125615D01*
Y108403D01*
X125638D01*
Y108380D01*
X125662D01*
Y108356D01*
X125685D01*
Y108333D01*
X125709D01*
Y108356D01*
X125756D01*
Y108333D01*
X125779D01*
Y108286D01*
X125826D01*
Y108262D01*
X125850D01*
Y108239D01*
X125873D01*
Y108215D01*
X125897D01*
Y108168D01*
X125944D01*
Y108121D01*
X125991D01*
Y108097D01*
X126015D01*
Y108050D01*
X126062D01*
Y108027D01*
X126085D01*
Y108003D01*
X126156D01*
Y107980D01*
X126179D01*
Y107956D01*
X126203D01*
Y107933D01*
X126226D01*
Y107886D01*
X126250D01*
Y107839D01*
X126273D01*
Y107792D01*
X126320D01*
Y107768D01*
X126344D01*
Y107721D01*
X126391D01*
Y107674D01*
X126438D01*
Y107650D01*
X126462D01*
Y107627D01*
X126485D01*
Y107603D01*
X126509D01*
Y107580D01*
X126532D01*
Y107556D01*
X126556D01*
Y107533D01*
X126579D01*
Y107509D01*
X126556D01*
Y107462D01*
X126579D01*
Y107439D01*
X126603D01*
Y107415D01*
X126626D01*
Y107392D01*
X126650D01*
Y107368D01*
X126673D01*
Y107345D01*
X126697D01*
Y107321D01*
X126721D01*
Y107297D01*
X126744D01*
Y107227D01*
X126768D01*
Y107203D01*
X126791D01*
Y107180D01*
X126815D01*
Y107156D01*
X126838D01*
Y107086D01*
X126862D01*
Y107062D01*
X126885D01*
Y107039D01*
X126909D01*
Y107015D01*
X126932D01*
Y106945D01*
X126956D01*
Y106921D01*
X126979D01*
Y106851D01*
X127003D01*
Y106827D01*
X127026D01*
Y106733D01*
X127050D01*
Y106709D01*
X127073D01*
Y106686D01*
X127097D01*
Y106592D01*
X127144D01*
Y106497D01*
X127168D01*
Y106474D01*
X127191D01*
Y106403D01*
X127215D01*
Y106380D01*
X127238D01*
Y106262D01*
X127262D01*
Y106239D01*
X127285D01*
Y106215D01*
X127309D01*
Y106098D01*
X127332D01*
Y106074D01*
X127356D01*
Y105933D01*
X127379D01*
Y105909D01*
X127403D01*
Y105886D01*
X127426D01*
Y105839D01*
X127403D01*
Y105768D01*
X127426D01*
Y105745D01*
X127473D01*
Y105486D01*
X127521D01*
Y105204D01*
X127544D01*
Y105180D01*
X127568D01*
Y105133D01*
X127591D01*
Y105109D01*
X127568D01*
Y104686D01*
X127591D01*
Y104639D01*
X127568D01*
Y104615D01*
X127544D01*
Y104592D01*
X126203D01*
Y104521D01*
X126179D01*
Y104498D01*
X126203D01*
Y91369D01*
X126179D01*
Y91345D01*
X126156D01*
Y91322D01*
X126132D01*
Y91298D01*
X122038D01*
Y91322D01*
X122015D01*
Y104051D01*
X122038D01*
Y104074D01*
X122015D01*
Y104098D01*
X121991D01*
Y104121D01*
X112251D01*
Y107933D01*
X112227D01*
Y107980D01*
X112251D01*
Y108003D01*
X112274D01*
Y108050D01*
X112298D01*
Y108074D01*
X123450D01*
Y108168D01*
X123474D01*
Y108192D01*
X123497D01*
Y108215D01*
X123521D01*
Y108262D01*
X123497D01*
Y108309D01*
X123521D01*
Y108356D01*
X123568D01*
Y108497D01*
X123591D01*
Y108521D01*
X123615D01*
Y108639D01*
X123638D01*
Y108686D01*
X123662D01*
Y108733D01*
X123685D01*
Y108780D01*
X123709D01*
Y108897D01*
X123732D01*
Y108921D01*
X123756D01*
Y109062D01*
X123779D01*
Y109086D01*
X123803D01*
Y109203D01*
X123827D01*
Y109250D01*
X123874D01*
Y109297D01*
X123968D01*
Y109250D01*
D02*
G37*
G36*
X155519Y87887D02*
X155543D01*
Y87863D01*
X155519D01*
Y87628D01*
X155543D01*
Y87604D01*
X155519D01*
Y87557D01*
X154907D01*
Y87604D01*
X154884D01*
Y87887D01*
X154907D01*
Y87910D01*
X155519D01*
Y87887D01*
D02*
G37*
G36*
X144579Y87581D02*
X144555D01*
Y87557D01*
X143967D01*
Y87604D01*
X143943D01*
Y87651D01*
X143967D01*
Y87840D01*
X143943D01*
Y87887D01*
X143967D01*
Y87910D01*
X144579D01*
Y87581D01*
D02*
G37*
G36*
X126979Y87887D02*
X127003D01*
Y87840D01*
X126979D01*
Y87651D01*
X127003D01*
Y87604D01*
X126979D01*
Y87581D01*
X126956D01*
Y87557D01*
X126368D01*
Y87581D01*
X126344D01*
Y87910D01*
X126979D01*
Y87887D01*
D02*
G37*
G36*
X119591Y87581D02*
X119568D01*
Y87557D01*
X118956D01*
Y87910D01*
X119591D01*
Y87581D01*
D02*
G37*
G36*
X76770Y87887D02*
X76793D01*
Y87581D01*
X76770D01*
Y87557D01*
X76158D01*
Y87910D01*
X76770D01*
Y87887D01*
D02*
G37*
G36*
X154672Y87251D02*
X154696D01*
Y87228D01*
X154672D01*
Y86898D01*
X154696D01*
Y86875D01*
X154672D01*
Y86828D01*
X154649D01*
Y86804D01*
X154602D01*
Y86828D01*
X153896D01*
Y86804D01*
X153872D01*
Y86828D01*
X153802D01*
Y86804D01*
X153778D01*
Y86781D01*
X153755D01*
Y86757D01*
X153731D01*
Y85510D01*
X153708D01*
Y85487D01*
X153119D01*
Y85510D01*
X153096D01*
Y85840D01*
Y85863D01*
Y86945D01*
X153119D01*
Y86969D01*
X153143D01*
Y86993D01*
X153166D01*
Y87016D01*
X153190D01*
Y87087D01*
X153213D01*
Y87134D01*
X153237D01*
Y87157D01*
X153284D01*
Y87181D01*
X153331D01*
Y87204D01*
X153355D01*
Y87228D01*
X153496D01*
Y87251D01*
X153519D01*
Y87275D01*
X153543D01*
Y87298D01*
X154672D01*
Y87251D01*
D02*
G37*
G36*
X125803Y87793D02*
X125826D01*
Y87298D01*
X126156D01*
Y87275D01*
X126203D01*
Y86851D01*
X126179D01*
Y86828D01*
X126156D01*
Y86804D01*
X126085D01*
Y86828D01*
X125944D01*
Y86804D01*
X125921D01*
Y86828D01*
X125850D01*
Y86804D01*
Y86781D01*
X125826D01*
Y85487D01*
X125215D01*
Y85510D01*
X125191D01*
Y86804D01*
X125144D01*
Y86828D01*
X124956D01*
Y86804D01*
X124909D01*
Y86828D01*
X124885D01*
Y86851D01*
X124862D01*
Y86922D01*
X124885D01*
Y86969D01*
X124862D01*
Y87016D01*
X124885D01*
Y87204D01*
X124862D01*
Y87251D01*
X124885D01*
Y87298D01*
X125191D01*
Y87322D01*
X125215D01*
Y87346D01*
X125191D01*
Y87793D01*
X125215D01*
Y87816D01*
X125803D01*
Y87793D01*
D02*
G37*
G36*
X122085Y87275D02*
X122133D01*
Y86851D01*
X122109D01*
Y86828D01*
X122085D01*
Y86804D01*
X122038D01*
Y86828D01*
X120627D01*
Y86804D01*
X120603D01*
Y86781D01*
X120580D01*
Y86757D01*
X120556D01*
Y86734D01*
X120533D01*
Y86051D01*
X120556D01*
Y86028D01*
X120580D01*
Y86004D01*
X120603D01*
Y85981D01*
X122109D01*
Y85934D01*
X122133D01*
Y85510D01*
X122109D01*
Y85487D01*
X120344D01*
Y85534D01*
X120203D01*
Y85557D01*
X120180D01*
Y85581D01*
X120156D01*
Y85604D01*
X120085D01*
Y85628D01*
X120062D01*
Y85651D01*
X120038D01*
Y85675D01*
X120015D01*
Y85746D01*
X119991D01*
Y85769D01*
X119968D01*
Y85793D01*
X119944D01*
Y85816D01*
X119921D01*
Y85840D01*
X119897D01*
Y86263D01*
Y86287D01*
Y86945D01*
X119921D01*
Y86969D01*
X119944D01*
Y86993D01*
X119968D01*
Y87016D01*
X119991D01*
Y87040D01*
X120015D01*
Y87110D01*
X120038D01*
Y87134D01*
X120062D01*
Y87157D01*
X120085D01*
Y87181D01*
X120156D01*
Y87204D01*
X120180D01*
Y87228D01*
X120297D01*
Y87251D01*
X120344D01*
Y87275D01*
X120368D01*
Y87298D01*
X122085D01*
Y87275D01*
D02*
G37*
G36*
X103027D02*
X103051D01*
Y86828D01*
X103004D01*
Y86804D01*
X102957D01*
Y86828D01*
X101569D01*
Y86804D01*
X101522D01*
Y86781D01*
X101498D01*
Y86757D01*
X101475D01*
Y86710D01*
X101451D01*
Y86663D01*
X101475D01*
Y86122D01*
X101451D01*
Y86075D01*
X101475D01*
Y86028D01*
X101498D01*
Y86004D01*
X101522D01*
Y85981D01*
X103027D01*
Y85957D01*
X103051D01*
Y85510D01*
X103027D01*
Y85487D01*
X101286D01*
Y85510D01*
X101263D01*
Y85534D01*
X101122D01*
Y85557D01*
X101098D01*
Y85604D01*
X101004D01*
Y85628D01*
X100981D01*
Y85651D01*
X100957D01*
Y85675D01*
X100934D01*
Y85746D01*
X100910D01*
Y85769D01*
X100886D01*
Y85793D01*
X100863D01*
Y85816D01*
X100839D01*
Y85840D01*
X100816D01*
Y85910D01*
X100839D01*
Y85957D01*
X100816D01*
Y86828D01*
X100839D01*
Y86875D01*
X100816D01*
Y86945D01*
X100839D01*
Y86969D01*
X100863D01*
Y86993D01*
X100886D01*
Y87016D01*
X100934D01*
Y87110D01*
X100957D01*
Y87134D01*
X100981D01*
Y87157D01*
X101004D01*
Y87181D01*
X101098D01*
Y87228D01*
X101239D01*
Y87251D01*
X101263D01*
Y87275D01*
X101286D01*
Y87298D01*
X103027D01*
Y87275D01*
D02*
G37*
G36*
X79287D02*
X79311D01*
Y87251D01*
X79335D01*
Y87228D01*
X79311D01*
Y86898D01*
X79335D01*
Y86875D01*
X79311D01*
Y86828D01*
X79287D01*
Y86804D01*
X79240D01*
Y86828D01*
X77829D01*
Y86804D01*
X77782D01*
Y86757D01*
X77758D01*
Y86734D01*
X77735D01*
Y86051D01*
X77758D01*
Y86028D01*
X77782D01*
Y85981D01*
X79311D01*
Y85557D01*
X79335D01*
Y85534D01*
X79311D01*
Y85487D01*
X77546D01*
Y85510D01*
X77523D01*
Y85534D01*
X77405D01*
Y85557D01*
X77382D01*
Y85581D01*
X77358D01*
Y85604D01*
X77288D01*
Y85628D01*
X77264D01*
Y85651D01*
X77241D01*
Y85675D01*
X77217D01*
Y85746D01*
X77193D01*
Y85769D01*
X77170D01*
Y85793D01*
X77146D01*
Y85816D01*
X77123D01*
Y85840D01*
X77099D01*
Y86310D01*
Y86334D01*
Y86922D01*
X77123D01*
Y86969D01*
X77146D01*
Y86993D01*
X77170D01*
Y87016D01*
X77193D01*
Y87040D01*
X77217D01*
Y87110D01*
X77241D01*
Y87134D01*
X77264D01*
Y87157D01*
X77288D01*
Y87181D01*
X77358D01*
Y87204D01*
X77382D01*
Y87228D01*
X77499D01*
Y87251D01*
X77523D01*
Y87275D01*
X77570D01*
Y87298D01*
X79287D01*
Y87275D01*
D02*
G37*
G36*
X70276Y87251D02*
X70300D01*
Y87228D01*
X70276D01*
Y86828D01*
X70253D01*
Y86804D01*
X70205D01*
Y86828D01*
X69453D01*
Y86804D01*
X69382D01*
Y86781D01*
X69359D01*
Y86734D01*
X69335D01*
Y85510D01*
X69311D01*
Y85487D01*
X68723D01*
Y85510D01*
X68700D01*
Y86498D01*
Y86522D01*
Y86945D01*
X68723D01*
Y86969D01*
X68747D01*
Y86993D01*
X68770D01*
Y87016D01*
X68794D01*
Y87040D01*
X68817D01*
Y87110D01*
X68841D01*
Y87134D01*
X68864D01*
Y87157D01*
X68888D01*
Y87181D01*
X68959D01*
Y87204D01*
X68982D01*
Y87228D01*
X69100D01*
Y87251D01*
X69147D01*
Y87275D01*
X69170D01*
Y87298D01*
X70276D01*
Y87251D01*
D02*
G37*
G36*
X68159Y87793D02*
X68182D01*
Y87298D01*
X68512D01*
Y87275D01*
X68535D01*
Y87251D01*
X68559D01*
Y87228D01*
X68535D01*
Y86828D01*
X68512D01*
Y86804D01*
X68441D01*
Y86828D01*
X68300D01*
Y86804D01*
X68276D01*
Y86828D01*
X68206D01*
Y86804D01*
X68182D01*
Y85487D01*
X67570D01*
Y85510D01*
X67547D01*
Y86098D01*
Y86122D01*
Y86804D01*
X67500D01*
Y86828D01*
X67312D01*
Y86804D01*
X67264D01*
Y86828D01*
X67241D01*
Y86851D01*
X67217D01*
Y87181D01*
X67241D01*
Y87204D01*
X67217D01*
Y87275D01*
X67241D01*
Y87298D01*
X67547D01*
Y87793D01*
X67570D01*
Y87816D01*
X68159D01*
Y87793D01*
D02*
G37*
G36*
X67100Y87275D02*
X67123D01*
Y86828D01*
X67100D01*
Y86804D01*
X67029D01*
Y86828D01*
X65712D01*
Y86804D01*
X65688D01*
Y86828D01*
X65617D01*
Y86804D01*
X65594D01*
Y86781D01*
X65570D01*
Y86757D01*
X65547D01*
Y86687D01*
X65523D01*
Y86640D01*
X65547D01*
Y86122D01*
X65523D01*
Y86075D01*
X65547D01*
Y86028D01*
X65570D01*
Y86004D01*
X65594D01*
Y85981D01*
X67100D01*
Y85957D01*
X67123D01*
Y85510D01*
X67100D01*
Y85487D01*
X65335D01*
Y85510D01*
X65312D01*
Y85534D01*
X65194D01*
Y85557D01*
X65170D01*
Y85581D01*
X65123D01*
Y85604D01*
X65076D01*
Y85628D01*
X65053D01*
Y85651D01*
X65029D01*
Y85675D01*
X65006D01*
Y85769D01*
X64959D01*
Y85816D01*
X64912D01*
Y86969D01*
X64935D01*
Y86993D01*
X64959D01*
Y87016D01*
X65006D01*
Y87087D01*
X65029D01*
Y87134D01*
X65053D01*
Y87157D01*
X65076D01*
Y87181D01*
X65147D01*
Y87204D01*
X65170D01*
Y87228D01*
X65288D01*
Y87251D01*
X65312D01*
Y87275D01*
X65359D01*
Y87298D01*
X67100D01*
Y87275D01*
D02*
G37*
G36*
X124368D02*
X124415D01*
Y87251D01*
X124438D01*
Y87228D01*
X124509D01*
Y87204D01*
X124532D01*
Y87181D01*
X124579D01*
Y87157D01*
X124627D01*
Y87134D01*
X124650D01*
Y87063D01*
X124674D01*
Y87016D01*
X124697D01*
Y86993D01*
X124721D01*
Y86922D01*
X124744D01*
Y86898D01*
X124768D01*
Y85840D01*
X124744D01*
Y85816D01*
X124721D01*
Y85746D01*
X124697D01*
Y85698D01*
X124674D01*
Y85675D01*
X124650D01*
Y85651D01*
X124627D01*
Y85628D01*
X124603D01*
Y85604D01*
X124532D01*
Y85581D01*
X124509D01*
Y85557D01*
X124462D01*
Y85534D01*
X124415D01*
Y85510D01*
X124391D01*
Y85487D01*
X122627D01*
Y85510D01*
X122603D01*
Y85534D01*
X122533D01*
Y85557D01*
X122509D01*
Y85581D01*
X122485D01*
Y85604D01*
X122438D01*
Y85698D01*
X122415D01*
Y85722D01*
X122391D01*
Y86334D01*
X122438D01*
Y86428D01*
X122462D01*
Y86451D01*
X122485D01*
Y86475D01*
X122509D01*
Y86498D01*
X122603D01*
Y86545D01*
X122650D01*
Y86569D01*
X122674D01*
Y86545D01*
X124109D01*
Y86569D01*
X124132D01*
Y86710D01*
X124109D01*
Y86734D01*
X124085D01*
Y86757D01*
X124062D01*
Y86781D01*
X124038D01*
Y86804D01*
X124015D01*
Y86828D01*
X123944D01*
Y86804D01*
X123897D01*
Y86828D01*
X122462D01*
Y86804D01*
X122415D01*
Y86828D01*
X122391D01*
Y87275D01*
X122415D01*
Y87298D01*
X124368D01*
Y87275D01*
D02*
G37*
G36*
X83099D02*
X83146D01*
Y87251D01*
X83170D01*
Y87228D01*
X83240D01*
Y87204D01*
X83264D01*
Y87181D01*
X83311D01*
Y87157D01*
X83358D01*
Y87134D01*
X83381D01*
Y87087D01*
X83405D01*
Y87016D01*
X83428D01*
Y86993D01*
X83452D01*
Y86922D01*
X83476D01*
Y86898D01*
X83499D01*
Y85840D01*
X83476D01*
Y85816D01*
X83452D01*
Y85722D01*
X83428D01*
Y85698D01*
X83405D01*
Y85675D01*
X83381D01*
Y85651D01*
X83358D01*
Y85628D01*
X83334D01*
Y85604D01*
X83264D01*
Y85581D01*
X83240D01*
Y85557D01*
X83193D01*
Y85534D01*
X83146D01*
Y85510D01*
X83123D01*
Y85487D01*
X81358D01*
Y85510D01*
X81334D01*
Y85534D01*
X81240D01*
Y85581D01*
X81217D01*
Y85604D01*
X81170D01*
Y85698D01*
X81146D01*
Y85722D01*
X81123D01*
Y86334D01*
X81170D01*
Y86428D01*
X81193D01*
Y86451D01*
X81217D01*
Y86475D01*
X81240D01*
Y86498D01*
X81334D01*
Y86545D01*
X81382D01*
Y86569D01*
X81405D01*
Y86545D01*
X82840D01*
Y86569D01*
X82864D01*
Y86710D01*
X82840D01*
Y86734D01*
X82817D01*
Y86757D01*
X82793D01*
Y86781D01*
X82746D01*
Y86804D01*
X82723D01*
Y86828D01*
X82676D01*
Y86804D01*
X82628D01*
Y86828D01*
X81193D01*
Y86804D01*
X81146D01*
Y86828D01*
X81123D01*
Y87275D01*
X81146D01*
Y87298D01*
X83099D01*
Y87275D01*
D02*
G37*
G36*
X100298D02*
X100322D01*
Y87228D01*
X100416D01*
Y87204D01*
X100439D01*
Y87181D01*
X100463D01*
Y87157D01*
X100486D01*
Y87110D01*
X100534D01*
Y87016D01*
X100557D01*
Y86993D01*
X100581D01*
Y86475D01*
X100557D01*
Y86451D01*
X100534D01*
Y86428D01*
X100510D01*
Y86404D01*
X100486D01*
Y86381D01*
X100463D01*
Y86334D01*
X100416D01*
Y86287D01*
X100392D01*
Y86263D01*
X100369D01*
Y86240D01*
X100322D01*
Y86216D01*
X98910D01*
Y86240D01*
X98886D01*
Y86216D01*
X98840D01*
Y86028D01*
X98863D01*
Y86004D01*
X98886D01*
Y85981D01*
X100486D01*
Y85957D01*
X100510D01*
Y85934D01*
X100534D01*
Y85534D01*
X100510D01*
Y85487D01*
X98581D01*
Y85510D01*
X98557D01*
Y85534D01*
X98416D01*
Y85557D01*
X98392D01*
Y85604D01*
X98345D01*
Y85651D01*
X98298D01*
Y85675D01*
X98275D01*
Y85722D01*
X98228D01*
Y85816D01*
X98204D01*
Y85840D01*
X98181D01*
Y86993D01*
X98204D01*
Y87016D01*
X98228D01*
Y87040D01*
X98251D01*
Y87063D01*
X98275D01*
Y87087D01*
X98298D01*
Y87110D01*
X98322D01*
Y87134D01*
X98345D01*
Y87157D01*
X98369D01*
Y87181D01*
X98392D01*
Y87228D01*
X98557D01*
Y87275D01*
X98581D01*
Y87298D01*
X100298D01*
Y87275D01*
D02*
G37*
G36*
X96628D02*
X96651D01*
Y87251D01*
X96675D01*
Y87228D01*
X96746D01*
Y87204D01*
X96769D01*
Y87181D01*
X96792D01*
Y87157D01*
X96816D01*
Y87134D01*
X96840D01*
Y87110D01*
X96863D01*
Y87040D01*
X96887D01*
Y87016D01*
X96910D01*
Y86993D01*
X96934D01*
Y86475D01*
X96910D01*
Y86451D01*
X96887D01*
Y86428D01*
X96863D01*
Y86404D01*
X96840D01*
Y86381D01*
X96816D01*
Y86357D01*
X96792D01*
Y86334D01*
X96769D01*
Y86310D01*
X96746D01*
Y86287D01*
X96722D01*
Y86263D01*
X96698D01*
Y86240D01*
X96675D01*
Y86216D01*
X95240D01*
Y86240D01*
X95216D01*
Y86216D01*
X95169D01*
Y86051D01*
X95193D01*
Y86028D01*
X95216D01*
Y86004D01*
X95240D01*
Y85981D01*
X96863D01*
Y85487D01*
X94934D01*
Y85510D01*
X94910D01*
Y85534D01*
X94793D01*
Y85557D01*
X94769D01*
Y85581D01*
X94746D01*
Y85604D01*
X94722D01*
Y85628D01*
X94698D01*
Y85651D01*
X94675D01*
Y85675D01*
X94651D01*
Y85698D01*
X94628D01*
Y85722D01*
X94604D01*
Y85816D01*
X94557D01*
Y87016D01*
X94581D01*
Y87040D01*
X94604D01*
Y87063D01*
X94628D01*
Y87087D01*
X94651D01*
Y87110D01*
X94675D01*
Y87134D01*
X94698D01*
Y87157D01*
X94722D01*
Y87181D01*
X94746D01*
Y87204D01*
X94769D01*
Y87228D01*
X94887D01*
Y87251D01*
X94910D01*
Y87275D01*
X94957D01*
Y87298D01*
X96628D01*
Y87275D01*
D02*
G37*
G36*
X115827Y87204D02*
X115850D01*
Y85910D01*
X115827D01*
Y85863D01*
X115803D01*
Y85840D01*
X115780D01*
Y85769D01*
X115756D01*
Y85746D01*
X115733D01*
Y85722D01*
X115709D01*
Y85698D01*
X115686D01*
Y85675D01*
X115662D01*
Y85651D01*
X115639D01*
Y85628D01*
X115615D01*
Y85604D01*
X115592D01*
Y85581D01*
X115568D01*
Y85557D01*
X115545D01*
Y85534D01*
X115427D01*
Y85510D01*
X115403D01*
Y85487D01*
X113804D01*
Y85510D01*
X113780D01*
Y85534D01*
X113662D01*
Y85557D01*
X113639D01*
Y85581D01*
X113592D01*
Y85604D01*
X113521D01*
Y85651D01*
X113474D01*
Y85698D01*
X113427D01*
Y85722D01*
X113404D01*
Y85816D01*
X113380D01*
Y85840D01*
X113356D01*
Y87228D01*
X113968D01*
Y87204D01*
X113992D01*
Y86028D01*
X114015D01*
Y86004D01*
X114039D01*
Y85981D01*
X115145D01*
Y86004D01*
X115168D01*
Y87228D01*
X115827D01*
Y87204D01*
D02*
G37*
G36*
X157872Y87275D02*
X157895D01*
Y87251D01*
X157919D01*
Y87228D01*
X158013D01*
Y87181D01*
X158107D01*
Y87157D01*
X158131D01*
Y87134D01*
X158154D01*
Y87110D01*
X158178D01*
Y87087D01*
X158201D01*
Y87063D01*
X158225D01*
Y86969D01*
X158249D01*
Y86945D01*
X158272D01*
Y86898D01*
X158295D01*
Y86851D01*
X158319D01*
Y85510D01*
X158295D01*
Y85487D01*
X157637D01*
Y86734D01*
X157613D01*
Y86781D01*
X157566D01*
Y86804D01*
X157543D01*
Y86828D01*
X157472D01*
Y86804D01*
X157449D01*
Y86828D01*
X156554D01*
Y86804D01*
X156531D01*
Y86828D01*
X156460D01*
Y86804D01*
X156437D01*
Y85510D01*
X156413D01*
Y85487D01*
X155801D01*
Y85510D01*
X155778D01*
Y87181D01*
X155801D01*
Y87204D01*
X155778D01*
Y87275D01*
X155825D01*
Y87298D01*
X157872D01*
Y87275D01*
D02*
G37*
G36*
X155519Y86710D02*
Y86687D01*
Y85487D01*
X154907D01*
Y85510D01*
X154884D01*
Y87181D01*
X154907D01*
Y87204D01*
X154884D01*
Y87275D01*
X154931D01*
Y87298D01*
X155519D01*
Y86710D01*
D02*
G37*
G36*
X152484Y87275D02*
X152507D01*
Y87251D01*
X152555D01*
Y87228D01*
X152602D01*
Y87204D01*
X152625D01*
Y87181D01*
X152649D01*
Y87157D01*
X152672D01*
Y87134D01*
X152696D01*
Y87110D01*
X152719D01*
Y87040D01*
X152743D01*
Y87016D01*
X152766D01*
Y86451D01*
X152743D01*
Y86428D01*
X152719D01*
Y86404D01*
X152696D01*
Y86381D01*
X152672D01*
Y86357D01*
X152649D01*
Y86334D01*
X152625D01*
Y86310D01*
X152602D01*
Y86287D01*
X152578D01*
Y86263D01*
X152555D01*
Y86240D01*
X152531D01*
Y86216D01*
X151025D01*
Y86051D01*
X151049D01*
Y86028D01*
X151072D01*
Y85981D01*
X152696D01*
Y85957D01*
X152719D01*
Y85510D01*
X152696D01*
Y85487D01*
X150790D01*
Y85510D01*
X150766D01*
Y85534D01*
X150625D01*
Y85581D01*
X150602D01*
Y85604D01*
X150578D01*
Y85628D01*
X150555D01*
Y85651D01*
X150531D01*
Y85675D01*
X150508D01*
Y85698D01*
X150484D01*
Y85722D01*
X150461D01*
Y85746D01*
X150437D01*
Y85816D01*
X150414D01*
Y85840D01*
X150390D01*
Y86993D01*
X150414D01*
Y87016D01*
X150437D01*
Y87040D01*
X150461D01*
Y87063D01*
X150484D01*
Y87087D01*
X150508D01*
Y87110D01*
X150531D01*
Y87134D01*
X150555D01*
Y87157D01*
X150578D01*
Y87181D01*
X150602D01*
Y87204D01*
X150625D01*
Y87228D01*
X150743D01*
Y87251D01*
X150766D01*
Y87275D01*
X150790D01*
Y87298D01*
X152484D01*
Y87275D01*
D02*
G37*
G36*
X149802D02*
X149825D01*
Y87251D01*
X149849D01*
Y87228D01*
X149919D01*
Y87204D01*
X149943D01*
Y87181D01*
X149966D01*
Y87157D01*
X149990D01*
Y87134D01*
X150014D01*
Y87110D01*
X150037D01*
Y87016D01*
X150061D01*
Y86993D01*
X150084D01*
Y86451D01*
X150061D01*
Y86428D01*
X150037D01*
Y86404D01*
X150014D01*
Y86381D01*
X149990D01*
Y86357D01*
X149966D01*
Y86334D01*
X149943D01*
Y86310D01*
X149919D01*
Y86287D01*
X149896D01*
Y86263D01*
X149872D01*
Y86240D01*
X149825D01*
Y86216D01*
X148343D01*
Y86028D01*
X148367D01*
Y86004D01*
X148390D01*
Y85981D01*
X149990D01*
Y85957D01*
X150014D01*
Y85934D01*
X150037D01*
Y85510D01*
X150014D01*
Y85487D01*
X148084D01*
Y85534D01*
X148037D01*
Y85557D01*
X148014D01*
Y85534D01*
X147943D01*
Y85557D01*
X147920D01*
Y85581D01*
X147896D01*
Y85604D01*
X147872D01*
Y85628D01*
X147849D01*
Y85651D01*
X147825D01*
Y85675D01*
X147802D01*
Y85698D01*
X147778D01*
Y85722D01*
X147755D01*
Y85793D01*
X147731D01*
Y85816D01*
X147708D01*
Y85840D01*
X147684D01*
Y85910D01*
X147708D01*
Y85934D01*
X147684D01*
Y86898D01*
X147708D01*
Y86922D01*
X147684D01*
Y86993D01*
X147708D01*
Y87016D01*
X147731D01*
Y87040D01*
X147755D01*
Y87063D01*
X147778D01*
Y87087D01*
X147802D01*
Y87110D01*
X147825D01*
Y87134D01*
X147849D01*
Y87157D01*
X147872D01*
Y87181D01*
X147896D01*
Y87204D01*
X147920D01*
Y87228D01*
X148061D01*
Y87251D01*
X148084D01*
Y87298D01*
X149802D01*
Y87275D01*
D02*
G37*
G36*
X146978D02*
X147002D01*
Y87251D01*
X147025D01*
Y87228D01*
X147120D01*
Y87181D01*
X147214D01*
Y87157D01*
X147237D01*
Y87134D01*
X147261D01*
Y87110D01*
X147284D01*
Y87087D01*
X147308D01*
Y87063D01*
X147331D01*
Y87040D01*
X147355D01*
Y86969D01*
X147378D01*
Y86945D01*
X147402D01*
Y86875D01*
X147425D01*
Y86828D01*
X147449D01*
Y85510D01*
X147425D01*
Y85487D01*
X146767D01*
Y85510D01*
X146743D01*
Y86757D01*
X146720D01*
Y86781D01*
X146696D01*
Y86804D01*
X146649D01*
Y86828D01*
X146578D01*
Y86804D01*
X146555D01*
Y86828D01*
X145661D01*
Y86804D01*
X145637D01*
Y86828D01*
X145567D01*
Y86804D01*
X145543D01*
Y85510D01*
X145520D01*
Y85487D01*
X144908D01*
Y87275D01*
X144931D01*
Y87298D01*
X146978D01*
Y87275D01*
D02*
G37*
G36*
X144555D02*
X144579D01*
Y85487D01*
X143967D01*
Y85510D01*
X143943D01*
Y85557D01*
X143967D01*
Y86851D01*
Y86875D01*
Y87204D01*
X143943D01*
Y87251D01*
X143967D01*
Y87298D01*
X144555D01*
Y87275D01*
D02*
G37*
G36*
X140437D02*
X140461D01*
Y87251D01*
X140485D01*
Y87228D01*
X140555D01*
Y87204D01*
X140579D01*
Y87181D01*
X140673D01*
Y87157D01*
X140696D01*
Y87134D01*
X140720D01*
Y87110D01*
X140743D01*
Y87063D01*
X140790D01*
Y86969D01*
X140814D01*
Y86945D01*
X140837D01*
Y86898D01*
X140861D01*
Y86851D01*
X140885D01*
Y86804D01*
X140908D01*
Y86781D01*
X140885D01*
Y85510D01*
X140861D01*
Y85487D01*
X140226D01*
Y85510D01*
X140202D01*
Y85863D01*
Y85887D01*
Y86734D01*
X140179D01*
Y86781D01*
X140132D01*
Y86804D01*
X140108D01*
Y86828D01*
X140014D01*
Y86804D01*
X139991D01*
Y86828D01*
X139120D01*
Y86804D01*
X139073D01*
Y86828D01*
X139002D01*
Y86781D01*
X138979D01*
Y85487D01*
X138367D01*
Y85534D01*
X138343D01*
Y85557D01*
X138367D01*
Y87228D01*
X138343D01*
Y87251D01*
X138367D01*
Y87275D01*
X138391D01*
Y87298D01*
X140437D01*
Y87275D01*
D02*
G37*
G36*
X138085Y87346D02*
X135191D01*
Y87322D01*
X135167D01*
Y87298D01*
X135144D01*
Y87251D01*
X135120D01*
Y87204D01*
X135144D01*
Y87040D01*
X135120D01*
Y86969D01*
X135144D01*
Y86922D01*
X135191D01*
Y86898D01*
X135214D01*
Y86922D01*
X138014D01*
Y86875D01*
X138038D01*
Y86404D01*
X138014D01*
Y86381D01*
X135144D01*
Y86357D01*
X135120D01*
Y86310D01*
X135144D01*
Y86193D01*
X135120D01*
Y86122D01*
X135144D01*
Y86075D01*
X135167D01*
Y86051D01*
X135191D01*
Y86028D01*
X138061D01*
Y86004D01*
X138085D01*
Y85487D01*
X134932D01*
Y85510D01*
X134908D01*
Y85534D01*
X134885D01*
Y85557D01*
X134861D01*
Y85534D01*
X134767D01*
Y85557D01*
X134744D01*
Y85604D01*
X134650D01*
Y85628D01*
X134626D01*
Y85651D01*
X134602D01*
Y85675D01*
X134579D01*
Y85769D01*
X134555D01*
Y85793D01*
X134532D01*
Y85816D01*
X134508D01*
Y85840D01*
X134485D01*
Y87534D01*
X134508D01*
Y87557D01*
X134532D01*
Y87628D01*
X134555D01*
Y87651D01*
X134579D01*
Y87675D01*
X134602D01*
Y87698D01*
X134626D01*
Y87722D01*
X134650D01*
Y87746D01*
X134720D01*
Y87769D01*
X134744D01*
Y87793D01*
X134767D01*
Y87816D01*
X134908D01*
Y87840D01*
X134932D01*
Y87863D01*
X138085D01*
Y87346D01*
D02*
G37*
G36*
X132203Y87275D02*
X132226D01*
Y87228D01*
X132320D01*
Y87204D01*
X132344D01*
Y87181D01*
X132438D01*
Y87134D01*
X132461D01*
Y87110D01*
X132485D01*
Y87087D01*
X132508D01*
Y87063D01*
X132532D01*
Y87040D01*
X132556D01*
Y86969D01*
X132579D01*
Y86945D01*
X132603D01*
Y86875D01*
X132626D01*
Y86851D01*
X132650D01*
Y85510D01*
X132626D01*
Y85487D01*
X131967D01*
Y85510D01*
X131944D01*
Y85628D01*
Y85651D01*
Y86757D01*
X131920D01*
Y86781D01*
X131897D01*
Y86804D01*
X131850D01*
Y86828D01*
X131779D01*
Y86804D01*
X131756D01*
Y86828D01*
X130862D01*
Y86804D01*
X130838D01*
Y86828D01*
X130767D01*
Y86804D01*
X130744D01*
Y85487D01*
X130132D01*
Y85510D01*
X130109D01*
Y87275D01*
X130132D01*
Y87298D01*
X132203D01*
Y87275D01*
D02*
G37*
G36*
X129379D02*
X129426D01*
Y87251D01*
X129450D01*
Y87228D01*
X129520D01*
Y87204D01*
X129544D01*
Y87181D01*
X129614D01*
Y87157D01*
X129638D01*
Y87134D01*
X129662D01*
Y87110D01*
X129685D01*
Y87087D01*
X129709D01*
Y87063D01*
X129732D01*
Y86993D01*
X129756D01*
Y86969D01*
X129779D01*
Y86898D01*
X129803D01*
Y86875D01*
X129826D01*
Y86828D01*
X129850D01*
Y85957D01*
X129826D01*
Y85934D01*
X129803D01*
Y85887D01*
X129779D01*
Y85769D01*
X129756D01*
Y85746D01*
X129732D01*
Y85722D01*
X129709D01*
Y85698D01*
X129685D01*
Y85675D01*
X129662D01*
Y85651D01*
X129638D01*
Y85628D01*
X129614D01*
Y85604D01*
X129567D01*
Y85581D01*
X129520D01*
Y85557D01*
X129497D01*
Y85534D01*
X129426D01*
Y85510D01*
X129403D01*
Y85487D01*
X127756D01*
Y85510D01*
X127732D01*
Y85534D01*
X127591D01*
Y85557D01*
X127568D01*
Y85604D01*
X127473D01*
Y85628D01*
X127450D01*
Y85651D01*
X127426D01*
Y85675D01*
X127403D01*
Y85769D01*
X127356D01*
Y85816D01*
X127309D01*
Y86945D01*
X127332D01*
Y86969D01*
X127356D01*
Y87016D01*
X127403D01*
Y87087D01*
X127426D01*
Y87134D01*
X127473D01*
Y87181D01*
X127568D01*
Y87204D01*
X127591D01*
Y87228D01*
X127709D01*
Y87251D01*
X127732D01*
Y87275D01*
X127756D01*
Y87298D01*
X129379D01*
Y87275D01*
D02*
G37*
G36*
X126956D02*
X126979D01*
Y87251D01*
X127003D01*
Y87228D01*
X126979D01*
Y85487D01*
X126368D01*
Y85510D01*
X126344D01*
Y87275D01*
X126368D01*
Y87298D01*
X126956D01*
Y87275D01*
D02*
G37*
G36*
X119568D02*
X119591D01*
Y86545D01*
Y86522D01*
Y85510D01*
X119568D01*
Y85487D01*
X118956D01*
Y87275D01*
X118980D01*
Y87298D01*
X119568D01*
Y87275D01*
D02*
G37*
G36*
X118250D02*
X118274D01*
Y87228D01*
X118368D01*
Y87204D01*
X118392D01*
Y87181D01*
X118486D01*
Y87134D01*
X118509D01*
Y87110D01*
X118533D01*
Y87087D01*
X118556D01*
Y87063D01*
X118580D01*
Y87040D01*
X118603D01*
Y86969D01*
X118627D01*
Y86945D01*
X118650D01*
Y86875D01*
X118674D01*
Y86851D01*
X118697D01*
Y85510D01*
X118674D01*
Y85487D01*
X118015D01*
Y85510D01*
X117992D01*
Y85534D01*
Y86757D01*
X117968D01*
Y86781D01*
X117944D01*
Y86804D01*
X117921D01*
Y86828D01*
X117827D01*
Y86804D01*
X117803D01*
Y86828D01*
X116933D01*
Y86804D01*
X116886D01*
Y86828D01*
X116815D01*
Y86781D01*
X116792D01*
Y85487D01*
X116180D01*
Y85510D01*
X116156D01*
Y87275D01*
X116180D01*
Y87298D01*
X118250D01*
Y87275D01*
D02*
G37*
G36*
X112651D02*
X112674D01*
Y87251D01*
X112698D01*
Y87228D01*
X112768D01*
Y87204D01*
X112792D01*
Y87181D01*
X112862D01*
Y87157D01*
X112886D01*
Y87134D01*
X112909D01*
Y87110D01*
X112933D01*
Y87087D01*
X112956D01*
Y87063D01*
X112980D01*
Y87040D01*
X113004D01*
Y87016D01*
X113027D01*
Y86898D01*
X113051D01*
Y86875D01*
X113074D01*
Y86828D01*
X113098D01*
Y86757D01*
X113074D01*
Y85581D01*
X113098D01*
Y85510D01*
X113074D01*
Y85487D01*
X112415D01*
Y85510D01*
X112392D01*
Y86757D01*
X112368D01*
Y86781D01*
X112345D01*
Y86804D01*
X112321D01*
Y86828D01*
X112251D01*
Y86804D01*
X112204D01*
Y86828D01*
X111898D01*
Y86804D01*
X111874D01*
Y86828D01*
X111804D01*
Y86804D01*
X111780D01*
Y85510D01*
X111756D01*
Y85487D01*
X111098D01*
Y86781D01*
X111074D01*
Y86804D01*
X111051D01*
Y86828D01*
X110533D01*
Y86804D01*
X110510D01*
Y86828D01*
X110439D01*
Y86804D01*
X110415D01*
Y86757D01*
X110392D01*
Y86687D01*
X110415D01*
Y86663D01*
X110392D01*
Y85581D01*
X110415D01*
Y85534D01*
X110392D01*
Y85487D01*
X109780D01*
Y85510D01*
X109757D01*
Y87275D01*
X109780D01*
Y87298D01*
X112651D01*
Y87275D01*
D02*
G37*
G36*
X109004D02*
X109027D01*
Y87251D01*
X109051D01*
Y87228D01*
X109121D01*
Y87204D01*
X109145D01*
Y87181D01*
X109215D01*
Y87157D01*
X109239D01*
Y87134D01*
X109263D01*
Y87110D01*
X109286D01*
Y87087D01*
X109310D01*
Y87063D01*
X109333D01*
Y87040D01*
X109357D01*
Y87016D01*
X109380D01*
Y86993D01*
X109404D01*
Y86875D01*
X109427D01*
Y86851D01*
X109451D01*
Y85487D01*
X108768D01*
Y86734D01*
X108745D01*
Y86757D01*
X108721D01*
Y86781D01*
X108698D01*
Y86804D01*
X108651D01*
Y86828D01*
X108180D01*
Y86804D01*
X108133D01*
Y86781D01*
X108110D01*
Y85557D01*
X108133D01*
Y85534D01*
X108110D01*
Y85487D01*
X107451D01*
Y85510D01*
X107427D01*
Y86804D01*
X107404D01*
Y86828D01*
X107333D01*
Y86804D01*
X107310D01*
Y86828D01*
X106863D01*
Y86804D01*
X106839D01*
Y86828D01*
X106769D01*
Y86781D01*
X106745D01*
Y85487D01*
X106133D01*
Y87298D01*
X109004D01*
Y87275D01*
D02*
G37*
G36*
X105404D02*
X105427D01*
Y87251D01*
X105474D01*
Y87228D01*
X105521D01*
Y87204D01*
X105545D01*
Y87181D01*
X105616D01*
Y87157D01*
X105639D01*
Y87134D01*
X105663D01*
Y87110D01*
X105686D01*
Y87087D01*
X105710D01*
Y87063D01*
X105733D01*
Y87016D01*
X105757D01*
Y86969D01*
X105780D01*
Y86922D01*
X105804D01*
Y86875D01*
X105827D01*
Y86851D01*
X105851D01*
Y85934D01*
X105827D01*
Y85910D01*
X105804D01*
Y85793D01*
X105780D01*
Y85769D01*
X105757D01*
Y85746D01*
X105733D01*
Y85722D01*
X105710D01*
Y85698D01*
X105686D01*
Y85651D01*
X105639D01*
Y85628D01*
X105616D01*
Y85604D01*
X105569D01*
Y85581D01*
X105521D01*
Y85557D01*
X105498D01*
Y85534D01*
X105451D01*
Y85510D01*
X105404D01*
Y85487D01*
X103757D01*
Y85534D01*
X103616D01*
Y85557D01*
X103592D01*
Y85581D01*
X103569D01*
Y85604D01*
X103475D01*
Y85628D01*
Y85651D01*
X103427D01*
Y85746D01*
X103404D01*
Y85769D01*
X103380D01*
Y85793D01*
X103357D01*
Y85816D01*
X103333D01*
Y85840D01*
X103310D01*
Y86945D01*
X103333D01*
Y86969D01*
X103357D01*
Y86993D01*
X103380D01*
Y87016D01*
X103404D01*
Y87040D01*
X103427D01*
Y87110D01*
X103451D01*
Y87134D01*
X103475D01*
Y87181D01*
X103569D01*
Y87204D01*
X103592D01*
Y87228D01*
X103710D01*
Y87251D01*
X103757D01*
Y87275D01*
X103780D01*
Y87298D01*
X105404D01*
Y87275D01*
D02*
G37*
G36*
X97875Y85487D02*
X97263D01*
Y85510D01*
X97240D01*
Y87887D01*
X97263D01*
Y87910D01*
X97875D01*
Y85487D01*
D02*
G37*
G36*
X94534Y87840D02*
X94557D01*
Y87369D01*
X94534D01*
Y87346D01*
X93075D01*
Y87040D01*
Y87016D01*
Y85510D01*
X93052D01*
Y85487D01*
X92440D01*
Y85534D01*
X92416D01*
Y85581D01*
X92440D01*
Y85604D01*
X92416D01*
Y87275D01*
X92440D01*
Y87322D01*
X92416D01*
Y87346D01*
X90957D01*
Y87369D01*
X90934D01*
Y87440D01*
X90957D01*
Y87769D01*
X90934D01*
Y87840D01*
X90957D01*
Y87863D01*
X94534D01*
Y87840D01*
D02*
G37*
G36*
X89146Y85934D02*
X89122D01*
Y85887D01*
X89099D01*
Y85769D01*
X89075D01*
Y85746D01*
X89052D01*
Y85722D01*
X89028D01*
Y85698D01*
X89005D01*
Y85675D01*
X88981D01*
Y85651D01*
X88958D01*
Y85628D01*
X88934D01*
Y85604D01*
X88863D01*
Y85581D01*
X88840D01*
Y85557D01*
X88816D01*
Y85534D01*
X88746D01*
Y85510D01*
X88722D01*
Y85487D01*
X87052D01*
Y85534D01*
X87005D01*
Y85557D01*
X86981D01*
Y85534D01*
X86911D01*
Y85557D01*
X86887D01*
Y85581D01*
X86864D01*
Y85604D01*
X86769D01*
Y85651D01*
X86722D01*
Y85746D01*
X86699D01*
Y85769D01*
X86675D01*
Y85793D01*
X86652D01*
Y85816D01*
X86628D01*
Y85840D01*
X86605D01*
Y85910D01*
X86628D01*
Y86875D01*
X86605D01*
Y86922D01*
X86628D01*
Y86969D01*
X86652D01*
Y86993D01*
X86675D01*
Y87016D01*
X86699D01*
Y87040D01*
X86722D01*
Y87110D01*
X86746D01*
Y87134D01*
X86769D01*
Y87157D01*
X86793D01*
Y87181D01*
X86864D01*
Y87204D01*
X86887D01*
Y87228D01*
X87028D01*
Y87251D01*
X87052D01*
Y87275D01*
X87075D01*
Y87298D01*
X88463D01*
Y87910D01*
X89146D01*
Y85934D01*
D02*
G37*
G36*
X85852Y87275D02*
X85875D01*
Y87251D01*
X85922D01*
Y87228D01*
X85969D01*
Y87204D01*
X85993D01*
Y87181D01*
X86087D01*
Y87134D01*
X86111D01*
Y87110D01*
X86134D01*
Y87087D01*
X86158D01*
Y87063D01*
X86181D01*
Y87040D01*
X86205D01*
Y86969D01*
X86228D01*
Y86945D01*
X86252D01*
Y86898D01*
X86275D01*
Y86851D01*
X86299D01*
Y86804D01*
X86322D01*
Y86757D01*
X86299D01*
Y85746D01*
Y85722D01*
Y85487D01*
X85640D01*
Y85510D01*
X85617D01*
Y86757D01*
X85593D01*
Y86781D01*
X85569D01*
Y86804D01*
X85522D01*
Y86828D01*
X84440D01*
Y86804D01*
X84393D01*
Y85487D01*
X83781D01*
Y85534D01*
X83758D01*
Y85557D01*
X83781D01*
Y87204D01*
X83758D01*
Y87251D01*
X83781D01*
Y87298D01*
X85852D01*
Y87275D01*
D02*
G37*
G36*
X76770D02*
X76793D01*
Y85510D01*
X76770D01*
Y85487D01*
X76158D01*
Y86287D01*
Y86310D01*
Y87275D01*
X76182D01*
Y87298D01*
X76770D01*
Y87275D01*
D02*
G37*
G36*
X75405Y87251D02*
X75429D01*
Y87228D01*
X75523D01*
Y87204D01*
X75546D01*
Y87181D01*
X75617D01*
Y87157D01*
X75641D01*
Y87134D01*
X75664D01*
Y87110D01*
X75688D01*
Y87087D01*
X75711D01*
Y87063D01*
X75735D01*
Y87040D01*
X75758D01*
Y86945D01*
X75782D01*
Y86922D01*
X75805D01*
Y86851D01*
X75829D01*
Y86828D01*
X75852D01*
Y85510D01*
X75829D01*
Y85487D01*
X75170D01*
Y85510D01*
X75146D01*
Y86404D01*
Y86428D01*
Y86757D01*
X75123D01*
Y86781D01*
X75099D01*
Y86804D01*
X75052D01*
Y86828D01*
X74982D01*
Y86804D01*
X74958D01*
Y86828D01*
X74064D01*
Y86804D01*
X74041D01*
Y86828D01*
X73970D01*
Y86804D01*
X73946D01*
Y85510D01*
X73923D01*
Y85487D01*
X73335D01*
Y85510D01*
X73311D01*
Y87275D01*
X73335D01*
Y87298D01*
X75405D01*
Y87251D01*
D02*
G37*
G36*
X72582Y87275D02*
X72605D01*
Y87251D01*
X72653D01*
Y87228D01*
X72699D01*
Y87204D01*
X72723D01*
Y87181D01*
X72817D01*
Y87157D01*
X72841D01*
Y87134D01*
X72864D01*
Y87110D01*
X72888D01*
Y87087D01*
X72911D01*
Y87063D01*
X72935D01*
Y86969D01*
X72982D01*
Y86898D01*
X73005D01*
Y86851D01*
X73029D01*
Y86828D01*
X73052D01*
Y85957D01*
X73029D01*
Y85934D01*
X73005D01*
Y85887D01*
X72982D01*
Y85769D01*
X72958D01*
Y85746D01*
X72935D01*
Y85722D01*
X72911D01*
Y85698D01*
X72888D01*
Y85675D01*
X72864D01*
Y85651D01*
X72841D01*
Y85628D01*
X72817D01*
Y85604D01*
X72747D01*
Y85581D01*
X72723D01*
Y85557D01*
X72699D01*
Y85534D01*
X72605D01*
Y85487D01*
X70958D01*
Y85510D01*
X70935D01*
Y85534D01*
X70794D01*
Y85557D01*
X70770D01*
Y85581D01*
X70747D01*
Y85604D01*
X70676D01*
Y85628D01*
X70653D01*
Y85651D01*
X70629D01*
Y85675D01*
X70606D01*
Y85769D01*
X70558D01*
Y85816D01*
X70511D01*
Y86969D01*
X70558D01*
Y87016D01*
X70606D01*
Y87110D01*
X70629D01*
Y87134D01*
X70653D01*
Y87157D01*
X70676D01*
Y87181D01*
X70770D01*
Y87228D01*
X70888D01*
Y87251D01*
X70935D01*
Y87275D01*
X70958D01*
Y87298D01*
X72582D01*
Y87275D01*
D02*
G37*
G36*
X64347D02*
X64370D01*
Y87251D01*
X64418D01*
Y87228D01*
X64465D01*
Y87204D01*
X64488D01*
Y87181D01*
X64512D01*
Y87157D01*
X64535D01*
Y87134D01*
X64559D01*
Y87110D01*
X64582D01*
Y87040D01*
X64606D01*
Y87016D01*
X64629D01*
Y86451D01*
X64606D01*
Y86428D01*
X64582D01*
Y86404D01*
X64559D01*
Y86381D01*
X64535D01*
Y86357D01*
X64512D01*
Y86334D01*
X64488D01*
Y86310D01*
X64465D01*
Y86287D01*
X64441D01*
Y86263D01*
X64418D01*
Y86240D01*
X64394D01*
Y86216D01*
X62888D01*
Y86051D01*
X62912D01*
Y86028D01*
X62935D01*
Y85981D01*
X64559D01*
Y85957D01*
X64582D01*
Y85487D01*
X62653D01*
Y85510D01*
X62629D01*
Y85534D01*
X62512D01*
Y85557D01*
X62488D01*
Y85581D01*
X62465D01*
Y85604D01*
X62441D01*
Y85628D01*
X62418D01*
Y85651D01*
X62394D01*
Y85675D01*
X62371D01*
Y85698D01*
X62347D01*
Y85722D01*
X62323D01*
Y85793D01*
X62300D01*
Y85816D01*
X62277D01*
Y85840D01*
X62253D01*
Y86310D01*
Y86334D01*
Y86993D01*
X62277D01*
Y87016D01*
X62300D01*
Y87040D01*
X62323D01*
Y87063D01*
X62347D01*
Y87087D01*
X62371D01*
Y87110D01*
X62394D01*
Y87134D01*
X62418D01*
Y87157D01*
X62441D01*
Y87181D01*
X62465D01*
Y87204D01*
X62488D01*
Y87228D01*
X62606D01*
Y87251D01*
X62629D01*
Y87275D01*
X62677D01*
Y87298D01*
X64347D01*
Y87275D01*
D02*
G37*
G36*
X61923Y87887D02*
X61947D01*
Y85510D01*
X61923D01*
Y85487D01*
X61312D01*
Y87910D01*
X61923D01*
Y87887D01*
D02*
G37*
G36*
X61030Y87840D02*
X61053D01*
Y87369D01*
X61030D01*
Y87346D01*
X58159D01*
Y87322D01*
X58135D01*
Y87298D01*
X58112D01*
Y87275D01*
X58088D01*
Y86922D01*
X60959D01*
Y86898D01*
X60982D01*
Y86875D01*
X61006D01*
Y86404D01*
X60959D01*
Y86381D01*
X58088D01*
Y86098D01*
X58112D01*
Y86051D01*
X58135D01*
Y86028D01*
X61006D01*
Y86004D01*
X61030D01*
Y85981D01*
X61053D01*
Y85510D01*
X61030D01*
Y85487D01*
X57900D01*
Y85510D01*
X57877D01*
Y85534D01*
X57759D01*
Y85557D01*
X57712D01*
Y85581D01*
X57688D01*
Y85604D01*
X57618D01*
Y85651D01*
X57571D01*
Y85746D01*
X57547D01*
Y85769D01*
X57524D01*
Y85793D01*
X57500D01*
Y85816D01*
X57477D01*
Y85840D01*
X57453D01*
Y87534D01*
X57477D01*
Y87557D01*
X57500D01*
Y87604D01*
X57524D01*
Y87651D01*
X57547D01*
Y87675D01*
X57571D01*
Y87698D01*
X57594D01*
Y87722D01*
X57618D01*
Y87746D01*
X57665D01*
Y87769D01*
X57712D01*
Y87793D01*
X57736D01*
Y87816D01*
X57853D01*
Y87840D01*
X57877D01*
Y87863D01*
X61030D01*
Y87840D01*
D02*
G37*
G36*
X160719Y87275D02*
X160742D01*
Y87251D01*
X160790D01*
Y87228D01*
X160907D01*
Y87204D01*
X160931D01*
Y87181D01*
X161001D01*
Y87157D01*
X161025D01*
Y87134D01*
X161048D01*
Y87110D01*
X161072D01*
Y87087D01*
X161095D01*
Y87063D01*
X161119D01*
Y86993D01*
X161142D01*
Y86969D01*
X161166D01*
Y86922D01*
X161189D01*
Y86875D01*
X161166D01*
Y85346D01*
X161142D01*
Y85322D01*
X161119D01*
Y85252D01*
X161095D01*
Y85228D01*
X161072D01*
Y85157D01*
X161048D01*
Y85134D01*
X161025D01*
Y85110D01*
X161001D01*
Y85087D01*
X160978D01*
Y85063D01*
X160954D01*
Y85040D01*
X160931D01*
Y85016D01*
X160860D01*
Y84993D01*
X160837D01*
Y84969D01*
X160766D01*
Y84946D01*
X160742D01*
Y84922D01*
X158766D01*
Y84946D01*
X158743D01*
Y85369D01*
X158766D01*
Y85393D01*
X160319D01*
Y85369D01*
X160366D01*
Y85393D01*
X160389D01*
Y85440D01*
X160484D01*
Y85487D01*
X160507D01*
Y85581D01*
X160484D01*
Y85628D01*
X160507D01*
Y85651D01*
X160484D01*
Y85675D01*
X160507D01*
Y85722D01*
X160484D01*
Y85769D01*
X158907D01*
Y85816D01*
X158813D01*
Y85840D01*
X158790D01*
Y85863D01*
X158766D01*
Y85887D01*
X158743D01*
Y85910D01*
X158719D01*
Y85934D01*
X158695D01*
Y86004D01*
X158672D01*
Y86028D01*
X158648D01*
Y86075D01*
X158625D01*
Y86145D01*
X158648D01*
Y86169D01*
X158625D01*
Y86875D01*
X158648D01*
Y86922D01*
X158625D01*
Y86993D01*
X158648D01*
Y87016D01*
X158672D01*
Y87040D01*
X158695D01*
Y87063D01*
X158719D01*
Y87087D01*
X158743D01*
Y87110D01*
X158766D01*
Y87134D01*
X158790D01*
Y87157D01*
X158813D01*
Y87181D01*
X158837D01*
Y87204D01*
X158860D01*
Y87228D01*
X158978D01*
Y87251D01*
X159025D01*
Y87275D01*
X159048D01*
Y87298D01*
X160719D01*
Y87275D01*
D02*
G37*
G36*
X143237D02*
X143261D01*
Y87251D01*
X143284D01*
Y87228D01*
X143426D01*
Y87204D01*
X143449D01*
Y87181D01*
X143496D01*
Y87157D01*
X143543D01*
Y87134D01*
X143567D01*
Y87110D01*
X143590D01*
Y87087D01*
X143614D01*
Y87040D01*
X143637D01*
Y86969D01*
X143661D01*
Y86945D01*
X143684D01*
Y85346D01*
X143661D01*
Y85322D01*
X143637D01*
Y85299D01*
X143614D01*
Y85228D01*
X143590D01*
Y85181D01*
X143567D01*
Y85134D01*
X143543D01*
Y85110D01*
X143520D01*
Y85087D01*
X143496D01*
Y85063D01*
X143473D01*
Y85040D01*
X143426D01*
Y85016D01*
X143379D01*
Y84993D01*
X143355D01*
Y84969D01*
X143284D01*
Y84946D01*
X143261D01*
Y84922D01*
X141261D01*
Y84946D01*
X141237D01*
Y85016D01*
X141261D01*
Y85299D01*
X141237D01*
Y85346D01*
X141261D01*
Y85369D01*
X141285D01*
Y85393D01*
X142814D01*
Y85369D01*
X142861D01*
Y85393D01*
X142885D01*
Y85416D01*
X142908D01*
Y85440D01*
X143002D01*
Y85746D01*
X142979D01*
Y85769D01*
X141426D01*
Y85793D01*
X141402D01*
Y85816D01*
X141308D01*
Y85863D01*
X141285D01*
Y85887D01*
X141237D01*
Y85934D01*
X141214D01*
Y85957D01*
X141190D01*
Y86028D01*
X141167D01*
Y86051D01*
X141143D01*
Y86993D01*
X141167D01*
Y87016D01*
X141190D01*
Y87063D01*
X141237D01*
Y87110D01*
X141285D01*
Y87134D01*
X141308D01*
Y87181D01*
X141355D01*
Y87228D01*
X141496D01*
Y87251D01*
X141520D01*
Y87275D01*
X141543D01*
Y87298D01*
X143237D01*
Y87275D01*
D02*
G37*
%LPC*%
G36*
X124109Y86240D02*
X124062D01*
Y86216D01*
X123074D01*
Y86193D01*
X123050D01*
Y86169D01*
X123027D01*
Y86122D01*
X123003D01*
Y86075D01*
X123027D01*
Y86051D01*
X123050D01*
Y86004D01*
X123074D01*
Y85981D01*
X124062D01*
Y86004D01*
X124085D01*
Y86051D01*
X124109D01*
Y86075D01*
X124132D01*
Y86216D01*
X124109D01*
Y86240D01*
D02*
G37*
G36*
X82840D02*
X82793D01*
Y86216D01*
X81805D01*
Y86193D01*
X81781D01*
Y86169D01*
X81758D01*
Y86122D01*
X81734D01*
Y86098D01*
X81758D01*
Y86051D01*
X81781D01*
Y86004D01*
X81805D01*
Y85981D01*
X82793D01*
Y86004D01*
X82817D01*
Y86051D01*
X82840D01*
Y86075D01*
X82864D01*
Y86216D01*
X82840D01*
Y86240D01*
D02*
G37*
G36*
X99851Y86828D02*
X99781D01*
Y86804D01*
X99733D01*
Y86828D01*
X99028D01*
Y86804D01*
X99004D01*
Y86828D01*
X98910D01*
Y86804D01*
X98886D01*
Y86781D01*
X98863D01*
Y86757D01*
X98840D01*
Y86569D01*
X98863D01*
Y86545D01*
X99851D01*
Y86569D01*
X99875D01*
Y86640D01*
X99898D01*
Y86663D01*
X99922D01*
Y86757D01*
X99898D01*
Y86781D01*
X99875D01*
Y86804D01*
X99851D01*
Y86828D01*
D02*
G37*
G36*
X96204D02*
X95357D01*
Y86804D01*
X95334D01*
Y86828D01*
X95263D01*
Y86804D01*
X95240D01*
Y86781D01*
X95216D01*
Y86757D01*
X95193D01*
Y86734D01*
X95169D01*
Y86569D01*
X95193D01*
Y86545D01*
X96228D01*
Y86569D01*
X96251D01*
Y86663D01*
X96298D01*
Y86734D01*
X96275D01*
Y86757D01*
X96251D01*
Y86804D01*
X96204D01*
Y86828D01*
D02*
G37*
G36*
X152060D02*
X151990D01*
Y86804D01*
X151966D01*
Y86828D01*
X151119D01*
Y86804D01*
X151072D01*
Y86781D01*
X151049D01*
Y86734D01*
X151025D01*
Y86569D01*
X151049D01*
Y86545D01*
X152060D01*
Y86569D01*
X152084D01*
Y86640D01*
X152108D01*
Y86663D01*
X152131D01*
Y86710D01*
X152108D01*
Y86734D01*
X152084D01*
Y86804D01*
X152060D01*
Y86828D01*
D02*
G37*
G36*
X149355D02*
X149284D01*
Y86804D01*
X149261D01*
Y86828D01*
X148531D01*
Y86804D01*
X148508D01*
Y86828D01*
X148437D01*
Y86804D01*
X148390D01*
Y86781D01*
X148367D01*
Y86757D01*
X148343D01*
Y86569D01*
X148367D01*
Y86545D01*
X149355D01*
Y86569D01*
X149378D01*
Y86616D01*
X149402D01*
Y86663D01*
X149425D01*
Y86734D01*
X149378D01*
Y86804D01*
X149355D01*
Y86828D01*
D02*
G37*
G36*
X129073D02*
X129026D01*
Y86804D01*
X129003D01*
Y86828D01*
X128038D01*
Y86804D01*
X127991D01*
Y86781D01*
X127968D01*
Y86757D01*
X127944D01*
Y86710D01*
X127921D01*
Y86663D01*
X127944D01*
Y86122D01*
X127921D01*
Y86075D01*
X127944D01*
Y86028D01*
X127968D01*
Y86004D01*
X127991D01*
Y85981D01*
X129097D01*
Y86004D01*
X129120D01*
Y86028D01*
X129144D01*
Y86051D01*
X129167D01*
Y86734D01*
X129144D01*
Y86757D01*
X129120D01*
Y86781D01*
X129097D01*
Y86804D01*
X129073D01*
Y86828D01*
D02*
G37*
G36*
X105098D02*
X105027D01*
Y86804D01*
X104980D01*
Y86828D01*
X104157D01*
Y86804D01*
X104133D01*
Y86828D01*
X104063D01*
Y86804D01*
X104016D01*
Y86781D01*
X103969D01*
Y86734D01*
X103945D01*
Y86051D01*
X103969D01*
Y86028D01*
X103992D01*
Y85981D01*
X105121D01*
Y86028D01*
X105145D01*
Y86051D01*
X105169D01*
Y86757D01*
X105145D01*
Y86781D01*
X105121D01*
Y86804D01*
X105098D01*
Y86828D01*
D02*
G37*
G36*
X88440D02*
X88369D01*
Y86804D01*
X88346D01*
Y86828D01*
X87452D01*
Y86804D01*
X87428D01*
Y86828D01*
X87358D01*
Y86804D01*
X87311D01*
Y86781D01*
X87287D01*
Y86757D01*
X87263D01*
Y86028D01*
X87287D01*
Y86004D01*
X87311D01*
Y85981D01*
X88346D01*
Y85957D01*
X88369D01*
Y85981D01*
X88416D01*
Y86004D01*
X88440D01*
Y86028D01*
X88463D01*
Y86804D01*
X88440D01*
Y86828D01*
D02*
G37*
G36*
X72276D02*
X71217D01*
Y86804D01*
X71194D01*
Y86781D01*
X71170D01*
Y86757D01*
X71147D01*
Y86734D01*
X71123D01*
Y86051D01*
X71147D01*
Y86028D01*
X71170D01*
Y86004D01*
X71194D01*
Y85981D01*
X72299D01*
Y86004D01*
X72323D01*
Y86028D01*
X72347D01*
Y86051D01*
X72370D01*
Y86710D01*
X72347D01*
Y86757D01*
X72323D01*
Y86781D01*
X72299D01*
Y86804D01*
X72276D01*
Y86828D01*
D02*
G37*
G36*
X63924D02*
X63853D01*
Y86804D01*
X63829D01*
Y86828D01*
X62982D01*
Y86804D01*
X62935D01*
Y86781D01*
X62912D01*
Y86734D01*
X62888D01*
Y86569D01*
X62912D01*
Y86545D01*
X63924D01*
Y86569D01*
X63947D01*
Y86640D01*
X63970D01*
Y86663D01*
X63994D01*
Y86687D01*
X64018D01*
Y86734D01*
X63994D01*
Y86757D01*
X63970D01*
Y86781D01*
X63947D01*
Y86804D01*
X63924D01*
Y86828D01*
D02*
G37*
G36*
X160413D02*
X160343D01*
Y86804D01*
X160319D01*
Y86828D01*
X159354D01*
Y86804D01*
X159331D01*
Y86781D01*
X159307D01*
Y86757D01*
X159284D01*
Y86734D01*
X159260D01*
Y86663D01*
Y86640D01*
Y86310D01*
X159284D01*
Y86287D01*
X159307D01*
Y86263D01*
X159331D01*
Y86240D01*
X159354D01*
Y86216D01*
X160460D01*
Y86240D01*
X160484D01*
Y86263D01*
X160507D01*
Y86357D01*
X160484D01*
Y86404D01*
X160507D01*
Y86593D01*
X160484D01*
Y86640D01*
X160507D01*
Y86710D01*
X160484D01*
Y86757D01*
X160460D01*
Y86781D01*
X160437D01*
Y86804D01*
X160413D01*
Y86828D01*
D02*
G37*
G36*
X142908D02*
X142861D01*
Y86804D01*
X142814D01*
Y86828D01*
X141990D01*
Y86804D01*
X141967D01*
Y86828D01*
X141873D01*
Y86804D01*
X141849D01*
Y86781D01*
X141802D01*
Y86734D01*
X141779D01*
Y86310D01*
X141802D01*
Y86287D01*
X141826D01*
Y86263D01*
X141849D01*
Y86240D01*
X141873D01*
Y86216D01*
X142979D01*
Y86240D01*
X143002D01*
Y86734D01*
X142979D01*
Y86781D01*
X142931D01*
Y86804D01*
X142908D01*
Y86828D01*
D02*
G37*
%LPD*%
D10*
X-215700Y275590D02*
G03*
X-215700Y275590I-1250J0D01*
G01*
X-168820Y150180D02*
G03*
X-168820Y150180I-1250J0D01*
G01*
X-29010Y444720D02*
G03*
X-29010Y444720I-1250J0D01*
G01*
X74260Y419960D02*
G03*
X74260Y419960I-1250J0D01*
G01*
X-33130Y381450D02*
G03*
X-33130Y381450I-1250J0D01*
G01*
D11*
X-95570Y430360D02*
G03*
X-95570Y430360I-1000J0D01*
G01*
X1000Y82000D02*
G03*
X1000Y82000I-1000J0D01*
G01*
X-45940Y115740D02*
G03*
X-45940Y115740I-1000J0D01*
G01*
X50480Y262720D02*
G03*
X50480Y262720I-1000J0D01*
G01*
X187440Y426720D02*
G03*
X187440Y426720I-1000J0D01*
G01*
X220710Y315110D02*
G03*
X220710Y315110I-1000J0D01*
G01*
X-11510Y411220D02*
Y442220D01*
X-21510Y411220D02*
Y442220D01*
Y411220D02*
X-11510D01*
X-21510Y442220D02*
X-11510D01*
X43860Y444260D02*
X52660D01*
X39760Y426810D02*
Y431710D01*
X43860Y414260D02*
X52660D01*
X80530Y468260D02*
X82030D01*
X80530Y453760D02*
X82030D01*
X136299Y383110D02*
X160881D01*
X136299Y361110D02*
X160881D01*
D12*
X-76962Y495300D02*
G03*
X-84582Y495300I-3810J0D01*
G01*
D02*
G03*
X-76962Y495300I3810J0D01*
G01*
D13*
X109157Y248244D02*
G03*
X109157Y248244I-1200J0D01*
G01*
D14*
X-210450Y260690D02*
Y290690D01*
X-132450Y260690D02*
Y290690D01*
X-210450Y260690D02*
X-132450D01*
X-210450Y290690D02*
X-132450D01*
X-210450Y287590D02*
X-132450D01*
X-191710Y233020D02*
X-146110D01*
X-191710D02*
Y252120D01*
X-146110D01*
Y233020D02*
Y252120D01*
X-153910Y234020D02*
Y251120D01*
X-146110Y242570D02*
X-142110D01*
X-195710D02*
X-191710D01*
X-168850Y211480D02*
X-123250D01*
Y192380D02*
Y211480D01*
X-168850Y192380D02*
X-123250D01*
X-168850D02*
Y211480D01*
X-161050Y193380D02*
Y210480D01*
X-172850Y201930D02*
X-168850D01*
X-123250D02*
X-119250D01*
X-186320Y155180D02*
Y185180D01*
X-108320D01*
Y155180D02*
Y185180D01*
X-186320Y155180D02*
X-108320D01*
X-103970Y406860D02*
Y464360D01*
X-177970Y406860D02*
Y464360D01*
X-103970D01*
X-177970Y406860D02*
X-103970D01*
X-134971Y327639D02*
Y360701D01*
X-111409Y327639D02*
Y360701D01*
X-63246Y459740D02*
Y530860D01*
X58674D01*
Y459740D02*
Y530860D01*
X-63246Y459740D02*
X58674D01*
X-60000Y-35000D02*
X60000D01*
Y75000D01*
X-60000D02*
X60000D01*
X-60000Y-35000D02*
Y75000D01*
X-39540Y81740D02*
Y139240D01*
X34460D01*
Y81740D02*
Y139240D01*
X-39540Y81740D02*
X34460D01*
X-31920Y239220D02*
X42080D01*
X-31920Y296720D02*
X42080D01*
X-31920Y239220D02*
Y296720D01*
X42080Y239220D02*
Y296720D01*
X-13436Y232694D02*
X21564D01*
X-13436Y204694D02*
X21564D01*
X-2160Y329350D02*
X-1160D01*
X-2160Y318350D02*
X-1160D01*
X49530Y379730D02*
Y381730D01*
X69850Y379730D02*
Y381730D01*
X68470Y292520D02*
X69470D01*
X68470Y281520D02*
X69470D01*
X74930Y379730D02*
Y382270D01*
X92710Y379730D02*
Y380729D01*
X105040Y403220D02*
X179040D01*
X105040Y460720D02*
X179040D01*
X105040Y403220D02*
Y460720D01*
X179040Y403220D02*
Y460720D01*
X168049Y339930D02*
X192631D01*
X168049Y317930D02*
X192631D01*
X185710Y307710D02*
X243210D01*
X185710Y233710D02*
X243210D01*
X185710D02*
Y307710D01*
X243210Y233710D02*
Y307710D01*
X-14880Y336450D02*
Y336950D01*
Y386950D02*
Y387450D01*
Y336450D02*
X30120D01*
Y336950D01*
X-14880Y387450D02*
X30120D01*
Y386950D02*
Y387450D01*
X138710Y298480D02*
X173710D01*
X138710Y270480D02*
X173710D01*
X-11430Y280670D02*
X-3810D01*
X-7620Y276860D02*
Y284480D01*
X15240Y280670D02*
X20320D01*
X200660Y255270D02*
Y260350D01*
X196850Y283210D02*
X204470D01*
X200660Y279400D02*
Y287020D01*
D15*
X-76650Y424410D02*
Y427810D01*
X-63050Y424410D02*
Y427810D01*
X5900Y424410D02*
Y427810D01*
X19500Y424410D02*
Y427810D01*
X128914Y250664D02*
X155414D01*
Y244664D02*
Y250664D01*
X128914Y214664D02*
X155414D01*
Y220664D01*
D16*
X-240662Y299721D02*
Y307339D01*
X-236853D01*
X-235584Y306069D01*
Y303530D01*
X-236853Y302260D01*
X-240662D01*
X-238123D02*
X-235584Y299721D01*
X-233044D02*
X-230505D01*
X-231775D01*
Y307339D01*
X-233044Y306069D01*
X-221618Y307339D02*
X-226696D01*
Y303530D01*
X-224157Y304799D01*
X-222888D01*
X-221618Y303530D01*
Y300991D01*
X-222888Y299721D01*
X-225427D01*
X-226696Y300991D01*
X-195580Y295911D02*
Y300989D01*
X-196849Y302259D01*
X-199389D01*
X-200658Y300989D01*
Y295911D01*
X-199389Y294641D01*
X-196849D01*
X-198119Y297180D02*
X-195580Y294641D01*
X-196849D02*
X-195580Y295911D01*
X-187962Y294641D02*
X-193041D01*
X-187962Y299719D01*
Y300989D01*
X-189232Y302259D01*
X-191771D01*
X-193041Y300989D01*
X-198118Y227329D02*
Y219711D01*
X-194309D01*
X-193040Y220981D01*
Y226059D01*
X-194309Y227329D01*
X-198118D01*
X-185422Y219711D02*
X-190501D01*
X-185422Y224789D01*
Y226059D01*
X-186692Y227329D01*
X-189231D01*
X-190501Y226059D01*
X-116839Y218439D02*
Y210821D01*
X-113030D01*
X-111760Y212091D01*
Y217169D01*
X-113030Y218439D01*
X-116839D01*
X-109221Y210821D02*
X-106682D01*
X-107951D01*
Y218439D01*
X-109221Y217169D01*
X-184150Y143511D02*
Y148589D01*
X-185420Y149859D01*
X-187959D01*
X-189228Y148589D01*
Y143511D01*
X-187959Y142241D01*
X-185420D01*
X-186689Y144780D02*
X-184150Y142241D01*
X-185420D02*
X-184150Y143511D01*
X-181611Y142241D02*
X-179072D01*
X-180341D01*
Y149859D01*
X-181611Y148589D01*
X-191516Y446023D02*
X-194055D01*
X-192785D01*
Y439675D01*
X-194055Y438405D01*
X-195324D01*
X-196594Y439675D01*
X-185168Y438405D02*
Y446023D01*
X-188976Y442214D01*
X-183898D01*
X-130304Y381506D02*
X-131573Y382775D01*
X-134113D01*
X-135382Y381506D01*
Y376427D01*
X-134113Y375158D01*
X-131573D01*
X-130304Y376427D01*
X-122686Y375158D02*
X-127765D01*
X-122686Y380236D01*
Y381506D01*
X-123956Y382775D01*
X-126495D01*
X-127765Y381506D01*
X-113662Y292101D02*
Y299719D01*
X-109854D01*
X-108584Y298449D01*
Y295910D01*
X-109854Y294640D01*
X-113662D01*
X-111123D02*
X-108584Y292101D01*
X-106045D02*
X-103506D01*
X-104775D01*
Y299719D01*
X-106045Y298449D01*
X-99697Y292101D02*
X-97158D01*
X-98427D01*
Y299719D01*
X-99697Y298449D01*
X-103886Y367538D02*
Y375155D01*
X-100077D01*
X-98808Y373886D01*
Y371347D01*
X-100077Y370077D01*
X-103886D01*
X-101347D02*
X-98808Y367538D01*
X-96269Y373886D02*
X-94999Y375155D01*
X-92460D01*
X-91190Y373886D01*
Y372616D01*
X-92460Y371347D01*
X-91190Y370077D01*
Y368807D01*
X-92460Y367538D01*
X-94999D01*
X-96269Y368807D01*
Y370077D01*
X-94999Y371347D01*
X-96269Y372616D01*
Y373886D01*
X-94999Y371347D02*
X-92460D01*
X-111760Y35559D02*
X-114299D01*
X-113029D01*
Y29211D01*
X-114299Y27941D01*
X-115569D01*
X-116838Y29211D01*
X-104142Y35559D02*
X-106681Y34289D01*
X-109221Y31750D01*
Y29211D01*
X-107951Y27941D01*
X-105412D01*
X-104142Y29211D01*
Y30480D01*
X-105412Y31750D01*
X-109221D01*
X-97790Y117856D02*
Y125473D01*
X-93981D01*
X-92712Y124204D01*
Y121665D01*
X-93981Y120395D01*
X-97790D01*
X-95251D02*
X-92712Y117856D01*
X-90173D02*
X-87633D01*
X-88903D01*
Y125473D01*
X-90173Y124204D01*
X-83825D02*
X-82555Y125473D01*
X-80016D01*
X-78746Y124204D01*
Y119125D01*
X-80016Y117856D01*
X-82555D01*
X-83825Y119125D01*
Y124204D01*
X-87628Y137161D02*
Y144779D01*
X-83819D01*
X-82550Y143509D01*
Y140970D01*
X-83819Y139700D01*
X-87628D01*
X-85089D02*
X-82550Y137161D01*
X-80010Y144779D02*
X-74932D01*
Y143509D01*
X-80010Y138431D01*
Y137161D01*
X-6096Y544829D02*
X-8635D01*
X-7365D01*
Y538481D01*
X-8635Y537211D01*
X-9905D01*
X-11174Y538481D01*
X1522Y537211D02*
X-3557D01*
X1522Y542289D01*
Y543559D01*
X252Y544829D01*
X-2287D01*
X-3557Y543559D01*
X-76198Y444501D02*
Y452119D01*
X-72389D01*
X-71120Y450849D01*
Y448310D01*
X-72389Y447040D01*
X-76198D01*
X-73659D02*
X-71120Y444501D01*
X-64772D02*
Y452119D01*
X-68580Y448310D01*
X-63502D01*
X-74928Y377191D02*
Y384809D01*
X-71119D01*
X-69850Y383539D01*
Y381000D01*
X-71119Y379730D01*
X-74928D01*
X-72389D02*
X-69850Y377191D01*
X-67311Y383539D02*
X-66041Y384809D01*
X-63502D01*
X-62232Y383539D01*
Y382269D01*
X-63502Y381000D01*
X-64771D01*
X-63502D01*
X-62232Y379730D01*
Y378461D01*
X-63502Y377191D01*
X-66041D01*
X-67311Y378461D01*
X-76454Y334010D02*
Y341627D01*
X-72645D01*
X-71376Y340358D01*
Y337819D01*
X-72645Y336549D01*
X-76454D01*
X-73915D02*
X-71376Y334010D01*
X-68837D02*
X-66297D01*
X-67567D01*
Y341627D01*
X-68837Y340358D01*
X-59220Y88029D02*
X-61759D01*
X-60489D01*
Y81681D01*
X-61759Y80411D01*
X-63028D01*
X-64298Y81681D01*
X-56680Y88029D02*
X-51602D01*
Y86759D01*
X-56680Y81681D01*
Y80411D01*
X-50800Y403859D02*
X-52069Y405129D01*
X-54608D01*
X-55878Y403859D01*
Y398781D01*
X-54608Y397511D01*
X-52069D01*
X-50800Y398781D01*
X-44452Y397511D02*
Y405129D01*
X-48260Y401320D01*
X-43182D01*
X-31950Y153839D02*
X-34489D01*
X-33219D01*
Y147491D01*
X-34489Y146221D01*
X-35758D01*
X-37028Y147491D01*
X-29410Y152569D02*
X-28141Y153839D01*
X-25602D01*
X-24332Y152569D01*
Y151300D01*
X-25602Y150030D01*
X-24332Y148760D01*
Y147491D01*
X-25602Y146221D01*
X-28141D01*
X-29410Y147491D01*
Y148760D01*
X-28141Y150030D01*
X-29410Y151300D01*
Y152569D01*
X-28141Y150030D02*
X-25602D01*
X-20318Y453389D02*
Y447041D01*
X-19049Y445771D01*
X-16509D01*
X-15240Y447041D01*
Y453389D01*
X-12701Y452119D02*
X-11431Y453389D01*
X-8892D01*
X-7622Y452119D01*
Y450849D01*
X-8892Y449580D01*
X-10161D01*
X-8892D01*
X-7622Y448310D01*
Y447041D01*
X-8892Y445771D01*
X-11431D01*
X-12701Y447041D01*
X-44450Y294639D02*
X-46989D01*
X-45719D01*
Y288291D01*
X-46989Y287021D01*
X-48259D01*
X-49528Y288291D01*
X-41911Y293369D02*
X-40641Y294639D01*
X-38102D01*
X-36832Y293369D01*
Y292099D01*
X-38102Y290830D01*
X-39371D01*
X-38102D01*
X-36832Y289560D01*
Y288291D01*
X-38102Y287021D01*
X-40641D01*
X-41911Y288291D01*
X1524Y194563D02*
X255Y195833D01*
X-2284D01*
X-3554Y194563D01*
Y189485D01*
X-2284Y188215D01*
X255D01*
X1524Y189485D01*
X4064Y195833D02*
X9142D01*
Y194563D01*
X4064Y189485D01*
Y188215D01*
X-12062Y306071D02*
Y313689D01*
X-8253D01*
X-6984Y312419D01*
Y309880D01*
X-8253Y308610D01*
X-12062D01*
X-9523D02*
X-6984Y306071D01*
X-4444D02*
X-1905D01*
X-3175D01*
Y313689D01*
X-4444Y312419D01*
X1903Y313689D02*
X6982D01*
Y312419D01*
X1903Y307341D01*
Y306071D01*
X7622Y445161D02*
Y452779D01*
X11431D01*
X12700Y451509D01*
Y448970D01*
X11431Y447700D01*
X7622D01*
X10161D02*
X12700Y445161D01*
X20318Y452779D02*
X15239D01*
Y448970D01*
X17779Y450239D01*
X19048D01*
X20318Y448970D01*
Y446431D01*
X19048Y445161D01*
X16509D01*
X15239Y446431D01*
X30482Y454659D02*
Y448311D01*
X31751Y447041D01*
X34290D01*
X35560Y448311D01*
Y454659D01*
X38099Y447041D02*
X40638D01*
X39369D01*
Y454659D01*
X38099Y453389D01*
X53342Y401321D02*
Y408939D01*
X57151D01*
X58420Y407669D01*
Y405130D01*
X57151Y403860D01*
X53342D01*
X55881D02*
X58420Y401321D01*
X60960Y402591D02*
X62229Y401321D01*
X64768D01*
X66038Y402591D01*
Y407669D01*
X64768Y408939D01*
X62229D01*
X60960Y407669D01*
Y406399D01*
X62229Y405130D01*
X66038D01*
X73662Y327661D02*
Y335279D01*
X77471D01*
X78740Y334009D01*
Y331470D01*
X77471Y330200D01*
X73662D01*
X76201D02*
X78740Y327661D01*
X86358Y335279D02*
X83819Y334009D01*
X81279Y331470D01*
Y328931D01*
X82549Y327661D01*
X85088D01*
X86358Y328931D01*
Y330200D01*
X85088Y331470D01*
X81279D01*
X55626Y304038D02*
Y311655D01*
X59435D01*
X60704Y310386D01*
Y307847D01*
X59435Y306577D01*
X55626D01*
X58165D02*
X60704Y304038D01*
X63243D02*
X65783D01*
X64513D01*
Y311655D01*
X63243Y310386D01*
X73400Y304038D02*
Y311655D01*
X69591Y307847D01*
X74670D01*
X75184Y258063D02*
X73915Y259333D01*
X71376D01*
X70106Y258063D01*
Y252985D01*
X71376Y251715D01*
X73915D01*
X75184Y252985D01*
X82802Y259333D02*
X80263Y258063D01*
X77724Y255524D01*
Y252985D01*
X78993Y251715D01*
X81532D01*
X82802Y252985D01*
Y254254D01*
X81532Y255524D01*
X77724D01*
X71880Y486408D02*
X70611Y487677D01*
X68071D01*
X66802Y486408D01*
Y481329D01*
X68071Y480060D01*
X70611D01*
X71880Y481329D01*
X74419Y486408D02*
X75689Y487677D01*
X78228D01*
X79498Y486408D01*
Y485138D01*
X78228Y483869D01*
X76959D01*
X78228D01*
X79498Y482599D01*
Y481329D01*
X78228Y480060D01*
X75689D01*
X74419Y481329D01*
X97158Y375921D02*
Y383539D01*
X100967D01*
X102236Y382269D01*
Y379730D01*
X100967Y378460D01*
X97158D01*
X99697D02*
X102236Y375921D01*
X104775D02*
X107315D01*
X106045D01*
Y383539D01*
X104775Y382269D01*
X116202Y383539D02*
X113663Y382269D01*
X111124Y379730D01*
Y377191D01*
X112393Y375921D01*
X114932D01*
X116202Y377191D01*
Y378460D01*
X114932Y379730D01*
X111124D01*
X88900Y408939D02*
X87630Y410209D01*
X85091D01*
X83821Y408939D01*
Y403861D01*
X85091Y402591D01*
X87630D01*
X88900Y403861D01*
X91439Y402591D02*
X93978D01*
X92709D01*
Y410209D01*
X91439Y408939D01*
X110490Y36829D02*
X107951D01*
X109221D01*
Y30481D01*
X107951Y29211D01*
X106681D01*
X105412Y30481D01*
X113029D02*
X114299Y29211D01*
X116838D01*
X118108Y30481D01*
Y35559D01*
X116838Y36829D01*
X114299D01*
X113029Y35559D01*
Y34289D01*
X114299Y33020D01*
X118108D01*
X109858Y266701D02*
Y274319D01*
X113667D01*
X114936Y273049D01*
Y270510D01*
X113667Y269240D01*
X109858D01*
X112397D02*
X114936Y266701D01*
X117476D02*
X120015D01*
X118745D01*
Y274319D01*
X117476Y273049D01*
X123824D02*
X125093Y274319D01*
X127632D01*
X128902Y273049D01*
Y271780D01*
X127632Y270510D01*
X126363D01*
X127632D01*
X128902Y269240D01*
Y267971D01*
X127632Y266701D01*
X125093D01*
X123824Y267971D01*
X190754Y440943D02*
X188215D01*
X189484D01*
Y434595D01*
X188215Y433325D01*
X186945D01*
X185676Y434595D01*
X193293Y433325D02*
X195832D01*
X194563D01*
Y440943D01*
X193293Y439673D01*
X200662Y323851D02*
Y331469D01*
X204471D01*
X205740Y330199D01*
Y327660D01*
X204471Y326390D01*
X200662D01*
X203201D02*
X205740Y323851D01*
X213358D02*
X208280D01*
X213358Y328930D01*
Y330199D01*
X212088Y331469D01*
X209549D01*
X208280Y330199D01*
X231140Y320039D02*
X228601D01*
X229871D01*
Y313691D01*
X228601Y312421D01*
X227332D01*
X226062Y313691D01*
X238758Y320039D02*
X233680D01*
Y316230D01*
X236219Y317499D01*
X237488D01*
X238758Y316230D01*
Y313691D01*
X237488Y312421D01*
X234949D01*
X233680Y313691D01*
X126622Y202185D02*
Y209803D01*
X130431D01*
X131700Y208533D01*
Y205994D01*
X130431Y204724D01*
X126622D01*
X129161D02*
X131700Y202185D01*
X134240D02*
X136779D01*
X135509D01*
Y209803D01*
X134240Y208533D01*
X145666Y202185D02*
X140588D01*
X145666Y207264D01*
Y208533D01*
X144396Y209803D01*
X141857D01*
X140588Y208533D01*
X16510Y474979D02*
X21588D01*
X19049Y477518D02*
Y472439D01*
X24127Y477518D02*
X25397Y478787D01*
X27936D01*
X29206Y477518D01*
Y476248D01*
X27936Y474979D01*
X26667D01*
X27936D01*
X29206Y473709D01*
Y472439D01*
X27936Y471170D01*
X25397D01*
X24127Y472439D01*
X31745Y471170D02*
Y472439D01*
X33015D01*
Y471170D01*
X31745D01*
X38093Y478787D02*
X43171D01*
Y477518D01*
X38093Y472439D01*
Y471170D01*
X45710Y478787D02*
Y473709D01*
X48250Y471170D01*
X50789Y473709D01*
Y478787D01*
X-53340Y474979D02*
X-48262D01*
X-45723Y477518D02*
X-44453Y478787D01*
X-41914D01*
X-40644Y477518D01*
Y476248D01*
X-41914Y474979D01*
X-43183D01*
X-41914D01*
X-40644Y473709D01*
Y472439D01*
X-41914Y471170D01*
X-44453D01*
X-45723Y472439D01*
X-38105Y471170D02*
Y472439D01*
X-36835D01*
Y471170D01*
X-38105D01*
X-31757Y478787D02*
X-26679D01*
Y477518D01*
X-31757Y472439D01*
Y471170D01*
X-24140Y478787D02*
Y473709D01*
X-21600Y471170D01*
X-19061Y473709D01*
Y478787D01*
X-6352Y477518D02*
X-7621Y478787D01*
X-10160D01*
X-11430Y477518D01*
Y472439D01*
X-10160Y471170D01*
X-7621D01*
X-6352Y472439D01*
Y474979D01*
X-8891D01*
X-3813Y471170D02*
Y478787D01*
X1266Y471170D01*
Y478787D01*
X3805D02*
Y471170D01*
X7614D01*
X8883Y472439D01*
Y477518D01*
X7614Y478787D01*
X3805D01*
X20662Y118124D02*
Y125741D01*
X24471D01*
X25740Y124472D01*
Y121932D01*
X24471Y120663D01*
X20662D01*
X23201D02*
X25740Y118124D01*
X-33020Y126997D02*
Y119380D01*
X-27942D01*
X110490Y54610D02*
Y62227D01*
X114299D01*
X115568Y60958D01*
Y58419D01*
X114299Y57149D01*
X110490D01*
X113029D02*
X115568Y54610D01*
X-114300Y63497D02*
Y55880D01*
X-109222D01*
X128524Y468883D02*
Y476501D01*
X133602Y468883D01*
Y476501D01*
X141220Y475231D02*
X139950Y476501D01*
X137411D01*
X136142Y475231D01*
Y470153D01*
X137411Y468883D01*
X139950D01*
X141220Y470153D01*
X151377Y468883D02*
Y473961D01*
X153916Y476501D01*
X156455Y473961D01*
Y468883D01*
Y472692D01*
X151377D01*
X164072Y476501D02*
Y468883D01*
X160264D01*
X158994Y470153D01*
Y472692D01*
X160264Y473961D01*
X164072D01*
X166612Y466344D02*
X167881D01*
X169151Y467614D01*
Y473961D01*
X-163576Y480311D02*
Y475232D01*
X-161037Y472693D01*
X-158498Y475232D01*
Y480311D01*
X-154689Y472693D02*
X-152150D01*
X-150880Y473963D01*
Y476502D01*
X-152150Y477771D01*
X-154689D01*
X-155958Y476502D01*
Y473963D01*
X-154689Y472693D01*
X-148341D02*
X-145802D01*
X-147071D01*
Y480311D01*
X-148341D01*
X-141993Y477771D02*
Y473963D01*
X-140723Y472693D01*
X-136915D01*
Y477771D01*
X-134375Y472693D02*
Y477771D01*
X-133106D01*
X-131836Y476502D01*
Y472693D01*
Y476502D01*
X-130567Y477771D01*
X-129297Y476502D01*
Y472693D01*
X-122949D02*
X-125488D01*
X-126758Y473963D01*
Y476502D01*
X-125488Y477771D01*
X-122949D01*
X-121680Y476502D01*
Y475232D01*
X-126758D01*
X-111523Y472693D02*
Y477771D01*
X-108984Y480311D01*
X-106445Y477771D01*
Y472693D01*
Y476502D01*
X-111523D01*
X-98827Y480311D02*
Y472693D01*
X-102636D01*
X-103905Y473963D01*
Y476502D01*
X-102636Y477771D01*
X-98827D01*
X-96288Y470154D02*
X-95018D01*
X-93749Y471424D01*
Y477771D01*
X121925Y351791D02*
Y359408D01*
X125734D01*
X127004Y358139D01*
Y355600D01*
X125734Y354330D01*
X121925D01*
X124465D02*
X127004Y351791D01*
X129543Y350521D02*
X134621D01*
X138430Y351791D02*
X140969D01*
X142239Y353060D01*
Y355600D01*
X140969Y356869D01*
X138430D01*
X137160Y355600D01*
Y353060D01*
X138430Y351791D01*
X144778Y349252D02*
Y356869D01*
X148587D01*
X149856Y355600D01*
Y353060D01*
X148587Y351791D01*
X144778D01*
X152395D02*
X154935D01*
X153665D01*
Y359408D01*
X152395Y358139D01*
X-50798Y380999D02*
Y374651D01*
X-49528Y373381D01*
X-46989D01*
X-45720Y374651D01*
Y380999D01*
X-38102Y373381D02*
X-43180D01*
X-38102Y378459D01*
Y379729D01*
X-39372Y380999D01*
X-41911D01*
X-43180Y379729D01*
X75184Y208533D02*
X73915Y209803D01*
X71376D01*
X70106Y208533D01*
Y203455D01*
X71376Y202185D01*
X73915D01*
X75184Y203455D01*
X82802Y209803D02*
X77724D01*
Y205994D01*
X80263Y207264D01*
X81532D01*
X82802Y205994D01*
Y203455D01*
X81532Y202185D01*
X78993D01*
X77724Y203455D01*
X155194Y311403D02*
X153925Y312673D01*
X151386D01*
X150116Y311403D01*
Y306325D01*
X151386Y305055D01*
X153925D01*
X155194Y306325D01*
X157734Y311403D02*
X159003Y312673D01*
X161542D01*
X162812Y311403D01*
Y310134D01*
X161542Y308864D01*
X162812Y307594D01*
Y306325D01*
X161542Y305055D01*
X159003D01*
X157734Y306325D01*
Y307594D01*
X159003Y308864D01*
X157734Y310134D01*
Y311403D01*
X159003Y308864D02*
X161542D01*
D17*
X140888Y168910D02*
Y146055D01*
X141976Y168910D02*
Y146055D01*
X155036Y168910D02*
Y146055D01*
X156125Y168910D02*
Y146055D01*
X137623Y168910D02*
X145241D01*
X151771D02*
X159390D01*
X141976Y158027D02*
X155036D01*
X137623Y146055D02*
X145241D01*
X151771D02*
X159390D01*
X163199Y154762D02*
X176259D01*
Y156938D01*
X175171Y159115D01*
X174082Y160203D01*
X171906Y161292D01*
X168641D01*
X165376Y160203D01*
X163199Y158027D01*
X162111Y154762D01*
Y152585D01*
X163199Y149320D01*
X165376Y147143D01*
X168641Y146055D01*
X170817D01*
X174082Y147143D01*
X176259Y149320D01*
X175171Y154762D02*
Y158027D01*
X174082Y160203D01*
X168641Y161292D02*
X166464Y160203D01*
X164287Y158027D01*
X163199Y154762D01*
Y152585D01*
X164287Y149320D01*
X166464Y147143D01*
X168641Y146055D01*
X183007Y161292D02*
Y146055D01*
X184095Y161292D02*
Y146055D01*
Y154762D02*
X185183Y158027D01*
X187360Y160203D01*
X189537Y161292D01*
X192802D01*
X193890Y160203D01*
Y159115D01*
X192802Y158027D01*
X191714Y159115D01*
X192802Y160203D01*
X179742Y161292D02*
X184095D01*
X179742Y146055D02*
X187360D01*
X203903D02*
X202815Y147143D01*
X201726Y150408D01*
Y168910D01*
X200638D01*
Y150408D01*
X201726Y147143D01*
X203903Y146055D01*
X206080D01*
X208256Y147143D01*
X209345Y149320D01*
X197373Y161292D02*
X206080D01*
X225017D02*
X213045Y146055D01*
X226105Y161292D02*
X214133Y146055D01*
Y161292D02*
X213045Y156938D01*
Y161292D01*
X226105D01*
X213045Y146055D02*
X226105D01*
Y150408D01*
X225017Y146055D01*
M02*
