G04*
G04 #@! TF.GenerationSoftware,Altium Limited,Altium Designer,25.4.2 (15)*
G04*
G04 Layer_Physical_Order=2*
G04 Layer_Color=16711680*
%FSLAX44Y44*%
%MOMM*%
G71*
G04*
G04 #@! TF.SameCoordinates,62EAB3CA-F57F-4EB5-889C-6781DB4FDDE6*
G04*
G04*
G04 #@! TF.FilePolarity,Positive*
G04*
G01*
G75*
%ADD13C,0.5080*%
%ADD15C,0.3810*%
%ADD22R,1.2000X1.2000*%
%ADD58C,1.9000*%
%ADD59R,1.9000X1.9000*%
%ADD60C,1.2000*%
%ADD71C,0.7620*%
%ADD74C,1.5750*%
%ADD75R,1.5750X1.5750*%
%ADD76C,1.8034*%
%ADD77R,1.5750X1.5750*%
%ADD78C,1.6000*%
%ADD79R,1.6000X1.6000*%
%ADD80O,2.6160X1.3080*%
%ADD81O,1.3080X2.6160*%
%ADD82C,0.6000*%
%ADD83C,3.4000*%
%ADD84C,1.2700*%
%ADD85C,1.1430*%
G36*
X24673Y550956D02*
X39549Y549150D01*
X54289Y546448D01*
X68839Y542862D01*
X83145Y538404D01*
X97157Y533090D01*
X110822Y526940D01*
X124090Y519976D01*
X136914Y512224D01*
X149247Y503711D01*
X161043Y494470D01*
X172260Y484533D01*
X182856Y473937D01*
X192793Y462720D01*
X202034Y450924D01*
X210547Y438591D01*
X218300Y425767D01*
X225263Y412499D01*
X231413Y398834D01*
X236727Y384822D01*
X241185Y370515D01*
X244772Y355966D01*
X247473Y341226D01*
X249279Y326350D01*
X250184Y311392D01*
Y303900D01*
X250184Y203900D01*
Y196407D01*
X249279Y181449D01*
X247473Y166573D01*
X244772Y151833D01*
X241185Y137284D01*
X236727Y122977D01*
X231413Y108966D01*
X225263Y95301D01*
X218299Y82032D01*
X210547Y69208D01*
X202034Y56875D01*
X192793Y45080D01*
X182856Y33863D01*
X172260Y23267D01*
X161043Y13330D01*
X149247Y4088D01*
X136915Y-4424D01*
X124090Y-12177D01*
X110822Y-19141D01*
X97157Y-25291D01*
X83145Y-30605D01*
X68839Y-35063D01*
X54289Y-38649D01*
X39549Y-41350D01*
X24673Y-43156D01*
X9715Y-44061D01*
X-5270D01*
X-20228Y-43156D01*
X-35104Y-41350D01*
X-49843Y-38649D01*
X-64393Y-35063D01*
X-78699Y-30605D01*
X-92711Y-25291D01*
X-106376Y-19141D01*
X-119645Y-12177D01*
X-132469Y-4425D01*
X-144802Y4088D01*
X-156597Y13329D01*
X-167814Y23266D01*
X-178410Y33863D01*
X-188347Y45079D01*
X-197589Y56876D01*
X-206101Y69208D01*
X-213854Y82032D01*
X-220818Y95301D01*
X-226968Y108966D01*
X-232282Y122977D01*
X-236740Y137284D01*
X-240326Y151833D01*
X-243027Y166573D01*
X-244833Y181449D01*
X-245738Y196407D01*
Y203900D01*
Y303900D01*
Y311392D01*
X-244833Y326350D01*
X-243027Y341226D01*
X-240326Y355966D01*
X-236740Y370515D01*
X-232282Y384822D01*
X-226968Y398834D01*
X-220818Y412499D01*
X-213854Y425767D01*
X-206101Y438591D01*
X-197589Y450924D01*
X-188347Y462719D01*
X-178410Y473936D01*
X-167814Y484532D01*
X-156597Y494470D01*
X-144801Y503711D01*
X-132469Y512224D01*
X-119644Y519976D01*
X-106376Y526940D01*
X-92711Y533090D01*
X-78700Y538404D01*
X-64393Y542862D01*
X-49843Y546448D01*
X-35104Y549150D01*
X-20228Y550956D01*
X-5270Y551861D01*
X9715D01*
X24673Y550956D01*
D02*
G37*
%LPC*%
G36*
X184Y507365D02*
X-254D01*
Y497332D01*
X9779D01*
Y497770D01*
X9026Y500581D01*
X7571Y503100D01*
X5514Y505157D01*
X2995Y506612D01*
X184Y507365D01*
D02*
G37*
G36*
X-2286D02*
X-2725D01*
X-5535Y506612D01*
X-8054Y505157D01*
X-10112Y503100D01*
X-11566Y500581D01*
X-12319Y497770D01*
Y497332D01*
X-2286D01*
Y507365D01*
D02*
G37*
G36*
X35236D02*
X32327D01*
X29517Y506612D01*
X26998Y505157D01*
X24941Y503100D01*
X23486Y500581D01*
X22733Y497770D01*
Y494861D01*
X23486Y492051D01*
X24941Y489532D01*
X26998Y487474D01*
X29517Y486020D01*
X32327Y485267D01*
X35236D01*
X38047Y486020D01*
X40566Y487474D01*
X42623Y489532D01*
X44078Y492051D01*
X44831Y494861D01*
Y497770D01*
X44078Y500581D01*
X42623Y503100D01*
X40566Y505157D01*
X38047Y506612D01*
X35236Y507365D01*
D02*
G37*
G36*
X9779Y495300D02*
X-254D01*
Y485267D01*
X184D01*
X2995Y486020D01*
X5514Y487474D01*
X7571Y489532D01*
X9026Y492051D01*
X9779Y494861D01*
Y495300D01*
D02*
G37*
G36*
X-2286D02*
X-12319D01*
Y494861D01*
X-11566Y492051D01*
X-10112Y489532D01*
X-8054Y487474D01*
X-5535Y486020D01*
X-2725Y485267D01*
X-2286D01*
Y495300D01*
D02*
G37*
G36*
X-34867Y507365D02*
X-37777D01*
X-40587Y506612D01*
X-43106Y505157D01*
X-45163Y503100D01*
X-46618Y500581D01*
X-47371Y497770D01*
Y494861D01*
X-46618Y492051D01*
X-45163Y489532D01*
X-43106Y487474D01*
X-40587Y486020D01*
X-37777Y485267D01*
X-34867D01*
X-32057Y486020D01*
X-29538Y487474D01*
X-27481Y489532D01*
X-26026Y492051D01*
X-25273Y494861D01*
Y497770D01*
X-26026Y500581D01*
X-27481Y503100D01*
X-29538Y505157D01*
X-32057Y506612D01*
X-34867Y507365D01*
D02*
G37*
G36*
X31496Y461558D02*
X31496Y461558D01*
X21336D01*
X20543Y461400D01*
X19871Y460951D01*
X19871Y460951D01*
X-13812Y427268D01*
X-39624D01*
X-39624Y427268D01*
X-40417Y427110D01*
X-41089Y426661D01*
X-48709Y419041D01*
X-49158Y418369D01*
X-49316Y417576D01*
X-49316Y417576D01*
Y357474D01*
X-67792Y338998D01*
X-68241Y338326D01*
X-68399Y337533D01*
X-69342Y336246D01*
X-71516Y336042D01*
X-82486Y347012D01*
X-81644Y349044D01*
X-80533D01*
X-78684Y349810D01*
X-77268Y351225D01*
X-76502Y353075D01*
Y355077D01*
X-77268Y356926D01*
X-77520Y357178D01*
Y385456D01*
X-77825Y386992D01*
X-78696Y388294D01*
X-117547Y427146D01*
Y441283D01*
X-137361D01*
Y428613D01*
X-139393Y427772D01*
X-141926Y430305D01*
X-142547Y430720D01*
Y432680D01*
X-143222Y435200D01*
X-144527Y437459D01*
X-146371Y439303D01*
X-148630Y440608D01*
X-151150Y441283D01*
X-153759D01*
X-156278Y440608D01*
X-158537Y439303D01*
X-160382Y437459D01*
X-161686Y435200D01*
X-162361Y432680D01*
Y430071D01*
X-161686Y427552D01*
X-160382Y425293D01*
X-158537Y423448D01*
X-156278Y422144D01*
X-153759Y421469D01*
X-151150D01*
X-148630Y422144D01*
X-146404Y423429D01*
X-143898Y420922D01*
X-143701Y420628D01*
X-139798Y416725D01*
X-139504Y416528D01*
X-107138Y384163D01*
Y361973D01*
X-106833Y360437D01*
X-105962Y359135D01*
X-76809Y329981D01*
X-81729Y325061D01*
X-82178Y324389D01*
X-82336Y323596D01*
X-82336Y323596D01*
X-82336Y264356D01*
X-84213Y263579D01*
X-89548Y268913D01*
Y309238D01*
X-87901Y310885D01*
X-86610Y312817D01*
X-86157Y315097D01*
Y321907D01*
X-86610Y324186D01*
X-87901Y326119D01*
X-89834Y327410D01*
X-92113Y327863D01*
X-94393Y327410D01*
X-96325Y326119D01*
X-97616Y324186D01*
X-98070Y321907D01*
Y317564D01*
X-99716Y315918D01*
X-101007Y313985D01*
X-101461Y311706D01*
Y266446D01*
X-101007Y264166D01*
X-99716Y262234D01*
X-95597Y258115D01*
X-96196Y255840D01*
X-97085Y255472D01*
X-98500Y254056D01*
X-99266Y252207D01*
Y250205D01*
X-98500Y248355D01*
X-97085Y246940D01*
X-95235Y246174D01*
X-94879D01*
X-88149Y239444D01*
X-88927Y237567D01*
X-121732D01*
Y251618D01*
X-137796D01*
Y237567D01*
X-148618D01*
X-183302Y272251D01*
Y286638D01*
X-203366D01*
Y266574D01*
X-188979D01*
X-156020Y233615D01*
X-156798Y231737D01*
X-159034D01*
X-160818Y231383D01*
X-162330Y230372D01*
X-180197Y212505D01*
X-181077Y212605D01*
X-182522Y213054D01*
X-183328Y214259D01*
X-201362Y232294D01*
Y237003D01*
X-201092Y237159D01*
X-199597Y238654D01*
X-198540Y240486D01*
X-197992Y242528D01*
Y244643D01*
X-198540Y246686D01*
X-199597Y248518D01*
X-201092Y250013D01*
X-202924Y251070D01*
X-204967Y251618D01*
X-207082D01*
X-209124Y251070D01*
X-210956Y250013D01*
X-212451Y248518D01*
X-213509Y246686D01*
X-214056Y244643D01*
Y242528D01*
X-213509Y240486D01*
X-212451Y238654D01*
X-210956Y237159D01*
X-210686Y237003D01*
Y230363D01*
X-210331Y228579D01*
X-209320Y227067D01*
X-191286Y209032D01*
Y206406D01*
X-191196Y205955D01*
Y194914D01*
X-175132D01*
Y204385D01*
X-157103Y222414D01*
X-120991D01*
X-120213Y220537D01*
X-159137Y181612D01*
X-159428Y181178D01*
X-180736D01*
Y158114D01*
X-159806D01*
Y148336D01*
X-159806Y148336D01*
X-159648Y147543D01*
X-159199Y146871D01*
X-159199Y146871D01*
X-150309Y137981D01*
X-149986Y137765D01*
X-149667Y137544D01*
X-149651Y137541D01*
X-149637Y137532D01*
X-149256Y137456D01*
X-148877Y137374D01*
X-68867Y136104D01*
X-68851Y136107D01*
X-68834Y136104D01*
X-68453Y136180D01*
X-68072Y136249D01*
X-68058Y136258D01*
X-68041Y136262D01*
X-67719Y136477D01*
X-67393Y136688D01*
X-67383Y136701D01*
X-67369Y136711D01*
X-50859Y153221D01*
X-50410Y153893D01*
X-50252Y154686D01*
X-50252Y154686D01*
Y222414D01*
X-36216D01*
X-31130Y217329D01*
X-30936Y216860D01*
X-29520Y215444D01*
X-27671Y214678D01*
X-25669D01*
X-23820Y215444D01*
X-22404Y216860D01*
X-21638Y218709D01*
Y220711D01*
X-22404Y222560D01*
X-23820Y223976D01*
X-25139Y224522D01*
X-28278Y227661D01*
X-27500Y229539D01*
X65913D01*
X67449Y229844D01*
X68751Y230714D01*
X103261Y265224D01*
X103617D01*
X105466Y265990D01*
X106882Y267405D01*
X107648Y269255D01*
Y271257D01*
X106882Y273106D01*
X105466Y274522D01*
X103617Y275288D01*
X101615D01*
X99766Y274522D01*
X98350Y273106D01*
X97584Y271257D01*
Y270901D01*
X64250Y237567D01*
X22077D01*
X21299Y239444D01*
X86196Y304342D01*
X116024D01*
X116276Y304090D01*
X116642Y301739D01*
X106965Y292061D01*
X102627D01*
X101091Y291755D01*
X99789Y290885D01*
X85713Y276810D01*
X81588D01*
X81336Y277062D01*
X79487Y277828D01*
X77485D01*
X75635Y277062D01*
X74220Y275646D01*
X73454Y273797D01*
Y271795D01*
X74220Y269945D01*
X75635Y268530D01*
X77485Y267764D01*
X79487D01*
X81336Y268530D01*
X81588Y268782D01*
X87376D01*
X88912Y269087D01*
X90214Y269957D01*
X104290Y284033D01*
X108627D01*
X110163Y284338D01*
X111466Y285208D01*
X128901Y302644D01*
X129771Y303946D01*
X130077Y305482D01*
Y311229D01*
X129771Y312765D01*
X128901Y314068D01*
X122123Y320846D01*
X120820Y321716D01*
X119284Y322022D01*
X104448D01*
X104196Y322274D01*
X102347Y323040D01*
X100345D01*
X98496Y322274D01*
X97080Y320858D01*
X96314Y319009D01*
Y317007D01*
X97080Y315157D01*
X97836Y314402D01*
X96994Y312370D01*
X84534D01*
X82998Y312064D01*
X81695Y311194D01*
X30380Y259879D01*
X28503Y260657D01*
Y262720D01*
X19612D01*
Y253829D01*
X21675D01*
X22452Y251951D01*
X14164Y243663D01*
X-37914D01*
X-39086Y245695D01*
X-38748Y247396D01*
X-39201Y249675D01*
X-40492Y251608D01*
X-42425Y252899D01*
X-44704Y253352D01*
X-50252D01*
Y312972D01*
X-48382D01*
X-46250Y313543D01*
X-44339Y314647D01*
X-42778Y316208D01*
X-41675Y318119D01*
X-41104Y320251D01*
Y322458D01*
X-41217Y322882D01*
X-40368Y323732D01*
X-39918Y324404D01*
X-39761Y325197D01*
X-38530Y326876D01*
X-38220Y327075D01*
X-14351D01*
X-12815Y327380D01*
X-11513Y328250D01*
X-879Y338884D01*
X-523D01*
X1326Y339650D01*
X2742Y341065D01*
X3508Y342915D01*
Y344917D01*
X2742Y346766D01*
X1326Y348182D01*
X-523Y348948D01*
X-2525D01*
X-4374Y348182D01*
X-5790Y346766D01*
X-6556Y344917D01*
Y344561D01*
X-16014Y335103D01*
X-26342D01*
X-27120Y336980D01*
X-11004Y353096D01*
X-10555Y353768D01*
X-10397Y354561D01*
X-10555Y355353D01*
X-10834Y356027D01*
Y357205D01*
X-10384Y358293D01*
X-9551Y359125D01*
X-8463Y359576D01*
X-7285D01*
X-6612Y359297D01*
X-5819Y359139D01*
X-5458Y359211D01*
X-5026Y359297D01*
X-4354Y359746D01*
X-3105Y360995D01*
X-1187Y361951D01*
X432Y360709D01*
X2316Y359928D01*
X4338Y359662D01*
X4339Y359662D01*
X8165D01*
X9780Y358048D01*
X10408Y356960D01*
X11968Y355399D01*
X13880Y354296D01*
X16012Y353725D01*
X18219D01*
X20350Y354296D01*
X22262Y355399D01*
X23822Y356960D01*
X24926Y358871D01*
X25497Y361003D01*
Y363210D01*
X24926Y365342D01*
X23822Y367253D01*
X22262Y368814D01*
X20350Y369917D01*
X19887Y370042D01*
X16927Y373001D01*
X15309Y374243D01*
X14865Y374427D01*
X13798Y376879D01*
X13816Y376965D01*
X13922Y377222D01*
Y377578D01*
X26724Y390380D01*
X41132D01*
X42536Y388458D01*
Y386457D01*
X43302Y384607D01*
X44717Y383192D01*
X46567Y382425D01*
X48568D01*
X50418Y383192D01*
X50670Y383443D01*
X84081D01*
X97332Y370193D01*
Y367338D01*
X97080Y367086D01*
X96314Y365237D01*
Y363235D01*
X97080Y361385D01*
X98496Y359970D01*
X100345Y359204D01*
X102347D01*
X104196Y359970D01*
X105612Y361385D01*
X106378Y363235D01*
Y365237D01*
X105612Y367086D01*
X105360Y367338D01*
Y371856D01*
X105055Y373392D01*
X104184Y374694D01*
X90530Y388348D01*
X91372Y390380D01*
X155123D01*
X157528Y387975D01*
Y387619D01*
X158294Y385770D01*
X159710Y384354D01*
X161559Y383588D01*
X163561D01*
X165410Y384354D01*
X166826Y385770D01*
X167592Y387619D01*
Y389621D01*
X166826Y391470D01*
X165410Y392886D01*
X163561Y393652D01*
X163205D01*
X159624Y397233D01*
X158322Y398103D01*
X156785Y398409D01*
X39267D01*
X37816Y399917D01*
X38117Y401534D01*
X102616D01*
X103409Y401692D01*
X104081Y402141D01*
X104081Y402141D01*
X106621Y404681D01*
X106621Y404681D01*
X106919Y405127D01*
X107070Y405353D01*
Y405353D01*
X107070Y405353D01*
X107141Y405711D01*
X107228Y406146D01*
X107228Y406146D01*
X107227Y425196D01*
X107070Y425989D01*
X107070Y425989D01*
X107070Y425989D01*
X106621Y426661D01*
X106620Y426661D01*
X101541Y431741D01*
X101541Y431741D01*
X100869Y432190D01*
X100869Y432190D01*
X100551Y432253D01*
X100076Y432348D01*
X100076Y432348D01*
X45466D01*
X45466Y432348D01*
X44673Y432190D01*
X44001Y431741D01*
X44001Y431741D01*
X39255Y426995D01*
X37378Y427772D01*
Y455676D01*
X37378Y455676D01*
X37220Y456469D01*
X36771Y457141D01*
X32961Y460951D01*
X32289Y461400D01*
X31496Y461558D01*
D02*
G37*
G36*
X165463Y437643D02*
X145649D01*
Y417829D01*
X165463D01*
Y437643D01*
D02*
G37*
G36*
X131860D02*
X129252D01*
X126732Y436968D01*
X124473Y435663D01*
X122628Y433819D01*
X121324Y431560D01*
X120649Y429040D01*
Y426432D01*
X121324Y423912D01*
X122628Y421653D01*
X124473Y419808D01*
X126732Y418504D01*
X129252Y417829D01*
X131860D01*
X134380Y418504D01*
X136639Y419808D01*
X138483Y421653D01*
X139788Y423912D01*
X140463Y426432D01*
Y429040D01*
X139788Y431560D01*
X138483Y433819D01*
X136639Y435663D01*
X134380Y436968D01*
X131860Y437643D01*
D02*
G37*
G36*
X230633Y294133D02*
X210819D01*
Y274319D01*
X230633D01*
Y294133D01*
D02*
G37*
G36*
X-146213Y286638D02*
X-148855D01*
X-151406Y285954D01*
X-153694Y284633D01*
X-155562Y282766D01*
X-156882Y280478D01*
X-157566Y277927D01*
Y275285D01*
X-156882Y272734D01*
X-155562Y270446D01*
X-153694Y268578D01*
X-151406Y267257D01*
X-148855Y266574D01*
X-146213D01*
X-143662Y267257D01*
X-141374Y268578D01*
X-139506Y270446D01*
X-138186Y272734D01*
X-137502Y275285D01*
Y277927D01*
X-138186Y280478D01*
X-139506Y282766D01*
X-141374Y284633D01*
X-143662Y285954D01*
X-146213Y286638D01*
D02*
G37*
G36*
X-169113D02*
X-171755D01*
X-174306Y285954D01*
X-176594Y284633D01*
X-178462Y282766D01*
X-179782Y280478D01*
X-180466Y277927D01*
Y275285D01*
X-179782Y272734D01*
X-178462Y270446D01*
X-176594Y268578D01*
X-174306Y267257D01*
X-171755Y266574D01*
X-169113D01*
X-166562Y267257D01*
X-164274Y268578D01*
X-162407Y270446D01*
X-161086Y272734D01*
X-160402Y275285D01*
Y277927D01*
X-161086Y280478D01*
X-162407Y282766D01*
X-164274Y284633D01*
X-166562Y285954D01*
X-169113Y286638D01*
D02*
G37*
G36*
X28503Y273643D02*
X19612D01*
Y264752D01*
X28503D01*
Y273643D01*
D02*
G37*
G36*
X17580D02*
X8689D01*
Y264752D01*
X17580D01*
Y273643D01*
D02*
G37*
G36*
X222030Y269133D02*
X221742D01*
Y260242D01*
X230633D01*
Y260530D01*
X229958Y263050D01*
X228654Y265309D01*
X226809Y267153D01*
X224550Y268458D01*
X222030Y269133D01*
D02*
G37*
G36*
X219710D02*
X219422D01*
X216902Y268458D01*
X214643Y267153D01*
X212798Y265309D01*
X211494Y263050D01*
X210819Y260530D01*
Y260242D01*
X219710D01*
Y269133D01*
D02*
G37*
G36*
X17580Y262720D02*
X8689D01*
Y253829D01*
X17580D01*
Y262720D01*
D02*
G37*
G36*
X-5100Y273643D02*
X-7708D01*
X-10228Y272967D01*
X-12487Y271663D01*
X-14332Y269819D01*
X-15636Y267560D01*
X-16311Y265040D01*
Y262431D01*
X-15636Y259912D01*
X-14332Y257653D01*
X-12487Y255808D01*
X-10228Y254504D01*
X-7708Y253829D01*
X-5100D01*
X-2580Y254504D01*
X-321Y255808D01*
X1524Y257653D01*
X2828Y259912D01*
X3503Y262431D01*
Y265040D01*
X2828Y267560D01*
X1524Y269819D01*
X-321Y271663D01*
X-2580Y272967D01*
X-5100Y273643D01*
D02*
G37*
G36*
X230633Y258210D02*
X221742D01*
Y249319D01*
X222030D01*
X224550Y249994D01*
X226809Y251298D01*
X228654Y253143D01*
X229958Y255402D01*
X230633Y257921D01*
Y258210D01*
D02*
G37*
G36*
X219710D02*
X210819D01*
Y257921D01*
X211494Y255402D01*
X212798Y253143D01*
X214643Y251298D01*
X216902Y249994D01*
X219422Y249319D01*
X219710D01*
Y258210D01*
D02*
G37*
G36*
X11210Y122683D02*
X8602D01*
X6082Y122008D01*
X3823Y120703D01*
X1978Y118859D01*
X674Y116600D01*
X-1Y114080D01*
Y111472D01*
X674Y108952D01*
X1978Y106693D01*
X3823Y104848D01*
X6082Y103544D01*
X8602Y102869D01*
X11210D01*
X13730Y103544D01*
X15989Y104848D01*
X17833Y106693D01*
X19138Y108952D01*
X19813Y111472D01*
Y114080D01*
X19138Y116600D01*
X17833Y118859D01*
X15989Y120703D01*
X13730Y122008D01*
X11210Y122683D01*
D02*
G37*
G36*
X-5187D02*
X-25001D01*
Y102869D01*
X-5187D01*
Y122683D01*
D02*
G37*
G36*
X2135Y59516D02*
X-103D01*
X-2265Y58937D01*
X-4203Y57818D01*
X-5786Y56235D01*
X-6905Y54297D01*
X-7484Y52135D01*
Y49897D01*
X-6905Y47735D01*
X-5786Y45797D01*
X-4203Y44214D01*
X-2265Y43095D01*
X-103Y42516D01*
X2135D01*
X4297Y43095D01*
X6235Y44214D01*
X7818Y45797D01*
X8937Y47735D01*
X9516Y49897D01*
Y52135D01*
X8937Y54297D01*
X7818Y56235D01*
X6235Y57818D01*
X4297Y58937D01*
X2135Y59516D01*
D02*
G37*
G36*
X51016Y66202D02*
X48778Y65907D01*
X46693Y65044D01*
X44902Y63670D01*
X43528Y61879D01*
X42665Y59794D01*
X42370Y57556D01*
Y44476D01*
X42665Y42238D01*
X43528Y40153D01*
X44902Y38362D01*
X46693Y36988D01*
X48778Y36125D01*
X51016Y35830D01*
X53254Y36125D01*
X55339Y36988D01*
X57130Y38362D01*
X58503Y40153D01*
X59367Y42238D01*
X59662Y44476D01*
Y57556D01*
X59367Y59794D01*
X58503Y61879D01*
X57130Y63670D01*
X55339Y65044D01*
X53254Y65907D01*
X51016Y66202D01*
D02*
G37*
G36*
X-48984D02*
X-51222Y65907D01*
X-53307Y65044D01*
X-55097Y63670D01*
X-56472Y61879D01*
X-57335Y59794D01*
X-57630Y57556D01*
Y44476D01*
X-57335Y42238D01*
X-56472Y40153D01*
X-55097Y38362D01*
X-53307Y36988D01*
X-51222Y36125D01*
X-48984Y35830D01*
X-46746Y36125D01*
X-44661Y36988D01*
X-42870Y38362D01*
X-41496Y40153D01*
X-40633Y42238D01*
X-40338Y44476D01*
Y57556D01*
X-40633Y59794D01*
X-41496Y61879D01*
X-42870Y63670D01*
X-44661Y65044D01*
X-46746Y65907D01*
X-48984Y66202D01*
D02*
G37*
G36*
X7556Y9662D02*
X2032D01*
Y2032D01*
X16068D01*
X15907Y3254D01*
X15044Y5339D01*
X13670Y7130D01*
X11879Y8504D01*
X9794Y9367D01*
X7556Y9662D01*
D02*
G37*
G36*
X0D02*
X-5524D01*
X-7762Y9367D01*
X-9847Y8504D01*
X-11638Y7130D01*
X-13012Y5339D01*
X-13875Y3254D01*
X-14036Y2032D01*
X0D01*
Y9662D01*
D02*
G37*
G36*
X52135Y9516D02*
X49897D01*
X47735Y8937D01*
X45797Y7818D01*
X44214Y6235D01*
X43095Y4297D01*
X42516Y2135D01*
Y-103D01*
X43095Y-2265D01*
X44214Y-4203D01*
X45797Y-5786D01*
X47735Y-6905D01*
X49897Y-7484D01*
X52135D01*
X54297Y-6905D01*
X56235Y-5786D01*
X57818Y-4203D01*
X58937Y-2265D01*
X59516Y-103D01*
Y2135D01*
X58937Y4297D01*
X57818Y6235D01*
X56235Y7818D01*
X54297Y8937D01*
X52135Y9516D01*
D02*
G37*
G36*
X-47865D02*
X-50103D01*
X-52265Y8937D01*
X-54203Y7818D01*
X-55786Y6235D01*
X-56905Y4297D01*
X-57484Y2135D01*
Y-103D01*
X-56905Y-2265D01*
X-55786Y-4203D01*
X-54203Y-5786D01*
X-52265Y-6905D01*
X-50103Y-7484D01*
X-47865D01*
X-45703Y-6905D01*
X-43765Y-5786D01*
X-42182Y-4203D01*
X-41063Y-2265D01*
X-40484Y-103D01*
Y2135D01*
X-41063Y4297D01*
X-42182Y6235D01*
X-43765Y7818D01*
X-45703Y8937D01*
X-47865Y9516D01*
D02*
G37*
G36*
X16068Y0D02*
X2032D01*
Y-7630D01*
X7556D01*
X9794Y-7335D01*
X11879Y-6472D01*
X13670Y-5098D01*
X15044Y-3307D01*
X15907Y-1222D01*
X16068Y0D01*
D02*
G37*
G36*
X0D02*
X-14036D01*
X-13875Y-1222D01*
X-13012Y-3307D01*
X-11638Y-5098D01*
X-9847Y-6472D01*
X-7762Y-7335D01*
X-5524Y-7630D01*
X0D01*
Y0D01*
D02*
G37*
G36*
X52135Y-15484D02*
X49897D01*
X47735Y-16063D01*
X45797Y-17183D01*
X44214Y-18765D01*
X43095Y-20703D01*
X42516Y-22865D01*
Y-25103D01*
X43095Y-27265D01*
X44214Y-29203D01*
X45797Y-30786D01*
X47735Y-31905D01*
X49897Y-32484D01*
X52135D01*
X54297Y-31905D01*
X56235Y-30786D01*
X57818Y-29203D01*
X58937Y-27265D01*
X59516Y-25103D01*
Y-22865D01*
X58937Y-20703D01*
X57818Y-18765D01*
X56235Y-17183D01*
X54297Y-16063D01*
X52135Y-15484D01*
D02*
G37*
G36*
X-47865D02*
X-50103D01*
X-52265Y-16063D01*
X-54203Y-17183D01*
X-55786Y-18765D01*
X-56905Y-20703D01*
X-57484Y-22865D01*
Y-25103D01*
X-56905Y-27265D01*
X-55786Y-29203D01*
X-54203Y-30786D01*
X-52265Y-31905D01*
X-50103Y-32484D01*
X-47865D01*
X-45703Y-31905D01*
X-43765Y-30786D01*
X-42182Y-29203D01*
X-41063Y-27265D01*
X-40484Y-25103D01*
Y-22865D01*
X-41063Y-20703D01*
X-42182Y-18765D01*
X-43765Y-17183D01*
X-45703Y-16063D01*
X-47865Y-15484D01*
D02*
G37*
%LPD*%
G36*
X35306Y455676D02*
Y420116D01*
X45466Y430276D01*
X100076D01*
X105155Y425196D01*
X105156Y406146D01*
X102616Y403606D01*
X35306D01*
Y399796D01*
X32766D01*
X31379Y398409D01*
X25062D01*
X23525Y398103D01*
X22223Y397233D01*
X8245Y383255D01*
X7889D01*
X6040Y382489D01*
X4624Y381073D01*
X2864Y380743D01*
X1210Y382196D01*
Y388596D01*
X8885Y396270D01*
X9973Y396898D01*
X11533Y398459D01*
X12637Y400370D01*
X13208Y402502D01*
Y404709D01*
X12637Y406841D01*
X11533Y408753D01*
X9973Y410313D01*
X8061Y411417D01*
X5929Y411988D01*
X3722D01*
X1591Y411417D01*
X-321Y410313D01*
X-1881Y408753D01*
X-2985Y406841D01*
X-3109Y406378D01*
X-12129Y397357D01*
X-13371Y395739D01*
X-14152Y393854D01*
X-14418Y391832D01*
Y378419D01*
X-14152Y376396D01*
X-13371Y374512D01*
X-12129Y372893D01*
X-3133Y363897D01*
X-5819Y361211D01*
X-6873Y361648D01*
X-8875D01*
X-10725Y360882D01*
X-12140Y359466D01*
X-12906Y357617D01*
Y355615D01*
X-12469Y354561D01*
X-31927Y335103D01*
X-43319D01*
X-43689Y335350D01*
X-45225Y335655D01*
X-65550D01*
X-66327Y337533D01*
X-47244Y356616D01*
Y417576D01*
X-39624Y425196D01*
X-12954D01*
X21336Y459486D01*
X31496D01*
X35306Y455676D01*
D02*
G37*
G36*
X-74328Y327933D02*
X-72792Y327627D01*
X-46578D01*
X-46208Y327380D01*
X-44672Y327075D01*
X-42610D01*
X-41833Y325197D01*
X-52324Y314706D01*
Y253352D01*
X-73987D01*
X-80264Y259629D01*
X-80264Y323596D01*
D01*
Y323596D01*
X-80264Y323596D01*
D01*
X-75287Y328573D01*
X-74328Y327933D01*
D02*
G37*
G36*
X-52324Y154686D02*
X-68834Y138176D01*
X-148844Y139446D01*
X-157734Y148336D01*
Y158114D01*
X-157672D01*
Y162208D01*
X-155640Y162752D01*
X-155532Y162565D01*
X-153385Y160418D01*
X-150755Y158900D01*
X-147822Y158114D01*
X-147320D01*
Y169646D01*
Y181178D01*
X-147822D01*
X-150755Y180392D01*
X-153385Y178874D01*
X-155532Y176727D01*
X-155640Y176539D01*
X-157672Y177084D01*
Y180147D01*
X-115406Y222414D01*
X-52324D01*
Y154686D01*
D02*
G37*
%LPC*%
G36*
X-105847Y210978D02*
X-107962D01*
X-110004Y210430D01*
X-111836Y209373D01*
X-113331Y207878D01*
X-114389Y206046D01*
X-114936Y204003D01*
Y201888D01*
X-114389Y199846D01*
X-113331Y198014D01*
X-111836Y196519D01*
X-110004Y195461D01*
X-107962Y194914D01*
X-105847D01*
X-103804Y195461D01*
X-101972Y196519D01*
X-100477Y198014D01*
X-99419Y199846D01*
X-98872Y201888D01*
Y204003D01*
X-99419Y206046D01*
X-100477Y207878D01*
X-101972Y209373D01*
X-103804Y210430D01*
X-105847Y210978D01*
D02*
G37*
G36*
X-121886Y181178D02*
X-124922D01*
X-127855Y180392D01*
X-130485Y178874D01*
X-132632Y176727D01*
X-133739Y174810D01*
X-133810Y174782D01*
X-135899D01*
X-135970Y174810D01*
X-137076Y176727D01*
X-139223Y178874D01*
X-141853Y180392D01*
X-144786Y181178D01*
X-145288D01*
Y169646D01*
Y158114D01*
X-144786D01*
X-141853Y158900D01*
X-139223Y160418D01*
X-137076Y162565D01*
X-135970Y164482D01*
X-135899Y164510D01*
X-133810D01*
X-133739Y164482D01*
X-132632Y162565D01*
X-130485Y160418D01*
X-127855Y158900D01*
X-124922Y158114D01*
X-121886D01*
X-118953Y158900D01*
X-116323Y160418D01*
X-114176Y162565D01*
X-112658Y165195D01*
X-111872Y168128D01*
Y171164D01*
X-112658Y174097D01*
X-114176Y176727D01*
X-116323Y178874D01*
X-118953Y180392D01*
X-121886Y181178D01*
D02*
G37*
%LPD*%
D13*
X-26919Y219710D02*
X-26670D01*
X-34285Y227076D02*
X-26919Y219710D01*
X-159034Y227076D02*
X-34285D01*
X-183164Y202946D02*
X-159034Y227076D01*
X-186624Y206406D02*
X-183164Y202946D01*
X-206024Y230363D02*
Y243586D01*
Y230363D02*
X-186624Y210963D01*
Y206406D02*
Y210963D01*
D15*
X47568Y387458D02*
X85744D01*
X101346Y371856D01*
X156785Y394394D02*
X162560Y388620D01*
X25062Y394394D02*
X156785D01*
X8890Y378223D02*
X25062Y394394D01*
X101346Y364236D02*
Y371856D01*
X108627Y288047D02*
X126063Y305482D01*
Y311229D01*
X102627Y288047D02*
X108627D01*
X119284Y318008D02*
X126063Y311229D01*
X84534Y308356D02*
X119126D01*
X101346Y318008D02*
X119284D01*
X15827Y239649D02*
X84534Y308356D01*
X87376Y272796D02*
X102627Y288047D01*
X-82677Y239649D02*
X15827D01*
X-94234Y251206D02*
X-82677Y239649D01*
X-127454Y431376D02*
X-81534Y385456D01*
Y354076D02*
Y385456D01*
X-92113Y321907D02*
X-91694Y322326D01*
X-14351Y331089D02*
X-1524Y343916D01*
X-44672Y331089D02*
X-14351D01*
X-72792Y331641D02*
X-45225D01*
X-44672Y331089D01*
X-103124Y361973D02*
X-72792Y331641D01*
X65913Y233553D02*
X102616Y270256D01*
X-150281Y233553D02*
X65913D01*
X-140862Y423466D02*
X-136960Y419564D01*
X-145314Y427466D02*
X-144765D01*
X-140862Y423466D02*
Y423564D01*
X-144765Y427466D02*
X-140862Y423564D01*
X-152454Y431376D02*
X-149223D01*
X-145314Y427466D01*
X-103124Y361973D02*
Y385826D01*
X-136862Y419564D02*
X-103124Y385826D01*
X-136960Y419564D02*
X-136862D01*
X78486Y272796D02*
X87376D01*
X-193334Y276606D02*
X-150281Y233553D01*
D22*
X-129764Y243586D02*
D03*
X-183164Y202946D02*
D03*
D58*
X-146304Y169646D02*
D03*
X-123404D02*
D03*
D59*
X-169204D02*
D03*
D60*
X-206024Y243586D02*
D03*
X-106904Y202946D02*
D03*
X-48984Y-23984D02*
D03*
Y1016D02*
D03*
X1016Y51016D02*
D03*
X51016Y-23984D02*
D03*
Y1016D02*
D03*
D71*
X-95504Y266446D02*
X-76454Y247396D01*
X-44704D01*
X-95504Y266446D02*
Y311706D01*
X-92113Y315097D02*
Y321907D01*
X-95504Y311706D02*
X-92113Y315097D01*
D74*
X-6404Y263736D02*
D03*
X-152454Y431376D02*
D03*
X220726Y259226D02*
D03*
X130556Y427736D02*
D03*
X9906Y112776D02*
D03*
D75*
X18596Y263736D02*
D03*
X-127454Y431376D02*
D03*
X155556Y427736D02*
D03*
X-15094Y112776D02*
D03*
D76*
X-36322Y496316D02*
D03*
X-1270D02*
D03*
X33782D02*
D03*
D77*
X220726Y284226D02*
D03*
D78*
X-147534Y276606D02*
D03*
X-170434D02*
D03*
D79*
X-193334D02*
D03*
D80*
X1016Y1016D02*
D03*
D81*
X51016Y51016D02*
D03*
X-48984D02*
D03*
D82*
X-26670Y219710D02*
D03*
X162560Y388620D02*
D03*
X8890Y378223D02*
D03*
X36576Y414353D02*
D03*
X119126Y308356D02*
D03*
X-44704Y247396D02*
D03*
X-94234Y251206D02*
D03*
X-81534Y354076D02*
D03*
X-35814Y361894D02*
D03*
X-91694Y322326D02*
D03*
X102616Y270256D02*
D03*
X101346Y318008D02*
D03*
X98806Y423926D02*
D03*
X-82804Y436626D02*
D03*
X-29464Y446786D02*
D03*
X47568Y387458D02*
D03*
X-87884Y158496D02*
D03*
X-7874Y356616D02*
D03*
X-53594Y359036D02*
D03*
X-1524Y343916D02*
D03*
X49668Y362703D02*
D03*
X101346Y364236D02*
D03*
X78486Y272796D02*
D03*
D83*
X195000Y370000D02*
D03*
X-195000Y110000D02*
D03*
Y370000D02*
D03*
X195000Y110000D02*
D03*
D84*
X-106934Y500126D02*
D03*
X83566Y509016D02*
D03*
X17115Y362107D02*
D03*
X-49486Y321354D02*
D03*
X-66294Y211836D02*
D03*
Y261366D02*
D03*
X4826Y403606D02*
D03*
X-40894Y341376D02*
D03*
D85*
X16771Y362107D02*
X17115D01*
X11402Y367476D02*
X16771Y362107D01*
X-6604Y378419D02*
Y391832D01*
Y378419D02*
X4338Y367476D01*
X11402D01*
X4826Y403262D02*
Y403606D01*
X-6604Y391832D02*
X4826Y403262D01*
M02*
